<svg width="170" height="25" viewBox="0 0 170 25" fill="none" xmlns="http://www.w3.org/2000/svg">
<path d="M14.6532 20.1929H5.38347L3.79073 24.7135H0L7.93186 2.55624H12.1367L20.0686 24.7135H16.246L14.6532 20.1929ZM13.6339 17.2322L10.0343 6.9495L6.40283 17.2322H13.6339Z" fill="#444444"/>
<path d="M114.411 2.58808L106.097 24.7135H101.892L93.5463 2.58808H97.4326L103.995 20.9888L110.589 2.58808H114.411Z" fill="#444444"/>
<path d="M121.239 7.17234V24.7135H117.607V7.17234H121.239Z" fill="#444444"/>
<path d="M142.253 15.5132C142.253 16.1711 142.21 16.7653 142.125 17.2959H128.714C128.821 18.6967 129.341 19.8215 130.275 20.6704C131.21 21.5194 132.356 21.9439 133.716 21.9439C135.669 21.9439 137.05 21.1267 137.857 19.4925H141.775C141.244 21.1055 140.278 22.432 138.876 23.4719C137.496 24.4907 135.776 25 133.716 25C132.038 25 130.53 24.6286 129.192 23.8858C127.876 23.1218 126.835 22.0606 126.07 20.7023C125.327 19.3228 124.955 17.731 124.955 15.927C124.955 14.123 125.317 12.5419 126.039 11.1836C126.782 9.80405 127.812 8.74288 129.128 8.00006C130.466 7.25724 131.995 6.88583 133.716 6.88583C135.372 6.88583 136.848 7.24662 138.143 7.96822C139.439 8.68982 140.448 9.70854 141.17 11.0244C141.892 12.319 142.253 13.8153 142.253 15.5132ZM138.462 14.3671C138.441 13.03 137.963 11.9582 137.028 11.1517C136.094 10.3452 134.937 9.942 133.556 9.942C132.303 9.942 131.231 10.3452 130.339 11.1517C129.447 11.937 128.916 13.0088 128.746 14.3671H138.462Z" fill="#444444"/>
<path d="M169.558 7.17234L164.111 24.7135H160.289L156.753 11.7566L153.217 24.7135H149.394L143.915 7.17234H147.61L151.274 21.2753L155.001 7.17234H158.791L162.359 21.2116L165.991 7.17234H169.558Z" fill="#444444"/>
<path d="M43.2674 24.7135H37.8202L28.7097 10.9289V24.7135H23.2625V2.36523H28.7097L37.8202 16.2135V2.36523H43.2674V24.7135Z" fill="#444444"/>
<path d="M64.1308 15.545C64.1308 16.0543 64.099 16.5849 64.0353 17.1367H51.7074C51.7924 18.2404 52.1428 19.0893 52.7586 19.6836C53.3957 20.2566 54.1709 20.5431 55.0841 20.5431C56.4432 20.5431 57.3882 19.9701 57.9191 18.824H63.7167C63.4194 19.9913 62.8779 21.0419 62.0921 21.9757C61.3276 22.9095 60.3613 23.6417 59.1933 24.1723C58.0253 24.7029 56.7193 24.9682 55.2752 24.9682C53.5338 24.9682 51.9835 24.5968 50.6244 23.854C49.2652 23.1111 48.2034 22.05 47.4389 20.6704C46.6744 19.2909 46.2921 17.6779 46.2921 15.8315C46.2921 13.9851 46.6637 12.3721 47.407 10.9926C48.1715 9.61304 49.2334 8.55186 50.5925 7.80904C51.9517 7.06622 53.5125 6.69481 55.2752 6.69481C56.9953 6.69481 58.5244 7.05561 59.8623 7.77721C61.2002 8.49881 62.2408 9.52814 62.9841 10.8652C63.7486 12.2023 64.1308 13.7622 64.1308 15.545ZM58.5562 14.1124C58.5562 13.1786 58.2377 12.4358 57.6006 11.8839C56.9635 11.3321 56.1671 11.0562 55.2115 11.0562C54.2983 11.0562 53.5232 11.3215 52.8861 11.8521C52.2702 12.3827 51.8879 13.1361 51.7393 14.1124H58.5562Z" fill="#444444"/>
<path d="M92.6795 6.9495L87.8694 24.7135H81.8489L79.0456 13.1892L76.1468 24.7135H70.1581L65.3162 6.9495H70.7634L73.2799 19.6517L76.2743 6.9495H82.04L85.0662 19.588L87.5509 6.9495H92.6795Z" fill="#444444"/>
<path d="M117.799 4.18008C118.245 4.62577 118.797 4.84862 119.455 4.84862C120.092 4.84862 120.634 4.62577 121.08 4.18008C121.526 3.73439 121.749 3.18258 121.749 2.52465C121.749 1.86672 121.526 1.31491 121.08 0.869223C120.634 0.42353 120.092 0.200684 119.455 0.200684C118.797 0.200684 118.245 0.42353 117.799 0.869223C117.353 1.31491 117.13 1.86672 117.13 2.52465C117.13 3.18258 117.353 3.73439 117.799 4.18008Z" fill="#444444"/>
<path d="M43.2674 24.7135H37.8202L28.7097 10.9289V24.7135H23.2625V2.36523H28.7097L37.8202 16.2135V2.36523H43.2674V24.7135Z" fill="black"/>
<path d="M64.1308 15.545C64.1308 16.0543 64.099 16.5849 64.0353 17.1367H51.7074C51.7924 18.2404 52.1428 19.0893 52.7586 19.6836C53.3957 20.2566 54.1709 20.5431 55.084 20.5431C56.4432 20.5431 57.3882 19.9701 57.9191 18.824H63.7167C63.4194 19.9913 62.8779 21.0419 62.0921 21.9757C61.3276 22.9095 60.3613 23.6417 59.1933 24.1723C58.0253 24.7029 56.7193 24.9682 55.2752 24.9682C53.5338 24.9682 51.9835 24.5968 50.6244 23.854C49.2652 23.1111 48.2034 22.05 47.4389 20.6704C46.6744 19.2909 46.2921 17.6779 46.2921 15.8315C46.2921 13.9851 46.6637 12.3721 47.407 10.9926C48.1715 9.61304 49.2334 8.55186 50.5925 7.80904C51.9516 7.06622 53.5125 6.69481 55.2752 6.69481C56.9953 6.69481 58.5244 7.05561 59.8623 7.77721C61.2002 8.49881 62.2408 9.52814 62.9841 10.8652C63.7486 12.2023 64.1308 13.7622 64.1308 15.545ZM58.5562 14.1124C58.5562 13.1786 58.2377 12.4358 57.6006 11.8839C56.9635 11.3321 56.1671 11.0562 55.2115 11.0562C54.2983 11.0562 53.5232 11.3215 52.8861 11.8521C52.2702 12.3827 51.8879 13.1361 51.7393 14.1124H58.5562Z" fill="black"/>
<path d="M92.6795 6.94949L87.8694 24.7135H81.8489L79.0456 13.1892L76.1468 24.7135H70.1581L65.3162 6.94949H70.7634L73.2799 19.6517L76.2742 6.94949H82.04L85.0662 19.588L87.5509 6.94949H92.6795Z" fill="black"/>
</svg>
