<svg width="94" height="50" viewBox="0 0 94 50" fill="none" xmlns="http://www.w3.org/2000/svg">
<g clip-path="url(#clip0_17:62)">
<path d="M35.7268 40.2108L35.2172 41.4577H36.2363L35.7268 40.2108ZM36.8884 43.0673L36.5377 42.2047H34.9158L34.5651 43.0673H33.7048L35.3487 39.1945H36.1268L37.7706 43.0673H36.8884" fill="#58347F"/>
<path d="M40.1487 42.9821C39.9659 43.0828 39.7285 43.1332 39.4362 43.1332C39.2171 43.1332 39.0135 43.0929 38.8253 43.0122C38.6371 42.9318 38.4755 42.8228 38.3405 42.6855C38.2052 42.548 38.0994 42.387 38.0225 42.2021C37.9458 42.0172 37.9075 41.8201 37.9075 41.6114V41.6005C37.9075 41.3918 37.9458 41.194 38.0225 41.0072C38.0994 40.8205 38.2052 40.6576 38.3405 40.5183C38.4755 40.3791 38.6371 40.2693 38.8253 40.1887C39.0135 40.1081 39.2207 40.0677 39.4472 40.0677C39.7248 40.0677 39.9549 40.1118 40.1376 40.1997C40.3203 40.2876 40.481 40.4085 40.6198 40.5622L40.1102 41.1117C40.0152 41.0128 39.9176 40.934 39.8171 40.8754C39.7166 40.8169 39.5915 40.7875 39.4417 40.7875C39.3357 40.7875 39.2399 40.8086 39.1541 40.8507C39.0682 40.8929 38.9933 40.9506 38.9295 41.0236C38.8655 41.0969 38.8162 41.1822 38.7816 41.279C38.7467 41.3762 38.7295 41.4797 38.7295 41.5895V41.6005C38.7295 41.7141 38.7467 41.8201 38.7816 41.919C38.8162 42.0179 38.8664 42.1041 38.9321 42.1774C38.9979 42.2506 39.0765 42.3083 39.1677 42.3503C39.259 42.3925 39.3614 42.4135 39.4746 42.4135C39.6135 42.4135 39.7349 42.3852 39.839 42.3284C39.9431 42.2717 40.0463 42.1957 40.1487 42.1003L40.6362 42.5947C40.4939 42.7523 40.3313 42.8814 40.1487 42.9821" fill="#58347F"/>
<path d="M43.0909 42.9821C42.9082 43.0828 42.6708 43.1332 42.3786 43.1332C42.1594 43.1332 41.9558 43.0929 41.7677 43.0122C41.5795 42.9318 41.4178 42.8228 41.2827 42.6855C41.1476 42.548 41.0416 42.387 40.9649 42.2021C40.8882 42.0172 40.8499 41.8201 40.8499 41.6114V41.6005C40.8499 41.3918 40.8882 41.194 40.9649 41.0072C41.0416 40.8205 41.1476 40.6576 41.2827 40.5183C41.4178 40.3791 41.5795 40.2693 41.7677 40.1887C41.9558 40.1081 42.163 40.0677 42.3896 40.0677C42.6672 40.0677 42.8973 40.1118 43.08 40.1997C43.2627 40.2876 43.4233 40.4085 43.5622 40.5622L43.0526 41.1117C42.9576 41.0128 42.8599 40.934 42.7594 40.8754C42.6589 40.8169 42.5339 40.7875 42.3841 40.7875C42.2781 40.7875 42.1822 40.8086 42.0964 40.8507C42.0106 40.8929 41.9357 40.9506 41.8718 41.0236C41.8079 41.0969 41.7586 41.1822 41.7238 41.279C41.6891 41.3762 41.6718 41.4797 41.6718 41.5895V41.6005C41.6718 41.7141 41.6891 41.8201 41.7238 41.919C41.7586 42.0179 41.8088 42.1041 41.8745 42.1774C41.9403 42.2506 42.0188 42.3083 42.1101 42.3503C42.2014 42.3925 42.3038 42.4135 42.417 42.4135C42.5558 42.4135 42.6772 42.3852 42.7814 42.3284C42.8855 42.2717 42.9887 42.1957 43.0909 42.1003L43.5786 42.5947C43.4361 42.7523 43.2736 42.8814 43.0909 42.9821" fill="#58347F"/>
<path d="M45.7294 40.9412C45.4517 40.9412 45.2336 41.0256 45.0747 41.194C44.9156 41.3625 44.8363 41.6244 44.8363 41.9796V43.0673H44.0034V40.1228H44.8363V40.7161C44.9202 40.5146 45.0353 40.3535 45.1815 40.2327C45.3275 40.1118 45.5247 40.0568 45.7733 40.0678V40.9412H45.7294Z" fill="#58347F"/>
<path d="M47.9202 40.9111C47.8141 40.7956 47.6735 40.7379 47.4982 40.7379C47.323 40.7379 47.1813 40.7948 47.0735 40.9084C46.9658 41.0219 46.8955 41.1739 46.8626 41.3643H48.1175C48.0918 41.1775 48.026 41.0265 47.9202 40.9111V40.9111ZM48.9256 41.7819C48.9237 41.8112 48.921 41.8459 48.9175 41.8862H46.8737C46.9138 42.0766 46.9968 42.2203 47.1229 42.3174C47.2489 42.4144 47.405 42.463 47.5913 42.463C47.7301 42.463 47.8545 42.4392 47.964 42.3916C48.0735 42.344 48.1867 42.267 48.3037 42.1609L48.7804 42.5839C48.6415 42.7559 48.4735 42.8906 48.2763 42.9876C48.079 43.0845 47.847 43.1332 47.5804 43.1332C47.3613 43.1332 47.1576 43.0965 46.9696 43.0233C46.7813 42.9501 46.6187 42.8457 46.4819 42.7101C46.3448 42.5747 46.238 42.4144 46.1612 42.2296C46.0845 42.0446 46.0461 41.8386 46.0461 41.6114V41.6005C46.0461 41.3918 46.0818 41.194 46.153 41.0072C46.2242 40.8205 46.3237 40.6576 46.4516 40.5183C46.5795 40.3791 46.7319 40.2693 46.9092 40.1887C47.0864 40.1081 47.2826 40.0677 47.4982 40.0677C47.7429 40.0677 47.9549 40.1118 48.1339 40.1997C48.3128 40.2876 48.4616 40.4056 48.5805 40.5541C48.6991 40.7022 48.7867 40.8727 48.8434 41.0649C48.9001 41.2572 48.9285 41.4577 48.9285 41.6665V41.6774C48.9285 41.7178 48.9275 41.7525 48.9256 41.7819" fill="#58347F"/>
<path d="M51.5903 41.5896C51.5903 41.4678 51.571 41.3564 51.5328 41.255C51.4943 41.1536 51.4431 41.067 51.3792 40.995C51.3153 40.9231 51.2404 40.8678 51.1546 40.8291C51.0688 40.7904 50.9765 40.7711 50.8778 40.7711C50.7792 40.7711 50.6869 40.7904 50.6011 40.8291C50.5153 40.8678 50.4395 40.9231 50.3737 40.995C50.308 41.067 50.2559 41.1527 50.2176 41.2522C50.1792 41.3517 50.16 41.4642 50.16 41.5896V41.6005C50.16 41.7222 50.1792 41.8339 50.2176 41.9352C50.2559 42.0365 50.308 42.1232 50.3737 42.1951C50.4395 42.267 50.5153 42.3223 50.6011 42.3609C50.6869 42.3997 50.7792 42.4189 50.8778 42.4189C50.9765 42.4189 51.0688 42.3997 51.1546 42.3609C51.2404 42.3223 51.3153 42.267 51.3792 42.1951C51.4431 42.1232 51.4943 42.0365 51.5328 41.9352C51.571 41.8339 51.5903 41.7222 51.5903 41.6005V41.5896ZM51.5792 43.0673V42.6479C51.4769 42.7861 51.3536 42.8996 51.2094 42.9887C51.065 43.0777 50.8833 43.1223 50.6641 43.1223C50.4924 43.1223 50.3262 43.0891 50.1655 43.0233C50.0047 42.9575 49.8623 42.8596 49.7381 42.7295C49.6138 42.5995 49.5143 42.4402 49.4395 42.2514C49.3645 42.0629 49.3271 41.8459 49.3271 41.6005V41.5896C49.3271 41.3443 49.3645 41.1273 49.4395 40.9386C49.5143 40.75 49.613 40.5907 49.7354 40.4607C49.8577 40.3307 49.9993 40.2327 50.16 40.1667C50.3207 40.1009 50.4888 40.0678 50.6641 40.0678C50.8869 40.0678 51.0705 40.1115 51.2148 40.1986C51.359 40.2859 51.4806 40.3878 51.5792 40.5039V39.0571H52.4121V43.0673H51.5792Z" fill="#58347F"/>
<path d="M53.1069 43.0673V40.1228H53.9398V43.0673H53.1069ZM53.085 39.7988V39.0571H53.9618V39.7988H53.085Z" fill="#58347F"/>
<path d="M55.9867 43.07C55.8807 43.101 55.7583 43.1167 55.6195 43.1167C55.4916 43.1167 55.3757 43.103 55.2716 43.0755C55.1675 43.048 55.0778 42.9996 55.0031 42.9299C54.9281 42.8603 54.8696 42.7698 54.8278 42.6579C54.7858 42.5463 54.7647 42.4044 54.7647 42.2322V40.8368H54.4141V40.1228H54.7647V39.3701H55.5976V40.1228H56.288V40.8368H55.5976V42.095C55.5976 42.2854 55.687 42.3806 55.866 42.3806C56.0121 42.3806 56.1492 42.3458 56.2771 42.2762V42.9464C56.1894 42.9977 56.0926 43.0389 55.9867 43.07" fill="#58347F"/>
<path d="M58.5133 40.9111C58.4073 40.7956 58.2667 40.7379 58.0913 40.7379C57.9159 40.7379 57.7744 40.7948 57.6666 40.9084C57.5588 41.0219 57.4886 41.1739 57.4557 41.3643H58.7105C58.6849 41.1775 58.6191 41.0265 58.5133 40.9111V40.9111ZM59.5187 41.7819C59.5169 41.8112 59.514 41.8459 59.5105 41.8862H57.4667C57.5068 42.0766 57.59 42.2203 57.716 42.3174C57.842 42.4144 57.9982 42.463 58.1845 42.463C58.3232 42.463 58.4475 42.4392 58.5571 42.3916C58.6667 42.344 58.7799 42.267 58.8967 42.1609L59.3735 42.5839C59.2346 42.7559 59.0667 42.8906 58.8694 42.9876C58.6722 43.0845 58.44 43.1332 58.1735 43.1332C57.9543 43.1332 57.7506 43.0965 57.5626 43.0233C57.3744 42.9501 57.2119 42.8457 57.0749 42.7101C56.9379 42.5747 56.8311 42.4144 56.7544 42.2296C56.6776 42.0446 56.6392 41.8386 56.6392 41.6114V41.6005C56.6392 41.3918 56.6749 41.194 56.7461 41.0072C56.8174 40.8205 56.9169 40.6576 57.0446 40.5183C57.1727 40.3791 57.325 40.2693 57.5023 40.1887C57.6794 40.1081 57.8758 40.0677 58.0913 40.0677C58.3359 40.0677 58.548 40.1118 58.727 40.1997C58.9059 40.2876 59.0547 40.4056 59.1735 40.5541C59.2921 40.7022 59.3798 40.8727 59.4364 41.0649C59.4931 41.2572 59.5215 41.4577 59.5215 41.6665V41.6774C59.5215 41.7178 59.5205 41.7525 59.5187 41.7819" fill="#58347F"/>
<path d="M62.1833 41.5896C62.1833 41.4678 62.1641 41.3564 62.1258 41.255C62.0874 41.1536 62.0361 41.067 61.9724 40.995C61.9083 40.9231 61.8334 40.8678 61.7477 40.8291C61.6619 40.7904 61.5695 40.7711 61.4709 40.7711C61.3722 40.7711 61.2799 40.7904 61.1943 40.8291C61.1083 40.8678 61.0326 40.9231 60.9667 40.995C60.901 41.067 60.8489 41.1527 60.8107 41.2522C60.7723 41.3517 60.7532 41.4642 60.7532 41.5896V41.6005C60.7532 41.7222 60.7723 41.8339 60.8107 41.9352C60.8489 42.0365 60.901 42.1232 60.9667 42.1951C61.0326 42.267 61.1083 42.3223 61.1943 42.3609C61.2799 42.3997 61.3722 42.4189 61.4709 42.4189C61.5695 42.4189 61.6619 42.3997 61.7477 42.3609C61.8334 42.3223 61.9083 42.267 61.9724 42.1951C62.0361 42.1232 62.0874 42.0365 62.1258 41.9352C62.1641 41.8339 62.1833 41.7222 62.1833 41.6005V41.5896ZM62.1722 43.0673V42.6479C62.07 42.7861 61.9467 42.8996 61.8024 42.9887C61.658 43.0777 61.4763 43.1223 61.2572 43.1223C61.0856 43.1223 60.9193 43.0891 60.7587 43.0233C60.5979 42.9575 60.4553 42.8596 60.3312 42.7295C60.207 42.5995 60.1073 42.4402 60.0326 42.2514C59.9576 42.0629 59.9202 41.8459 59.9202 41.6005V41.5896C59.9202 41.3443 59.9576 41.1273 60.0326 40.9386C60.1073 40.75 60.206 40.5907 60.3284 40.4607C60.4508 40.3307 60.5924 40.2327 60.7532 40.1667C60.9138 40.1009 61.0818 40.0678 61.2572 40.0678C61.4801 40.0678 61.6635 40.1115 61.8078 40.1986C61.9522 40.2859 62.0736 40.3878 62.1722 40.5039V39.0571H63.0052V43.0673H62.1722" fill="#58347F"/>
<path d="M68.3325 42.7322C68.2264 42.8165 68.1105 42.8888 67.9845 42.9491C67.8585 43.0096 67.7206 43.0554 67.5708 43.0865C67.421 43.1176 67.253 43.1332 67.0667 43.1332C66.7854 43.1332 66.5243 43.0819 66.2832 42.9794C66.0421 42.8769 65.8337 42.7368 65.6585 42.5591C65.4832 42.3815 65.3461 42.1719 65.2474 41.93C65.1488 41.6885 65.0996 41.4301 65.0996 41.1556V41.1445C65.0996 40.8699 65.1488 40.6126 65.2474 40.3728C65.3461 40.133 65.4832 39.9222 65.6585 39.7411C65.8337 39.5598 66.0438 39.4168 66.2886 39.3124C66.5333 39.208 66.8037 39.156 67.0996 39.156C67.2785 39.156 67.4421 39.1707 67.59 39.2C67.7379 39.2292 67.8722 39.2696 67.9927 39.3208C68.1133 39.3721 68.2247 39.4343 68.327 39.5076C68.4292 39.5808 68.5242 39.6613 68.6119 39.7491L68.0749 40.37C67.925 40.2346 67.7727 40.1283 67.6174 40.0513C67.4621 39.9744 67.2876 39.9361 67.0941 39.9361C66.9333 39.9361 66.7845 39.9673 66.6475 40.0294C66.5106 40.0918 66.3927 40.1778 66.2941 40.2876C66.1955 40.3975 66.1188 40.5247 66.064 40.6694C66.0092 40.8141 65.9818 40.9688 65.9818 41.1335V41.1445C65.9818 41.3094 66.0092 41.4651 66.064 41.6114C66.1188 41.758 66.1945 41.8862 66.2914 41.9961C66.3881 42.1058 66.5051 42.193 66.6421 42.2569C66.779 42.321 66.9297 42.3531 67.0941 42.3531C67.3133 42.3531 67.4987 42.313 67.6503 42.2322C67.8018 42.1518 67.9525 42.0419 68.1023 41.9027L68.6393 42.4465C68.5407 42.5528 68.4384 42.6479 68.3325 42.7322Z" fill="#58347F"/>
<path d="M71.2763 41.6005C71.2763 41.4907 71.258 41.3873 71.2216 41.2901C71.1849 41.1931 71.1319 41.107 71.0626 41.032C70.9932 40.9568 70.911 40.8974 70.8161 40.8533C70.721 40.8095 70.6169 40.7875 70.5039 40.7875C70.3832 40.7875 70.2763 40.8086 70.1832 40.8507C70.09 40.8929 70.0106 40.9506 69.9448 41.0236C69.8791 41.0969 69.8289 41.1822 69.7941 41.279C69.7594 41.3762 69.7421 41.4797 69.7421 41.5895V41.6005C69.7421 41.7103 69.7604 41.8139 69.7969 41.911C69.8334 42.0079 69.8864 42.0941 69.9558 42.169C70.0252 42.2441 70.1065 42.3036 70.1996 42.3476C70.2928 42.3916 70.3978 42.4135 70.5147 42.4135C70.6352 42.4135 70.7421 42.3925 70.8352 42.3503C70.9284 42.3083 71.0079 42.2506 71.0736 42.1774C71.1394 42.1041 71.1895 42.0189 71.2243 41.9219C71.259 41.8248 71.2763 41.7213 71.2763 41.6114V41.6005ZM71.9777 42.1966C71.8974 42.3815 71.7859 42.5435 71.6435 42.6828C71.501 42.822 71.333 42.9318 71.1394 43.0122C70.9457 43.0929 70.7339 43.1332 70.5039 43.1332C70.2772 43.1332 70.0672 43.0939 69.8736 43.0151C69.6799 42.9363 69.5128 42.8283 69.3722 42.691C69.2316 42.5535 69.121 42.3925 69.0407 42.2076C68.9604 42.0225 68.9202 41.824 68.9202 41.6114V41.6005C68.9202 41.388 68.9604 41.1895 69.0407 41.0044C69.121 40.8196 69.2326 40.6576 69.375 40.5183C69.5174 40.3791 69.6854 40.2693 69.8791 40.1887C70.0727 40.1081 70.2846 40.0677 70.5147 40.0677C70.7412 40.0677 70.9512 40.1074 71.1448 40.186C71.3385 40.2646 71.5055 40.3727 71.6462 40.51C71.7868 40.6474 71.8974 40.8086 71.9777 40.9934C72.058 41.1784 72.0983 41.3772 72.0983 41.5895V41.6005C72.0983 41.8129 72.058 42.0117 71.9777 42.1966" fill="#58347F"/>
<path d="M74.4713 43.0673V41.4288C74.4713 41.2316 74.4273 41.0826 74.3397 40.982C74.2521 40.8818 74.1278 40.8313 73.9672 40.8313C73.8064 40.8313 73.6795 40.8818 73.5862 40.982C73.4931 41.0826 73.4465 41.2316 73.4465 41.4288V43.0673H72.6138V40.1228H73.4465V40.5437C73.494 40.481 73.546 40.421 73.6027 40.3639C73.6593 40.3067 73.7224 40.2561 73.7918 40.2119C73.8611 40.1675 73.9379 40.1326 74.022 40.1067C74.1059 40.0809 74.2009 40.0678 74.3069 40.0678C74.6246 40.0678 74.8703 40.1651 75.0439 40.3589C75.2172 40.5532 75.304 40.8205 75.304 41.1611V43.0673H74.4713Z" fill="#58347F"/>
<path d="M77.2859 43.07C77.1799 43.101 77.0575 43.1167 76.9187 43.1167C76.7908 43.1167 76.6749 43.103 76.5708 43.0755C76.4667 43.048 76.3771 42.9996 76.3023 42.9299C76.2273 42.8603 76.1689 42.7698 76.127 42.6579C76.085 42.5463 76.0639 42.4044 76.0639 42.2322V40.8368H75.7134V40.1228H76.0639V39.3701H76.8968V40.1228H77.5872V40.8368H76.8968V42.095C76.8968 42.2854 76.9862 42.3806 77.1653 42.3806C77.3114 42.3806 77.4484 42.3458 77.5763 42.2762V42.9464C77.4886 42.9977 77.3918 43.0389 77.2859 43.07" fill="#58347F"/>
<path d="M79.8855 40.9412C79.6078 40.9412 79.3896 41.0256 79.2307 41.194C79.0718 41.3625 78.9923 41.6244 78.9923 41.9796V43.0673H78.1594V40.1228H78.9923V40.7161C79.0762 40.5146 79.1913 40.3535 79.3375 40.2327C79.4836 40.1118 79.6809 40.0568 79.9293 40.0678V40.9412H79.8855Z" fill="#58347F"/>
<path d="M82.0154 41.8807C81.9421 41.8478 81.8609 41.8212 81.7715 41.8011C81.6819 41.781 81.5861 41.7709 81.4837 41.7709C81.3048 41.7709 81.164 41.8057 81.0619 41.8752C80.9596 41.9448 80.9084 42.0455 80.9084 42.1774V42.1884C80.9084 42.3019 80.9503 42.3897 81.0345 42.4521C81.1185 42.5143 81.2281 42.5455 81.3633 42.5455C81.5606 42.5455 81.7185 42.4979 81.8371 42.4025C81.9558 42.3074 82.0154 42.1829 82.0154 42.0289V41.8807ZM81.9988 43.0673V42.7487C81.8965 42.8622 81.7741 42.9529 81.6318 43.0206C81.4892 43.0883 81.3157 43.1223 81.1111 43.1223C80.9723 43.1223 80.8418 43.103 80.7195 43.0644C80.5969 43.0261 80.4902 42.9684 80.3989 42.8914C80.3075 42.8145 80.2353 42.7202 80.1824 42.6086C80.1294 42.4969 80.103 42.3678 80.103 42.2212V42.2102C80.103 42.0492 80.1322 41.9101 80.1907 41.7928C80.249 41.6756 80.3304 41.5786 80.4345 41.5017C80.5386 41.4246 80.6628 41.367 80.8071 41.3287C80.9513 41.2901 81.1111 41.271 81.2865 41.271C81.4363 41.271 81.5668 41.2819 81.6784 41.3039C81.7897 41.3258 81.8984 41.3552 82.0043 41.3918V41.3423C82.0043 41.1666 81.9513 41.0329 81.8455 40.9412C81.7394 40.8498 81.5824 40.804 81.3743 40.804C81.2135 40.804 81.0719 40.8177 80.9495 40.8452C80.8271 40.8727 80.6984 40.912 80.5633 40.9633L80.3551 40.3261C80.5157 40.2566 80.6839 40.1997 80.8592 40.1557C81.0345 40.1119 81.2462 40.0899 81.4947 40.0899C81.9513 40.0899 82.2837 40.2016 82.4919 40.425C82.7003 40.6485 82.8044 40.9597 82.8044 41.3588V43.0673H81.9988" fill="#58347F"/>
<path d="M85.537 42.9821C85.3544 43.0828 85.1169 43.1332 84.8248 43.1332C84.6056 43.1332 84.4019 43.0929 84.2137 43.0122C84.0257 42.9318 83.864 42.8228 83.7289 42.6855C83.5937 42.548 83.4877 42.387 83.4111 42.2021C83.3344 42.0172 83.2959 41.8201 83.2959 41.6114V41.6005C83.2959 41.3918 83.3344 41.194 83.4111 41.0072C83.4877 40.8205 83.5937 40.6576 83.7289 40.5183C83.864 40.3791 84.0257 40.2693 84.2137 40.1887C84.4019 40.1081 84.6091 40.0677 84.8357 40.0677C85.1132 40.0677 85.3435 40.1118 85.526 40.1997C85.7087 40.2876 85.8694 40.4085 86.0083 40.5622L85.4988 41.1117C85.4036 41.0128 85.306 40.934 85.2055 40.8754C85.1051 40.8169 84.98 40.7875 84.8303 40.7875C84.7242 40.7875 84.6283 40.8086 84.5426 40.8507C84.4567 40.8929 84.3817 40.9506 84.3178 41.0236C84.2539 41.0969 84.2046 41.1822 84.17 41.279C84.1352 41.3762 84.1179 41.4797 84.1179 41.5895V41.6005C84.1179 41.7141 84.1352 41.8201 84.17 41.919C84.2046 42.0179 84.2548 42.1041 84.3207 42.1774C84.3863 42.2506 84.4649 42.3083 84.5562 42.3503C84.6476 42.3925 84.7498 42.4135 84.863 42.4135C85.0019 42.4135 85.1234 42.3852 85.2275 42.3284C85.3316 42.2717 85.4348 42.1957 85.537 42.1003L86.0247 42.5947C85.8823 42.7523 85.7197 42.8814 85.537 42.9821" fill="#58347F"/>
<path d="M87.8846 43.07C87.7785 43.101 87.6562 43.1167 87.5175 43.1167C87.3895 43.1167 87.2737 43.103 87.1696 43.0755C87.0654 43.048 86.9758 42.9996 86.9011 42.9299C86.8261 42.8603 86.7676 42.7698 86.7256 42.6579C86.6836 42.5463 86.6626 42.4044 86.6626 42.2322V40.8368H86.312V40.1228H86.6626V39.3701H87.4956V40.1228H88.186V40.8368H87.4956V42.095C87.4956 42.2854 87.585 42.3806 87.764 42.3806C87.91 42.3806 88.0472 42.3458 88.175 42.2762V42.9464C88.0874 42.9977 87.9906 43.0389 87.8846 43.07" fill="#58347F"/>
<path d="M90.8928 41.6005C90.8928 41.4907 90.8746 41.3873 90.8381 41.2901C90.8015 41.1931 90.7484 41.107 90.6791 41.032C90.6097 40.9568 90.5275 40.8974 90.4326 40.8533C90.3375 40.8095 90.2334 40.7875 90.1203 40.7875C89.9996 40.7875 89.8929 40.8086 89.7998 40.8507C89.7066 40.8929 89.627 40.9506 89.5614 41.0236C89.4955 41.0969 89.4453 41.1822 89.4107 41.279C89.3758 41.3762 89.3587 41.4797 89.3587 41.5895V41.6005C89.3587 41.7103 89.3768 41.8139 89.4133 41.911C89.4498 42.0079 89.5029 42.0941 89.5724 42.169C89.6416 42.2441 89.723 42.3036 89.8162 42.3476C89.9093 42.3916 90.0142 42.4135 90.1313 42.4135C90.2518 42.4135 90.3585 42.3925 90.4517 42.3503C90.5448 42.3083 90.6244 42.2506 90.69 42.1774C90.7559 42.1041 90.8061 42.0189 90.8407 41.9219C90.8755 41.8248 90.8928 41.7213 90.8928 41.6114V41.6005ZM91.5943 42.1966C91.5138 42.3815 91.4025 42.5435 91.2599 42.6828C91.1176 42.822 90.9494 42.9318 90.7559 43.0122C90.5623 43.0929 90.3504 43.1332 90.1203 43.1332C89.8938 43.1332 89.6837 43.0939 89.49 43.0151C89.2965 42.9363 89.1293 42.8283 88.9887 42.691C88.8481 42.5535 88.7375 42.3925 88.6573 42.2076C88.5768 42.0225 88.5366 41.824 88.5366 41.6114V41.6005C88.5366 41.388 88.5768 41.1895 88.6573 41.0044C88.7375 40.8196 88.8491 40.6576 88.9915 40.5183C89.1339 40.3791 89.302 40.2693 89.4955 40.1887C89.6892 40.1081 89.901 40.0677 90.1313 40.0677C90.3577 40.0677 90.5677 40.1074 90.7613 40.186C90.9549 40.2646 91.122 40.3727 91.2628 40.51C91.4034 40.6474 91.5138 40.8086 91.5943 40.9934C91.6745 41.1784 91.7148 41.3772 91.7148 41.5895V41.6005C91.7148 41.8129 91.6745 42.0117 91.5943 42.1966" fill="#58347F"/>
<path d="M93.956 40.9412C93.6783 40.9412 93.4601 41.0256 93.3012 41.194C93.1424 41.3625 93.0629 41.6244 93.0629 41.9796V43.0673H92.23V40.1228H93.0629V40.7161C93.1469 40.5146 93.2619 40.3535 93.4081 40.2327C93.5542 40.1118 93.7514 40.0568 93.9999 40.0678V40.9412H93.956Z" fill="#58347F"/>
<path d="M36.7231 49.5989C36.6171 49.6832 36.5012 49.7555 36.3752 49.8158C36.2491 49.8764 36.1111 49.9222 35.9615 49.9533C35.8115 49.9844 35.6437 50 35.4574 50C35.1759 50 34.9149 49.9487 34.6738 49.8462C34.4327 49.7436 34.2245 49.6036 34.0491 49.4258C33.8738 49.2482 33.7368 49.0386 33.6382 48.7968C33.5395 48.5552 33.4902 48.2969 33.4902 48.0224V48.0112C33.4902 47.7367 33.5395 47.4794 33.6382 47.2395C33.7368 46.9997 33.8738 46.7889 34.0491 46.6078C34.2245 46.4265 34.4344 46.2835 34.6793 46.1792C34.9239 46.0748 35.1943 46.0228 35.4902 46.0228C35.6692 46.0228 35.8327 46.0375 35.9806 46.0667C36.1286 46.0959 36.2628 46.1364 36.3834 46.1876C36.5039 46.2389 36.6153 46.301 36.7176 46.3744C36.8199 46.4476 36.9149 46.528 37.0026 46.6159L36.4656 47.2368C36.3158 47.1014 36.1632 46.9951 36.008 46.918C35.8526 46.8411 35.6783 46.8028 35.4847 46.8028C35.3239 46.8028 35.1752 46.8341 35.0382 46.8962C34.9012 46.9585 34.7834 47.0445 34.6848 47.1544C34.5861 47.2642 34.5094 47.3915 34.4546 47.5362C34.3998 47.6809 34.3724 47.8356 34.3724 48.0002V48.0112C34.3724 48.1762 34.3998 48.3319 34.4546 48.4782C34.5094 48.6248 34.5851 48.753 34.682 48.8629C34.7786 48.9726 34.8957 49.0597 35.0327 49.1236C35.1697 49.1878 35.3204 49.2199 35.4847 49.2199C35.7039 49.2199 35.8892 49.1797 36.0409 49.099C36.1925 49.0185 36.343 48.9087 36.493 48.7695L37.0299 49.3133C36.9313 49.4196 36.829 49.5147 36.7231 49.5989Z" fill="#58347F"/>
<path d="M39.9808 49.9341V48.3903H38.4248V49.9341H37.5808V46.0887H38.4248V47.6103H39.9808V46.0887H40.8248V49.9341H39.9808Z" fill="#58347F"/>
<path d="M43.3268 47.0775L42.8173 48.3245H43.8364L43.3268 47.0775ZM44.4885 49.9341L44.1378 49.0715H42.5159L42.1652 49.9341H41.3049L42.9488 46.0612H43.7268L45.3707 49.9341H44.4885Z" fill="#58347F"/>
<path d="M48.5488 49.3051C48.4797 49.4534 48.3837 49.5779 48.2603 49.6786C48.1368 49.7793 47.9896 49.8563 47.8183 49.9092C47.6473 49.9623 47.4577 49.989 47.2495 49.989C46.9572 49.989 46.6705 49.9386 46.3892 49.8379C46.1079 49.7372 45.8522 49.5824 45.6221 49.3736L46.1207 48.7749C46.296 48.9178 46.476 49.0313 46.6604 49.1156C46.8449 49.1998 47.0467 49.2419 47.266 49.2419C47.4414 49.2419 47.5774 49.2098 47.6741 49.1456C47.771 49.0816 47.8193 48.9929 47.8193 48.8792V48.8683C47.8193 48.8134 47.8091 48.7649 47.7892 48.7227C47.769 48.6807 47.7305 48.6413 47.6736 48.6045C47.617 48.5681 47.5381 48.5314 47.4375 48.4947C47.3368 48.4581 47.2059 48.4198 47.0447 48.3793C46.8505 48.3319 46.6747 48.2787 46.5172 48.2201C46.3597 48.1614 46.2261 48.0892 46.1162 48.0031C46.0063 47.917 45.9212 47.81 45.8607 47.6818C45.8003 47.5536 45.77 47.3942 45.77 47.2037V47.1929C45.77 47.017 45.8026 46.8587 45.868 46.7177C45.9333 46.5767 46.0249 46.4549 46.1429 46.3523C46.2609 46.2499 46.4016 46.1711 46.5655 46.1162C46.7292 46.0612 46.9097 46.0336 47.107 46.0336C47.3883 46.0336 47.6467 46.0759 47.8823 46.1601C48.1181 46.2444 48.3345 46.3653 48.5318 46.5225L48.0932 47.1599C47.9216 47.0427 47.7537 46.9503 47.5893 46.8824C47.4248 46.8147 47.2604 46.7809 47.096 46.7809C46.9317 46.7809 46.8084 46.813 46.7262 46.8769C46.644 46.941 46.6029 47.0208 46.6029 47.1158V47.1268C46.6029 47.1891 46.6148 47.2432 46.6386 47.289C46.6624 47.3347 46.7054 47.3759 46.7678 47.4125C46.8299 47.4492 46.9152 47.484 47.0232 47.5168C47.1313 47.55 47.2678 47.5884 47.4327 47.6323C47.6267 47.6836 47.7996 47.7413 47.9517 47.8054C48.1036 47.8695 48.2319 47.9464 48.3363 48.036C48.4406 48.1259 48.5193 48.2311 48.5726 48.352C48.6257 48.4728 48.6522 48.6175 48.6522 48.7858V48.7968C48.6522 48.9874 48.6176 49.1568 48.5488 49.3051" fill="#58347F"/>
<path d="M49.2888 49.9341V49.0552H50.171V49.9341H49.2888Z" fill="#58347F"/>
<path d="M52.8646 49.8489C52.6819 49.9495 52.4446 50 52.1523 50C51.9331 50 51.7295 49.9596 51.5413 49.879C51.3532 49.7986 51.1915 49.6896 51.0564 49.5523C50.9212 49.4148 50.8153 49.2537 50.7387 49.0689C50.6619 48.8839 50.6235 48.6869 50.6235 48.4782V48.4673C50.6235 48.2586 50.6619 48.0608 50.7387 47.874C50.8153 47.6873 50.9212 47.5243 51.0564 47.3851C51.1915 47.2459 51.3532 47.136 51.5413 47.0555C51.7295 46.9748 51.9367 46.9345 52.1633 46.9345C52.4408 46.9345 52.671 46.9786 52.8537 47.0665C53.0364 47.1544 53.197 47.2753 53.3359 47.4289L52.8263 47.9784C52.7313 47.8795 52.6335 47.8008 52.5331 47.7422C52.4326 47.6836 52.3075 47.6543 52.1578 47.6543C52.0518 47.6543 51.9559 47.6754 51.8702 47.7175C51.7842 47.7596 51.7093 47.8173 51.6455 47.8904C51.5814 47.9636 51.5322 48.0489 51.4975 48.1458C51.4628 48.243 51.4455 48.3464 51.4455 48.4563V48.4673C51.4455 48.5808 51.4628 48.6869 51.4975 48.7858C51.5322 48.8847 51.5824 48.9708 51.6482 49.0441C51.7139 49.1174 51.7925 49.1751 51.8838 49.217C51.9751 49.2593 52.0775 49.2802 52.1907 49.2802C52.3295 49.2802 52.4511 49.252 52.5552 49.1952C52.6592 49.1385 52.7624 49.0625 52.8646 48.9671L53.3523 49.4615C53.2098 49.619 53.0473 49.7481 52.8646 49.8489" fill="#58347F"/>
<path d="M55.9038 48.4673C55.9038 48.3575 55.8856 48.2541 55.8491 48.1568C55.8125 48.0599 55.7594 47.9738 55.6901 47.8987C55.6207 47.8236 55.5385 47.7642 55.4436 47.7201C55.3485 47.6762 55.2444 47.6543 55.1313 47.6543C55.0106 47.6543 54.9039 47.6754 54.8107 47.7175C54.7176 47.7596 54.638 47.8173 54.5724 47.8904C54.5066 47.9636 54.4563 48.0489 54.4217 48.1458C54.387 48.243 54.3696 48.3464 54.3696 48.4563V48.4673C54.3696 48.5771 54.3878 48.6807 54.4243 48.7777C54.4608 48.8747 54.5139 48.9608 54.5833 49.0357C54.6526 49.1109 54.734 49.1704 54.8272 49.2144C54.9203 49.2584 55.0253 49.2802 55.1422 49.2802C55.2628 49.2802 55.3695 49.2593 55.4627 49.217C55.5558 49.1751 55.6354 49.1174 55.701 49.0441C55.7669 48.9708 55.8171 48.8857 55.8517 48.7887C55.8866 48.6915 55.9038 48.588 55.9038 48.4782V48.4673ZM56.6053 49.0634C56.5249 49.2482 56.4135 49.4103 56.2709 49.5495C56.1285 49.6887 55.9604 49.7986 55.7669 49.879C55.5733 49.9596 55.3614 50 55.1313 50C54.9048 50 54.6947 49.9607 54.5012 49.8818C54.3075 49.8031 54.1403 49.6951 53.9997 49.5577C53.8591 49.4203 53.7486 49.2593 53.6683 49.0743C53.588 48.8893 53.5476 48.6908 53.5476 48.4782V48.4673C53.5476 48.2548 53.588 48.0563 53.6683 47.8711C53.7486 47.6864 53.8601 47.5243 54.0025 47.3851C54.1449 47.2459 54.313 47.136 54.5066 47.0555C54.7002 46.9748 54.912 46.9345 55.1422 46.9345C55.3686 46.9345 55.5787 46.9741 55.7724 47.0528C55.9659 47.1314 56.133 47.2395 56.2737 47.3768C56.4143 47.5142 56.5249 47.6754 56.6053 47.8602C56.6856 48.0452 56.7258 48.244 56.7258 48.4563V48.4673C56.7258 48.6797 56.6856 48.8785 56.6053 49.0634" fill="#58347F"/>
<path d="M57.1638 49.9341V49.0552H58.046V49.9341H57.1638Z" fill="#58347F"/>
<path d="M60.5306 49.9341V49.5132C60.4831 49.5757 60.431 49.6358 60.3743 49.6928C60.3177 49.75 60.2547 49.8007 60.1853 49.8452C60.1158 49.8894 60.0391 49.9243 59.9552 49.9503C59.8711 49.976 59.7762 49.989 59.6702 49.989C59.3525 49.989 59.1067 49.892 58.9332 49.6979C58.7598 49.5037 58.6731 49.2364 58.6731 48.8957V46.9896H59.5059V48.6281C59.5059 48.8254 59.5498 48.9744 59.6374 49.0747C59.725 49.1752 59.8492 49.2254 60.01 49.2254C60.1707 49.2254 60.2976 49.1752 60.3909 49.0747C60.4841 48.9744 60.5306 48.8254 60.5306 48.6281V46.9896H61.3634V49.9341H60.5306Z" fill="#58347F"/>
<path d="M63.927 49.9341L63.1599 48.731L62.8695 49.0387V49.9341H62.0366V45.9239H62.8695V48.0608L63.8448 46.9896H64.8421L63.7243 48.1487L64.8805 49.9341H63.927" fill="#58347F"/>
<path d="M72.8027 6.03473V6.02361C72.8027 5.07113 72.0654 4.28695 71.0818 4.28695C70.1096 4.28695 69.361 5.08225 69.361 6.03473V6.04596C69.361 6.9982 70.0985 7.78226 71.0818 7.78226C72.0541 7.78226 72.8027 6.98708 72.8027 6.03473V6.03473ZM68.8633 6.04759V6.03473C68.8633 4.82031 69.8451 3.79754 71.0818 3.79754C72.3314 3.79754 73.3008 4.80745 73.3008 6.02199V6.03473C73.3008 7.24927 72.3189 8.27167 71.0818 8.27167C69.8321 8.27167 68.8633 7.26201 68.8633 6.04759Z" fill="#58347F"/>
<path d="M71.1865 5.96843C71.3839 5.96843 71.4934 5.87229 71.4934 5.73346C71.4934 5.58376 71.3839 5.49799 71.1865 5.49799H70.8245V5.96843H71.1865ZM70.2542 5.02806H71.2193C71.7128 5.02806 72.0637 5.23119 72.0637 5.69064C72.0637 6.00051 71.8995 6.21438 71.6467 6.31039L72.1298 6.99445H71.4717L71.0655 6.40678H70.8245V6.99445H70.2542V5.02806Z" fill="#58347F"/>
<path d="M0 9.23014V9.17958C0 4.03488 3.94935 -0.00015785 9.28228 -0.00015785C12.8795 -0.00015785 15.1936 1.51303 16.7533 3.68193L13.0807 6.53163C12.0744 5.27064 10.9173 4.46361 9.23193 4.46361C6.76671 4.46361 5.03103 6.55685 5.03103 9.12914V9.17958C5.03103 11.8276 6.76671 13.8955 9.23193 13.8955C11.0683 13.8955 12.1499 13.0382 13.2065 11.752L16.8791 14.3747C15.2189 16.6697 12.9801 18.3594 9.08098 18.3594C4.05 18.3594 0 14.5009 0 9.23014Z" fill="#58347F"/>
<path d="M18.1875 0.352907H23.0676V6.96035H29.3312V0.352907H34.2114V18.0063H29.3312V11.2981H23.0676V18.0063H18.1875V0.352907" fill="#58347F"/>
<path d="M46.9927 11.0458L45.0305 6.02722L43.0433 11.0458H46.9927ZM42.7162 0.22681H47.4202L54.9165 18.0063H49.6842L48.4013 14.854H41.6095L40.3516 18.0063H35.22L42.7162 0.22681" fill="#58347F"/>
<path d="M54.8894 15.3835L57.6061 12.1303C59.3418 13.5174 61.2787 14.2486 63.3163 14.2486C64.6244 14.2486 65.3287 13.7948 65.3287 13.0382V12.9878C65.3287 12.2564 64.75 11.8529 62.3604 11.2982C58.6122 10.4406 55.7194 9.38145 55.7194 5.74981V5.69937C55.7194 2.42093 58.3103 0.0502752 62.5365 0.0502752C65.53 0.0502752 67.8694 0.857308 69.7812 2.39571L67.3411 5.85069C65.7311 4.71593 63.9703 4.11053 62.4107 4.11053C61.2284 4.11053 60.6499 4.61492 60.6499 5.24542V5.29585C60.6499 6.10289 61.2535 6.45596 63.6936 7.0108C67.7436 7.89349 70.2591 9.20492 70.2591 12.5086V12.559C70.2591 16.1653 67.4165 18.309 63.1402 18.309C60.021 18.309 57.0527 17.3254 54.8894 15.3835" fill="#58347F"/>
<path d="M40.8152 31.1037C39.1366 31.3329 37.4314 31.4519 35.7075 31.4519C25.9127 31.4519 16.7022 27.6913 9.7452 20.8607H3.58423C4.46515 21.9302 5.40177 22.9603 6.39546 23.9471C14.2262 31.723 24.6361 36.0055 35.7075 36.0055C39.2127 36.0055 42.6512 35.5749 45.963 34.7414L40.8152 31.1037" fill="#58347F"/>
<path d="M61.4208 20.8607C57.4565 24.753 52.7596 27.6467 47.6406 29.4175L46.7637 34.4619C53.504 32.5756 59.6821 28.9999 64.7705 23.9471C65.7643 22.9603 66.7009 21.9301 67.582 20.8607H61.4208Z" fill="#58347F"/>
</g>
<defs>
<clipPath id="clip0_17:62">
<rect width="94" height="50" fill="white"/>
</clipPath>
</defs>
</svg>
