<svg width="2880" height="28" viewBox="0 0 2880 28" fill="none" xmlns="http://www.w3.org/2000/svg">
<path d="M77.4248 27.8894C53.4171 27.2596 29.3313 27.0056 5.32361 26.3932C3.54929 26.3476 1.77475 26.3006 0 26.2523V0H1440V16.7754C1432.32 17.1095 1424.64 17.4574 1416.98 17.8193C1413.94 17.9689 1410.95 18.2369 1407.91 18.3169C1395 18.644 1381.65 18.2995 1369.28 19.3852C1356.31 20.5325 1342.98 21.066 1329.62 20.9719C1321.64 20.9301 1313.48 21.3651 1305.69 20.9719C1290.35 20.1994 1275.36 20.3107 1260.39 21.7026C1258.94 21.8383 1256.91 21.9705 1255.85 21.7235C1246.12 19.4408 1235.61 21.4277 1225.56 20.9684C1215.68 20.5427 1205.74 20.3046 1195.79 20.2551C1191.21 20.2816 1186.67 20.5442 1182.31 21.0345C1172.71 22.0345 1162.6 22.238 1152.75 21.6295C1147.84 21.3437 1142.84 21.3132 1137.9 21.5391L1137.3 21.564C1123.81 22.1301 1110.4 22.6931 1096.85 21.6643C1093.17 21.3825 1089.21 21.4208 1085.38 21.4208C1050.83 21.4313 1016.35 20.3836 982.304 18.2891C973.681 17.7706 964.785 17.8193 956.084 17.4226C933.236 16.3822 910.329 16.2221 887.315 16.4135C871.005 16.5458 854.675 16.1943 838.345 16.1004C829.635 16.0516 820.817 15.8081 812.223 16.156C796.634 16.8172 781.648 15.4044 766.429 14.9938C759.287 14.799 752.223 13.9117 745.286 13.2088C738.349 12.5059 732.103 12.6625 726.052 14.2283C724.133 14.7224 721.152 14.8512 718.638 14.8686C707.141 14.9416 695.614 14.7537 684.146 14.966C660.441 15.4044 636.764 16.0725 613.068 16.5736C607.417 16.6954 601.707 16.41 596.056 16.5318C577.67 16.9355 559.314 17.5479 540.918 17.8611C531.243 18.0281 522.328 18.5013 513.13 19.9315C506.427 20.9754 497.58 20.3281 489.687 20.2794C485.147 20.2585 479.847 21.0345 476.602 18.8876C476.056 18.5222 471.613 18.7414 469.129 18.9398C461.802 19.5209 454.933 19.1659 447.693 18.4213C439.392 17.5723 430.691 15.7942 421.922 18.1464C421.347 18.2995 419.291 18.1812 419.165 18.042C417.138 15.9264 412.491 17.1547 409.343 17.1756C399.873 17.2347 390.432 17.6523 380.961 17.8297C365.264 18.129 349.548 18.2856 333.851 18.6335C328.904 18.7573 324.006 19.064 319.236 19.5487C311.939 20.2794 304.875 19.8445 297.801 19.2355C286.986 18.303 280.886 18.3935 269.945 19.8932L277.242 20.9371C274.816 22.583 271.075 22.1584 267.996 22.1584C249.62 22.2211 231.234 22.0993 212.878 22.3081C197.619 22.4855 182.39 23.0562 167.142 23.4042C156.035 23.6477 144.878 24.0201 133.79 23.8913C125.635 23.7869 119.282 24.6534 112.092 25.9791C101.608 27.9103 89.5553 28.2096 77.4248 27.8894Z" fill="#F8F6F2"/>
<path d="M2802.58 27.8894C2826.58 27.2596 2850.67 27.0056 2874.68 26.3932C2876.45 26.3476 2878.23 26.3006 2880 26.2523V0H1440V16.7754C1447.68 17.1095 1455.36 17.4574 1463.02 17.8193C1466.06 17.9689 1469.05 18.2369 1472.09 18.3169C1485 18.644 1498.35 18.2995 1510.72 19.3852C1523.69 20.5325 1537.02 21.066 1550.38 20.9719C1558.36 20.9301 1566.52 21.3651 1574.31 20.9719C1589.65 20.1994 1604.64 20.3107 1619.61 21.7026C1621.06 21.8383 1623.09 21.9705 1624.15 21.7235C1633.88 19.4408 1644.39 21.4277 1654.44 20.9684C1664.32 20.5427 1674.26 20.3046 1684.21 20.2551C1688.79 20.2816 1693.33 20.5442 1697.69 21.0345C1707.29 22.0345 1717.4 22.238 1727.25 21.6295C1732.16 21.3437 1737.16 21.3132 1742.1 21.5391L1742.7 21.564C1756.19 22.1301 1769.6 22.6931 1783.15 21.6643C1786.83 21.3825 1790.79 21.4208 1794.62 21.4208C1829.17 21.4313 1863.65 20.3836 1897.7 18.2891C1906.32 17.7706 1915.21 17.8193 1923.92 17.4226C1946.76 16.3822 1969.67 16.2221 1992.68 16.4135C2008.99 16.5458 2025.32 16.1943 2041.65 16.1004C2050.37 16.0516 2059.18 15.8081 2067.78 16.156C2083.37 16.8172 2098.35 15.4044 2113.57 14.9938C2120.71 14.799 2127.78 13.9117 2134.71 13.2088C2141.65 12.5059 2147.9 12.6625 2153.95 14.2283C2155.87 14.7224 2158.85 14.8512 2161.36 14.8686C2172.86 14.9416 2184.39 14.7537 2195.85 14.966C2219.56 15.4044 2243.24 16.0725 2266.93 16.5736C2272.58 16.6954 2278.29 16.41 2283.94 16.5318C2302.33 16.9355 2320.69 17.5479 2339.08 17.8611C2348.76 18.0281 2357.67 18.5013 2366.87 19.9315C2373.57 20.9754 2382.42 20.3281 2390.31 20.2794C2394.85 20.2585 2400.15 21.0345 2403.4 18.8876C2403.94 18.5222 2408.39 18.7414 2410.87 18.9398C2418.2 19.5209 2425.07 19.1659 2432.31 18.4213C2440.61 17.5723 2449.31 15.7942 2458.08 18.1464C2458.65 18.2995 2460.71 18.1812 2460.84 18.042C2462.86 15.9264 2467.51 17.1547 2470.66 17.1756C2480.13 17.2347 2489.57 17.6523 2499.04 17.8297C2514.74 18.129 2530.45 18.2856 2546.15 18.6335C2551.1 18.7573 2555.99 19.064 2560.76 19.5487C2568.06 20.2794 2575.13 19.8445 2582.2 19.2355C2593.01 18.303 2599.11 18.3935 2610.06 19.8932L2602.76 20.9371C2605.18 22.583 2608.93 22.1584 2612 22.1584C2630.38 22.2211 2648.77 22.0993 2667.12 22.3081C2682.38 22.4855 2697.61 23.0562 2712.86 23.4042C2723.97 23.6477 2735.12 24.0201 2746.21 23.8913C2754.36 23.7869 2760.72 24.6534 2767.91 25.9791C2778.39 27.9103 2790.44 28.2096 2802.58 27.8894Z" fill="#F8F6F2"/>
</svg>
