<svg width="219" height="57" viewBox="0 0 219 57" fill="none" xmlns="http://www.w3.org/2000/svg">
<g clip-path="url(#clip0)">
<path d="M205.391 0.242125H13.54C13.0266 0.242125 12.5194 0.242125 12.0073 0.244925C11.5787 0.247725 11.1535 0.255859 10.7208 0.262705C9.78073 0.273768 8.84285 0.356472 7.91535 0.510099C6.98914 0.667071 6.09195 0.963007 5.25411 1.3879C4.41731 1.81639 3.65269 2.37316 2.988 3.03802C2.31983 3.70102 1.76285 4.46735 1.3385 5.30755C0.912967 6.14608 0.617903 7.04464 0.463496 7.9722C0.307622 8.89859 0.223744 9.83566 0.212616 10.775C0.199624 11.2042 0.198252 11.6349 0.191406 12.0642V44.4242C0.198252 44.8589 0.199624 45.28 0.212602 45.7148C0.223733 46.6541 0.307611 47.5911 0.463482 48.5175C0.617463 49.4456 0.912544 50.3447 1.33848 51.1835C1.76265 52.021 2.31971 52.7842 2.988 53.4435C3.65017 54.1113 4.41528 54.6685 5.25411 55.0937C6.09194 55.5197 6.98904 55.8174 7.91535 55.9768C8.84301 56.1292 9.78079 56.212 10.7208 56.2243C11.1535 56.2339 11.5787 56.2393 12.0073 56.2393C12.5193 56.2421 13.0266 56.2421 13.54 56.2421H205.391C205.894 56.2421 206.406 56.2421 206.909 56.2393C207.335 56.2393 207.773 56.2339 208.199 56.2243C209.138 56.2126 210.074 56.1299 210.999 55.9768C211.929 55.8163 212.829 55.5187 213.671 55.0937C214.509 54.6683 215.273 54.1111 215.935 53.4435C216.602 52.7816 217.16 52.019 217.589 51.1835C218.012 50.3441 218.304 49.445 218.456 48.5175C218.612 47.591 218.699 46.6542 218.716 45.7148C218.721 45.28 218.721 44.8589 218.721 44.4242C218.732 43.9155 218.732 43.4097 218.732 42.8928V13.5927C218.732 13.08 218.732 12.5714 218.721 12.0642C218.721 11.6349 218.721 11.2042 218.716 10.7749C218.699 9.83552 218.612 8.89866 218.456 7.97214C218.304 7.04512 218.012 6.14663 217.589 5.30749C216.725 3.6234 215.355 2.25256 213.671 1.38777C212.829 0.96392 211.929 0.668062 210.999 0.509973C210.074 0.355669 209.138 0.272936 208.199 0.262509C207.773 0.255677 207.335 0.247473 206.909 0.244743C206.406 0.241943 205.894 0.241943 205.391 0.241943V0.242125Z" fill="#A6A6A6"/>
<path d="M12.0146 55.0171C11.5881 55.0171 11.1717 55.0116 10.7486 55.0021C9.8719 54.9907 8.99724 54.9143 8.13181 54.7738C7.32483 54.6348 6.54309 54.3762 5.81237 54.0067C5.08835 53.6402 4.42799 53.1597 3.85657 52.5835C3.27689 52.014 2.79428 51.3536 2.42786 50.6283C2.0574 49.8984 1.80103 49.1159 1.66766 48.3083C1.52363 47.4404 1.44571 46.5629 1.43456 45.6833C1.42568 45.388 1.41406 44.4049 1.41406 44.4049V12.0641C1.41406 12.0641 1.42644 11.0962 1.43463 10.8118C1.4453 9.93355 1.52278 9.05739 1.66637 8.19089C1.79999 7.38102 2.05656 6.59632 2.42721 5.86395C2.79229 5.13919 3.27222 4.47828 3.84841 3.90682C4.42395 3.32994 5.08643 2.84692 5.81169 2.47537C6.54073 2.107 7.32099 1.8503 8.12633 1.71385C8.99461 1.57184 9.8723 1.49507 10.752 1.48417L12.0153 1.46707H206.902L208.181 1.48485C209.052 1.49521 209.922 1.5713 210.782 1.71248C211.596 1.85064 212.384 2.10913 213.122 2.47947C214.575 3.22825 215.757 4.4129 216.503 5.86737C216.867 6.59468 217.12 7.37298 217.252 8.17586C217.397 9.04946 217.479 9.93251 217.495 10.818C217.499 11.2144 217.499 11.6403 217.499 12.0641C217.51 12.5891 217.51 13.0888 217.51 13.5927V42.8928C217.51 43.4014 217.51 43.8977 217.499 44.3981C217.499 44.8534 217.499 45.2704 217.494 45.6996C217.478 46.5693 217.398 47.4366 217.255 48.2946C217.124 49.108 216.869 49.8966 216.499 50.6325C216.13 51.3499 215.65 52.0046 215.077 52.5725C214.505 53.1518 213.843 53.6352 213.118 54.004C212.382 54.3764 211.595 54.6359 210.782 54.7738C209.917 54.9151 209.042 54.9914 208.166 55.0021C207.755 55.0116 207.326 55.0171 206.909 55.0171L205.392 55.0199L12.0146 55.0171Z" fill="black"/>
<path d="M34.8676 28.663C34.8827 27.4945 35.193 26.3487 35.7699 25.3324C36.3467 24.3161 37.1713 23.4622 38.1668 22.8501C37.5344 21.9469 36.7 21.2036 35.7301 20.6792C34.7601 20.1548 33.6812 19.8638 32.5792 19.8294C30.2282 19.5826 27.9491 21.2361 26.7511 21.2361C25.5299 21.2361 23.6854 19.8539 21.6992 19.8947C20.4145 19.9362 19.1624 20.3098 18.0649 20.9791C16.9675 21.6484 16.0622 22.5905 15.4371 23.7137C12.7295 28.4015 14.7491 35.291 17.3428 39.0803C18.6405 40.9358 20.157 43.0084 22.1415 42.9349C24.0834 42.8543 24.8086 41.6966 27.1526 41.6966C29.4749 41.6966 30.1553 42.9349 32.18 42.8881C34.2638 42.8543 35.5766 41.0244 36.8288 39.1514C37.7611 37.8293 38.4786 36.368 38.9545 34.8218C37.7439 34.3098 36.7109 33.4528 35.9841 32.3576C35.2573 31.2623 34.869 29.9774 34.8676 28.663Z" fill="white"/>
<path d="M31.0432 17.3373C32.1794 15.9734 32.7391 14.2204 32.6036 12.4504C30.8678 12.6327 29.2644 13.4623 28.1129 14.7739C27.5499 15.4146 27.1187 16.16 26.844 16.9675C26.5693 17.775 26.4564 18.6287 26.5117 19.4798C27.3799 19.4888 28.2389 19.3006 29.0238 18.9295C29.8087 18.5584 30.4992 18.014 31.0432 17.3373Z" fill="white"/>
<path d="M64.7998 42.9366V30.1411H64.7151L59.4746 42.804H57.4744L52.2203 30.1411H52.1369V42.9366H49.6787V25.5514H52.8L58.426 39.2739H58.5217L64.1367 25.5514H67.2689V42.9366L64.7998 42.9366Z" fill="white"/>
<path d="M69.3457 39.334C69.3457 37.1178 71.0437 35.7794 74.057 35.5988L77.5269 35.4061V34.4422C77.5269 33.0326 76.5986 32.2369 75.0195 32.2369C74.4347 32.1591 73.8415 32.2975 73.3514 32.626C72.8613 32.9545 72.5079 33.4505 72.3576 34.0211H69.924C69.9965 31.731 72.1293 30.1055 75.092 30.1055C78.1162 30.1055 80.1164 31.7557 80.1164 34.2495V42.9366H77.6227V40.8516H77.5625C77.1631 41.5586 76.5811 42.1453 75.8774 42.5503C75.1736 42.9553 74.374 43.1638 73.5621 43.154C73.0289 43.2061 72.4906 43.1462 71.9819 42.978C71.4732 42.8099 71.0053 42.5372 70.6082 42.1774C70.2112 41.8177 69.8937 41.3789 69.6763 40.8892C69.4589 40.3996 69.3463 39.8698 69.3457 39.334ZM77.5269 38.1897V37.2135L74.4057 37.4063C72.8512 37.5034 71.9721 38.1774 71.9721 39.2616C71.9721 40.3704 72.8881 41.0936 74.2853 41.0936C74.69 41.1211 75.0961 41.0672 75.4796 40.9353C75.8632 40.8033 76.2164 40.5959 76.5185 40.3253C76.8206 40.0546 77.0655 39.7262 77.2387 39.3595C77.4119 38.9927 77.5099 38.595 77.527 38.1897H77.5269Z" fill="white"/>
<path d="M91.0414 34.6227C90.9276 33.9294 90.5573 33.3042 90.0038 32.8713C89.4504 32.4385 88.7544 32.2296 88.0541 32.2862C86.0539 32.2862 84.7291 33.961 84.7291 36.5997C84.7291 39.2985 86.0662 40.9241 88.0773 40.9241C88.7683 40.9933 89.4597 40.7963 90.0105 40.3733C90.5613 39.9503 90.93 39.3332 91.0414 38.6477H93.5474C93.3915 39.9584 92.7301 41.1565 91.7041 41.9869C90.6781 42.8173 89.3685 43.2145 88.0541 43.0938C84.4393 43.0938 82.0781 40.6233 82.0781 36.5997C82.0781 32.6595 84.4393 30.1055 88.0295 30.1055C89.3536 29.9933 90.6691 30.4027 91.6956 31.2466C92.7221 32.0904 93.3783 33.3019 93.5242 34.6227H91.0414Z" fill="white"/>
<path d="M110.455 38.2376H103.828L102.237 42.9366H99.4297L105.706 25.5514H108.623L114.899 42.9366H112.045L110.455 38.2376ZM104.514 36.0692H109.767L107.178 28.443H107.105L104.514 36.0692Z" fill="white"/>
<path d="M128.454 36.5997C128.454 40.5386 126.346 43.0692 123.165 43.0692C122.359 43.1114 121.557 42.9257 120.852 42.5335C120.147 42.1413 119.566 41.5585 119.177 40.8516H119.116V47.1297H116.515V30.2614H119.033V32.3696H119.081C119.488 31.6661 120.079 31.0863 120.789 30.6917C121.5 30.2971 122.304 30.1026 123.117 30.1288C126.334 30.1288 128.454 32.6717 128.454 36.5997ZM125.78 36.5997C125.78 34.0335 124.454 32.3464 122.43 32.3464C120.443 32.3464 119.105 34.069 119.105 36.5997C119.105 39.1536 120.443 40.8639 122.43 40.8639C124.454 40.8639 125.78 39.1891 125.78 36.5997Z" fill="white"/>
<path d="M142.406 36.5997C142.406 40.5386 140.297 43.0692 137.116 43.0692C136.31 43.1114 135.508 42.9257 134.803 42.5335C134.098 42.1413 133.517 41.5585 133.128 40.8516H133.068V47.1297H130.466V30.2614H132.984V32.3696H133.032C133.439 31.6661 134.03 31.0863 134.74 30.6917C135.451 30.2971 136.256 30.1026 137.068 30.1288C140.285 30.1288 142.406 32.6717 142.406 36.5997ZM139.731 36.5997C139.731 34.0335 138.405 32.3464 136.382 32.3464C134.394 32.3464 133.057 34.069 133.057 36.5997C133.057 39.1536 134.394 40.8639 136.382 40.8639C138.405 40.8639 139.731 39.1891 139.731 36.5997H139.731Z" fill="white"/>
<path d="M151.626 38.0926C151.819 39.8167 153.494 40.9486 155.782 40.9486C157.975 40.9486 159.553 39.8166 159.553 38.2621C159.553 36.9127 158.602 36.1047 156.348 35.551L154.095 35.0082C150.903 34.2371 149.421 32.7441 149.421 30.3215C149.421 27.3219 152.035 25.2615 155.747 25.2615C159.421 25.2615 161.939 27.3219 162.024 30.3215H159.397C159.24 28.5865 157.806 27.5392 155.71 27.5392C153.614 27.5392 152.18 28.5988 152.18 30.141C152.18 31.3701 153.096 32.0934 155.337 32.647L157.252 33.1173C160.819 33.9609 162.301 35.3937 162.301 37.9367C162.301 41.1892 159.71 43.2263 155.59 43.2263C151.734 43.2263 149.131 41.237 148.963 38.0925L151.626 38.0926Z" fill="white"/>
<path d="M167.916 27.2618V30.2614H170.326V32.3217H167.916V39.3094C167.916 40.395 168.399 40.9008 169.458 40.9008C169.744 40.8959 170.03 40.8758 170.314 40.8406V42.8887C169.838 42.9777 169.354 43.018 168.869 43.009C166.303 43.009 165.302 42.0451 165.302 39.5869V32.3217H163.459V30.2614H165.302V27.2618H167.916Z" fill="white"/>
<path d="M171.721 36.5997C171.721 32.6116 174.07 30.1055 177.732 30.1055C181.407 30.1055 183.745 32.6115 183.745 36.5997C183.745 40.5987 181.42 43.0938 177.732 43.0938C174.046 43.0938 171.721 40.5987 171.721 36.5997ZM181.094 36.5997C181.094 33.8639 179.84 32.2493 177.732 32.2493C175.624 32.2493 174.37 33.8762 174.37 36.5997C174.37 39.3463 175.624 40.9487 177.732 40.9487C179.84 40.9487 181.094 39.3463 181.094 36.5997H181.094Z" fill="white"/>
<path d="M185.892 30.2614H188.373V32.4188H188.433C188.601 31.745 188.996 31.1495 189.551 30.7325C190.106 30.3155 190.788 30.1023 191.482 30.1288C191.782 30.1277 192.081 30.1603 192.373 30.2258V32.6594C191.995 32.5438 191.6 32.4907 191.204 32.5022C190.827 32.4869 190.45 32.5535 190.1 32.6976C189.75 32.8416 189.436 33.0596 189.178 33.3367C188.921 33.6137 188.726 33.9432 188.608 34.3026C188.49 34.6619 188.451 35.0426 188.493 35.4184V42.9366H185.892V30.2614Z" fill="white"/>
<path d="M204.367 39.2137C204.017 41.5147 201.777 43.0938 198.91 43.0938C195.222 43.0938 192.934 40.6233 192.934 36.6598C192.934 32.684 195.235 30.1055 198.8 30.1055C202.307 30.1055 204.512 32.5145 204.512 36.3577V37.2491H195.56V37.4063C195.519 37.8728 195.577 38.3427 195.731 38.7849C195.886 39.2271 196.132 39.6314 196.455 39.9709C196.777 40.3105 197.168 40.5776 197.602 40.7544C198.035 40.9312 198.502 41.0138 198.97 40.9965C199.585 41.0541 200.202 40.9117 200.729 40.5905C201.256 40.2693 201.666 39.7864 201.897 39.2137L204.367 39.2137ZM195.572 35.4307H201.909C201.933 35.0113 201.869 34.5916 201.722 34.1979C201.576 33.8042 201.35 33.445 201.058 33.1429C200.766 32.8409 200.414 32.6024 200.026 32.4425C199.638 32.2826 199.22 32.2047 198.8 32.2137C198.377 32.2112 197.957 32.2926 197.564 32.4532C197.172 32.6139 196.816 32.8506 196.516 33.1497C196.216 33.4488 195.978 33.8043 195.816 34.1958C195.654 34.5873 195.571 35.007 195.572 35.4307L195.572 35.4307Z" fill="white"/>
<path d="M53.1482 12.4655C53.6937 12.4263 54.241 12.5087 54.7508 12.7067C55.2606 12.9047 55.72 13.2134 56.096 13.6105C56.4721 14.0076 56.7553 14.4831 56.9252 15.0029C57.0952 15.5227 57.1477 16.0737 57.0789 16.6162C57.0789 19.285 55.6365 20.819 53.1482 20.819H50.1309V12.4655H53.1482ZM51.4283 19.6377H53.0033C53.3931 19.661 53.7831 19.5971 54.1451 19.4506C54.507 19.3041 54.8318 19.0788 55.0957 18.791C55.3596 18.5032 55.556 18.1602 55.6706 17.787C55.7852 17.4137 55.8151 17.0196 55.7582 16.6333C55.811 16.2485 55.778 15.8568 55.6616 15.4863C55.5453 15.1158 55.3484 14.7756 55.0851 14.4901C54.8218 14.2046 54.4986 13.9808 54.1387 13.8349C53.7788 13.689 53.3911 13.6244 53.0033 13.646H51.4283V19.6377Z" fill="white"/>
<path d="M58.5443 17.6641C58.5047 17.2499 58.5521 16.8319 58.6835 16.437C58.8149 16.0421 59.0273 15.679 59.3072 15.371C59.5871 15.063 59.9283 14.817 60.3089 14.6486C60.6895 14.4802 61.1011 14.3932 61.5173 14.3932C61.9335 14.3932 62.345 14.4802 62.7256 14.6486C63.1062 14.817 63.4474 15.063 63.7273 15.371C64.0073 15.679 64.2197 16.0421 64.3511 16.437C64.4825 16.8319 64.5299 17.2499 64.4902 17.6641C64.5306 18.0789 64.4838 18.4974 64.3528 18.893C64.2217 19.2885 64.0094 19.6522 63.7294 19.9608C63.4494 20.2694 63.108 20.516 62.727 20.6847C62.346 20.8535 61.934 20.9407 61.5173 20.9407C61.1006 20.9407 60.6885 20.8535 60.3076 20.6847C59.9266 20.516 59.5852 20.2694 59.3052 19.9608C59.0252 19.6522 58.8128 19.2885 58.6818 18.893C58.5508 18.4974 58.504 18.0789 58.5443 17.6641ZM63.2105 17.6641C63.2105 16.2977 62.5967 15.4985 61.5193 15.4985C60.4379 15.4985 59.8295 16.2977 59.8295 17.6642C59.8295 19.0416 60.4379 19.8346 61.5193 19.8346C62.5967 19.8346 63.2106 19.0361 63.2106 17.6641H63.2105Z" fill="white"/>
<path d="M72.3941 20.8189H71.1035L69.8006 16.1759H69.7022L68.4047 20.8189H67.1264L65.3887 14.5148H66.6506L67.7799 19.3252H67.8729L69.169 14.5148H70.3625L71.6586 19.3252H71.757L72.8809 14.5148H74.125L72.3941 20.8189Z" fill="white"/>
<path d="M75.5869 14.5148H76.7846V15.5163H76.8775C77.0353 15.1566 77.3013 14.8551 77.6385 14.6537C77.9757 14.4524 78.3673 14.3613 78.7588 14.3931C79.0655 14.3701 79.3735 14.4163 79.66 14.5285C79.9464 14.6406 80.2039 14.8157 80.4135 15.0409C80.6231 15.2661 80.7793 15.5355 80.8705 15.8293C80.9618 16.123 80.9858 16.4336 80.9408 16.7379V20.8189H79.6967V17.0503C79.6967 16.0372 79.2565 15.5334 78.3363 15.5334C78.1281 15.5237 77.9202 15.5591 77.7269 15.6373C77.5336 15.7155 77.3595 15.8345 77.2165 15.9862C77.0736 16.138 76.9651 16.3188 76.8986 16.5164C76.832 16.714 76.809 16.9236 76.8311 17.1309V20.8189H75.5869L75.5869 14.5148Z" fill="white"/>
<path d="M82.9229 12.0539H84.167V20.8189H82.9229V12.0539Z" fill="white"/>
<path d="M85.8969 17.6641C85.8572 17.2499 85.9046 16.8319 86.036 16.437C86.1674 16.0421 86.3799 15.679 86.6598 15.371C86.9397 15.063 87.2809 14.817 87.6615 14.6486C88.0421 14.4802 88.4536 14.3932 88.8698 14.3932C89.286 14.3932 89.6976 14.4802 90.0782 14.6486C90.4588 14.817 90.8 15.063 91.0799 15.371C91.3598 15.679 91.5723 16.0421 91.7036 16.437C91.835 16.8319 91.8824 17.2499 91.8428 17.6641C91.8832 18.0789 91.8363 18.4974 91.7053 18.893C91.5743 19.2885 91.3619 19.6522 91.082 19.9608C90.802 20.2694 90.4605 20.516 90.0795 20.6847C89.6986 20.8535 89.2865 20.9407 88.8698 20.9407C88.4532 20.9407 88.0411 20.8535 87.6601 20.6847C87.2791 20.516 86.9377 20.2694 86.6577 19.9608C86.3777 19.6522 86.1654 19.2885 86.0343 18.893C85.9033 18.4974 85.8565 18.0789 85.8969 17.6641ZM90.5631 17.6641C90.5631 16.2977 89.9492 15.4985 88.8719 15.4985C87.7904 15.4985 87.1821 16.2977 87.1821 17.6642C87.1821 19.0416 87.7905 19.8346 88.8719 19.8346C89.9492 19.8346 90.5631 19.0361 90.5631 17.6641H90.5631Z" fill="white"/>
<path d="M93.1523 19.0361C93.1523 17.9013 93.9973 17.2472 95.4971 17.1542L97.2047 17.0557V16.5116C97.2047 15.8458 96.7645 15.4698 95.9141 15.4698C95.2195 15.4698 94.7383 15.7248 94.6002 16.1705H93.3957C93.5229 15.0877 94.5414 14.3932 95.9715 14.3932C97.5519 14.3932 98.4434 15.18 98.4434 16.5116V20.8189H97.2457V19.933H97.1473C96.9475 20.2508 96.6669 20.5099 96.3342 20.6838C96.0016 20.8576 95.6287 20.9401 95.2537 20.9228C94.9891 20.9503 94.7216 20.9221 94.4685 20.8399C94.2155 20.7577 93.9824 20.6234 93.7844 20.4457C93.5864 20.2679 93.4279 20.0507 93.319 19.8079C93.2102 19.5651 93.1534 19.3022 93.1523 19.0361ZM97.2047 18.4974V17.9704L95.6652 18.0688C94.7971 18.1269 94.4033 18.4222 94.4033 18.978C94.4033 19.5454 94.8955 19.8756 95.5723 19.8756C95.7706 19.8956 95.9709 19.8756 96.1613 19.8167C96.3517 19.7578 96.5283 19.6611 96.6806 19.5326C96.8329 19.404 96.9578 19.2461 97.0478 19.0682C97.1379 18.8904 97.1912 18.6963 97.2047 18.4974Z" fill="white"/>
<path d="M100.078 17.6641C100.078 15.6721 101.102 14.4102 102.695 14.4102C103.089 14.3921 103.48 14.4864 103.822 14.6823C104.165 14.8781 104.444 15.1674 104.628 15.5162H104.721V12.0539H105.965V20.8189H104.773V19.8229H104.675C104.476 20.1694 104.187 20.455 103.838 20.6489C103.489 20.8428 103.094 20.9375 102.695 20.9228C101.091 20.9229 100.078 19.6609 100.078 17.6641ZM101.363 17.6641C101.363 19.0013 101.994 19.8058 103.048 19.8058C104.096 19.8058 104.744 18.9896 104.744 17.6696C104.744 16.3557 104.09 15.5279 103.048 15.5279C102 15.5279 101.363 16.338 101.363 17.6641H101.363Z" fill="white"/>
<path d="M111.113 17.6641C111.073 17.2498 111.12 16.8318 111.252 16.4369C111.383 16.042 111.596 15.6789 111.876 15.3709C112.156 15.0629 112.497 14.8169 112.878 14.6485C113.258 14.4801 113.67 14.3931 114.086 14.3931C114.502 14.3931 114.914 14.4801 115.294 14.6485C115.675 14.8169 116.016 15.0629 116.296 15.3709C116.576 15.6789 116.789 16.042 116.92 16.4369C117.051 16.8318 117.099 17.2498 117.059 17.6641C117.1 18.0789 117.053 18.4974 116.922 18.893C116.791 19.2885 116.578 19.6523 116.298 19.9608C116.018 20.2694 115.677 20.516 115.296 20.6847C114.915 20.8535 114.503 20.9406 114.086 20.9406C113.669 20.9406 113.257 20.8535 112.876 20.6847C112.495 20.516 112.154 20.2694 111.874 19.9608C111.594 19.6523 111.381 19.2885 111.25 18.893C111.119 18.4974 111.072 18.0789 111.113 17.6641ZM115.779 17.6641C115.779 16.2976 115.165 15.4985 114.088 15.4985C113.006 15.4985 112.398 16.2976 112.398 17.6642C112.398 19.0416 113.006 19.8346 114.088 19.8346C115.165 19.8345 115.779 19.0361 115.779 17.6641H115.779Z" fill="white"/>
<path d="M118.729 14.5148H119.926V15.5163H120.019C120.177 15.1566 120.443 14.8551 120.78 14.6537C121.117 14.4524 121.509 14.3613 121.9 14.3931C122.207 14.3701 122.515 14.4163 122.802 14.5285C123.088 14.6406 123.346 14.8157 123.555 15.0409C123.765 15.2661 123.921 15.5355 124.012 15.8293C124.103 16.123 124.127 16.4336 124.082 16.7379V20.8189H122.838V17.0503C122.838 16.0372 122.398 15.5334 121.478 15.5334C121.27 15.5237 121.062 15.5591 120.868 15.6373C120.675 15.7155 120.501 15.8345 120.358 15.9862C120.215 16.138 120.107 16.3188 120.04 16.5164C119.974 16.714 119.951 16.9236 119.973 17.1309V20.8189H118.729V14.5148Z" fill="white"/>
<path d="M131.113 12.9453V14.5435H132.478V15.5915H131.113V18.8331C131.113 19.4934 131.385 19.7826 132.004 19.7826C132.162 19.7821 132.321 19.7725 132.478 19.7539V20.7902C132.255 20.8302 132.029 20.8514 131.802 20.8538C130.418 20.8538 129.867 20.367 129.867 19.1516V15.5914H128.866V14.5435H129.867V12.9453H131.113Z" fill="white"/>
<path d="M134.178 12.0539H135.411V15.5279H135.509C135.675 15.1648 135.948 14.8616 136.292 14.6595C136.636 14.4574 137.034 14.3663 137.432 14.3986C137.737 14.382 138.042 14.4329 138.325 14.5478C138.608 14.6627 138.862 14.8386 139.07 15.0631C139.277 15.2875 139.433 15.555 139.525 15.8464C139.617 16.1378 139.643 16.4459 139.603 16.7488V20.8189H138.357V17.0557C138.357 16.0488 137.888 15.5388 137.009 15.5388C136.795 15.5213 136.58 15.5507 136.379 15.6249C136.178 15.6992 135.995 15.8166 135.844 15.9688C135.693 16.121 135.577 16.3045 135.504 16.5063C135.431 16.7081 135.403 16.9233 135.422 17.1371V20.8189H134.178L134.178 12.0539Z" fill="white"/>
<path d="M146.857 19.1168C146.688 19.6929 146.322 20.1913 145.823 20.5247C145.323 20.8581 144.722 21.0053 144.126 20.9406C143.71 20.9516 143.297 20.872 142.916 20.7075C142.534 20.5429 142.193 20.2973 141.916 19.9877C141.639 19.6782 141.433 19.312 141.311 18.9146C141.19 18.5173 141.157 18.0983 141.213 17.6867C141.158 17.2739 141.192 16.854 141.313 16.4554C141.434 16.0569 141.64 15.689 141.915 15.3767C142.191 15.0644 142.53 14.815 142.911 14.6453C143.291 14.4756 143.704 14.3896 144.12 14.3931C145.874 14.3931 146.932 15.5915 146.932 17.5711V18.0053H142.481V18.075C142.461 18.3063 142.49 18.5392 142.566 18.7586C142.642 18.9781 142.763 19.1793 142.921 19.3493C143.079 19.5194 143.271 19.6545 143.484 19.746C143.697 19.8376 143.928 19.8836 144.16 19.881C144.457 19.9167 144.759 19.8631 145.026 19.727C145.293 19.5909 145.513 19.3785 145.659 19.1167L146.857 19.1168ZM142.481 17.0851H145.665C145.681 16.8736 145.652 16.661 145.581 16.4612C145.509 16.2614 145.397 16.0788 145.251 15.9249C145.105 15.7711 144.928 15.6496 144.732 15.5682C144.536 15.4867 144.325 15.4472 144.113 15.452C143.898 15.4493 143.684 15.4897 143.485 15.5709C143.286 15.652 143.105 15.7722 142.953 15.9244C142.8 16.0766 142.68 16.2577 142.599 16.457C142.518 16.6564 142.478 16.87 142.481 17.0851H142.481Z" fill="white"/>
</g>
<defs>
<clipPath id="clip0">
<rect width="218.541" height="56" fill="white" transform="translate(0.191406 0.242065)"/>
</clipPath>
</defs>
</svg>
