<svg width="156" height="57" viewBox="0 0 156 57" fill="none" xmlns="http://www.w3.org/2000/svg">
<g clip-path="url(#clip0)">
<path d="M155.415 0.654907H1.14551V55.8472H155.415V0.654907Z" fill="black"/>
<path d="M1.54011 1.04976H155.002V55.4344H1.54011V1.04976ZM0.732422 56.2421H155.809V0.242065H0.732422V56.2421Z" fill="#D2D2D2"/>
<path d="M28.4277 12.5549H13.3867V27.5959H28.4277V12.5549Z" fill="#F25022"/>
<path d="M45.0303 12.5549H29.9893V27.5959H45.0303V12.5549Z" fill="#7FBA00"/>
<path d="M28.4277 29.1395H13.3867V44.1805H28.4277V29.1395Z" fill="#00A4EF"/>
<path d="M45.0303 29.1395H29.9893V44.1805H45.0303V29.1395Z" fill="#FFB900"/>
<path d="M74.0166 29.4984C74.0166 29.0497 74.1781 28.6907 74.5012 28.3856C74.8243 28.0805 75.2012 27.9369 75.6499 27.9369C76.1166 27.9369 76.5115 28.0984 76.8166 28.4036C77.1217 28.7087 77.2833 29.0856 77.2833 29.4984C77.2833 29.9292 77.1217 30.3061 76.7987 30.5933C76.4756 30.8984 76.0987 31.042 75.632 31.042C75.1653 31.042 74.7884 30.8984 74.4653 30.5933C74.1781 30.2882 74.0166 29.9292 74.0166 29.4984ZM76.9781 44.1805H74.3038V32.783H76.9781V44.1805Z" fill="white"/>
<path d="M85.1274 42.224C85.5223 42.224 85.971 42.1343 86.4556 41.9548C86.9402 41.7753 87.371 41.524 87.7838 41.2189V43.7138C87.3531 43.9651 86.8684 44.1446 86.33 44.2702C85.7915 44.3958 85.1812 44.4676 84.5351 44.4676C82.8659 44.4676 81.5018 43.9292 80.4428 42.8702C79.3838 41.8112 78.8633 40.4471 78.8633 38.8138C78.8633 36.983 79.4017 35.4753 80.4787 34.2907C81.5556 33.1061 83.0633 32.5138 85.0377 32.5138C85.5402 32.5138 86.0428 32.5856 86.5633 32.7112C87.0838 32.8369 87.4787 32.9984 87.7838 33.1599V35.7266C87.371 35.4215 86.9402 35.1882 86.5095 35.0266C86.0787 34.8651 85.63 34.7753 85.1812 34.7753C84.1223 34.7753 83.2787 35.1164 82.6146 35.7984C81.9684 36.4805 81.6453 37.4138 81.6453 38.5805C81.6453 39.7292 81.9505 40.6266 82.5787 41.2728C83.2069 41.9189 84.0505 42.224 85.1274 42.224Z" fill="white"/>
<path d="M95.4129 32.6035C95.6283 32.6035 95.8257 32.6215 95.9872 32.6394C96.1488 32.6753 96.3103 32.7112 96.418 32.7471V35.4574C96.2744 35.3497 96.077 35.26 95.8077 35.1702C95.5385 35.0805 95.2154 35.0266 94.8206 35.0266C94.1565 35.0266 93.6001 35.2959 93.1513 35.8523C92.7026 36.4087 92.4693 37.2523 92.4693 38.4189V44.1805H89.7949V32.783H92.4693V34.5779H92.5052C92.7565 33.9497 93.1154 33.4651 93.618 33.1241C94.1206 32.783 94.7129 32.6035 95.4129 32.6035Z" fill="white"/>
<path d="M96.5605 38.6523C96.5605 36.7676 97.099 35.2779 98.158 34.1651C99.217 33.0702 100.707 32.5138 102.591 32.5138C104.368 32.5138 105.768 33.0523 106.773 34.1112C107.778 35.1702 108.281 36.6061 108.281 38.401C108.281 40.2497 107.743 41.7215 106.684 42.8164C105.625 43.9112 104.171 44.4497 102.34 44.4497C100.581 44.4497 99.1631 43.9292 98.14 42.8882C97.0811 41.8651 96.5605 40.4471 96.5605 38.6523ZM99.3605 38.5625C99.3605 39.7471 99.6298 40.6625 100.168 41.2907C100.707 41.9189 101.478 42.224 102.484 42.224C103.453 42.224 104.207 41.9189 104.709 41.2907C105.212 40.6625 105.481 39.7292 105.481 38.4907C105.481 37.2702 105.212 36.3369 104.691 35.7087C104.171 35.0805 103.417 34.7753 102.466 34.7753C101.478 34.7753 100.725 35.0984 100.168 35.7625C99.6298 36.4266 99.3605 37.342 99.3605 38.5625Z" fill="white"/>
<path d="M112.266 35.7805C112.266 36.1574 112.392 36.4626 112.625 36.6779C112.876 36.8933 113.415 37.1626 114.24 37.5036C115.317 37.9343 116.071 38.419 116.502 38.9574C116.933 39.4959 117.148 40.142 117.148 40.8959C117.148 41.9728 116.735 42.8344 115.91 43.4805C115.084 44.1267 113.971 44.4497 112.571 44.4497C112.104 44.4497 111.584 44.3959 111.01 44.2703C110.435 44.1626 109.951 44.001 109.556 43.8395V41.201C110.04 41.542 110.561 41.8113 111.135 42.0087C111.692 42.2061 112.212 42.3138 112.661 42.3138C113.271 42.3138 113.72 42.2241 114.007 42.0626C114.294 41.901 114.438 41.6138 114.438 41.201C114.438 40.8241 114.294 40.519 113.989 40.2677C113.684 40.0164 113.127 39.7113 112.284 39.3882C111.297 38.9754 110.597 38.5087 110.184 37.9882C109.771 37.4677 109.556 36.8036 109.556 36.0138C109.556 34.9908 109.968 34.1472 110.776 33.4831C111.584 32.819 112.643 32.4959 113.953 32.4959C114.348 32.4959 114.797 32.5318 115.299 32.6215C115.802 32.7113 116.215 32.819 116.538 32.9625V35.5113C116.179 35.2779 115.766 35.0805 115.299 34.901C114.833 34.7395 114.348 34.6497 113.899 34.6497C113.397 34.6497 112.984 34.7574 112.715 34.9549C112.41 35.1523 112.266 35.4395 112.266 35.7805Z" fill="white"/>
<path d="M118.334 38.6523C118.334 36.7676 118.872 35.2779 119.931 34.1651C120.99 33.0702 122.48 32.5138 124.365 32.5138C126.142 32.5138 127.542 33.0523 128.547 34.1112C129.552 35.1702 130.054 36.6061 130.054 38.401C130.054 40.2497 129.516 41.7215 128.457 42.8164C127.398 43.9112 125.944 44.4497 124.113 44.4497C122.355 44.4497 120.937 43.9292 119.913 42.8882C118.854 41.8651 118.334 40.4471 118.334 38.6523ZM121.116 38.5625C121.116 39.7471 121.385 40.6625 121.924 41.2907C122.462 41.9189 123.234 42.224 124.239 42.224C125.208 42.224 125.962 41.9189 126.465 41.2907C126.967 40.6625 127.237 39.7292 127.237 38.4907C127.237 37.2702 126.967 36.3369 126.447 35.7087C125.926 35.0805 125.172 34.7753 124.221 34.7753C123.234 34.7753 122.48 35.0984 121.924 35.7625C121.385 36.4266 121.116 37.342 121.116 38.5625Z" fill="white"/>
<path d="M138.902 34.9907V40.842C138.902 42.0625 139.189 42.9599 139.746 43.5702C140.302 44.1805 141.164 44.4676 142.294 44.4676C142.671 44.4676 143.066 44.4317 143.461 44.342C143.856 44.2523 144.143 44.1805 144.305 44.0728V41.8471C144.143 41.9548 143.946 42.0446 143.73 42.1164C143.515 42.1882 143.317 42.2241 143.174 42.2241C142.635 42.2241 142.223 42.0805 141.971 41.7933C141.72 41.5061 141.594 41.0035 141.594 40.3035V34.9728H144.323V32.783H141.612V29.4087L138.92 30.2343V32.801H134.917V31.4189C134.917 30.7369 135.061 30.2164 135.366 29.8574C135.671 29.4984 136.102 29.3369 136.659 29.3369C136.946 29.3369 137.197 29.3728 137.43 29.4446C137.646 29.5164 137.807 29.5882 137.897 29.642V27.3266C137.7 27.2548 137.484 27.2189 137.233 27.183C136.982 27.1471 136.694 27.1292 136.371 27.1292C135.151 27.1292 134.146 27.5061 133.374 28.2779C132.602 29.0497 132.207 30.0189 132.207 31.2215V32.801H130.305V34.9907H132.207V44.1984H134.917V34.9907H138.902Z" fill="white"/>
<path d="M71.7206 28.2779V44.1805H68.9565V31.7241H68.9206L63.9847 44.1805H62.154L57.0924 31.7241H57.0565V44.1805H54.5078V28.2779H58.4565L63.0335 40.0702H63.1052L67.9335 28.2779H71.7206Z" fill="white"/>
<path d="M61.7584 21.4036C60.8071 21.942 59.7302 22.2113 58.5276 22.2113C57.6122 22.2113 56.8045 22.0138 56.0866 21.601C55.3866 21.2061 54.8302 20.6318 54.4533 19.8959C54.0763 19.16 53.8789 18.3343 53.8789 17.419C53.8789 16.4497 54.0943 15.5702 54.5071 14.8164C54.9199 14.0625 55.5122 13.4523 56.284 13.0215C57.0558 12.5908 57.9174 12.3754 58.8866 12.3754C59.3712 12.3754 59.8558 12.4292 60.3404 12.519C60.8251 12.6087 61.2199 12.7343 61.5251 12.8779V14.3138C60.8071 13.8292 59.8917 13.5959 58.7789 13.5959C58.1148 13.5959 57.5225 13.7574 56.984 14.0805C56.4456 14.4036 56.0328 14.8523 55.7456 15.4087C55.4584 15.9831 55.3148 16.6292 55.3148 17.3472C55.3148 18.4779 55.6199 19.3754 56.2122 20.0395C56.8045 20.7036 57.6302 21.0266 58.6712 21.0266C59.3353 21.0266 59.9276 20.901 60.4302 20.6318V18.1728H58.402V16.9882H61.7584V21.4036Z" fill="white"/>
<path d="M69.494 19.0164H64.7915C64.8094 19.6984 65.0248 20.219 65.3838 20.5959C65.7607 20.9549 66.2453 21.1523 66.8556 21.1523C67.6633 21.1523 68.3633 20.919 68.9735 20.4523V21.601C68.7043 21.7805 68.3633 21.942 67.9504 22.0497C67.5376 22.1574 67.1069 22.2113 66.6761 22.2113C65.653 22.2113 64.8453 21.9061 64.2889 21.2959C63.7325 20.6856 63.4453 19.8241 63.4453 18.7113C63.4453 18.0292 63.5889 17.401 63.8581 16.8625C64.1274 16.3061 64.5222 15.8754 65.0069 15.5702C65.4915 15.2651 66.0479 15.1036 66.6402 15.1036C67.5197 15.1036 68.2197 15.3908 68.7222 15.9651C69.2248 16.5395 69.4761 17.3292 69.4761 18.3523V19.0164H69.494ZM68.1838 17.9933C68.1838 17.401 68.0402 16.9523 67.771 16.6472C67.5017 16.342 67.1248 16.1805 66.6222 16.1805C66.1735 16.1805 65.7786 16.342 65.4376 16.6651C65.0966 16.9882 64.8992 17.4369 64.7915 17.9933H68.1838Z" fill="white"/>
<path d="M74.5915 21.9779C74.4658 22.0497 74.3043 22.1036 74.071 22.1395C73.8556 22.1754 73.6581 22.1933 73.4786 22.1933C72.2222 22.1933 71.594 21.4933 71.594 20.1113V16.342H70.4453V15.2651H71.594V13.6497L72.9043 13.2369V15.2472H74.5735V16.3241H72.9043V19.8779C72.9043 20.3267 72.9761 20.6497 73.1197 20.8292C73.2633 21.0087 73.5145 21.0984 73.8915 21.0984C74.1427 21.0984 74.3761 21.0267 74.5735 20.8831V21.9779H74.5915Z" fill="white"/>
<path d="M81.0897 12.86C81.0897 13.0754 81.0179 13.2548 80.8564 13.4164C80.6949 13.5779 80.4974 13.6497 80.2641 13.6497C80.0308 13.6497 79.8333 13.5779 79.6718 13.4164C79.5103 13.2728 79.4385 13.0754 79.4385 12.842C79.4385 12.6087 79.5282 12.4113 79.6898 12.2677C79.8513 12.1241 80.0487 12.0343 80.2641 12.0343C80.4795 12.0343 80.6769 12.1061 80.8384 12.2677C81.0179 12.4472 81.0897 12.6266 81.0897 12.86ZM80.9102 22.0497H79.6V15.2651H80.9102V22.0497Z" fill="white"/>
<path d="M86.5993 21.9779C86.4736 22.0497 86.3121 22.1036 86.0788 22.1395C85.8634 22.1754 85.666 22.1933 85.4865 22.1933C84.2301 22.1933 83.6018 21.4933 83.6018 20.1113V16.342H82.4531V15.2651H83.6018V13.6497L84.9121 13.2369V15.2472H86.5813V16.3241H84.9121V19.8779C84.9121 20.3267 84.9839 20.6497 85.1275 20.8292C85.2711 21.0087 85.5224 21.0984 85.8993 21.0984C86.1506 21.0984 86.3839 21.0267 86.5813 20.8831V21.9779H86.5993Z" fill="white"/>
<path d="M95.179 13.1113C94.9636 13.0036 94.7303 12.9318 94.461 12.9318C93.7252 12.9318 93.3662 13.3805 93.3662 14.2779V15.2472H94.9098V16.3241H93.3662V22.0318H92.0559V16.342H90.9072V15.2651H92.0559V14.2241C92.0559 13.5061 92.2534 12.9318 92.6662 12.501C93.079 12.0702 93.6354 11.8549 94.3534 11.8549C94.7123 11.8549 94.9816 11.8908 95.1969 11.9805V13.1113H95.179Z" fill="white"/>
<path d="M100.007 16.5754C99.935 16.5215 99.7914 16.4677 99.6119 16.4139C99.4324 16.378 99.2709 16.3421 99.1452 16.3421C98.6786 16.3421 98.3016 16.5574 98.0145 16.9703C97.7273 17.3831 97.5837 17.9215 97.5837 18.5856V22.0498H96.2734V15.2651H97.5837V16.6292H97.6196C97.7632 16.1626 97.9965 15.8036 98.3016 15.5344C98.6068 15.2651 98.9658 15.1395 99.3606 15.1395C99.6299 15.1395 99.8452 15.1754 99.9888 15.2292V16.5754H100.007Z" fill="white"/>
<path d="M107.493 18.6215C107.493 19.7164 107.17 20.5959 106.541 21.242C105.913 21.8882 105.07 22.2113 104.029 22.2113C103.006 22.2113 102.18 21.8882 101.57 21.26C100.959 20.6318 100.654 19.7882 100.654 18.7292C100.654 17.5984 100.977 16.719 101.606 16.0728C102.234 15.4267 103.095 15.1036 104.19 15.1036C105.213 15.1036 106.021 15.4087 106.595 16.0369C107.206 16.6651 107.493 17.5267 107.493 18.6215ZM106.147 18.6574C106.147 17.8497 105.967 17.2395 105.626 16.8267C105.267 16.4138 104.782 16.1984 104.136 16.1984C103.49 16.1984 102.97 16.4138 102.593 16.8625C102.216 17.2933 102.036 17.9215 102.036 18.7113C102.036 19.4831 102.216 20.0754 102.593 20.5061C102.97 20.9369 103.472 21.1523 104.136 21.1523C104.8 21.1523 105.303 20.9369 105.644 20.5241C105.967 20.0754 106.147 19.4651 106.147 18.6574Z" fill="white"/>
<path d="M119.212 22.0497H117.902V18.1908C117.902 17.4908 117.794 16.9882 117.579 16.6651C117.363 16.342 116.986 16.1985 116.466 16.1985C116.035 16.1985 115.658 16.3959 115.371 16.7908C115.066 17.1856 114.922 17.6702 114.922 18.2087V22.0497H113.612V18.0651C113.612 16.8267 113.127 16.1985 112.176 16.1985C111.727 16.1985 111.35 16.3959 111.063 16.7728C110.776 17.1497 110.633 17.6344 110.633 18.2267V22.0677H109.322V15.2651H110.633V16.3241H110.65C111.135 15.4985 111.853 15.1036 112.768 15.1036C113.199 15.1036 113.594 15.2292 113.953 15.4626C114.294 15.6959 114.545 16.0369 114.707 16.4677C114.976 16.001 115.281 15.66 115.658 15.4267C116.035 15.2113 116.466 15.0856 116.968 15.0856C118.458 15.0856 119.194 16.001 119.194 17.8497V22.0497H119.212Z" fill="white"/>
</g>
<defs>
<clipPath id="clip0">
<rect width="155.077" height="56" fill="white" transform="translate(0.732422 0.242065)"/>
</clipPath>
</defs>
</svg>
