<svg width="229" height="50" viewBox="0 0 229 50" fill="none" xmlns="http://www.w3.org/2000/svg">
<g clip-path="url(#clip0_17:42)">
<path d="M24.9592 50C38.7437 50 49.9183 38.8071 49.9183 25C49.9183 11.1929 38.7437 0 24.9592 0C11.1746 0 0 11.1929 0 25C0 38.8071 11.1746 50 24.9592 50Z" fill="#53BA6F"/>
<path d="M49.7946 22.676L37.4389 10.3L14.4768 33.274L30.5261 49.3499C41.632 46.8001 49.9185 36.876 49.9185 25C49.9185 24.226 49.8686 23.45 49.7946 22.676Z" fill="#23893C"/>
<path d="M37.4389 10.3L19.7937 27.976L12.7293 20.9L7.43799 26.2L19.7937 38.574L42.7302 15.6L37.4389 10.3Z" fill="white"/>
<path d="M71.6245 13.8757H74.3548V19.4149C72.8277 21.0991 70.645 21.9413 67.8068 21.9413C65.4156 21.9413 63.4141 21.1533 61.8024 19.5773C60.1906 18.0013 59.3846 16.008 59.3843 13.5976C59.3843 11.1872 60.2057 9.17854 61.8485 7.57163C63.4913 5.96471 65.4774 5.16125 67.8066 5.16125C70.1356 5.16125 72.0716 5.84109 73.6144 7.20077L72.1567 9.28681C71.524 8.74615 70.8877 8.37145 70.2477 8.1627C69.6078 7.95396 68.8635 7.84971 68.0149 7.84997C66.3797 7.84997 65.0068 8.37913 63.8963 9.43746C62.7857 10.4958 62.2304 11.8864 62.2303 13.6093C62.2303 15.3322 62.7702 16.715 63.85 17.7577C64.9298 18.8005 66.237 19.322 67.7718 19.3222C69.3066 19.3222 70.5908 18.99 71.6244 18.3256L71.6245 13.8757Z" fill="#535353"/>
<path d="M91.9398 19.5191C90.3046 21.1182 88.2838 21.9178 85.8775 21.9178C83.4711 21.9178 81.4504 21.1182 79.8152 19.5191C78.18 17.9199 77.3624 15.9267 77.3625 13.5396C77.3627 11.1524 78.1802 9.15929 79.8152 7.56015C81.45 5.96092 83.4707 5.16133 85.8775 5.16138C88.2842 5.16143 90.305 5.96102 91.9398 7.56015C93.5746 9.15934 94.3921 11.1525 94.3925 13.5396C94.3928 15.9266 93.5753 17.9198 91.9398 19.5191ZM89.9383 9.37945C88.8353 8.2362 87.4817 7.66453 85.8775 7.66443C84.2733 7.66432 82.9197 8.236 81.8167 9.37945C80.7137 10.5231 80.1622 11.9098 80.1623 13.5396C80.1624 15.1694 80.7139 16.5561 81.8167 17.6997C82.9195 18.8433 84.2731 19.415 85.8775 19.4148C87.4819 19.4146 88.8355 18.8429 89.9383 17.6997C91.041 16.5565 91.5925 15.1698 91.5927 13.5396C91.5929 11.9094 91.0415 10.5226 89.9384 9.37945H89.9383Z" fill="#535353"/>
<path d="M111.838 19.5191C110.203 21.1182 108.182 21.9178 105.776 21.9178C103.37 21.9178 101.349 21.1182 99.7136 19.5191C98.0784 17.9199 97.2608 15.9267 97.261 13.5396C97.2611 11.1524 98.0787 9.15929 99.7136 7.56015C101.348 5.96092 103.369 5.16133 105.776 5.16138C108.183 5.16143 110.203 5.96102 111.838 7.56015C113.473 9.15934 114.29 11.1525 114.291 13.5396C114.291 15.9266 113.474 17.9198 111.838 19.5191ZM109.837 9.37945C108.734 8.2362 107.381 7.66453 105.776 7.66443C104.172 7.66432 102.819 8.236 101.716 9.37945C100.613 10.5231 100.061 11.9098 100.061 13.5396C100.061 15.1694 100.613 16.5561 101.716 17.6997C102.818 18.8433 104.172 19.415 105.776 19.4148C107.381 19.4146 108.734 18.8429 109.837 17.6997C110.94 16.5565 111.491 15.1698 111.492 13.5396C111.492 11.9094 110.94 10.5226 109.837 9.37945H109.837Z" fill="#535353"/>
<path d="M129.401 13.8757H132.131V19.4149C130.604 21.0991 128.421 21.9411 125.583 21.941C123.192 21.941 121.19 21.153 119.578 19.577C117.967 18.001 117.161 16.0079 117.16 13.5976C117.16 11.1872 117.982 9.17854 119.625 7.57163C121.268 5.96471 123.254 5.16125 125.583 5.16125C127.912 5.16125 129.848 5.84109 131.391 7.20077L129.933 9.28681C129.3 8.74615 128.664 8.37145 128.024 8.1627C127.384 7.95396 126.64 7.84971 125.791 7.84997C124.156 7.84997 122.783 8.37913 121.672 9.43746C120.562 10.4958 120.006 11.8864 120.006 13.6093C120.006 15.3322 120.546 16.715 121.626 17.7577C122.706 18.8005 124.013 19.322 125.548 19.3222C127.083 19.3222 128.367 18.99 129.401 18.3256L129.401 13.8757Z" fill="#535353"/>
<path d="M136.18 21.7556V5.55545H138.91V19.1599H146.291V21.7556H136.18Z" fill="#535353"/>
<path d="M161.1 5.55545V8.12791H152.469V12.4156H160.221V14.8488H152.469V19.1831H161.377V21.7556H149.739V5.55545H161.1Z" fill="#535353"/>
<path d="M71.6245 36.7733H74.3548V42.3125C72.8277 43.9967 70.645 44.8387 67.8066 44.8386C65.4154 44.8386 63.414 44.0506 61.8022 42.4746C60.1905 40.8986 59.3845 38.9054 59.3843 36.4951C59.3843 34.0847 60.2057 32.076 61.8485 30.4691C63.4913 28.8622 65.4774 28.0587 67.8068 28.0587C70.1358 28.0587 72.0717 28.7386 73.6145 30.0983L72.1569 32.1842C71.5241 31.6435 70.8878 31.2688 70.2479 31.0601C69.6079 30.8514 68.8637 30.7472 68.0151 30.7474C66.3798 30.7474 65.0069 31.2766 63.8964 32.335C62.7859 33.3933 62.2306 34.7839 62.2304 36.5067C62.2304 38.2297 62.7703 39.6125 63.8501 40.6553C64.9299 41.698 66.2372 42.2194 67.772 42.2196C69.3068 42.2196 70.591 41.8874 71.6246 41.2231L71.6245 36.7733Z" fill="#535353"/>
<path d="M82.0064 40.9451C82.7468 41.8105 83.7495 42.2431 85.0144 42.2429C86.2794 42.2426 87.2821 41.81 88.0225 40.9451C88.7629 40.0799 89.1331 38.9056 89.1331 37.4222V28.453H91.8635V37.5381C91.8635 39.8712 91.2233 41.6674 89.943 42.9266C88.6626 44.1859 87.0198 44.8155 85.0144 44.8155C83.0091 44.8155 81.3663 44.1859 80.086 42.9266C78.8058 41.6674 78.1656 39.8712 78.1655 37.5381V28.453H80.8958V37.4222C80.8958 38.9055 81.266 40.0798 82.0064 40.9451Z" fill="#535353"/>
<path d="M98.1152 40.9682L96.4955 44.6532H93.5801L100.707 28.453H103.622L110.749 44.6532H107.833L106.214 40.9682H98.1152ZM105.103 38.4419L102.164 31.7672L99.2259 38.4419H105.103Z" fill="#535353"/>
<path d="M126.45 33.714C126.45 36.3873 125.286 38.0714 122.956 38.7664L127.191 44.6532H123.72L119.856 39.207H116.269V44.6532H113.539V28.453H119.555C122.023 28.453 123.789 28.8702 124.854 29.7045C125.918 30.5388 126.45 31.8753 126.45 33.714ZM122.818 36.0085C123.373 35.5296 123.651 34.7609 123.651 33.7024C123.651 32.6438 123.365 31.9176 122.795 31.5239C122.224 31.1299 121.206 30.9329 119.74 30.9329H116.27V36.7269H119.671C121.213 36.7269 122.262 36.4874 122.818 36.0085H122.818Z" fill="#535353"/>
<path d="M133.933 40.9682L132.313 44.6532H129.398L136.525 28.453H139.44L146.567 44.6532H143.651L142.032 40.9682H133.933ZM140.921 38.4419L137.982 31.7672L135.044 38.4419H140.921Z" fill="#535353"/>
<path d="M161.481 28.453H164.212V44.6532H161.25L152.087 32.8337V44.6532H149.357V28.453H152.087L161.481 40.551V28.453Z" fill="#535353"/>
<path d="M174.948 30.956V44.6532H172.218V30.956H167.312V28.453H179.854V30.956H174.948Z" fill="#535353"/>
<path d="M194.315 28.453V31.0259H185.684V35.3136H193.435V37.7468H185.684V42.0808H194.592V44.6534H182.954V28.453H194.315Z" fill="#535353"/>
<path d="M209.951 28.453V31.0259H201.321V35.3136H209.072V37.7468H201.321V42.0808H210.229V44.6534H198.59V28.453H209.951Z" fill="#535353"/>
<path d="M226.467 30.5736C228.025 31.9873 228.804 33.9534 228.804 36.472C228.804 38.9906 228.049 40.9837 226.537 42.4515C225.025 43.9196 222.711 44.6535 219.595 44.6532H214.227V28.453H219.78C222.68 28.453 224.909 29.1599 226.467 30.5736ZM226.051 36.5415C226.051 32.8333 223.93 30.9792 219.688 30.9792H216.957V42.0806H219.988C221.947 42.0806 223.447 41.6132 224.489 40.6785C225.531 39.7437 226.051 38.3647 226.051 36.5415V36.5415Z" fill="#535353"/>
</g>
<defs>
<clipPath id="clip0_17:42">
<rect width="228.804" height="50" fill="white"/>
</clipPath>
</defs>
</svg>
