<svg width="166" height="52" viewBox="0 0 166 52" fill="none" xmlns="http://www.w3.org/2000/svg">
<g filter="url(#filter0_d_3_2)">
<rect x="3.2497" y="0.602407" width="161" height="41" transform="rotate(3.15367 3.2497 0.602407)" fill="white"/>
<rect x="4.19317" y="1.65591" width="159" height="39" transform="rotate(3.15367 4.19317 1.65591)" stroke="black" stroke-width="2"/>
</g>
<path d="M43.5488 23.7901C43.4798 25.0421 43.2027 26.1301 42.7175 27.054C42.2327 27.9721 41.5726 28.6634 40.7372 29.1279C39.9079 29.5869 38.9697 29.7875 37.9225 29.7298C36.8869 29.6727 35.9764 29.3702 35.1909 28.8223C34.4116 28.2688 33.8254 27.5118 33.4323 26.5512C33.0451 25.5909 32.8823 24.4993 32.9438 23.2762L32.9834 22.5566C33.0521 21.3104 33.3321 20.2226 33.8234 19.2932C34.3206 18.364 34.9838 17.67 35.813 17.211C36.6485 16.7465 37.5869 16.5429 38.6282 16.6003C39.6696 16.6577 40.5772 16.96 41.351 17.5073C42.131 18.0491 42.7144 18.803 43.1013 19.7691C43.4885 20.7294 43.6507 21.8328 43.5879 23.0793L43.5488 23.7901ZM41.3652 23.0008C41.4432 21.585 41.2339 20.4849 40.7373 19.7005C40.2464 18.9165 39.5096 18.4974 38.5267 18.4432C37.5672 18.3903 36.7946 18.7263 36.209 19.451C35.6295 20.1702 35.296 21.2169 35.2085 22.5912L35.1679 23.3283C35.0905 24.7324 35.3028 25.8327 35.8047 26.6291C36.3124 27.4258 37.0518 27.8509 38.023 27.9044C39.0059 27.9586 39.7813 27.6257 40.3491 26.9059C40.9227 26.1864 41.2492 25.107 41.3285 23.6678L41.3652 23.0008ZM51.0241 29.3426C50.3575 30.0452 49.4479 30.3648 48.2954 30.3013C47.2657 30.2446 46.5013 29.9002 46.0021 29.2683C45.5087 28.6367 45.2935 27.7505 45.3563 26.6096L45.6953 20.4578L47.8278 20.5753L47.4903 26.7008C47.4239 27.906 47.8909 28.5362 48.8913 28.5913C49.9269 28.6483 50.6465 28.3153 51.0502 27.5923L51.4259 20.7736L53.5584 20.8911L53.0352 30.3864L51.0255 30.2757L51.0241 29.3426ZM60.5945 23.2329C60.3162 23.1706 60.0279 23.1312 59.7296 23.1148C58.7525 23.061 58.0737 23.3991 57.6931 24.1293L57.3353 30.6233L55.2028 30.5058L55.726 21.0105L57.7619 21.1227L57.7561 22.1874C58.3164 21.3909 59.0529 21.0177 59.9656 21.068C60.2698 21.0848 60.5191 21.1396 60.7135 21.2325L60.5945 23.2329ZM73.0673 28.1892C73.0982 27.6276 72.9231 27.1837 72.5421 26.8575C72.1669 26.5317 71.4729 26.1854 70.4603 25.8186C69.4477 25.4518 68.6477 25.0615 68.0602 24.6477C66.9362 23.8522 66.4066 22.8665 66.4714 21.6906C66.5282 20.6609 66.9932 19.8356 67.8666 19.2147C68.7458 18.5942 69.8553 18.3208 71.1951 18.3947C72.0843 18.4436 72.8681 18.6511 73.5462 19.0171C74.2244 19.3831 74.7456 19.8813 75.1099 20.5117C75.4746 21.1362 75.6366 21.817 75.5959 22.5542L73.3845 22.4323C73.4212 21.7654 73.2393 21.2331 72.8387 20.8354C72.4442 20.4323 71.858 20.2093 71.0798 20.1664C70.3544 20.1264 69.7813 20.2503 69.3605 20.5382C68.9456 20.8263 68.7228 21.2483 68.6922 21.8041C68.6664 22.2722 68.8613 22.6761 69.2768 23.0158C69.6926 23.3498 70.3896 23.6933 71.3678 24.0465C72.3463 24.3938 73.1263 24.7742 73.708 25.1877C74.2899 25.5954 74.7078 26.0526 74.9615 26.5595C75.2156 27.0606 75.3246 27.6388 75.2885 28.294C75.2298 29.3588 74.7736 30.1846 73.9197 30.7713C73.072 31.3525 71.949 31.6046 70.5507 31.5275C69.6263 31.4766 68.7844 31.26 68.025 30.8778C67.2717 30.4901 66.6953 29.983 66.2955 29.3566C65.9016 28.7304 65.7268 28.0166 65.7709 27.2151L67.9912 27.3374C67.9512 28.0629 68.1602 28.6377 68.618 29.062C69.0758 29.4863 69.7523 29.7231 70.6474 29.7724C71.4197 29.8149 72.0074 29.6918 72.4106 29.403C72.82 29.1087 73.0389 28.7041 73.0673 28.1892ZM81.0202 32.1044C79.6687 32.0299 78.5951 31.5453 77.7994 30.6506C77.0098 29.7503 76.654 28.5923 76.732 27.1764L76.7466 26.9132C76.7988 25.9654 77.0267 25.13 77.4304 24.4069C77.8402 23.6784 78.3871 23.1246 79.0711 22.7457C79.7551 22.3667 80.5037 22.1996 81.317 22.2444C82.6099 22.3157 83.5847 22.7831 84.2413 23.6467C84.9038 24.5106 85.1934 25.6973 85.1103 27.2067L85.0629 28.0668L78.8584 27.7249C78.8796 28.5124 79.1058 29.1469 79.5369 29.6284C79.974 30.1102 80.5406 30.3703 81.2368 30.4086C82.2139 30.4625 83.0313 30.1114 83.6891 29.3554L84.7783 30.5157C84.3667 31.0623 83.8334 31.476 83.1783 31.7568C82.5294 32.032 81.81 32.1479 81.0202 32.1044ZM81.2139 23.9552C80.6288 23.923 80.1437 24.1016 79.7584 24.4912C79.3789 24.8811 79.1193 25.4389 78.9796 26.1648L83.0428 26.3886L83.0515 26.2307C83.044 25.5143 82.8835 24.9656 82.57 24.5845C82.2568 24.1975 81.8048 23.9878 81.2139 23.9552ZM91.8888 24.9571C91.6106 24.8948 91.3223 24.8555 91.0239 24.839C90.0468 24.7852 89.368 25.1234 88.9874 25.8535L88.6296 32.3476L86.4971 32.2301L87.0203 22.7347L89.0563 22.8469L89.0504 23.9117C89.6107 23.1151 90.3472 22.742 91.2599 22.7923C91.5641 22.809 91.8134 22.8638 92.0078 22.9567L91.8888 24.9571ZM96.4749 30.0687L98.8588 23.387L101.062 23.5084L97.2474 32.8224L95.3957 32.7204L92.6017 23.0422L94.8132 23.1641L96.4749 30.0687ZM104.145 33.2025L102.013 33.085L102.536 23.5896L104.668 23.7071L104.145 33.2025ZM102.54 21.1164C102.558 20.7887 102.675 20.5223 102.892 20.3171C103.115 20.1123 103.419 20.0205 103.805 20.0418C104.191 20.063 104.484 20.1877 104.682 20.4158C104.881 20.6438 104.971 20.9217 104.953 21.2493C104.936 21.5711 104.816 21.8344 104.593 22.0393C104.371 22.2383 104.067 22.3272 103.68 22.3059C103.294 22.2846 103.002 22.1629 102.803 21.9406C102.61 21.7129 102.522 21.4381 102.54 21.1164ZM110.46 32.0188C110.992 32.0481 111.443 31.9174 111.811 31.6267C112.179 31.3359 112.387 30.963 112.436 30.508L114.445 30.6187C114.39 31.2083 114.175 31.7511 113.801 32.2469C113.428 32.7369 112.938 33.1147 112.33 33.3806C111.723 33.6464 111.077 33.7604 110.393 33.7227C109.065 33.6495 108.035 33.1615 107.304 32.2586C106.574 31.3557 106.25 30.1466 106.334 28.6314L106.346 28.412C106.425 26.9669 106.875 25.8327 107.695 25.0094C108.515 24.1802 109.592 23.8023 110.926 23.8758C112.055 23.9381 112.956 24.3192 113.627 25.0193C114.305 25.7139 114.632 26.5975 114.608 27.6701L112.598 27.5593C112.605 27.014 112.442 26.5561 112.111 26.1857C111.785 25.8157 111.353 25.6158 110.815 25.5861C110.124 25.5481 109.578 25.7704 109.176 26.2529C108.774 26.7295 108.542 27.4767 108.48 28.4944L108.461 28.8366C108.404 29.8663 108.546 30.6458 108.887 31.1751C109.234 31.6989 109.758 31.9801 110.46 32.0188ZM120.055 34.2551C118.703 34.1806 117.63 33.696 116.834 32.8013C116.044 31.901 115.689 30.743 115.767 29.3271L115.781 29.0639C115.833 28.1161 116.061 27.2807 116.465 26.5577C116.875 25.8291 117.422 25.2753 118.106 24.8964C118.79 24.5174 119.538 24.3503 120.352 24.3951C121.644 24.4664 122.619 24.9338 123.276 25.7974C123.938 26.6613 124.228 27.848 124.145 29.3574L124.097 30.2175L117.893 29.8756C117.914 30.6631 118.14 31.2976 118.571 31.7791C119.009 32.2609 119.575 32.521 120.271 32.5594C121.248 32.6132 122.066 32.2621 122.724 31.5061L123.813 32.6665C123.401 33.213 122.868 33.6267 122.213 33.9075C121.564 34.1827 120.845 34.2986 120.055 34.2551ZM120.248 26.1059C119.663 26.0737 119.178 26.2524 118.793 26.6419C118.413 27.0318 118.154 27.5896 118.014 28.3155L122.077 28.5393L122.086 28.3814C122.079 27.665 121.918 27.1163 121.605 26.7352C121.291 26.3483 120.839 26.1385 120.248 26.1059ZM131.001 32.0942C131.022 31.7139 130.88 31.4156 130.575 31.1993C130.276 30.9833 129.767 30.7793 129.05 30.5872C128.333 30.3951 127.738 30.1687 127.266 29.9079C126.229 29.3344 125.738 28.5591 125.792 27.5821C125.837 26.763 126.22 26.0975 126.941 25.5856C127.661 25.0737 128.554 24.8471 129.619 24.9057C130.754 24.9683 131.654 25.2996 132.319 25.8996C132.99 26.4999 133.301 27.2476 133.252 28.1427L131.119 28.0253C131.142 27.6157 131.008 27.268 130.719 26.9821C130.43 26.6904 130.034 26.5307 129.531 26.5029C129.063 26.4771 128.673 26.5643 128.363 26.7643C128.059 26.9646 127.897 27.2462 127.877 27.6089C127.858 27.9365 127.982 28.1986 128.247 28.3951C128.512 28.5917 129.058 28.8066 129.884 29.0399C130.71 29.2673 131.354 29.5228 131.813 29.8064C132.279 30.0844 132.616 30.4081 132.825 30.7776C133.039 31.1473 133.132 31.5867 133.104 32.0957C133.057 32.9499 132.665 33.6237 131.928 34.1171C131.191 34.6046 130.249 34.8168 129.103 34.7536C128.324 34.7107 127.639 34.5321 127.046 34.2178C126.453 33.9034 126 33.4912 125.688 32.981C125.376 32.4709 125.235 31.9321 125.267 31.3646L127.338 31.4787C127.339 31.9834 127.508 32.383 127.844 32.6773C128.18 32.9658 128.638 33.1259 129.217 33.1579C129.778 33.1888 130.211 33.107 130.516 32.9125C130.82 32.7122 130.982 32.4394 131.001 32.0942Z" fill="black"/>
<defs>
<filter id="filter0_d_3_2" x="0.994122" y="0.602407" width="164.012" height="50.7952" filterUnits="userSpaceOnUse" color-interpolation-filters="sRGB">
<feFlood flood-opacity="0" result="BackgroundImageFix"/>
<feColorMatrix in="SourceAlpha" type="matrix" values="0 0 0 0 0 0 0 0 0 0 0 0 0 0 0 0 0 0 127 0" result="hardAlpha"/>
<feOffset dx="1" dy="1"/>
<feComposite in2="hardAlpha" operator="out"/>
<feColorMatrix type="matrix" values="0 0 0 0 0.0666667 0 0 0 0 0.0666667 0 0 0 0 0.0666667 0 0 0 1 0"/>
<feBlend mode="normal" in2="BackgroundImageFix" result="effect1_dropShadow_3_2"/>
<feBlend mode="normal" in="SourceGraphic" in2="effect1_dropShadow_3_2" result="shape"/>
</filter>
</defs>
</svg>
