<svg width="84" height="84" viewBox="0 0 84 84" fill="none" xmlns="http://www.w3.org/2000/svg">
<path d="M53.6883 13.764C46.4608 12.896 38.416 13.5295 31.1728 14.2645C27.2423 14.6617 21.3868 15.7835 14.875 20.1252C4.37505 27.1252 5.28505 32.4785 4.6673 35.7387C3.8028 40.2957 5.4723 47.693 7.1803 52.0015C8.2688 54.7472 9.8753 57.7082 12.7103 58.4835C13.5153 58.704 14.5198 58.837 14.8348 59.6157C15.0903 60.2457 14.721 60.9422 14.3378 61.504C11.8983 65.0775 8.6678 67.9755 4.62705 69.484C12.012 71.955 20.9388 71.031 26.467 65.522C29.309 66.6315 39.5203 68.0927 43.7325 68.483C47.1013 68.7945 50.4928 69.0412 53.8633 68.756C58.4238 68.371 62.8775 67.0095 66.997 65.0057C70.7193 63.1945 74.2823 60.7637 76.5398 57.2795C78.9775 53.5187 79.6775 48.8655 79.6198 44.3767C79.5638 39.888 79.7983 35.2802 78.6118 30.9507C76.125 21.8752 72.38 20.0027 69.125 18.3752C65.625 16.6252 58.0318 14.2855 53.6883 13.764Z" fill="white"/>
<path d="M12.5948 71.6764C9.8875 71.6764 7.09275 71.2302 4.3505 70.3149C3.99875 70.1977 3.759 69.8704 3.752 69.4994C3.745 69.1284 3.97425 68.7942 4.32075 68.6629C7.94325 67.3084 11.0705 64.7324 13.615 61.0084C14.0508 60.3714 14.077 60.0774 14.021 59.9427C13.9178 59.6889 13.3525 59.5472 12.852 59.4229L12.4775 59.3267C9.12275 58.4097 7.3815 54.8904 6.36475 52.3232C4.48525 47.5754 2.94875 40.0924 3.80625 35.5757C3.88675 35.1504 3.93925 34.6884 3.99525 34.1914C4.389 30.7982 4.9805 25.6689 14.3868 19.3969C19.5213 15.9757 24.9813 14.0104 31.0818 13.3927C38.6558 12.6244 46.6497 12.0347 53.7897 12.8957C58.0703 13.4084 65.7125 15.6922 69.5135 17.5927C72.7878 19.2289 76.8618 21.2659 79.4553 30.7194C80.4703 34.4259 80.4773 38.3179 80.4825 42.0787C80.4843 42.8434 80.4843 43.6047 80.4948 44.3659C80.563 49.8452 79.4798 54.3497 77.2748 57.7534C75.2185 60.9262 71.9827 63.5529 67.3802 65.7912C62.9247 67.9594 58.4028 69.2509 53.9368 69.6272C50.4105 69.9264 46.921 69.6552 43.652 69.3542C40.0155 69.0164 30.3135 67.6899 26.6858 66.5244C23.0808 69.8914 18.0128 71.6764 12.5948 71.6764ZM7.17325 69.2964C14.2748 70.9554 21.4165 69.3227 25.8528 64.9004C26.0978 64.6572 26.4705 64.5802 26.7873 64.7062C29.505 65.7667 39.4975 67.2104 43.8148 67.6112C47.0103 67.9052 50.4088 68.1694 53.7915 67.8842C58.0405 67.5237 62.356 66.2899 66.6155 64.2179C70.924 62.1232 73.9305 59.6977 75.8065 56.8014C77.8208 53.6934 78.8113 49.5144 78.7465 44.3852C78.736 43.6187 78.736 42.8504 78.7343 42.0822C78.729 38.4352 78.722 34.6639 77.7682 31.1814C75.383 22.4822 71.8498 20.7164 68.733 19.1589C65.1385 17.3617 57.6345 15.1199 53.5833 14.6334C46.6077 13.7952 38.7345 14.3797 31.262 15.1339C25.452 15.7237 20.2493 17.5927 15.3598 20.8547C6.62725 26.6769 6.11275 31.1377 5.7365 34.3927C5.6735 34.9369 5.614 35.4392 5.5265 35.9012C4.73025 40.0959 6.20375 47.1624 7.99225 51.6792C8.87075 53.8982 10.3408 56.9292 12.9395 57.6397L13.2755 57.7272C14.091 57.9302 15.2075 58.2067 15.645 59.2882C16.065 60.3329 15.5138 61.3357 15.0605 61.9989C12.8415 65.2452 10.1955 67.6934 7.17325 69.2964Z" fill="#111111"/>
<path d="M53.41 31.9304C52.8605 31.9304 52.304 31.9234 51.7405 31.9077C50.3475 31.8692 48.909 31.8289 47.4898 31.4894C46.9805 31.3687 46.4818 31.2077 45.983 31.0467C45.283 30.8209 44.6198 30.6092 43.946 30.5147C42.9118 30.3764 41.8478 30.5129 40.7155 30.6599C39.8668 30.7702 39.0268 30.9102 38.0975 30.8787C36.6958 30.8699 35.3535 30.5707 34.0533 30.2802C33.061 30.0579 32.123 29.8497 31.1693 29.7622C28.0665 29.4769 24.8728 30.5322 22.0588 31.4667C21.5985 31.6224 21.105 31.3687 20.9528 30.9119C20.8005 30.4552 21.0508 29.9582 21.5075 29.8059C24.4825 28.8207 27.8548 27.7112 31.3285 28.0192C32.3943 28.1172 33.4303 28.3482 34.433 28.5722C35.6983 28.8539 36.8918 29.1199 38.1063 29.1269C38.8815 29.0902 39.662 29.0289 40.488 28.9222C41.6833 28.7664 42.9188 28.6072 44.1805 28.7804C45.0083 28.8942 45.7748 29.1409 46.5168 29.3807C46.9735 29.5259 47.4285 29.6747 47.894 29.7849C49.1365 30.0842 50.4823 30.1192 51.786 30.1559C54.1555 30.2242 56.4165 30.1262 58.6023 30.0352C60.8178 29.9407 63.105 29.8462 65.5393 29.9127C66.0223 29.9267 66.4038 30.3274 66.3898 30.8122C66.3758 31.2864 65.989 31.6627 65.5148 31.6627C65.5078 31.6627 65.499 31.6627 65.4903 31.6627C63.126 31.5979 60.8633 31.6942 58.674 31.7834C56.9748 31.8569 55.2283 31.9304 53.41 31.9304Z" fill="#111111"/>
<path d="M56.8277 40.8972C54.4722 40.8972 52.1272 40.808 49.8277 40.7205C47.453 40.6312 45.0135 40.556 42.5915 40.5455C40.222 40.5192 37.8735 40.3337 35.5722 40.1237C30.954 39.6967 26.5895 39.2942 22.4175 40.563C21.9502 40.7047 21.4655 40.4422 21.3255 39.9802C21.1855 39.5165 21.4462 39.0282 21.9082 38.8882C26.411 37.5197 31.1535 37.959 35.7315 38.3807C37.9505 38.5855 40.2412 38.7955 42.462 38.7955C42.616 38.7937 42.763 38.7955 42.9117 38.7955C45.241 38.7955 47.6052 38.8847 49.8925 38.9722C53.8947 39.1227 58.03 39.2802 62.055 38.9582C62.531 38.9407 62.9597 39.2785 62.9965 39.7597C63.035 40.241 62.6762 40.6645 62.195 40.7012C60.4117 40.8465 58.6162 40.8972 56.8277 40.8972Z" fill="#111111"/>
<path d="M42.9397 49.1134C42.938 49.1134 42.9362 49.1134 42.9327 49.1134L22.3405 48.9717C21.8592 48.9682 21.469 48.5727 21.4725 48.0897C21.476 47.6102 21.868 47.2217 22.3475 47.2217C22.3492 47.2217 22.351 47.2217 22.3545 47.2217L42.9467 47.3634C43.428 47.3669 43.8182 47.7624 43.8147 48.2454C43.8112 48.7267 43.421 49.1134 42.9397 49.1134Z" fill="#111111"/>
</svg>
