<svg width="84" height="84" viewBox="0 0 84 84" fill="none" xmlns="http://www.w3.org/2000/svg">
<path d="M48.6938 66.0845C48.1852 67.6431 47.2992 69.0376 45.757 69.7267C44.1492 70.4485 42.2789 70.2845 40.6055 69.9071C38.85 69.497 37.1602 68.7587 35.9461 67.397C34.7484 66.0353 34.2234 64.2962 34.1906 62.4915C34.1906 62.4587 34.1906 62.4423 34.1906 62.4095C33.5508 62.2782 32.8945 62.1798 32.2547 62.0649C31.5984 64.7228 30.368 67.8563 32.8453 69.7267C34.7813 71.1868 37.5703 71.4329 39.9 71.7939C42.2625 72.1548 44.9203 72.5321 47.2664 71.8267C49.6453 71.1048 50.7281 69.3493 50.9414 66.9376C50.9414 66.8556 50.9578 66.7899 50.9742 66.7407C50.2359 66.511 49.4648 66.2978 48.6938 66.0845Z" fill="white"/>
<path d="M69.3164 37.8984C68.9227 33.0586 68.3977 28.1039 66.9867 23.4445C66.2977 21.1148 65.4281 18.818 64.2961 16.6688C63.7055 15.5695 63.0984 13.2891 61.8023 12.7148C59.8992 13.3383 58.1109 14.2406 56.3391 15.1758C54.3867 16.2094 52.418 17.1281 50.3836 17.9648C48.2672 18.8508 46.1508 19.7859 44.0672 20.7375C43.0336 21.2133 42 21.6891 40.9664 22.1813C39.9492 22.657 38.932 23.2477 37.882 23.6414C33.7148 25.1836 29.6789 27.0211 25.6922 29.0063C22.0992 30.7945 18.1453 31.8938 14.7656 34.0922C14.9133 34.2727 15.0445 34.4695 15.1594 34.6828C16.2094 36.4711 16.3242 38.4727 16.5211 40.4906C16.9148 44.7234 17.243 49.0219 16.8984 53.2711C16.8 54.3867 16.7016 55.6828 16.3406 56.8477C20.5078 56.9461 24.3305 58.4391 28.3172 59.4234C29.1703 59.6367 30.0398 59.8008 30.893 59.9648C31.0406 59.7188 31.3195 59.5383 31.5984 59.5383H32.0906C32.632 59.5383 32.9437 59.9156 33.0094 60.3422C33.5344 60.4406 34.0758 60.5391 34.6008 60.6375C36.7172 61.0477 38.8172 61.5727 40.9336 62.0156C45.2156 62.9344 49.3008 64.5258 53.5664 65.5102C57.5531 66.4289 61.6547 66.8883 65.5266 68.25C65.7234 68.3156 65.8383 68.4469 65.9203 68.5945C66.2648 67.9875 66.6094 67.3641 66.9047 66.7406C68.9555 62.4422 69.2836 57.7008 69.5133 53.0086C69.7758 47.9719 69.7266 42.9188 69.3164 37.8984ZM8.89218 48.8742C8.54765 46.3805 8.33437 43.8539 7.97343 41.3602C7.71093 39.5555 7.41562 37.7508 7.0875 35.9625C7.02187 36.2414 6.97265 36.5203 6.92343 36.7992C6.71015 38.0461 6.75937 39.2273 6.89062 40.4742C7.12031 42.7711 7.48125 45.0352 7.57968 47.332C7.66172 49.268 7.76015 51.2203 8.12109 53.107C8.28515 53.9438 8.49843 55.0102 8.99062 55.8305C8.58047 53.6156 9.2039 51.0891 8.89218 48.8742Z" fill="white"/>
<path d="M15.0445 45.0187C14.9297 43.05 14.7328 41.0812 14.5523 39.1125C14.4211 37.7179 14.175 36.2742 13.2727 35.175C12.3047 33.9773 9.90937 32.8125 8.84297 34.5351C8.79375 34.6172 8.72812 34.6828 8.6625 34.7484C9.22031 37.7179 9.69609 40.7039 10.0898 43.7062C10.4344 46.3476 10.8281 48.9726 10.6969 51.6304C10.6148 53.3367 10.2047 56.1094 11.632 57.4219C12.0914 57.8484 12.5672 58.1273 13.1086 58.1929C13.125 58.1929 13.2891 58.1929 13.3219 58.1765C13.3383 58.1765 13.3547 58.1765 13.3711 58.1765C13.3875 58.1765 13.4039 58.1601 13.4531 58.1437C13.3711 58.1765 13.7648 57.9304 13.6828 58.0125C14.1586 57.5367 14.4211 56.8476 14.618 56.1258C14.8969 55.0429 15.0281 53.9273 15.1102 52.8117C15.307 50.2031 15.2086 47.5945 15.0445 45.0187Z" fill="white"/>
<path d="M71.4 42.5908C71.2195 37.6525 70.7437 32.6978 69.8742 27.8252C69.4641 25.4791 68.857 23.1494 68.0695 20.8853C67.6922 19.7861 67.2492 18.7033 66.7734 17.6533C66.3141 16.6197 65.7234 15.6517 65.2805 14.6182C64.7062 13.24 63.8859 11.665 62.475 11.0252C62.3109 10.8775 62.0812 10.7955 61.8352 10.8119C61.507 10.7463 61.2609 10.8447 61.0805 11.0252C59.2594 11.6322 57.5531 12.4853 55.8633 13.3877C53.8617 14.4377 51.8766 15.3892 49.793 16.2588C47.6602 17.1447 45.5602 18.0799 43.4766 19.0314C41.3273 20.0158 39.2109 21.2299 36.9961 22.0502C32.8289 23.5924 28.8094 25.4627 24.8227 27.4314C21.1641 29.2525 17.1445 30.3682 13.6992 32.6158C13.5844 32.6814 13.5023 32.7635 13.4531 32.8619C11.7469 31.6971 9.48281 31.4346 7.95703 32.8455C7.44844 32.5994 6.75938 32.8127 6.67734 33.5017C6.33281 33.6002 6.02109 33.8463 5.80781 34.2236C5.29922 35.1096 5.20078 36.2252 5.03672 37.226C4.77422 38.883 5.08594 40.6877 5.29922 42.3447C5.47969 43.7392 5.67656 45.1174 5.75859 46.5119C5.87344 48.8252 5.93906 51.1385 6.38203 53.4025C6.74297 55.2892 7.43203 57.701 9.40078 58.5213C9.7125 58.6525 10.0078 58.6033 10.2375 58.4556C11.5172 59.9158 13.8305 60.5721 15.2578 58.9642C15.4055 58.7838 15.5531 58.6033 15.6844 58.4064C15.832 58.5377 16.0289 58.6197 16.275 58.6197C20.3273 58.6525 24.1336 60.1783 28.0219 61.1791C28.8586 61.3924 29.7117 61.5728 30.5648 61.7205C30.2367 63.1642 29.7445 64.5752 29.6461 66.0681C29.5312 67.8236 30.0727 69.4314 31.3031 70.6783C33.3375 72.7291 36.7336 73.0572 39.4406 73.5002C42.2789 73.9596 45.3141 74.2877 48.1031 73.451C50.9578 72.5978 52.5492 70.1369 52.7789 67.2494C52.7789 67.2166 52.7789 67.1838 52.7789 67.151C56.5031 68.0697 60.375 68.4471 64.0336 69.6119C64.1977 69.8088 64.4437 69.9564 64.7555 69.9564H65.2312C65.0836 70.7931 66.4289 71.3181 66.9703 70.4486C68.1516 68.5127 69.1359 66.5111 69.8414 64.3619C70.5797 62.1471 70.8258 59.8338 71.0391 57.5041C71.4656 52.5658 71.5641 47.5619 71.4 42.5908ZM8.12109 53.1236C7.74375 51.2205 7.66172 49.2682 7.57969 47.3486C7.48125 45.0517 7.12031 42.7877 6.89063 40.4908C6.75938 39.2275 6.72656 38.0463 6.92344 36.8158C6.97266 36.5369 7.02188 36.258 7.0875 35.9791C7.41563 37.7674 7.71094 39.5721 7.97344 41.3767C8.33437 43.8705 8.54766 46.3971 8.89219 48.8908C9.20391 51.1056 8.58047 53.6158 8.99062 55.8471C8.49844 55.0267 8.26875 53.9439 8.12109 53.1236ZM15.1266 52.7791C15.0445 53.8947 14.9133 55.0103 14.6344 56.0931C14.4539 56.815 14.175 57.5205 13.6992 57.9799C13.7812 57.8978 13.3711 58.1603 13.4695 58.1111C13.4203 58.1275 13.4039 58.1439 13.3875 58.1439C13.3875 58.1439 13.3711 58.1439 13.3383 58.1439C13.3055 58.1439 13.1414 58.1439 13.125 58.1603C12.5836 58.1111 12.1078 57.8158 11.6484 57.3892C10.2375 56.0767 10.6477 53.3041 10.7133 51.5978C10.8281 48.94 10.4344 46.315 10.1062 43.6736C9.7125 40.6713 9.25313 37.6853 8.67891 34.7158C8.74453 34.6502 8.79375 34.5846 8.85938 34.5025C9.92578 32.7799 12.3211 33.9447 13.2891 35.1424C14.1914 36.258 14.4539 37.7017 14.5687 39.0799C14.7492 41.0486 14.9297 43.0174 15.0609 44.9861C15.2086 47.5947 15.307 50.2033 15.1266 52.7791ZM50.9578 66.9213C50.7609 69.333 49.6617 71.1049 47.2828 71.8103C44.9367 72.5158 42.2789 72.1385 39.9164 71.7775C37.5867 71.4166 34.7977 71.1705 32.8617 69.7103C30.3844 67.84 31.6148 64.7064 32.2711 62.0486C32.9273 62.1635 33.5672 62.2783 34.207 62.3931C34.207 62.426 34.207 62.4424 34.207 62.4752C34.2234 64.2635 34.7484 66.0189 35.9625 67.3806C37.1766 68.7424 38.8664 69.4971 40.6219 69.8908C42.2953 70.2846 44.1656 70.4322 45.7734 69.7103C47.332 69.0213 48.2016 67.6103 48.7102 66.0681C49.4812 66.2814 50.2359 66.5111 51.007 66.708C50.9742 66.79 50.9578 66.8556 50.9578 66.9213ZM36.0773 63.3119C36.3562 63.2627 36.5367 63.115 36.6352 62.9017C37.9641 63.1806 39.2766 63.476 40.5891 63.8041C42.7383 64.3291 44.8547 64.9689 46.9711 65.576C46.6102 66.6916 45.9703 67.7088 44.8383 68.1517C43.5422 68.6603 42.0328 68.3814 40.7203 68.0697C39.4078 67.758 38.1937 67.151 37.2586 66.1666C36.5367 65.3955 36.1922 64.3619 36.0773 63.3119ZM69.5297 53.0088C69.3 57.701 68.9719 62.4424 66.9211 66.7408C66.6258 67.3806 66.2812 67.9877 65.9367 68.5947C65.8547 68.4471 65.7234 68.3158 65.543 68.2502C61.6547 66.8885 57.5695 66.4291 53.5828 65.5103C49.3172 64.526 45.232 62.9346 40.95 62.0158C38.8336 61.5564 36.7336 61.0478 34.6172 60.6377C34.0922 60.5392 33.5508 60.4408 33.0258 60.3424C32.9602 59.9322 32.632 59.5385 32.107 59.5385H31.6148C31.3523 59.5385 31.0734 59.7189 30.9094 59.965C30.0398 59.801 29.1867 59.6369 28.3336 59.4236C24.3305 58.4392 20.5078 56.9463 16.357 56.8478C16.7016 55.6666 16.8164 54.3705 16.9148 53.2713C17.2594 49.0221 16.9313 44.7236 16.5375 40.4908C16.357 38.4728 16.2258 36.4877 15.1758 34.683C15.0609 34.4861 14.9297 34.2892 14.782 34.0924C18.1617 31.8939 22.1156 30.7783 25.7086 29.0064C29.6953 27.0377 33.7312 25.1838 37.8984 23.6416C38.9484 23.2478 39.9656 22.6572 40.9828 22.1814C42.0164 21.6892 43.05 21.2135 44.0836 20.7377C46.1672 19.7697 48.2836 18.851 50.4 17.965C52.4344 17.1119 54.4031 16.1932 56.3555 15.176C58.1273 14.2408 59.9156 13.3221 61.8187 12.715C63.1148 13.2892 63.7219 15.5697 64.3125 16.6689C65.4609 18.8182 66.3141 21.115 67.0031 23.4447C68.3977 28.1205 68.9391 33.0588 69.3328 37.8986C69.7266 42.9189 69.7758 47.9721 69.5297 53.0088ZM76.6828 26.9721C75.2883 27.7924 73.8773 28.5635 72.8109 29.8267C72.0562 30.7127 73.418 31.9103 74.1727 31.0244C75.1242 29.8924 76.4367 29.2197 77.6836 28.465C78.7008 27.8744 77.6836 26.3814 76.6828 26.9721ZM81.2273 39.851C79.9148 38.3744 77.6508 38.6861 75.8789 38.4072C74.7305 38.2267 74.3859 39.9986 75.5344 40.1791C76.9125 40.3924 79.0125 40.0478 80.0297 41.1963C80.8172 42.0658 81.9984 40.7041 81.2273 39.851ZM79.8 53.7471C78.5859 53.0416 77.2406 52.7135 75.8789 52.4346C74.7305 52.2049 74.3859 53.9767 75.5344 54.2064C76.7484 54.4525 77.9133 54.7314 78.9961 55.3549C80.0133 55.9291 80.8172 54.3213 79.8 53.7471Z" fill="#111111"/>
</svg>
