<svg width="84" height="84" viewBox="0 0 84 84" fill="none" xmlns="http://www.w3.org/2000/svg">
<path d="M46.6922 74.5827C45.7078 75.1897 44.707 75.6983 43.6734 76.1905C41.8524 77.0601 40.0149 77.946 38.0789 78.5366C38.4563 79.0452 38.85 79.521 39.2766 79.964C41.2289 78.6351 43.4109 77.503 45.6422 76.7483C45.8883 76.6663 46.118 76.6827 46.2984 76.7647C46.6758 76.0429 47.0531 75.2882 47.4305 74.5663C47.5617 74.3202 47.693 74.0905 47.8242 73.8608C47.4305 74.1069 47.0695 74.353 46.6922 74.5827Z" fill="white"/>
<path d="M53.5172 58.8657C52.6969 59.1446 51.9586 59.6368 51.2367 60.1126C50.3672 60.6868 49.4648 61.1954 48.5461 61.704C46.4789 62.8524 44.4609 64.0993 42.3445 65.1493C40.1789 66.2157 37.9148 67.036 35.6672 67.922C34.7484 68.2829 33.8789 68.6603 33.0258 69.1524C32.4351 69.497 31.8281 69.8907 31.1555 70.0876C31.1719 70.1204 31.2047 70.1696 31.2211 70.2024C32.632 72.3353 34.5516 74.0907 36.1922 76.0267C36.4547 76.3384 36.7008 76.6501 36.9469 76.9946C39.1781 76.3712 41.2453 75.354 43.3453 74.3532C45.3305 73.4181 47.0695 72.0235 49.0875 71.1704C49.2351 71.1048 49.3664 71.0884 49.4976 71.1048C49.9734 70.3665 50.4492 69.6118 50.8922 68.8571C52.0242 66.9704 53.1398 64.936 53.468 62.7212C53.6648 61.4579 53.6484 60.1618 53.5172 58.8657Z" fill="white"/>
<path d="M40.7367 81.1948C40.8352 81.2769 40.9008 81.3753 40.95 81.4737C42.6891 81.9987 44.1328 80.3417 45.068 78.9144C43.5586 79.5214 42.0984 80.3089 40.7367 81.1948ZM53.0906 56.1425C52.9266 56.2737 52.7789 56.3886 52.582 56.487C52.5164 56.5198 52.4672 56.5362 52.4344 56.5526C52.4016 56.5855 52.3523 56.6183 52.2867 56.6511C51.8766 56.93 51.4664 57.1925 51.0398 57.4386C50.1375 57.9636 49.2023 58.4394 48.2508 58.8987C46.3477 59.8011 44.3953 60.605 42.443 61.4089C38.0133 63.23 33.8297 65.6089 29.2852 67.1019C29.2852 67.1183 29.3016 67.1183 29.3016 67.1347C29.5969 67.594 29.8758 68.0698 30.1547 68.5292C30.368 68.2995 30.6961 68.1847 30.9914 68.2175C31.5164 67.9714 32.025 67.6433 32.5172 67.3479C33.4031 66.8394 34.3711 66.4784 35.3227 66.1011C37.5703 65.2151 39.8836 64.3948 42.0164 63.2628C44.1492 62.1472 46.1836 60.8839 48.3 59.7519C49.9078 58.8823 51.368 57.5698 53.1562 57.0612C53.1891 57.0612 53.2055 57.0448 53.2383 57.0448C53.2219 56.7495 53.1563 56.4542 53.0906 56.1425ZM37.0453 8.00654C36.0773 8.05576 34.7484 7.82607 33.9937 8.58076C33.3047 9.26982 32.7469 10.0901 32.2547 10.9269C32.2383 10.9597 32.2219 10.9925 32.2055 11.0253C33.3703 10.812 34.4695 10.1394 35.4539 9.54873C36.3398 9.02373 37.2094 8.44951 38.1281 7.94092C37.7672 7.97373 37.4063 8.00654 37.0453 8.00654Z" fill="white"/>
<path d="M44.9367 25.6761C44.8219 25.6761 44.6906 25.6597 44.5594 25.5941C43.0336 24.9706 41.1633 25.1675 39.5883 25.4136C38.1445 25.6433 36.7172 25.9714 35.3391 26.4964C35.1422 26.8245 34.9453 27.1691 34.7977 27.5464C33.8789 29.8597 33.3047 32.3206 32.4352 34.6667C32.4023 34.7652 32.3695 34.88 32.3203 34.9784C34.5187 33.9449 36.7992 33.0589 39.1125 32.3042C40.3102 31.9105 41.5898 31.6152 42.7055 31.0081C43.6898 30.4667 44.625 29.8433 45.675 29.4331C45.4125 28.1699 45.1664 26.923 44.9367 25.6761Z" fill="white"/>
<path d="M29.4984 13.3876C29.4656 13.2564 29.4492 13.1251 29.4656 12.9775C29.564 12.3705 29.7773 11.7798 30.0562 11.2056C28.2023 10.9923 26.0695 10.9267 24.4125 10.0244C24.2976 10.2376 24.1828 10.4509 24.0844 10.6806C23.8547 11.1892 23.6414 11.7306 23.4937 12.272C23.2312 13.2236 22.8539 14.3392 23.264 15.3072C23.7726 16.4884 25.4625 16.6197 26.5781 16.7345C27.6445 16.833 28.7273 17.0298 29.8101 17.1283C29.6133 16.6525 29.4328 16.1767 29.3015 15.6845C29.1047 14.9462 28.9078 13.9947 29.4984 13.3876ZM54.9445 4.97124C54.7312 4.67592 54.4851 4.41342 54.1898 4.20014C52.8445 3.23217 50.9906 2.7728 49.3664 2.54311C44.1492 1.82124 38.8336 3.52749 33.8789 4.98764C31.8445 5.57827 29.8429 6.30014 27.7922 6.85795C26.9719 7.07124 26.0039 7.28452 25.3148 7.80952C25.1836 7.92436 25.0031 8.07202 24.9211 8.21967C25.0851 8.35092 25.5609 8.58061 25.8726 8.67905C26.4633 8.85952 27.0539 8.99077 27.6609 9.0892C28.6617 9.25327 29.6789 9.3517 30.6797 9.48295C30.7945 9.49936 30.8929 9.53217 30.9914 9.58139C31.5492 8.67905 32.1726 7.72749 33.0258 7.08764C34.289 6.13608 35.6672 6.39858 37.1273 6.23452C37.9804 6.13608 38.8336 6.13608 39.6867 6.05405C40.507 5.97202 41.3437 5.85717 42.164 5.90639C43.1976 5.97202 44.2969 6.05405 45.2648 6.48061C46.1015 5.57827 47.4961 5.3978 48.6937 5.36499C50.2851 5.31577 51.8601 5.49624 53.4515 5.56186C54.0094 5.59467 54.5508 5.59467 55.0758 5.4142C55.0922 5.3978 55.1086 5.3978 55.1086 5.38139C55.125 5.38139 55.125 5.36499 55.1414 5.36499C55.0922 5.20092 55.0265 5.08608 54.9445 4.97124Z" fill="white"/>
<path d="M51.1055 48.1195C50.7609 47.0203 50.3836 45.9211 50.0062 44.8383C49.1859 45.0844 48.4312 45.6586 47.7258 46.1016C46.7906 46.6922 45.8719 47.25 44.9039 47.775C42.3609 49.1531 39.9656 50.7609 37.3734 52.0242C35.3555 53.0086 33.3047 54.075 31.2211 54.9117C30.532 55.1906 29.843 55.4531 29.1703 55.7484C28.875 55.8797 28.5797 55.9945 28.3008 56.1422C28.2844 56.1586 28.268 56.1586 28.2516 56.175C28.1531 56.4539 27.907 56.6836 27.4969 56.6836H27.3328C27.0867 56.6836 26.8242 56.5852 26.6438 56.4211C26.5945 56.6508 26.5453 56.8805 26.4961 57.1102C26.2336 58.3242 25.9219 59.5875 26.0039 60.8344C26.0859 61.9664 26.693 63.0656 27.2836 64.0172C27.6117 64.5422 27.9727 65.0672 28.3172 65.5922C28.3992 65.5266 28.4813 65.4774 28.5961 65.4445C33.1078 63.968 37.2258 61.6055 41.6063 59.8172C43.4766 59.0461 45.3633 58.2914 47.2008 57.4383C48.1688 56.9789 49.1531 56.5031 50.0719 55.9617C50.4984 55.7156 50.9086 55.4531 51.3187 55.1742C51.4992 55.043 51.6797 54.8789 51.9094 54.7969C51.9422 54.7805 51.975 54.7805 52.0078 54.7641C52.2703 54.6 52.5656 54.5836 52.8117 54.682C52.2867 52.4672 51.7617 50.2688 51.1055 48.1195ZM46.0687 9.41719C44.8711 7.87501 43.1156 7.53048 41.2289 7.67813C40.9172 7.69454 40.5891 7.72735 40.2773 7.76016C40.4742 8.20313 40.3922 8.81016 39.8344 9.07266C37.2258 10.3031 34.7484 12.8133 31.7297 12.8953C31.582 12.8953 31.4672 12.8789 31.3523 12.8297C31.3031 12.9938 31.2703 13.1578 31.2375 13.3219C31.2047 13.4859 31.1555 13.6172 31.0734 13.732C31.1719 13.9781 31.1391 14.2734 30.9094 14.5359C30.9258 14.6672 30.9258 14.8149 30.9586 14.9461C31.0734 15.3891 31.2211 15.8156 31.4016 16.2422C31.5656 16.6524 31.7461 17.0461 31.9266 17.4399C31.9594 17.4234 31.9922 17.407 32.0414 17.3906C34.7813 16.3242 37.4391 15.0609 40.2445 14.1914C41.393 13.8305 42.5578 13.5188 43.657 13.0266C44.1492 12.8133 44.6414 12.5672 45.068 12.2391C45.232 12.1078 45.3797 11.9766 45.5273 11.8781C45.5109 11.7305 45.5438 11.5828 45.6258 11.4516C45.9047 10.9758 46.3641 10.7297 46.8563 10.5492C46.6102 10.1391 46.3477 9.76173 46.0687 9.41719Z" fill="white"/>
<path d="M62.6719 7.25146C62.3109 6.021 61.2281 5.2335 60.1617 4.61006C59.8008 4.41318 59.4398 4.21631 59.0625 4.05225C59.2101 5.16787 59.2266 6.2999 58.6851 7.30068C58.2914 8.05537 57.7336 8.71162 57.1922 9.36787C58.3242 9.07256 59.4726 8.82646 60.6211 8.61318C60.7523 8.51475 60.9164 8.46553 61.1297 8.46553C61.2609 8.46553 61.3922 8.46553 61.5234 8.44912C61.5398 8.44912 61.5726 8.44912 61.5891 8.44912C62.2617 8.3999 62.918 8.121 62.6719 7.25146ZM49.9734 7.12021C49.2844 7.10381 47.4141 6.95615 46.7414 7.48115C47.2008 7.90771 47.5945 8.3999 47.9391 8.94131C48.5625 9.87646 49.1367 10.8116 49.5469 11.8616C49.6617 12.1569 49.793 12.5015 49.875 12.8624C49.8914 12.8624 49.8914 12.8788 49.9078 12.8788C50.2031 12.321 50.6953 11.878 51.2695 11.5171C51.2695 11.4679 51.2695 11.4187 51.2859 11.353C51.45 10.1554 52.1062 8.97412 52.7789 7.98975C52.9266 7.77646 53.0742 7.54678 53.2383 7.3335C52.1391 7.25146 51.0562 7.13662 49.9734 7.12021Z" fill="white"/>
<path d="M57.1102 3.33057C56.5852 3.1665 56.0438 3.03525 55.4859 2.92041C56.1586 3.44541 56.7164 4.10166 56.9297 4.92197C57.2086 5.93916 56.7 6.61182 55.9289 6.98916C55.1906 7.54697 54.6164 8.38369 54.157 9.15479C53.8945 9.59775 53.632 10.0407 53.4188 10.5329C53.7961 10.4017 54.1406 10.2868 54.4688 10.1884C54.4688 10.172 54.4852 10.1556 54.4852 10.1392C55.1414 8.90869 56.2899 8.00635 56.9297 6.77588C57.5039 5.64385 57.3399 4.49541 57.1102 3.33057ZM49.0383 42.0493C48.9563 42.1313 48.8414 42.1806 48.6938 42.2134C46.807 42.6892 45.1992 43.8868 43.5258 44.8384C41.7703 45.8392 39.8836 46.5938 38.0789 47.4798C36.3727 48.3165 34.732 49.186 33.075 50.1212C31.6149 50.9579 30.007 51.8274 28.268 51.7618C27.9727 51.7454 27.743 51.6306 27.5953 51.4501C27.3656 52.5821 27.1359 53.7142 26.9227 54.8462C27.1524 54.6821 27.4313 54.5673 27.6938 54.436C28.432 54.0915 29.1867 53.7798 29.9414 53.4681C31.9758 52.6478 33.9445 51.6634 35.9133 50.7118C38.7516 49.3501 41.3766 47.611 44.1492 46.1017C45.15 45.5603 46.1016 44.9368 47.0695 44.3462C47.7914 43.9032 48.5789 43.3618 49.3992 43.0993C49.2844 42.7712 49.1695 42.4103 49.0383 42.0493ZM46.0852 31.1884C45.0188 31.6478 44.0836 32.3532 43.0336 32.829C41.8688 33.3376 40.6547 33.6493 39.457 34.0759C36.9141 34.9946 34.4039 35.9134 31.9758 37.1274C31.8117 37.2095 31.6641 37.2259 31.5328 37.2259C31.2703 38.0134 31.0078 38.8173 30.7453 39.6048C31.8117 39.1454 32.7797 38.4071 33.8297 37.8821C35.1258 37.2423 36.4711 36.7009 37.7672 36.0774C40.5563 34.7485 43.2305 33.1899 46.1344 32.1399C46.1836 32.1235 46.2492 32.1071 46.2984 32.0907C46.2164 31.7954 46.1508 31.5001 46.0852 31.1884Z" fill="white"/>
<path d="M46.7086 33.8462C43.7227 34.929 40.8844 36.4712 38.0789 37.9313C36.8156 38.5876 35.4211 38.9978 34.1742 39.6868C33.0094 40.3267 31.9266 41.1798 30.6305 41.5407C30.45 41.5899 30.2859 41.5899 30.1383 41.5571C30.0891 41.7376 30.0399 41.9181 29.9742 42.0985C29.2688 44.5759 28.6125 47.086 28.0055 49.5962C27.9727 49.7274 27.9399 49.8587 27.907 49.9899C27.9727 49.9735 28.0383 49.9735 28.1203 49.9735C29.8922 50.0392 31.4836 48.9892 32.9438 48.1032C34.568 47.1188 36.307 46.3477 38.0133 45.511C39.8344 44.6087 41.7047 43.8376 43.4438 42.7876C44.9039 41.9017 46.4133 40.9337 48.0867 40.5071C48.2508 40.4579 48.3984 40.4743 48.5461 40.5071C47.8899 38.3087 47.2664 36.0774 46.7086 33.8462ZM46.7414 16.3735C45.6258 16.9313 44.4609 17.3743 43.3289 17.9157C40.2281 19.3759 37.193 21.0985 33.9281 22.1978C33.8461 22.2306 33.7641 22.247 33.682 22.247C33.9774 23.1165 34.3547 23.9532 34.9781 24.7079C36.4875 24.1665 38.0953 23.8056 39.6703 23.5923C41.3109 23.379 43.05 23.2806 44.6578 23.7399C44.6906 23.6743 44.7234 23.6087 44.7727 23.5431C45.9047 21.9681 46.8399 20.1962 47.4305 18.3423C47.7094 17.4563 47.9063 16.5376 48.1031 15.6353C47.6766 15.9142 47.2008 16.1438 46.7414 16.3735Z" fill="white"/>
<path d="M47.9719 12.7808C47.8898 12.5675 47.8078 12.3378 47.7094 12.1245C47.6437 12.1409 47.5945 12.1737 47.5289 12.1901C47.5289 12.3378 47.4961 12.5019 47.4469 12.6331C47.2828 12.994 47.0531 13.0597 46.725 13.2237C46.6102 13.2894 46.5609 13.3222 46.5609 13.3058C46.4953 13.3714 46.4297 13.437 46.3477 13.5026C45.8883 13.8964 45.3633 14.2081 44.8219 14.4706C43.6734 15.0284 42.4594 15.4058 41.2289 15.7831C38.2922 16.6854 35.5031 17.9815 32.6484 19.0972C32.8453 19.5894 33.0094 20.0979 33.157 20.6065C33.2063 20.5737 33.2555 20.5573 33.3211 20.5245C36.4055 19.4745 39.3586 17.8995 42.2625 16.4558C43.2797 15.9472 44.3297 15.5534 45.3469 15.0776C45.9867 14.7823 47.1844 14.3558 47.5617 13.7651C47.7094 13.5519 47.8898 13.4206 48.1031 13.355C48.1031 13.1417 48.0375 12.9612 47.9719 12.7808Z" fill="white"/>
<path d="M62.7703 4.26575C59.5711 1.49309 54.8953 0.623558 50.7774 0.754809C50.5969 0.754809 50.4492 0.804027 50.3344 0.886059C46.807 0.246215 43.1485 0.738402 39.6375 1.57512C37.111 2.16575 34.6008 2.87121 32.107 3.6259C31.0406 3.95403 29.9906 4.33137 28.9242 4.6759C28.0875 4.95481 27.2016 5.11887 26.3485 5.38137C25.1508 5.74231 23.7563 6.34934 23.2313 7.5634C23.0672 7.95715 23.0508 8.31809 23.1492 8.64622C22.5586 9.35168 22.2141 10.4181 21.9516 11.1728C21.4758 12.5837 21.1149 14.0275 21.443 15.5204C21.8203 17.3087 23.625 18.0634 25.2328 18.3587C26.1352 18.5228 27.0539 18.5556 27.9563 18.654C28.8422 18.7525 29.7281 18.9165 30.6305 18.9657C31.5984 21.2134 31.8609 23.7564 33.4524 25.6923C33.4195 25.8564 33.4195 26.0204 33.4524 26.1681C33.075 26.9228 32.8125 27.7103 32.5664 28.5306C32.1891 29.8267 31.7789 31.1064 31.3359 32.3861C30.4992 34.8142 29.5969 37.2259 28.8422 39.6868C27.3164 44.6415 26.1844 49.6783 25.1344 54.7478C24.675 56.9626 23.7399 59.5384 24.2977 61.7861C24.8719 64.0829 26.3977 65.9532 27.661 67.8892C28.3172 68.9064 28.9242 69.94 29.5641 70.9572C30.2695 72.0728 31.1227 73.0408 31.9922 74.0087C33.6492 75.8626 35.2899 77.6837 36.75 79.6853C37.5375 80.7517 38.3742 81.7033 39.4406 82.4415C39.4899 82.6712 39.6375 82.8845 39.9328 82.9993C43.1813 84.2626 45.5274 81.5556 47.0695 79.029C47.7914 77.8478 48.3656 76.6009 49.0055 75.3704C50.0555 73.4017 51.3188 71.5642 52.4672 69.6447C53.6156 67.7415 54.6 65.7564 55.0922 63.5743C55.6172 61.2611 55.3547 58.8001 54.9445 56.5033C54.0586 51.4665 52.5164 46.5939 50.8266 41.7868C48.9563 36.4056 47.6438 30.7782 46.6102 25.1837C46.561 24.8884 46.3805 24.6751 46.1672 24.5439C47.2828 22.9525 48.2016 21.2626 48.8742 19.4251C49.4484 17.8501 49.6289 16.1931 50.1047 14.6017C50.6297 14.7493 51.3352 14.4212 51.368 13.6993C51.368 13.7978 51.368 13.765 51.45 13.6173C51.3844 13.7322 51.6141 13.4368 51.6305 13.4368C51.9586 13.1415 52.3524 12.9282 52.7461 12.7314C53.7305 12.2228 54.8297 11.8782 55.8961 11.5665C57.75 11.0087 59.6367 10.5657 61.5563 10.2376H61.5727C62.9016 10.172 64.0992 9.51575 64.411 8.12122C64.7883 6.67747 63.8203 5.16809 62.7703 4.26575ZM29.4985 13.3876C28.9078 13.9947 29.1211 14.9462 29.3016 15.6681C29.4328 16.1603 29.6133 16.6361 29.8102 17.1118C28.7274 17.0134 27.6445 16.8165 26.5781 16.7181C25.4625 16.6032 23.7891 16.472 23.2641 15.2907C22.8375 14.3392 23.2313 13.2072 23.4938 12.2556C23.6414 11.7142 23.8547 11.1728 24.0844 10.6642C24.1828 10.4345 24.2977 10.2212 24.4125 10.0079C26.0695 10.9103 28.1859 10.9923 30.0563 11.1892C29.7774 11.7634 29.5641 12.354 29.4656 12.9611C29.4492 13.1251 29.4492 13.2728 29.4985 13.3876ZM27.661 9.08918C27.0539 8.99075 26.4633 8.8595 25.8727 8.67903C25.5609 8.58059 25.0852 8.36731 24.9211 8.21965C25.0195 8.072 25.1836 7.92434 25.3149 7.8095C26.0039 7.26809 26.9719 7.07122 27.7922 6.85793C29.843 6.31653 31.8445 5.59465 33.8789 4.98762C38.8336 3.54387 44.1492 1.82121 49.3664 2.54309C50.9906 2.77278 52.8281 3.23215 54.1899 4.20012C54.4852 4.4134 54.7313 4.6595 54.9445 4.97121C55.0266 5.08606 55.0922 5.2009 55.1414 5.33215C55.125 5.33215 55.125 5.34856 55.1086 5.34856C55.0922 5.36496 55.0758 5.36496 55.0758 5.38137C54.5508 5.56184 54.0094 5.54543 53.4516 5.52903C51.8602 5.4634 50.2852 5.28293 48.6938 5.33215C47.4961 5.36496 46.1016 5.54543 45.2649 6.44778C44.3133 6.02122 43.1977 5.92278 42.1641 5.87356C41.3438 5.82434 40.507 5.93918 39.6867 6.02122C38.8336 6.11965 37.9641 6.10325 37.1274 6.20168C35.6672 6.36575 34.2891 6.10325 33.0258 7.05481C32.1727 7.69465 31.5492 8.66262 30.9914 9.54856C30.9094 9.49934 30.7945 9.46653 30.6797 9.45012C29.6789 9.35168 28.6617 9.25325 27.661 9.08918ZM38.1281 7.94075C37.2258 8.44934 36.3563 9.00715 35.4539 9.54856C34.4695 10.1392 33.3539 10.8118 32.2055 11.0251C32.2219 10.9923 32.2383 10.9595 32.2547 10.9267C32.7305 10.09 33.2883 9.26965 33.9938 8.58059C34.7484 7.8259 36.0774 8.05559 37.0453 8.00637C37.4063 8.00637 37.7672 7.97356 38.1281 7.94075ZM31.9102 17.4236C31.7297 17.0298 31.5492 16.6197 31.3852 16.2259C31.2211 15.7993 31.057 15.3728 30.9422 14.9298C30.9094 14.7986 30.893 14.6673 30.893 14.5197C31.1227 14.2572 31.1555 13.9782 31.057 13.7157C31.1391 13.6173 31.2047 13.4697 31.2211 13.3056C31.2539 13.1415 31.2867 12.9775 31.3359 12.8134C31.4508 12.8626 31.582 12.879 31.7133 12.879C34.732 12.797 37.2094 10.2868 39.818 9.05637C40.3758 8.79387 40.4742 8.17043 40.2609 7.74387C40.5727 7.71106 40.9008 7.69465 41.2125 7.66184C43.0992 7.51418 44.8547 7.85872 46.0524 9.4009C46.3313 9.76184 46.5774 10.1228 46.8234 10.5165C46.3313 10.697 45.8883 10.9431 45.593 11.4189C45.5109 11.5501 45.4781 11.6978 45.4945 11.8454C45.3469 11.9603 45.1992 12.0751 45.0352 12.2064C44.6086 12.5345 44.1164 12.7806 43.6242 12.9939C42.525 13.4697 41.3602 13.7978 40.2117 14.1587C37.4063 15.0282 34.732 16.2915 32.0086 17.3579C31.9922 17.3907 31.943 17.4072 31.9102 17.4236ZM32.4352 34.6501C33.3047 32.304 33.8789 29.8431 34.7977 27.5298C34.9453 27.1689 35.1258 26.8243 35.3391 26.4798C36.7008 25.9712 38.1445 25.6267 39.5883 25.397C41.1633 25.1509 43.05 24.954 44.5594 25.5775C44.6906 25.6267 44.8219 25.6595 44.9367 25.6595C45.1664 26.9064 45.4125 28.1532 45.675 29.3837C44.625 29.7939 43.6899 30.4173 42.7055 30.9587C41.5899 31.5657 40.3102 31.8611 39.1125 32.2548C36.7992 33.0259 34.5188 33.8954 32.3203 34.929C32.3531 34.8634 32.4024 34.765 32.4352 34.6501ZM40.95 81.4736C40.9008 81.3751 40.8352 81.2767 40.7367 81.1947C42.0984 80.3087 43.5586 79.5376 45.068 78.9306C44.1328 80.3415 42.6891 81.9986 40.95 81.4736ZM47.4305 74.5993C47.0531 75.3212 46.6758 76.0595 46.2985 76.7978C46.118 76.7158 45.8883 76.6829 45.6422 76.7814C43.411 77.5525 41.2453 78.6845 39.2766 79.997C38.85 79.554 38.4563 79.0618 38.0789 78.5697C40.0149 77.9626 41.836 77.0931 43.6735 76.2236C44.707 75.7314 45.7242 75.2228 46.6922 74.6158C47.0695 74.3861 47.4469 74.14 47.8242 73.9103C47.6766 74.1236 47.5453 74.3533 47.4305 74.5993ZM53.468 62.7376C53.1399 64.9525 52.0242 66.9704 50.8922 68.8736C50.4328 69.6283 49.9735 70.3829 49.4977 71.1212C49.3664 71.1048 49.2352 71.1376 49.0875 71.1868C47.0695 72.04 45.3305 73.4181 43.3453 74.3697C41.2617 75.3704 39.1781 76.3876 36.9469 77.0111C36.7008 76.6829 36.4547 76.3548 36.1922 76.0431C34.5516 74.0908 32.632 72.3353 31.2211 70.2189C31.1883 70.1861 31.1719 70.1368 31.1555 70.104C31.8117 69.9072 32.4352 69.5134 33.0258 69.1689C33.8789 68.6767 34.7484 68.2993 35.6672 67.9384C37.8984 67.0525 40.1789 66.2322 42.3445 65.1658C44.461 64.1158 46.4789 62.8689 48.5461 61.7204C49.4649 61.2118 50.3672 60.7033 51.2367 60.129C51.9586 59.6533 52.6969 59.1611 53.5172 58.8822C53.6485 60.1618 53.6649 61.4579 53.468 62.7376ZM53.2711 57.0611C53.2383 57.0611 53.2219 57.0775 53.1891 57.0775C51.4008 57.5861 49.957 58.8986 48.3328 59.7681C46.2164 60.9001 44.182 62.1634 42.0492 63.279C39.9 64.4111 37.6031 65.2314 35.3555 66.1173C34.4039 66.4947 33.4359 66.8392 32.55 67.3642C32.0578 67.6595 31.5492 67.9876 31.0242 68.2337C30.7289 68.2009 30.4008 68.3158 30.1875 68.5454C29.9086 68.0861 29.6297 67.6103 29.3344 67.1509C29.3344 67.1345 29.318 67.1345 29.318 67.1181C33.8625 65.6087 38.0461 63.2298 42.4758 61.4251C44.4281 60.6212 46.3805 59.8173 48.2836 58.915C49.2352 58.472 50.1703 57.9798 51.0727 57.4548C51.4992 57.2087 51.9094 56.9462 52.3195 56.6673C52.3852 56.6181 52.4344 56.5853 52.4672 56.5689C52.5 56.5525 52.5492 56.5361 52.6149 56.5033C52.8117 56.4048 52.9594 56.3064 53.1234 56.1587C53.1563 56.454 53.2219 56.7493 53.2711 57.0611ZM51.1055 48.1197C51.7781 50.2689 52.3031 52.4673 52.7953 54.6658C52.5328 54.5837 52.2539 54.5837 51.9914 54.7478C51.9586 54.7478 51.9258 54.7642 51.893 54.7806C51.6797 54.8626 51.4992 55.0267 51.3024 55.1579C50.9086 55.4368 50.482 55.6993 50.0555 55.9454C49.1367 56.5033 48.1524 56.979 47.1844 57.422C45.3469 58.2751 43.4602 59.0462 41.5899 59.8009C37.2094 61.6056 33.0914 63.9517 28.5797 65.4282C28.4649 65.4611 28.3828 65.5103 28.3008 65.5759C27.9399 65.0509 27.5953 64.5423 27.2672 64.0009C26.6766 63.0493 26.0695 61.9501 25.9875 60.8181C25.9055 59.5712 26.2172 58.3079 26.4797 57.0939C26.5289 56.8642 26.5781 56.6345 26.6274 56.4048C26.8242 56.5689 27.0703 56.6673 27.3164 56.6673H27.4805C27.8906 56.6673 28.1367 56.454 28.2352 56.1587C28.2516 56.1423 28.268 56.1423 28.2844 56.1259C28.5633 55.9783 28.875 55.8634 29.1539 55.7322C29.8266 55.4368 30.5156 55.1579 31.2047 54.8954C33.2883 54.0587 35.3227 52.9923 37.357 52.0079C39.9492 50.7447 42.361 49.1368 44.8875 47.7587C45.8555 47.2337 46.7742 46.6759 47.7094 46.0853C48.4149 45.6423 49.186 45.0681 49.9899 44.822C50.3836 45.9376 50.761 47.0204 51.1055 48.1197ZM49.0383 42.0493C49.1531 42.4103 49.2844 42.7712 49.3992 43.1486C48.5789 43.3947 47.7914 43.9361 47.0695 44.3954C46.1016 44.9861 45.15 45.6095 44.1492 46.1509C41.3766 47.6439 38.7516 49.3993 35.9133 50.7611C33.9445 51.7126 31.9758 52.697 29.9414 53.5173C29.1867 53.829 28.432 54.1243 27.6938 54.4853C27.4313 54.6165 27.1524 54.7314 26.9227 54.8954C27.1524 53.7634 27.3656 52.6314 27.5953 51.4993C27.7594 51.6798 27.9727 51.8111 28.268 51.8111C30.007 51.8767 31.6149 51.0072 33.075 50.1704C34.7156 49.2189 36.3727 48.3657 38.0789 47.529C39.8836 46.6431 41.7703 45.8884 43.5258 44.8876C45.1992 43.9361 46.7906 42.7384 48.6938 42.2626C48.8414 42.1806 48.9563 42.115 49.0383 42.0493ZM46.7086 33.8462C47.2664 36.0775 47.8734 38.2923 48.5461 40.4907C48.4149 40.4579 48.2508 40.4579 48.0867 40.4907C46.4133 40.9173 44.9203 41.8853 43.4438 42.7712C41.7047 43.8212 39.8344 44.6087 38.0133 45.4947C36.307 46.3314 34.5844 47.1189 32.9438 48.0868C31.4836 48.9564 29.8922 50.0228 28.1203 49.9572C28.0383 49.9572 27.9727 49.9572 27.907 49.9736C27.9399 49.8423 27.9727 49.7111 28.0055 49.5798C28.6125 47.0697 29.2524 44.5595 29.9742 42.0822C30.0234 41.9017 30.0727 41.7212 30.1383 41.5407C30.2859 41.5736 30.45 41.59 30.6305 41.5243C31.9266 41.147 33.0094 40.3103 34.1742 39.6704C35.4211 38.9814 36.8156 38.5712 38.0789 37.915C40.9008 36.4876 43.7391 34.929 46.7086 33.8462ZM46.2985 32.1072C46.2492 32.1236 46.2 32.1236 46.1344 32.1564C43.2305 33.2064 40.5563 34.765 37.7672 36.0939C36.4711 36.7173 35.1258 37.2587 33.8297 37.8986C32.7797 38.4072 31.8281 39.1454 30.7453 39.6212C30.9914 38.8173 31.2539 38.0298 31.5328 37.2423C31.6641 37.2587 31.8117 37.2259 31.9758 37.1439C34.4039 35.9462 36.9141 35.0275 39.457 34.0923C40.6383 33.6657 41.8688 33.354 43.0336 32.8454C44.1 32.3697 45.0352 31.6642 46.0852 31.2048C46.1508 31.5001 46.2164 31.7954 46.2985 32.1072ZM47.4305 18.3423C46.8399 20.1962 45.9047 21.9681 44.7727 23.5431C44.7234 23.6087 44.6906 23.6743 44.6578 23.74C43.05 23.2806 41.311 23.379 39.6703 23.5923C38.0953 23.8056 36.4875 24.1665 34.9781 24.7079C34.3547 23.9532 33.9774 23.1165 33.682 22.247C33.7641 22.247 33.8461 22.2306 33.9281 22.1978C37.1766 21.0822 40.2117 19.3759 43.3289 17.9157C44.461 17.3907 45.6258 16.9314 46.7414 16.3736C47.2008 16.1439 47.6766 15.9142 48.1031 15.6189C47.8899 16.5376 47.7094 17.44 47.4305 18.3423ZM47.5945 13.7322C47.2172 14.3392 46.0195 14.7493 45.3797 15.0447C44.3625 15.5204 43.2961 15.9306 42.2953 16.4228C39.375 17.8665 36.4383 19.4415 33.3539 20.4915C33.2883 20.5079 33.2391 20.5407 33.1899 20.5736C33.0422 20.065 32.8781 19.5564 32.6813 19.0642C35.5359 17.9486 38.325 16.6689 41.2617 15.7501C42.4758 15.3728 43.7063 14.9954 44.8547 14.4376C45.3961 14.1751 45.9211 13.8634 46.3805 13.4697C46.4461 13.404 46.5281 13.3384 46.5938 13.2728C46.5938 13.2892 46.643 13.2564 46.7578 13.1907C47.086 13.0267 47.2992 12.9611 47.4797 12.6001C47.5453 12.4689 47.5781 12.3212 47.5617 12.1572C47.6274 12.1407 47.6766 12.1079 47.7422 12.0915C47.8406 12.3048 47.9227 12.5345 48.0047 12.7478C48.0703 12.9282 48.1195 13.1087 48.1524 13.2892C47.9227 13.3712 47.7258 13.5025 47.5945 13.7322ZM52.7789 7.95715C52.1227 8.95793 51.4664 10.1228 51.286 11.3204C51.286 11.3697 51.2695 11.4353 51.2695 11.4845C50.6789 11.8454 50.1867 12.3048 49.9078 12.8462C49.8914 12.8462 49.8914 12.8298 49.875 12.8298C49.793 12.4689 49.6617 12.1243 49.5469 11.829C49.1367 10.779 48.5461 9.84387 47.9391 8.90872C47.5781 8.38372 47.1844 7.89153 46.7414 7.44856C47.3977 6.92356 49.2844 7.08762 49.9735 7.08762C51.0563 7.10403 52.1555 7.21887 53.2383 7.2845C53.0742 7.51418 52.9266 7.74387 52.7789 7.95715ZM54.4852 10.1228C54.4688 10.1392 54.4688 10.1556 54.4688 10.172C54.1406 10.2704 53.7961 10.3853 53.4188 10.5165C53.632 10.0407 53.8945 9.58137 54.157 9.1384C54.6164 8.36731 55.207 7.53059 55.9289 6.97278C56.7 6.59543 57.2086 5.92278 56.9297 4.90559C56.7 4.08528 56.1586 3.42903 55.486 2.90403C56.0274 3.01887 56.5688 3.15012 57.1102 3.31418C57.3399 4.47903 57.5203 5.64387 56.9297 6.74309C56.2899 7.97356 55.1414 8.89231 54.4852 10.1228ZM61.5891 8.46575C61.5727 8.46575 61.5399 8.46575 61.5234 8.46575C61.3922 8.48215 61.2445 8.48215 61.1297 8.48215C60.9164 8.48215 60.736 8.53137 60.6211 8.62981C59.4727 8.84309 58.3242 9.08918 57.1922 9.3845C57.7336 8.72825 58.2914 8.072 58.6852 7.31731C59.2102 6.30012 59.2102 5.16809 59.0625 4.06887C59.4399 4.23293 59.8008 4.42981 60.1617 4.62668C61.2445 5.23372 62.3274 6.02122 62.6719 7.26809C62.918 8.12122 62.2617 8.40012 61.5891 8.46575Z" fill="#111111"/>
</svg>
