<svg width="84" height="84" viewBox="0 0 84 84" fill="none" xmlns="http://www.w3.org/2000/svg">
<path d="M52.031 74.2351C57.0343 73.1658 69.419 66.3356 69.2878 61.6596C69.1198 55.7183 69.0375 53.2648 69.0375 53.2648C69.0375 53.2648 57.862 52.3163 48.1618 53.2648C38.4615 54.2133 16.5165 53.5273 16.5165 53.5273L17.0258 63.6021C17.0258 63.6021 15.8393 72.3416 17.0905 73.5981C18.3418 74.8546 23.7895 73.8921 23.7895 73.8921L40.39 73.3478C40.39 73.3478 49.2573 74.8283 52.031 74.2351Z" fill="white"/>
<path d="M22.2407 9.67533C22.2407 9.67533 40.9657 11.1541 44.436 11.2083C47.9062 11.2626 62.4907 11.0316 62.4907 11.0316C62.4907 11.0316 68.1188 9.85733 68.852 14.3338C69.5853 18.8103 69.1723 53.5251 69.1723 53.5251C69.1723 53.5251 59.6278 52.0288 53.1108 52.8828C46.5937 53.7368 26.6875 53.5268 26.6875 53.5268C26.6875 53.5268 16.7702 54.3108 16.5515 51.8311C16.3327 49.3513 15.554 38.1356 15.6292 34.0511C15.7062 29.9648 16.6915 13.6426 16.6915 13.6426C16.6915 13.6426 15.3457 9.27108 22.2407 9.67533Z" fill="white"/>
<path d="M53.7495 18.5939C49.6002 18.5939 45.451 18.2806 41.3997 17.9744C35.4217 17.5246 29.2372 17.0556 23.219 17.6226C22.7237 17.6576 22.3107 17.3129 22.2652 16.8334C22.2215 16.3521 22.5732 15.9251 23.0545 15.8796C29.225 15.3021 35.4795 15.7711 41.531 16.2296C47.103 16.6479 52.8657 17.0801 58.4832 16.6846C58.9662 16.6549 59.3845 17.0136 59.4177 17.4966C59.4527 17.9779 59.0887 18.3979 58.6075 18.4311C56.994 18.5466 55.3717 18.5939 53.7495 18.5939Z" fill="#111111"/>
<path d="M23.7387 22.673C23.3747 22.673 23.037 22.4455 22.911 22.0833C22.7535 21.6265 22.9967 21.1278 23.4535 20.9703C24.5262 20.5993 25.6497 20.594 26.642 20.5888L40.8292 20.5118C41.237 20.482 41.706 20.8985 41.7095 21.3815C41.713 21.8645 41.3227 22.2583 40.8397 22.2618L26.6507 22.3388C25.753 22.344 24.8255 22.3493 24.024 22.624C23.9295 22.6573 23.8332 22.673 23.7387 22.673Z" fill="#111111"/>
<path d="M23.3905 28.5427C23.653 34.1619 23.9663 39.8232 24.2288 45.4407C30.9995 45.4984 37.7703 45.5579 44.541 45.6157C44.8718 45.6192 45.2323 45.6104 45.486 45.3987C45.8168 45.1222 45.8255 44.6252 45.8045 44.1947C45.5455 38.7347 45.157 33.2799 44.6408 27.8374C37.5655 28.5427 30.4938 28.8069 23.3905 28.5427Z" fill="white"/>
<path d="M24.171 39.7388C24.171 39.7388 29.526 36.0375 30.5865 36.321C31.647 36.6045 36.365 40.129 37.2855 39.9645C38.2077 39.7983 44.954 34.7075 44.954 34.7075C44.954 34.7075 46.557 45.6275 44.954 45.617C43.351 45.6065 24.2287 45.442 24.2287 45.442L24.171 39.7388Z" fill="white"/>
<path d="M46.6777 44.1529C46.4187 38.6982 46.0267 33.1804 45.5105 27.7554C45.4895 27.5227 45.3757 27.3092 45.1955 27.1622C45.0152 27.0134 44.779 26.9364 44.5532 26.9679C37.352 27.6837 30.2382 27.9234 23.4237 27.6679C23.1875 27.6697 22.9425 27.7519 22.7692 27.9269C22.5977 28.1002 22.5067 28.3382 22.5172 28.5832C22.6485 31.3902 22.792 34.2094 22.9355 37.0269C23.0807 39.8479 23.2242 42.6707 23.3555 45.4812C23.3765 45.9449 23.758 46.3124 24.2217 46.3159L44.5357 46.4909C44.562 46.4909 44.59 46.4909 44.618 46.4909C44.9977 46.4909 45.5735 46.4664 46.0442 46.0709C46.7407 45.4899 46.697 44.5537 46.6777 44.1529ZM43.8497 28.7932C44.0212 30.6394 44.1595 32.5014 44.3012 34.3617C44.1612 34.3827 44.023 34.4264 43.9022 34.5192C41.9807 35.9962 39.9962 37.4644 38.003 38.8854C37.8857 38.9694 37.6687 39.1252 37.5777 39.1339C37.4675 39.1147 37.1892 38.9869 37.0562 38.9117L31.5752 35.8247C31.2147 35.6234 30.667 35.3189 30.0107 35.3802C29.4577 35.4344 29.0307 35.7354 28.749 35.9314L24.7712 38.7104C24.7415 38.1189 24.7135 37.5309 24.6837 36.9394C24.556 34.4404 24.4282 31.9414 24.3092 29.4494C30.6372 29.6489 37.2032 29.4232 43.8497 28.7932ZM44.548 44.7409L25.0635 44.5729C25.004 43.3094 24.9375 42.0407 24.8745 40.7737L29.7517 37.3647C29.869 37.2824 30.086 37.1302 30.1787 37.1214C30.2977 37.0829 30.569 37.2667 30.7177 37.3489L36.197 40.4342C36.5487 40.6319 37.0807 40.9347 37.7335 40.8752C38.2987 40.8244 38.7327 40.5129 39.018 40.3099C40.8555 38.9992 42.6755 37.6429 44.4552 36.2832C44.6425 38.9379 44.8017 41.5927 44.926 44.2352C44.9435 44.6062 44.8927 44.7374 44.9435 44.7112C44.8752 44.7427 44.6302 44.7392 44.548 44.7409Z" fill="#111111"/>
<path d="M31.024 59.5544C28.6352 59.5544 26.439 59.5299 24.9147 59.4809C24.4317 59.4651 24.052 59.0609 24.0695 58.5761C24.0852 58.0931 24.5385 57.7781 24.9725 57.7309C29.197 57.8709 38.6102 57.8131 42.8277 57.5699C43.2967 57.5331 43.7237 57.9094 43.7517 58.3924C43.7797 58.8754 43.4122 59.2901 42.9292 59.3164C40.1922 59.4756 35.301 59.5544 31.024 59.5544Z" fill="#111111"/>
<path d="M39.0285 63.2155C38.8833 63.2155 38.738 63.1787 38.6085 63.107L25.0845 63.1105C24.6015 63.1105 24.2095 62.7185 24.2095 62.2355C24.2095 61.7542 24.6015 61.3605 25.0845 61.3605L38.6488 61.357C38.801 61.357 39.312 61.3465 39.6778 61.7525C40.0015 62.1112 39.9753 62.6642 39.6165 62.988C39.4485 63.1402 39.2385 63.2155 39.0285 63.2155Z" fill="#111111"/>
<path d="M48.8408 27.8057C49.168 33.8099 49.483 39.7302 49.8085 45.7344C49.8155 45.8762 49.826 46.0249 49.9065 46.1422C50.0448 46.3417 50.3265 46.3662 50.5698 46.3714C53.914 46.4362 57.2583 46.4992 60.6025 46.5639C60.9053 46.5692 61.2623 46.5499 61.4303 46.2962C61.5283 46.1474 61.5318 45.9584 61.53 45.7799C61.4898 39.9874 61.1153 34.1967 60.41 28.4462C60.375 28.1574 60.326 27.8442 60.1108 27.6499C59.8745 27.4364 59.521 27.4364 59.2025 27.4504C55.7515 27.5957 52.2918 27.6587 48.8408 27.8057Z" fill="white"/>
<path d="M55.3753 45.2797C55.37 45.3847 55.3665 45.4897 55.3613 45.5947C54.8205 42.884 55.223 39.9929 56.4865 37.5342C56.6948 37.1282 56.931 36.7205 56.9888 36.2672C57.057 35.7335 56.8715 35.2014 56.679 34.6992C55.7708 32.3314 54.6298 30.053 53.277 27.9057L48.8408 27.8042L49.9083 46.1389C49.9083 46.1407 55.4645 46.6902 55.3753 45.2797Z" fill="white"/>
<path d="M25.2263 66.7555C24.7783 66.7555 24.395 66.4125 24.3548 65.9575C24.3128 65.478 24.668 65.051 25.1493 65.009C26.8048 64.862 33.6665 64.827 35.3325 64.9057C35.8155 64.9285 36.1883 65.338 36.1655 65.8192C36.1428 66.3005 35.7088 66.71 35.2503 66.6522C33.691 66.584 26.887 66.6102 25.3033 66.752C25.277 66.7537 25.2508 66.7555 25.2263 66.7555Z" fill="#111111"/>
<path d="M61.2798 28.3396C61.2413 28.0194 61.1695 27.4261 60.697 26.9974C60.1808 26.5301 59.5175 26.5669 59.1658 26.5739C57.4613 26.6456 55.755 26.6981 54.0488 26.7506C52.2988 26.8031 50.5488 26.8574 48.8023 26.9309C48.5695 26.9414 48.349 27.0446 48.1915 27.2179C48.034 27.3911 47.9535 27.6186 47.9658 27.8531L48.9335 45.7801C48.9423 45.9656 48.9615 46.3156 49.1855 46.6376C49.5898 47.2239 50.288 47.2396 50.5523 47.2449L60.5868 47.4374C60.6165 47.4374 60.6533 47.4391 60.6918 47.4391C61.0505 47.4391 61.7523 47.3901 62.1548 46.7794C62.405 46.4049 62.4033 45.9954 62.4015 45.7714C62.3665 39.9596 61.9868 34.0936 61.2798 28.3396ZM49.763 28.6441C50.7203 28.6074 51.6793 28.5776 52.6365 28.5479C53.9088 30.5936 54.999 32.7636 55.8635 35.0124C56.0228 35.4306 56.1628 35.8331 56.1208 36.1569C56.0893 36.4019 55.9423 36.6854 55.7078 37.1351C54.3795 39.7199 53.956 42.7054 54.481 45.5649L50.673 45.4879L49.763 28.6441ZM60.6218 45.6874L56.2153 45.5981C56.2223 45.5596 56.2048 45.3531 56.1995 45.3199C55.7235 42.8156 56.1015 40.1959 57.3388 37.7914C57.5488 37.3889 57.7868 36.9321 57.8568 36.3791C57.9513 35.6529 57.7308 34.9949 57.4963 34.3824C56.7105 32.3384 55.7165 30.3714 54.6053 28.4796C56.1505 28.4324 57.6958 28.3869 59.2393 28.3221C59.3845 28.3151 59.4878 28.3151 59.4965 28.2819C59.5175 28.3589 59.535 28.4989 59.542 28.5496C60.235 34.1986 60.6095 39.9544 60.6988 45.6856C60.676 45.6874 60.6515 45.6874 60.6218 45.6874Z" fill="#111111"/>
<path d="M69.2283 62.0551C66.3828 63.6266 61.7908 61.6666 59.2235 59.6733C58.3975 64.1603 55.0865 70.7841 51.9068 74.0566C51.9085 74.0566 66.066 70.5146 69.2283 62.0551Z" fill="white"/>
<path d="M69.9633 16.1298C70.0105 13.6186 68.7435 11.3663 66.6645 10.3618C65.9383 10.0346 65.1805 10.0783 64.5733 10.1098C53.466 10.6768 38.1133 10.0101 28.5478 9.14733C26.0313 8.92158 22.7378 8.68358 19.6193 8.86033C17.682 8.97058 16.1315 10.4633 15.9338 12.4076C15.0028 21.5846 14.3605 34.9581 15.0238 44.1491C15.1148 45.4248 15.2198 46.7653 15.3283 48.1478C15.9198 55.6921 16.59 64.2408 15.8883 71.0256C15.792 71.9566 15.6328 73.5123 16.7195 74.4888C17.1483 74.8773 17.7065 75.1048 18.4293 75.1853C18.8353 75.2308 19.2465 75.2501 19.6613 75.2501C20.664 75.2501 21.679 75.1398 22.6695 75.0313C23.3258 74.9596 23.9733 74.8896 24.5998 74.8528C32.144 74.4363 43.0448 74.7706 51.6985 75.1101C51.772 75.1118 51.8438 75.1048 51.9155 75.0908C59.4073 73.4913 66.1588 68.7873 69.9738 62.5066C70.0578 62.3683 70.1015 62.2108 70.1015 62.0481L69.9633 16.1298ZM17.675 12.5843C17.7853 11.4993 18.6445 10.6681 19.719 10.6068C20.447 10.5666 21.1838 10.5491 21.9205 10.5491C24.2323 10.5491 26.5265 10.7241 28.3903 10.8903C38.0153 11.7601 53.4748 12.4391 64.666 11.8563C65.1315 11.8318 65.611 11.8073 65.9733 11.9683C67.368 12.6438 68.2483 14.2643 68.2133 16.1141L68.3235 52.4633C63.4375 51.5971 57.015 51.7878 51.3433 52.1028C40.061 52.7258 28.5635 52.6768 17.423 52.6173C17.311 51.0581 17.192 49.5111 17.0748 48.0096C16.9663 46.6306 16.8613 45.2936 16.7703 44.0213C16.114 34.9353 16.751 21.6861 17.675 12.5843ZM24.5035 73.1081C23.8473 73.1448 23.1683 73.2183 22.4823 73.2918C21.175 73.4336 19.8258 73.5788 18.6253 73.4458C18.2805 73.4073 18.0408 73.3233 17.8903 73.1886C17.4965 72.8351 17.5508 71.9811 17.6313 71.2058C18.1545 66.1413 17.934 60.1791 17.5455 54.3673C20.6605 54.3831 23.8 54.3988 26.9588 54.3988C35.0805 54.3988 43.3108 54.2973 51.4378 53.8493C57.1288 53.5361 63.588 53.3348 68.327 54.2343H68.3288L68.3515 61.4058C65.2943 62.3141 62.1373 60.7023 59.6663 58.9156C59.2218 58.5936 58.4903 58.9208 58.3818 59.4388C57.3265 64.4526 54.8275 69.5468 51.3643 73.3478C42.7385 73.0136 32.0075 72.6933 24.5035 73.1081ZM54.1888 72.6671C56.7858 69.2686 58.7283 65.2121 59.773 61.0961C61.9903 62.5258 64.6258 63.6178 67.2245 63.4078C64.0728 67.6096 59.3635 70.9643 54.1888 72.6671Z" fill="#111111"/>
<path d="M53.4485 22.6079C55.174 22.5676 56.8995 22.5274 58.625 22.4871C59.7485 22.4609 59.7537 20.7109 58.625 20.7371C56.8995 20.7774 55.174 20.8176 53.4485 20.8579C52.3232 20.8841 52.3197 22.6341 53.4485 22.6079Z" fill="#111111"/>
</svg>
