<svg width="84" height="84" viewBox="0 0 84 84" fill="none" xmlns="http://www.w3.org/2000/svg">
<path d="M76.7484 28.8914C76.7156 28.4484 76.6828 28.0219 76.7156 27.6117H76.3711C76.3219 27.6117 76.2727 27.6117 76.2234 27.5953C74.3531 27.6281 72.532 28.0219 70.6781 28.1859C68.5125 28.3828 66.3141 28.0875 64.1484 27.989C62.032 27.8906 59.9484 27.9398 57.8484 27.9562C56.5688 27.9726 55.0922 27.8906 53.9766 27.1687C52.3524 26.1023 51.8274 24.4617 51.2203 22.6898C50.4328 20.3601 49.3336 18.2437 48.2016 16.0781C47.2172 14.1914 46.0688 12.3867 45.068 10.5C44.3297 9.12186 43.4109 7.05467 41.9344 6.33279C40.6383 5.69295 39.9164 7.56326 39.5391 8.48201C38.7844 10.3031 38.0133 12.075 37.0453 13.7976C35.782 16.0617 34.732 18.4242 33.6328 20.7703C33.157 21.8039 32.6813 22.8375 32.1398 23.8383C31.8938 24.2812 31.582 24.7898 31.4016 25.3148C30.9094 26.1023 30.4336 26.8734 29.9578 27.6773C29.8758 27.6281 29.7938 27.5625 29.7281 27.4805C27.907 27.2672 26.0695 27.4148 24.2484 27.1195C22.2141 26.7914 20.3109 26.5781 18.2602 26.6765C16.2422 26.7586 14.3063 27.0703 12.3211 27.3984C10.7133 27.6773 9.03985 27.6937 7.48125 28.1367C7.49766 28.2844 7.46485 28.432 7.39922 28.5961C6.74297 30.007 8.02266 31.5492 8.95782 32.5172C10.2703 33.8789 11.7961 35.0273 13.3055 36.1594C17.3578 39.1945 20.6227 43.05 24.0844 46.7086C24.1992 46.8398 24.2813 46.9711 24.3141 47.1187C24.4781 47.3484 24.5109 47.6437 24.2977 47.9554C21.7711 51.7453 20.7539 56.2078 19.1953 60.4406C17.9648 63.7875 14.2734 68.9719 18.1617 71.9742C19.6219 73.0898 21.5742 72.8437 23.1984 72.2859C25.0688 71.6625 26.857 70.7109 28.5141 69.6445C30.4336 68.3976 32.1891 66.9539 33.9609 65.5101C35.6508 64.1156 37.4391 62.4258 39.4734 61.5726C43.5422 59.85 46.8891 62.6555 49.8422 65.1492C52.0734 67.0359 54.1898 69.0539 56.618 70.6945C58.4391 71.925 61.5563 73.8773 63.8203 72.5976C67.2328 70.6781 67.0524 65.5758 66.7078 62.2453C66.2484 57.6679 65.6578 53.0086 64.5258 48.5297C64.5094 48.5297 64.5094 48.5133 64.493 48.5133C64.4438 48.0211 64.3617 47.5125 64.2633 47.0203L64.3945 46.889C64.3125 46.7742 64.2633 46.6265 64.2633 46.4789V46.1508C64.2633 45.675 64.575 45.3633 64.9359 45.2484C66.2156 43.7062 67.6922 42.3609 69.0867 40.9172C70.4484 39.5062 71.7938 38.0625 73.1063 36.6023C74.3859 35.1586 75.682 33.6 76.4039 31.7789C76.7649 30.7945 76.8305 29.9414 76.7484 28.8914ZM39.1945 38.1937C38.4727 38.7023 37.5375 39.2765 36.6188 39.0469C34.8141 38.6039 32.7141 36.5859 33.075 34.568C33.2883 33.4195 35.0602 33.764 34.8469 34.9125C34.6992 35.782 36.0445 37.0453 36.7992 37.2258C37.2586 37.3406 37.6523 37.0617 38.0133 36.7992C38.243 36.6351 38.4727 36.4711 38.6695 36.2742C38.7352 36.2086 38.768 36.1594 38.7844 36.1265C38.8008 35.1258 40.4414 35.0601 40.5891 36.143C40.7367 37.0125 39.818 37.7672 39.1945 38.1937ZM45.232 53.1562C44.1 53.468 43.2141 53.3695 42.1805 52.7625C41.1305 52.1555 39.7852 51.2367 39.5227 49.9734C39.2766 48.8414 40.9828 48.2344 41.2289 49.3828C41.4094 50.2359 42.443 50.8758 43.1648 51.2531C43.8375 51.5976 44.0836 51.6469 44.7891 51.4172C45.5602 51.1711 46.2984 50.8265 46.9711 50.3836C47.25 50.2031 47.5453 50.0062 47.7586 49.7601C47.775 49.7437 47.8242 49.6453 47.8734 49.5961C47.4797 48.5789 49.1203 48.0375 49.5961 49.0547C50.5477 51.1054 46.5938 52.7789 45.232 53.1562ZM54.9938 36.9797C53.7797 37.6195 52.8117 38.6859 51.3352 38.6203C49.5305 38.5383 48.6773 37.2258 47.6602 35.9297C46.9383 35.0109 48.4477 34.0101 49.1531 34.9125C49.7602 35.7 50.4 36.9797 51.6141 36.8156C52.3195 36.7172 52.9266 36.1758 53.5172 35.7656C53.55 35.7164 53.5828 35.6836 53.632 35.6344C53.8617 35.4211 54.075 35.2242 54.4031 35.2242C54.8789 35.2242 55.3383 35.5359 55.3711 36.0609C55.3711 36.0937 55.3711 36.1265 55.3711 36.1758C55.4039 36.4547 55.2727 36.832 54.9938 36.9797Z" fill="#FFB84D"/>
<path d="M78.5039 27.3987C78.3727 27.169 78.225 26.9557 78.0446 26.7752C77.7164 26.4471 77.3391 26.2174 76.9617 26.0862C76.1742 25.9549 75.2883 26.0206 74.5172 26.1518C74.3203 26.1846 74.1563 26.0698 74.1071 25.9385C72.5156 26.119 70.9406 26.4143 69.3328 26.4635C66.7406 26.5456 64.1156 26.1682 61.5235 26.1026C59.5547 26.0534 57.3891 26.4635 55.4696 25.8893C53.7305 25.3807 53.3367 23.2971 52.8446 21.837C51.3844 17.5057 48.7922 13.6995 46.6758 9.69634C45.4946 7.46509 42.5742 2.29712 39.5063 5.16822C38.4891 6.11978 37.9969 7.4979 37.5047 8.74478C36.7008 10.7792 35.618 12.6331 34.5844 14.5526C33.3867 16.7674 32.4188 19.1463 31.3688 21.4268C30.7617 22.7393 29.6789 24.1502 29.5149 25.6432C27.8906 25.512 26.25 25.5776 24.6422 25.3479C22.5586 25.0362 20.5899 24.7901 18.4735 24.8557C16.3571 24.9213 14.3063 25.2002 12.2227 25.594C10.1883 25.9877 8.10471 25.9057 6.15237 26.6768C5.54533 26.9229 5.4633 27.5627 5.7094 28.0057C4.26565 31.6315 8.79377 34.962 11.2547 36.8323C13.0266 38.1776 14.7328 39.5393 16.3242 41.0815C18.4571 43.1487 20.4094 45.3799 22.4438 47.5456C20.0649 51.319 19.0477 55.7159 17.5055 59.8667C16.111 63.6729 13.2727 67.5448 15.5696 71.6135C17.686 75.387 22.1649 74.7799 25.5117 73.287C29.5477 71.4987 32.8453 68.6768 36.2414 65.937C37.9313 64.5753 39.8016 62.8526 42.0821 62.7542C44.1821 62.6721 46.1016 64.2635 47.5946 65.5596C49.7274 67.3971 51.811 69.2838 54.0422 71.0065C56.3227 72.7456 59.0461 74.6323 62.0156 74.7307C65.4117 74.8456 67.4297 71.9581 68.2336 68.9721C69.1031 65.7729 68.5617 62.2948 68.1516 59.0628C67.6266 55.0268 67.0688 50.9909 66.0188 47.0534C66.0024 46.9713 65.9696 46.9057 65.9367 46.8565C67.2985 45.1338 68.9227 43.6409 70.4485 42.0823C71.8758 40.6221 73.2703 39.0963 74.632 37.5706C75.9117 36.1268 77.1258 34.5518 77.9133 32.7799C78.3071 31.9268 78.6024 30.9424 78.6188 30.0073C78.6188 29.2034 78.3399 28.2354 78.5039 27.3987ZM76.3875 31.7792C75.6821 33.6002 74.386 35.1588 73.0899 36.6026C71.7938 38.0628 70.4321 39.5229 69.0703 40.9174C67.6758 42.3612 66.2156 43.7065 64.9196 45.2487C64.5586 45.3635 64.2469 45.6588 64.2469 46.151V46.4792C64.2469 46.6432 64.2961 46.7745 64.3781 46.8893L64.2469 47.0206C64.3453 47.5128 64.4274 48.0049 64.4766 48.5135C64.493 48.5135 64.493 48.5299 64.5094 48.5299C65.6414 53.0088 66.2321 57.6682 66.6914 62.2456C67.0196 65.576 67.2 70.662 63.8039 72.5979C61.5399 73.8776 58.4227 71.9253 56.6016 70.6948C54.1899 69.0542 52.0571 67.0362 49.8258 65.1495C46.8727 62.6557 43.5258 59.8338 39.4571 61.5729C37.4227 62.4424 35.6344 64.1323 33.9446 65.5104C32.1891 66.9542 30.4172 68.4143 28.4977 69.6448C26.8406 70.7112 25.0524 71.6628 23.1821 72.2862C21.5578 72.8276 19.5891 73.0901 18.1453 71.9745C14.2571 68.9885 17.9485 63.7878 19.1789 60.4409C20.7375 56.2081 21.7383 51.762 24.2813 47.9557C24.4946 47.644 24.4617 47.3487 24.2977 47.119C24.2649 46.9713 24.1828 46.8401 24.068 46.7088C20.6063 43.0503 17.3414 39.1948 13.2891 36.1596C11.7797 35.0276 10.2703 33.8792 8.94143 32.5174C8.02268 31.5659 6.72658 30.0073 7.38283 28.5963C7.46487 28.4323 7.48127 28.2846 7.46487 28.137C9.03987 27.694 10.6969 27.6776 12.3047 27.3987C14.2899 27.0542 16.2258 26.7588 18.2438 26.6768C20.311 26.5784 22.2141 26.8081 24.2321 27.1198C26.0531 27.4151 27.8906 27.2674 29.7117 27.4807C29.7774 27.5627 29.8594 27.6284 29.9414 27.6776C30.4008 26.8737 30.893 26.1026 31.3852 25.3151C31.5656 24.7901 31.8938 24.2815 32.1235 23.8385C32.6649 22.8377 33.1406 21.8042 33.6164 20.7706C34.6992 18.4245 35.7492 16.062 37.0289 13.7979C37.9969 12.0752 38.768 10.3034 39.5227 8.48228C39.9164 7.54712 40.6219 5.69322 41.918 6.33306C43.3946 7.07134 44.3133 9.13853 45.0516 10.5002C46.0688 12.387 47.2008 14.1752 48.1852 16.0784C49.3172 18.244 50.4328 20.3768 51.2039 22.6901C51.7946 24.462 52.3195 26.0862 53.9602 27.169C55.0758 27.9073 56.536 27.9729 57.8321 27.9565C59.9485 27.9401 62.0321 27.8909 64.132 27.9893C66.2977 28.0877 68.4961 28.3667 70.6617 28.1862C72.5156 28.0221 74.3531 27.6284 76.2071 27.5956C76.2563 27.5956 76.3055 27.612 76.3547 27.612H76.6992C76.6828 28.0385 76.6992 28.4487 76.7321 28.8917C76.8305 29.9417 76.7649 30.7948 76.3875 31.7792Z" fill="#111111"/>
<path d="M40.6219 36.1596C40.4742 35.0768 38.8336 35.126 38.8172 36.1432C38.8008 36.176 38.7516 36.2253 38.7023 36.2909C38.5055 36.5042 38.2758 36.6518 38.0461 36.8159C37.6852 37.0784 37.275 37.3573 36.832 37.2424C36.0609 37.0456 34.7156 35.7823 34.8797 34.9292C35.093 33.7807 33.3211 33.4362 33.1078 34.5846C32.7469 36.5862 34.8469 38.6042 36.6516 39.0635C37.5703 39.2932 38.5055 38.719 39.2274 38.2104C39.818 37.7674 40.7367 37.0127 40.6219 36.1596ZM55.3711 36.0448C55.3383 35.5198 54.8789 35.2081 54.4031 35.2081C54.075 35.2081 53.8617 35.4049 53.632 35.6182C53.5828 35.6674 53.55 35.7003 53.5172 35.7495C52.9102 36.1596 52.3195 36.701 51.6141 36.7995C50.4164 36.9635 49.7766 35.6838 49.1531 34.8963C48.4477 33.9776 46.9383 34.9784 47.6602 35.9135C48.6609 37.2096 49.5141 38.5221 51.3352 38.6042C52.8117 38.6698 53.7797 37.6198 54.9938 36.9635C55.2727 36.8159 55.4039 36.4385 55.3875 36.1432C55.3875 36.1268 55.3711 36.094 55.3711 36.0448ZM49.5961 49.0549C49.1203 48.0378 47.4633 48.5792 47.8734 49.5963C47.8406 49.6456 47.775 49.744 47.7586 49.7604C47.5453 50.0065 47.25 50.2034 46.9711 50.3838C46.2984 50.8268 45.5438 51.1713 44.7891 51.4174C44.0836 51.6471 43.8375 51.5979 43.1649 51.2534C42.443 50.876 41.4094 50.2362 41.2289 49.3831C40.9828 48.251 39.293 48.8581 39.5227 49.9737C39.8016 51.237 41.1469 52.1557 42.1805 52.7628C43.1977 53.3534 44.1 53.4682 45.232 53.1565C46.5938 52.7792 50.5477 51.1057 49.5961 49.0549Z" fill="#111111"/>
</svg>
