<svg width="84" height="84" viewBox="0 0 84 84" fill="none" xmlns="http://www.w3.org/2000/svg">
<path d="M73.703 59.7557C73.5665 58.0617 73.3897 54.9957 73.255 53.2999C72.1192 38.9517 71.1707 22.8394 70.4077 8.46667C70.3587 7.56017 68.8625 6.23367 67.9542 6.23367C55.083 6.22667 42.2625 6.34392 30.0615 8.06942C30.7527 11.0812 30.6372 13.7009 31.3285 16.7127C31.5087 17.4967 31.6785 20.6432 32.0197 21.3729L55.7252 65.4729C57.1567 65.2909 58.5865 65.1089 60.018 64.9252C64.6275 64.3372 69.251 63.7492 73.8972 63.7334C73.8465 62.2827 73.7537 61.2082 73.703 59.7557Z" fill="white"/>
<path d="M51.8088 21.8539C51.6775 39.2157 56.434 60.4134 55.5905 77.7559C53.088 78.4979 50.0955 77.2869 47.509 76.9282C45.8833 76.7024 44.233 76.7934 42.595 76.8949C34.3595 77.4094 26.1905 78.4682 18.011 79.5532C16.9925 79.6879 15.722 79.7107 15.2128 78.8182C14.987 78.4209 14.9853 77.9414 14.987 77.4847C15.0885 60.8369 13.7813 40.2062 9.76151 24.0519C10.6663 23.3484 12.1205 22.8619 13.265 22.8042C24.9585 22.2162 36.8025 21.4409 48.496 20.8547C49.4638 20.8039 51.2435 21.0682 51.8088 21.8539Z" fill="white"/>
<path d="M30.464 8.82324C30.464 8.82324 34.86 12.4562 38.0293 13.4467C41.1985 14.4372 50.897 20.8475 50.897 20.8475L31.7923 21.8537L30.464 8.82324Z" fill="white"/>
<path d="M18.242 30.6531C19.3078 34.5013 19.908 38.9201 20.5083 42.8681C26.9518 42.0316 33.4145 41.1951 39.9123 41.1671C41.7638 41.1583 43.6188 41.2178 45.465 41.0673C45.7502 41.0446 46.0565 41.0061 46.263 40.8083C46.5255 40.5581 46.5308 40.1468 46.5185 39.7846C46.3908 36.4456 46.1475 33.1101 45.787 29.7868C45.752 29.4683 45.703 29.1218 45.4685 28.9048C45.2445 28.6983 44.9155 28.6668 44.611 28.6493C42.2888 28.5146 39.9613 28.5688 37.6355 28.6231C35.4043 28.6756 33.1748 28.7263 30.9435 28.7788C26.7523 28.8733 22.2688 29.4858 18.242 30.6531Z" fill="white"/>
<path d="M22.274 52.4635C22.0973 52.4635 21.9205 52.411 21.7665 52.3007C21.3728 52.019 21.2818 51.4729 21.5635 51.0809C22.2372 50.1342 23.4465 50.0414 24.0958 49.9924L41.573 48.6642C43.3562 48.5312 45.3827 48.3755 47.3077 48.8515C47.7767 48.967 48.0637 49.4412 47.9465 49.9102C47.831 50.3792 47.3532 50.6557 46.8877 50.549C45.2357 50.143 43.4402 50.276 41.706 50.409L24.2305 51.7372C23.8927 51.7634 23.1875 51.816 22.988 52.0942C22.8165 52.334 22.547 52.4635 22.274 52.4635Z" fill="#111111"/>
<path d="M22.834 58.5569C22.3545 58.5569 21.9625 58.1684 21.959 57.6889C21.9555 57.2059 22.344 56.8104 22.827 56.8069C28.0613 56.7666 33.453 56.3239 38.6698 55.8951C40.691 55.7289 42.707 55.5661 44.709 55.4209C45.206 55.3684 45.6103 55.7499 45.6435 56.2329C45.6785 56.7141 45.3145 57.1341 44.8333 57.1674C42.8365 57.3091 40.8275 57.4736 38.8115 57.6399C33.565 58.0686 28.1383 58.5131 22.841 58.5551C22.8375 58.5569 22.8358 58.5569 22.834 58.5569Z" fill="#111111"/>
<path d="M24.3635 64.3933C23.8928 64.3933 23.506 64.0205 23.4903 63.548C23.4745 63.065 23.8525 62.6608 24.3355 62.6433L41.9913 62.0658C42.4725 62.0448 42.8785 62.428 42.8943 62.911C42.91 63.394 42.532 63.7983 42.049 63.8158L24.3933 64.3933C24.3828 64.3933 24.374 64.3933 24.3635 64.3933Z" fill="#111111"/>
<path d="M74.6743 61.6946C74.6375 61.0699 74.6025 60.4433 74.5763 59.6873C74.5063 58.8211 74.4258 57.5943 74.3453 56.3764C74.2683 55.2143 74.193 54.0611 74.1265 53.2333C73.171 41.1636 72.24 26.5056 71.2828 8.42285C71.2093 7.0771 69.3438 5.36035 67.9543 5.36035C54.8293 5.3761 42.0753 5.48635 29.939 7.20485C29.6958 7.23985 29.4788 7.3746 29.3405 7.57585C29.2023 7.7771 29.155 8.0291 29.2093 8.2671C29.5418 9.72135 29.68 11.0636 29.8253 12.4829C29.9705 13.8951 30.1175 15.3546 30.4763 16.9121C30.541 17.1886 30.5988 17.7836 30.6688 18.4521C30.7808 19.5179 30.8788 20.3369 31.003 20.9459C30.9453 20.9494 30.8875 20.9529 30.8298 20.9546C24.948 21.2959 19.068 21.6371 13.223 21.9311C11.844 22.0011 10.2375 22.5751 9.22601 23.3609C8.95301 23.5726 8.82876 23.9261 8.91276 24.2639C12.3393 38.0381 14.2345 57.4351 14.112 77.4796C14.1103 77.9713 14.105 78.6451 14.4515 79.2541C15.0413 80.2883 16.1893 80.5001 17.0853 80.5001C17.521 80.5001 17.8973 80.4511 18.123 80.4213C25.2403 79.4781 34.0988 78.3038 42.6475 77.7683C44.4255 77.6581 45.9025 77.5881 47.3865 77.7946C48.1163 77.8978 48.881 78.0693 49.658 78.2443C51.716 78.7063 53.844 79.1858 55.8373 78.5961C56.1943 78.4893 56.4445 78.1708 56.462 77.7999C56.6405 74.1161 56.5635 70.2416 56.3395 66.2779L60.1265 65.7948C64.631 65.2208 69.2895 64.6258 73.8973 64.6101C74.1353 64.6101 74.361 64.5121 74.5255 64.3423C74.69 64.1726 74.7775 63.9416 74.7688 63.7053C74.746 62.9703 74.7093 62.3316 74.6743 61.6946ZM32.4083 18.2666C32.3295 17.5071 32.2543 16.8334 32.1808 16.5166C31.8483 15.0641 31.71 13.7219 31.5648 12.3026C31.5175 11.8476 31.4668 11.3804 31.4125 10.9114C32.7058 11.7899 34.0463 12.6421 35.483 13.3229C36.4473 13.7814 37.4448 14.1611 38.409 14.5269C39.053 14.7736 39.6988 15.0169 40.3323 15.2864C41.9545 15.9741 43.4963 16.8824 44.989 17.8886C45.0328 17.9306 45.0835 17.9586 45.1343 17.9919C46.0828 18.6376 47.0103 19.3184 47.9255 20.0096C42.8908 20.2651 37.828 20.5556 32.7653 20.8479C32.627 20.3334 32.487 19.0156 32.4083 18.2666ZM54.747 77.0491C53.3155 77.2713 51.6565 76.8986 50.0448 76.5346C49.2188 76.3509 48.4068 76.1671 47.6298 76.0603C45.8535 75.8101 44.016 75.9274 42.539 76.0219C33.9308 76.5626 25.039 77.7386 17.8938 78.6836C16.8263 78.8236 16.1613 78.7203 15.9705 78.3861C15.8568 78.1848 15.8585 77.8156 15.8603 77.4883C15.9828 57.5926 14.126 38.3093 10.7573 24.4389C11.4905 24.0241 12.4828 23.7196 13.3088 23.6759C19.1573 23.3819 25.0425 23.0424 30.9278 22.7011C36.8113 22.3616 42.6948 22.0186 48.5398 21.7246C49.28 21.6861 50.155 21.8576 50.68 22.0956C50.764 22.1586 50.848 22.2234 50.932 22.2864C50.9093 30.2681 51.898 39.1669 52.8588 47.7786C53.9665 57.7116 55.111 67.9701 54.747 77.0491ZM59.906 64.0571L56.2275 64.5261C55.8548 58.9436 55.2265 53.2141 54.5983 47.5844C54.0575 42.7299 53.5133 37.7896 53.1405 32.9806L59.5963 32.4819C60.0775 32.4451 60.438 32.0233 60.4013 31.5421C60.3645 31.0626 59.9463 30.6584 59.4615 30.7389L53.0075 31.2359C52.8675 29.1796 52.7678 27.1566 52.717 25.1791C53.1493 25.1301 53.7145 25.0846 54.117 25.0549C54.5055 25.0251 54.845 24.9988 55.0393 24.9743C58.0878 24.6068 60.263 24.5544 63.4848 24.5089C63.9678 24.5019 64.3545 24.1064 64.3475 23.6216C64.3405 23.1439 63.9503 22.7589 63.4725 22.7589C63.469 22.7589 63.4655 22.7589 63.4603 22.7589C60.1808 22.8026 57.9635 22.8586 54.8293 23.2366C54.6508 23.2576 54.3393 23.2804 53.984 23.3084C53.4888 23.3469 53.06 23.3819 52.696 23.4186C52.6908 22.8971 52.6785 22.3703 52.6838 21.8576C52.6838 21.8419 52.6715 21.8296 52.6698 21.8156C52.6628 21.6564 52.619 21.5024 52.528 21.3676C52.5228 21.3589 52.5245 21.3484 52.5193 21.3396C52.2865 21.0159 51.9523 20.7674 51.5725 20.5731C51.156 20.2581 50.7395 19.9449 50.323 19.6264C49.588 19.0646 48.846 18.4976 48.0918 17.9411C49.6493 17.8361 51.2593 17.7574 52.9638 17.6944C56.1313 17.5789 59.4073 17.4564 62.2423 17.0259C62.72 16.9541 63.049 16.5079 62.9755 16.0301C62.9038 15.5541 62.4575 15.2181 61.9798 15.2969C59.241 15.7116 56.0158 15.8306 52.899 15.9461C50.5103 16.0336 48.0533 16.1299 45.8518 16.3556C44.317 15.3284 42.7175 14.3956 41.013 13.6729C40.3585 13.3946 39.6935 13.1409 39.0285 12.8889C38.0958 12.5354 37.1333 12.1679 36.232 11.7409C34.5415 10.9359 32.9438 9.8491 31.3933 8.7711C43.057 7.2276 55.3578 7.10335 67.9508 7.10685C68.4128 7.10685 69.5065 8.07985 69.531 8.5121C70.4918 26.6106 71.4228 41.2844 72.3783 53.3681C72.443 54.1906 72.5183 55.3351 72.5953 56.4883C72.6758 57.7151 72.758 58.9506 72.8263 59.7853C72.8525 60.5168 72.8875 61.1538 72.9243 61.7908C72.9435 62.1426 72.9645 62.4961 72.982 62.8671C68.5738 62.9528 64.1725 63.5146 59.906 64.0571Z" fill="#111111"/>
<path d="M46.2297 39.6672C44.282 37.7107 41.6027 35.0175 38.9742 34.1687C38.8132 34.1162 38.6435 34.0655 38.4755 34.09C38.2585 34.1215 38.08 34.272 37.9137 34.4155C36.9512 35.252 35.0857 36.6415 34.125 37.478C31.6225 36.2932 30.1017 35.5267 27.5992 34.342C27.272 34.1862 26.9132 34.027 26.558 34.1022C26.1887 34.1792 25.9192 34.489 25.6812 34.783C23.9715 36.8882 22.0167 38.612 20.5222 40.8747L20.8512 42.8207C20.8512 42.8207 31.15 41.3805 34.1687 41.3787C37.1875 41.3787 44.3992 41.1285 44.3992 41.1285C44.3992 41.1285 46.704 41.7812 46.2297 39.6672Z" fill="white"/>
<path d="M47.3917 39.7497C47.264 36.4089 47.0172 33.0244 46.6567 29.6924C46.62 29.3529 46.5517 28.7159 46.0635 28.2627C45.5945 27.8287 44.989 27.7937 44.6635 27.7762C42.2835 27.6362 39.9122 27.6904 37.618 27.7464L30.926 27.9022C26.4232 28.0072 21.9537 28.6687 18.0022 29.8132C17.542 29.9462 17.2742 30.4257 17.402 30.8877C18.333 34.2477 18.8965 38.0014 19.4425 41.6362L19.649 42.9994C19.7155 43.4317 20.0865 43.7432 20.5135 43.7432C20.5502 43.7432 20.5887 43.7414 20.6272 43.7362C26.9412 42.9154 33.4705 42.0702 39.921 42.0422L41.2597 42.0439C42.6562 42.0474 44.1052 42.0562 45.5385 41.9372C45.8255 41.9144 46.4205 41.8689 46.8737 41.4402C47.4355 40.8959 47.4057 40.1224 47.3917 39.7497ZM19.3112 31.2639C22.8812 30.3119 26.9832 29.7432 30.9645 29.6504L37.6565 29.4947C39.9175 29.4404 42.252 29.3844 44.562 29.5209C44.632 29.5244 44.8402 29.5367 44.849 29.5157C44.8857 29.5787 44.9102 29.8044 44.9172 29.8797C45.199 32.4854 45.3897 35.1192 45.528 37.7407C43.7045 35.9714 41.503 34.0657 39.2472 33.3377C39.0687 33.2799 38.7362 33.1609 38.346 33.2257C37.8647 33.2974 37.5357 33.5862 37.3397 33.7577C36.8672 34.1689 36.1707 34.7167 35.476 35.2644C34.951 35.6757 34.4277 36.0904 33.9937 36.4474C32.956 35.9539 32.0792 35.5304 31.2007 35.1017C30.2085 34.6222 29.211 34.1374 27.9772 33.5512C27.6255 33.3867 27.041 33.1067 26.3777 33.2449C25.6865 33.3919 25.2595 33.9152 25.004 34.2302C24.3582 35.0247 23.6775 35.7649 23.0002 36.4999C22.26 37.3032 21.525 38.1537 20.818 39.0444C20.405 36.4072 19.9482 33.7594 19.3112 31.2639ZM41.2615 40.2922L39.9087 40.2904C33.6402 40.3167 27.349 41.0972 21.2467 41.8882L21.1767 41.4262C21.1995 41.3999 21.2327 41.3877 21.252 41.3579C22.1322 40.0227 23.1787 38.8887 24.2847 37.6864C24.9865 36.9234 25.6917 36.1569 26.3585 35.3362C26.551 35.0999 26.6787 34.9739 26.7347 34.9582C26.8117 34.9687 27.125 35.0877 27.2247 35.1349C28.455 35.7177 29.4472 36.1972 30.436 36.6784C31.458 37.1737 32.4782 37.6672 33.7522 38.2709C34.0672 38.4197 34.4382 38.3707 34.7007 38.1397C35.1732 37.7302 35.8662 37.1842 36.5592 36.6399C37.2802 36.0729 38.0012 35.5059 38.493 35.0754C38.528 35.0439 38.6207 34.9564 38.7082 35.0019C41.097 35.7719 43.6292 38.2919 45.5087 40.1819C45.4737 40.1854 45.4457 40.1907 45.3967 40.1942C44.0317 40.3027 42.6247 40.3009 41.2615 40.2922Z" fill="#111111"/>
</svg>
