<svg width="84" height="84" viewBox="0 0 84 84" fill="none" xmlns="http://www.w3.org/2000/svg">
<path d="M27.0147 12.8418C26.4215 11.6851 27.874 10.0331 29.1252 9.68482C30.3782 9.33657 31.7065 9.79332 32.8807 10.3533C39.6252 13.5768 44.0755 20.0956 48.2055 26.3273C49.3552 28.0633 50.8042 30.1651 52.0817 31.8083C53.1002 33.1173 54.74 34.5383 55.8565 35.7668C57.9635 38.0856 60.2262 40.2451 63.077 41.5453C60.767 38.2273 59.3407 34.1253 58.8227 30.1161C58.66 28.8631 58.5935 27.5996 58.5252 26.3361C58.4097 24.1783 58.4867 21.9593 59.6102 20.1131C60.4677 19.2171 62.2002 19.5478 63.1312 20.3686C64.0622 21.1893 64.5155 22.4073 64.9617 23.5658C66.7257 28.1456 68.8975 32.5678 71.442 36.7643C72.1122 37.8703 72.814 38.9693 73.262 40.1803C73.8465 41.7588 73.983 43.4633 74.1125 45.1416C74.305 47.6423 74.4992 50.1431 74.6917 52.6438C74.8737 54.9923 75.0452 57.4196 74.284 59.6491C73.2427 62.6958 70.6387 64.8973 68.1485 66.9378C65.8822 68.7946 63.6002 70.6636 61.04 72.0898C59.43 72.9876 53.6427 76.9951 52.0152 77.7423C50.386 78.4896 48.4645 78.7766 46.7985 78.1151C45.4282 77.5708 37.0632 74.5941 31.8027 67.9318C30.8035 66.6666 30.072 65.2158 29.372 63.7616C27.8355 60.5696 26.3007 57.3776 24.7642 54.1838C24.311 53.2406 24.073 52.5161 23.842 51.4958C22.1725 44.1196 18.6935 38.0628 15.855 31.3148C15.463 30.3838 15.078 29.4161 15.0885 28.4063C15.099 27.3966 15.5995 26.3238 16.534 25.9388C17.3547 25.5993 18.3242 25.8636 19.0417 26.3868C19.0417 26.3868 15.2372 19.2801 17.6505 17.7261C20.0637 16.1721 21.546 18.7026 21.546 18.7026C21.546 18.7026 18.5762 14.7406 19.6962 12.3098C20.8162 9.87907 25.2262 10.8451 27.0147 12.8418Z" fill="white"/>
<path d="M54.8205 61.5405C53.06 57.0885 52.8745 52.1167 54.2937 47.544C54.4372 47.082 54.18 46.592 53.718 46.4485C53.2437 46.298 52.7642 46.564 52.6225 47.0242C51.4727 50.729 51.2977 54.6752 52.0782 58.4447C46.9735 58.3712 43.1322 58.8945 40.3935 60.0652C39.5202 60.4362 39.3295 60.9945 39.3207 61.3987C39.312 61.8817 39.697 62.2825 40.1782 62.2912C40.1852 62.2912 40.1905 62.2912 40.1957 62.2912C40.5912 62.2912 40.9255 62.0304 41.034 61.6682C41.034 61.6839 41.048 61.6875 41.0777 61.677C43.6327 60.585 47.4775 60.0845 52.5192 60.2035C52.7135 60.872 52.934 61.5335 53.1912 62.1845C53.326 62.5275 53.6567 62.7374 54.005 62.7374C54.1135 62.7374 54.2202 62.7182 54.327 62.6762C54.7785 62.4977 54.999 61.9902 54.8205 61.5405Z" fill="#111111"/>
<path d="M21.7963 64.1865C21.5968 64.1865 21.3955 64.1182 21.231 63.9782C16.632 60.0775 13.902 54.152 13.9318 48.1215C13.9335 47.6402 14.3255 47.25 14.8068 47.25C14.8085 47.25 14.8103 47.25 14.8103 47.25C15.2933 47.2517 15.6835 47.6473 15.6818 48.1285C15.6555 53.648 18.1528 59.0747 22.3615 62.6447C22.7308 62.9562 22.7745 63.5075 22.463 63.8767C22.2898 64.0815 22.0448 64.1865 21.7963 64.1865Z" fill="#111111"/>
<path d="M20.2615 74.9351C20.1005 74.9351 19.9377 74.8913 19.7907 74.7986C17.6942 73.4651 16.1035 71.4718 14.7017 69.7113C11.7372 65.9891 8.37548 61.7716 7.14173 56.7088C6.14948 52.6418 6.61848 48.4348 7.27298 44.4956C7.35348 44.0213 7.81198 43.6941 8.27923 43.7763C8.75523 43.8551 9.07723 44.3066 8.99848 44.7826C8.37548 48.5381 7.92398 52.5351 8.83923 56.2958C9.98373 60.9823 13.216 65.0406 16.0685 68.6211C17.451 70.3536 18.879 72.1473 20.7305 73.3233C21.1365 73.5806 21.259 74.1231 20.9982 74.5308C20.8337 74.7916 20.5502 74.9351 20.2615 74.9351Z" fill="#111111"/>
<path d="M51.9453 17.9915C51.6145 17.9915 51.2943 17.8008 51.149 17.4788C49.1173 13.004 45.416 9.21178 40.9903 7.07853C40.5545 6.86853 40.3708 6.34528 40.5825 5.91128C40.7908 5.47553 41.321 5.29178 41.7498 5.50353C46.5378 7.81353 50.5435 11.9155 52.7415 16.756C52.941 17.197 52.7468 17.715 52.3075 17.9145C52.1885 17.967 52.066 17.9915 51.9453 17.9915Z" fill="#111111"/>
<path d="M60.1405 15.5436C59.7485 15.5436 59.3933 15.2811 59.2935 14.8856C58.5375 11.9404 56.6825 9.24712 54.201 7.49187C53.6935 7.54437 53.3103 7.13312 53.277 6.65012C53.2438 6.16887 53.6183 5.72087 54.1013 5.68762C54.635 5.66312 55.02 5.92912 55.2108 6.06387C58.0265 8.05362 60.1335 11.1109 60.991 14.4516C61.11 14.9206 60.8283 15.3966 60.361 15.5156C60.2858 15.5349 60.2123 15.5436 60.1405 15.5436Z" fill="#111111"/>
<path d="M22.4543 36.1252C21.9328 36.5995 21.4918 37.1315 21.105 37.7212C20.4855 38.6645 21.9993 39.543 22.6153 38.605C22.9233 38.1377 23.2768 37.7405 23.6915 37.3642C24.528 36.6047 23.2873 35.3692 22.4543 36.1252Z" fill="#111111"/>
<path d="M26.446 28.859C25.7267 29.4103 25.1527 30.0315 24.7345 30.8418C24.2182 31.841 25.7267 32.7265 26.2447 31.7255C26.5177 31.197 26.852 30.7368 27.328 30.371C28.2117 29.6955 27.342 28.1748 26.446 28.859Z" fill="#111111"/>
<path d="M31.8832 26.4159C32.2315 26.0904 32.5885 25.9049 33.0452 25.7877C34.1337 25.5042 33.6717 23.8154 32.5797 24.1007C31.8342 24.2949 31.2042 24.6537 30.646 25.1804C29.8235 25.9504 31.0625 27.1859 31.8832 26.4159Z" fill="#111111"/>
<path d="M38.6033 23.3782C39.3383 22.9757 40.0943 22.7482 40.9238 22.6345C42.035 22.484 41.5608 20.797 40.4583 20.9475C39.4835 21.0805 38.584 21.3955 37.7213 21.868C36.7308 22.407 37.6128 23.919 38.6033 23.3782Z" fill="#111111"/>
<path d="M75.565 52.579L74.9857 45.0733C74.8545 43.3565 74.7162 41.5803 74.0827 39.8775C73.6487 38.705 73.0082 37.6533 72.387 36.633L72.191 36.3075C69.6762 32.1635 67.5185 27.7693 65.7457 23.1668C65.2925 21.989 64.778 20.6538 63.7087 19.7105C62.447 18.5958 60.186 18.2353 58.9785 19.5093C58.9347 19.553 58.8962 19.6038 58.8647 19.658C57.5907 21.7458 57.5365 24.2273 57.652 26.3833C57.7202 27.6415 57.7902 28.9418 57.9565 30.2263C58.3572 33.3343 59.2725 36.367 60.5937 39.0375C59.066 37.8965 57.736 36.5315 56.504 35.177C56.056 34.6835 55.5257 34.1585 54.9832 33.623C54.1835 32.8338 53.3557 32.0165 52.773 31.2675C51.4237 29.5333 49.9415 27.3598 48.9352 25.8408C45.1395 20.113 40.4162 12.98 33.2605 9.56053C32.0687 8.99353 30.499 8.39504 28.8925 8.83779C27.8022 9.14054 26.7155 10.0995 26.2447 11.1688C26.236 11.1898 26.2325 11.209 26.2237 11.23C24.8902 10.4408 23.4815 10.0015 22.12 10.0015C22.0832 10.0015 22.0482 10.0015 22.0132 10.0015C21.147 10.0155 20.475 10.2185 19.9605 10.6228C19.2307 11.195 18.8492 12.1453 18.8247 13.4438C18.8055 14.4623 18.963 15.4755 19.2552 16.4485C18.2945 16.3803 17.2725 16.6673 16.646 17.5038C15.827 18.5993 16.0842 20.008 16.3467 20.9705C16.4745 21.4325 16.5865 21.9068 16.6985 22.3863C16.8997 23.2368 17.1132 24.0995 17.4072 24.936C16.989 24.9255 16.576 24.9693 16.2015 25.1233C14.847 25.6798 14.2275 27.1655 14.2152 28.3905C14.203 29.5368 14.6037 30.585 15.05 31.6473C15.8602 33.5723 16.7212 35.4395 17.5787 37.298C19.7575 42.0248 21.8155 46.489 22.9915 51.6813C23.247 52.8118 23.5147 53.5905 23.9767 54.5565L28.5845 64.1343C29.2845 65.592 30.0597 67.1285 31.115 68.4673C33.4547 71.43 37.9715 75.63 46.2035 78.815L46.4747 78.9218C47.2062 79.2123 48.0007 79.3575 48.8285 79.3575C49.973 79.3575 51.1822 79.0793 52.3792 78.5298C53.396 78.0625 55.727 76.5383 57.981 75.0648C59.4457 74.1058 60.8282 73.2028 61.4635 72.8458C64.0955 71.381 66.437 69.463 68.7032 67.608C71.0447 65.6883 73.9585 63.3013 75.11 59.9255C75.9447 57.4965 75.7435 54.8838 75.565 52.579ZM73.4562 59.3673C72.4657 62.2705 69.7655 64.4843 67.5955 66.2605C65.3887 68.0665 63.1102 69.9355 60.6147 71.325C59.9235 71.71 58.5812 72.5885 57.0237 73.607C55.0287 74.9108 52.5472 76.5348 51.6512 76.9478C50.0517 77.681 48.3997 77.8105 47.1222 77.3013L46.837 77.191C38.9725 74.1478 34.6955 70.1823 32.4905 67.391C31.5437 66.1905 30.849 64.8098 30.1612 63.3835L25.5552 53.8058C25.1492 52.9623 24.9252 52.3078 24.6977 51.3033C23.4832 45.9325 21.2905 41.1743 19.1695 36.5753C18.3207 34.7325 17.465 32.8828 16.6635 30.977C16.2767 30.0583 15.9582 29.2288 15.967 28.415C15.974 27.7885 16.2592 26.9993 16.8717 26.7473C17.3337 26.5618 17.9812 26.6965 18.5272 27.092C19.1415 27.5418 19.6192 28.254 20.041 28.8823C23.6652 34.2793 27.1215 39.874 30.3257 45.5178C30.051 45.9255 29.806 46.3578 29.6187 46.8408C29.2092 47.8908 30.9015 48.3458 31.3057 47.3063C31.6382 46.4523 32.228 45.7558 32.9927 45.257C33.9325 44.6445 33.0557 43.129 32.109 43.7468C31.913 43.8745 31.7397 44.0215 31.5647 44.165C28.4165 38.6508 25.0372 33.1855 21.4935 27.911C21.0525 27.2513 20.4995 26.4515 19.7365 25.8355C19.0557 24.7383 18.7215 23.3453 18.403 21.9925C18.2857 21.4938 18.1667 20.9968 18.0355 20.5155C17.7712 19.546 17.7747 18.9265 18.0477 18.559C18.3785 18.118 19.145 18.0865 19.6927 18.3088C20.3997 18.5975 20.9842 19.2135 21.6212 19.9275C27.1442 26.119 31.9707 32.944 35.9992 40.2048C35.679 40.5688 35.385 40.9643 35.119 41.3895C34.5187 42.3468 36.0325 43.2253 36.6292 42.2733C37.4377 40.9835 38.605 39.979 40.026 39.4173C41.062 39.0078 40.6105 37.3155 39.5605 37.7303C38.738 38.0558 37.9977 38.4915 37.3205 39.0043C33.2692 31.7645 28.4427 24.95 22.925 18.7655C22.4717 18.2545 22.0045 17.7733 21.483 17.369C20.8617 16.1738 20.5485 14.8315 20.573 13.4858C20.5835 12.9713 20.6727 12.2958 21.0402 12.0053C21.2415 11.8478 21.5792 11.7638 22.0395 11.7568C22.0675 11.7568 22.092 11.7568 22.1182 11.7568C23.6127 11.7568 25.2192 12.4393 26.6542 13.6835C28.0262 14.8735 29.1217 16.431 30.1805 17.9378L42.4795 35.443C41.9037 35.982 41.6272 36.7713 42.4462 37.3243C43.0692 37.7443 43.652 37.214 43.708 36.6278C43.792 36.6803 43.9932 36.521 44.0877 36.4808C44.2925 36.395 44.5077 36.339 44.7247 36.2953C45.1692 36.2043 45.6242 36.1885 46.0757 36.1658C47.1975 36.1133 47.2027 34.3615 46.0757 34.4158C45.4142 34.4473 44.7265 34.505 44.0702 34.666L31.6102 16.9315C30.4902 15.339 29.3335 13.6905 27.8005 12.3605C27.7935 12.3553 27.7865 12.35 27.7795 12.3448C27.748 12.1908 27.7847 12.0123 27.8442 11.8758C28.0997 11.2948 28.777 10.691 29.3562 10.5283C30.394 10.243 31.5822 10.7085 32.501 11.146C39.221 14.3573 43.7955 21.2628 47.4722 26.8138C48.496 28.3573 50.0062 30.5693 51.3887 32.3455C52.0415 33.1855 52.9095 34.0448 53.7512 34.8725C54.2692 35.3835 54.7767 35.884 55.2055 36.3565C57.1725 38.523 59.605 40.9275 62.713 42.3433C63.0647 42.5043 63.4935 42.408 63.7472 42.107C64.001 41.8043 64.0185 41.3703 63.7927 41.0465C61.6735 38.0033 60.2157 34.0833 59.689 30.004C59.5297 28.7843 59.4615 27.5173 59.395 26.2923C59.2917 24.3498 59.332 22.325 60.2997 20.666C60.8107 20.2443 61.9535 20.4998 62.5502 21.0265C63.2975 21.6863 63.7122 22.759 64.1427 23.8808C65.9207 28.4973 68.124 32.9843 70.6912 37.2175L70.889 37.5465C71.4927 38.5353 72.0632 39.4733 72.4395 40.4883C72.9872 41.9618 73.115 43.6138 73.2392 45.2098L73.8185 52.7138C73.9847 54.8505 74.172 57.2743 73.4562 59.3673Z" fill="#111111"/>
</svg>
