<svg width="28" height="28" viewBox="0 0 28 28" fill="none" xmlns="http://www.w3.org/2000/svg">
<g clip-path="url(#clip0)">
<path d="M8.80852 25.3753C19.372 25.3753 25.1513 16.6215 25.1513 9.03254C25.1513 8.78644 25.1459 8.53488 25.1349 8.28879C26.2592 7.47574 27.2294 6.46866 28 5.31488C26.9529 5.78073 25.8412 6.08498 24.7029 6.21722C25.9015 5.49876 26.799 4.37008 27.2289 3.04043C26.1013 3.70868 24.8682 4.18008 23.5823 4.43441C22.716 3.51385 21.5705 2.90434 20.323 2.70009C19.0754 2.49585 17.7954 2.70826 16.6807 3.30448C15.566 3.9007 14.6788 4.84752 14.1562 5.99856C13.6335 7.1496 13.5047 8.44075 13.7895 9.67238C11.5062 9.5578 9.27259 8.96469 7.23331 7.93148C5.19403 6.89827 3.39464 5.44804 1.9518 3.6748C1.21847 4.93915 0.994066 6.43529 1.3242 7.85914C1.65434 9.28299 2.51424 10.5277 3.72914 11.3403C2.81707 11.3114 1.92497 11.0658 1.12656 10.6239V10.695C1.12575 12.0219 1.58445 13.3081 2.42469 14.3349C3.26494 15.3618 4.43488 16.066 5.73562 16.3278C4.89073 16.559 4.00398 16.5927 3.14398 16.4263C3.51103 17.5674 4.22517 18.5654 5.18673 19.2811C6.1483 19.9968 7.30931 20.3944 8.50773 20.4185C6.47316 22.0167 3.95987 22.8835 1.37266 22.8794C0.913835 22.8787 0.455466 22.8506 0 22.7952C2.62833 24.4814 5.68579 25.377 8.80852 25.3753Z" fill="white"/>
</g>
<defs>
<clipPath id="clip0">
<rect width="28" height="28" fill="white"/>
</clipPath>
</defs>
</svg>
