<svg width="84" height="84" viewBox="0 0 84 84" fill="none" xmlns="http://www.w3.org/2000/svg">
<path d="M50.5487 54.9063C51.3555 55.9353 53.5937 58.0423 53.585 60.8265C53.5815 62.0918 51.9855 62.7113 50.855 63.2818C49.7262 63.8523 48.4855 64.7063 48.454 65.9715C48.4085 67.8493 49.3447 69.209 48.7935 71.0063C48.566 71.7465 47.845 72.2068 47.1677 72.5848C40.796 76.1338 35.1085 76.4033 27.9037 75.271C25.2105 74.8475 22.6047 73.9988 20.013 73.1518C15.5312 71.6888 11.0495 70.2258 6.56775 68.761C5.9885 68.572 5.271 67.935 4.9665 67.4048C3.88325 65.5165 3.60325 62.6658 3.6435 60.3225C3.7065 56.6878 3.87275 52.6978 4.1475 49.0718C4.25425 47.2693 4.59025 45.1255 5.1485 43.4088C5.3655 42.7403 5.6245 42.0683 6.0865 41.538C6.52575 41.0323 7.119 40.691 7.6895 40.341C10.7397 38.4703 13.4715 36.0798 15.7307 33.306C16.401 32.4835 17.0345 31.619 17.4912 30.6618C17.9305 29.7413 18.2 28.7473 18.5937 27.8058C19.2255 26.2955 20.1687 24.9375 20.9247 23.485C23.1525 19.2115 23.6985 14.294 24.3372 9.51828C24.5122 8.20928 24.8272 6.70778 25.998 6.09528C26.8975 5.62628 28.042 5.88178 28.8557 6.48903C29.6677 7.09628 30.2067 7.99578 30.6705 8.89703C33.6087 14.6248 34.237 21.4988 32.3837 27.6623C32.1247 28.5215 31.8185 29.4245 32.0337 30.2943C32.249 31.1658 33.7067 31.4335 34.6027 31.4808C43.3142 31.9375 50.7762 33.0208 58.6127 32.8265C64.6345 32.6778 70.7227 32.1545 76.6377 33.2903C77.4252 33.4408 78.2372 33.6368 78.8585 34.1425C80.318 35.3343 80.0257 37.8123 78.715 39.165C77.4042 40.5178 75.446 40.9973 73.5822 41.2615C65.688 42.3868 57.4805 40.7995 49.7647 42.8173C51.0125 43.7325 54.6892 46.3015 53.9665 49.3675C53.5255 51.24 52.661 51.6495 51.0965 52.7695C50.4577 53.2263 49.9152 54.4478 50.5487 54.9063Z" fill="white"/>
<path d="M79.4098 33.467C78.6223 32.8212 77.6493 32.5937 76.8023 32.431C71.8778 31.486 66.8098 31.6715 61.9115 31.8447C60.802 31.885 59.6925 31.9252 58.5882 31.9532C53.62 32.0775 48.7638 31.6767 43.6328 31.255C40.7557 31.017 37.7808 30.7737 34.6465 30.6092C33.4985 30.548 32.9105 30.205 32.8807 30.0842C32.7372 29.505 32.9472 28.8137 33.1677 28.084L33.2185 27.9125C35.1418 21.5162 34.4942 14.4375 31.4457 8.49446C30.9662 7.56171 30.345 6.50821 29.3773 5.78546C28.2048 4.91046 26.719 4.72671 25.5903 5.31471C23.8963 6.20021 23.6058 8.35971 23.4658 9.39746L23.359 10.2375C22.7763 14.6405 22.1743 19.1905 20.1495 23.0772C19.8713 23.6127 19.5668 24.1342 19.2623 24.654C18.7408 25.5465 18.2035 26.4705 17.7853 27.4662C17.612 27.8775 17.4633 28.2992 17.3145 28.7192C17.1273 29.2477 16.9418 29.7762 16.7003 30.282C16.2453 31.2357 15.5785 32.1037 15.05 32.753C12.8415 35.4637 10.2113 37.765 7.0945 39.676C6.54325 40.012 5.91675 40.3952 5.42325 40.9605C4.858 41.6132 4.55525 42.392 4.31375 43.1357C3.7765 44.7912 3.3985 46.935 3.2725 49.0052C3.0135 52.451 2.83325 56.4637 2.76675 60.3067C2.7335 62.1285 2.87875 65.527 4.20525 67.8405C4.57275 68.4792 5.43025 69.3122 6.293 69.5922L19.7383 73.983C22.3265 74.8265 24.9988 75.698 27.7638 76.1337C30.1385 76.5065 32.4065 76.7462 34.6395 76.7462C38.9287 76.7462 43.0815 75.8625 47.593 73.3495C48.181 73.0205 49.2765 72.4097 49.6265 71.2652C50.0202 69.9877 49.7945 68.9255 49.5758 67.9C49.4393 67.263 49.3115 66.6592 49.3273 65.9942C49.343 65.3502 49.9888 64.701 51.2487 64.064L51.6302 63.8767C52.822 63.2957 54.4512 62.5012 54.4582 60.8317C54.467 58.1437 52.7118 56.1015 51.6635 54.88C51.4972 54.6875 51.3503 54.516 51.2347 54.369C51.2103 54.3375 51.2015 54.334 51.1945 54.334C51.1875 54.3322 51.177 54.3392 51.1402 54.313C51.1122 54.1485 51.331 53.6777 51.6022 53.4817L52.087 53.1405C53.3978 52.2252 54.3445 51.562 54.8153 49.5687C55.44 46.9227 53.4572 44.6967 51.7667 43.2652C55.531 42.5512 59.465 42.5705 63.2975 42.588C66.7152 42.609 70.252 42.6212 73.703 42.1295C75.516 41.8705 77.7963 41.3665 79.3415 39.7722C80.2533 38.8307 80.773 37.429 80.696 36.113C80.633 35.0332 80.1763 34.0917 79.4098 33.467ZM24.9988 11.1737C25.2525 11.1807 25.508 11.2402 25.746 11.3995C26.0715 11.6182 26.2885 11.935 26.341 12.2622C26.369 12.425 26.3673 12.6087 26.3375 12.81C26.1958 13.755 25.3873 14.5512 24.4615 14.8137C24.6645 13.5992 24.8378 12.3847 24.9988 11.1737ZM78.0833 38.556C76.916 39.7617 75.089 40.1642 73.4563 40.397C70.1277 40.8712 66.6558 40.8572 63.3045 40.838C58.7458 40.8117 54.0522 40.7942 49.5407 41.972C49.2118 42.0577 49.0298 42.371 48.9668 42.7017C48.9038 43.0325 49.1015 43.4192 49.3745 43.6187C50.5522 44.478 53.6777 46.7652 53.1125 49.1645C52.794 50.5085 52.2935 50.8585 51.0843 51.7037L50.582 52.0572C49.8925 52.5507 49.392 53.4887 49.3902 54.285C49.3885 54.7872 49.5757 55.2212 49.9222 55.524C50.0395 55.6692 50.1812 55.8337 50.337 56.014C51.2837 57.1182 52.7152 58.7842 52.7082 60.8195C52.7065 61.4005 51.6845 61.8975 50.8638 62.2982L50.4595 62.4977C49.7595 62.8512 47.628 63.9275 47.579 65.947C47.558 66.8185 47.7207 67.585 47.866 68.2605C48.0602 69.1757 48.216 69.902 47.957 70.7472C47.8292 71.162 47.2972 71.5067 46.7425 71.8165C40.3217 75.3917 34.6185 75.4355 28.0385 74.4012C25.41 73.9882 22.8043 73.1377 20.2825 72.3152L6.8355 67.9245C6.48725 67.8125 5.936 67.3365 5.7225 66.9655C4.606 65.0195 4.487 61.9745 4.51675 60.3347C4.58325 56.5232 4.76175 52.5472 5.019 49.1207C5.13275 47.208 5.49325 45.1727 5.978 43.6747C6.16175 43.1077 6.38225 42.5232 6.7445 42.1067C7.06125 41.7445 7.51975 41.4645 8.14625 41.0812C11.2963 39.1492 14.0753 36.7185 16.408 33.8555C16.9995 33.1292 17.7468 32.1545 18.2805 31.0327C18.5483 30.4727 18.7565 29.8882 18.9648 29.302C19.103 28.91 19.2395 28.5215 19.3988 28.14C19.7715 27.2492 20.258 26.4162 20.7725 25.5342C21.0928 24.9882 21.4095 24.444 21.7 23.8857C22.89 21.602 23.6058 19.1537 24.1168 16.6582C26.0488 16.5322 27.7795 15.001 28.0665 13.0637C28.1208 12.6875 28.1208 12.3252 28.0665 11.984C27.937 11.179 27.447 10.437 26.7208 9.94871C26.2658 9.64246 25.7495 9.47446 25.2332 9.42546C25.3908 8.35096 25.662 7.25371 26.3988 6.86696C26.5808 6.77071 26.7943 6.72696 27.0218 6.72696C27.4488 6.72696 27.9265 6.88621 28.3255 7.18721C29.008 7.69646 29.477 8.49971 29.8848 9.29421C32.7303 14.8382 33.334 21.4392 31.4895 27.573C31.2235 28.455 30.919 29.4542 31.178 30.5025C31.556 32.0302 33.6612 32.3067 34.5502 32.354C37.66 32.5185 40.621 32.76 43.484 32.9962C48.6605 33.4232 53.5535 33.8275 58.6267 33.7015C59.7397 33.6735 60.8528 33.6332 61.9693 33.593C66.773 33.4215 71.736 33.2395 76.4663 34.1477C77.133 34.2755 77.8243 34.4312 78.2968 34.8197C78.7885 35.2205 78.9198 35.7997 78.9443 36.2145C78.9985 37.0457 78.6572 37.9627 78.0833 38.556Z" fill="#111111"/>
<path d="M60.5447 38.7904C60.0757 38.7904 59.6907 38.4212 59.6697 37.9522L59.5927 36.0534C59.5735 35.5704 59.9497 35.1627 60.431 35.1417C60.9052 35.1242 61.3217 35.5004 61.3427 35.9799L61.4197 37.8787C61.439 38.3617 61.0627 38.7694 60.5815 38.7904C60.5675 38.7904 60.557 38.7904 60.5447 38.7904Z" fill="#111111"/>
<path d="M62.8548 39.375C62.3718 39.375 61.9798 38.983 61.9798 38.5V35.875C61.9798 35.392 62.3718 35 62.8548 35C63.3378 35 63.7298 35.392 63.7298 35.875V38.5C63.7298 38.983 63.3378 39.375 62.8548 39.375Z" fill="#111111"/>
<path d="M74.8702 39.6866C74.8107 39.6866 74.7512 39.6848 74.69 39.6796C74.1037 39.6288 73.535 39.3348 73.1675 38.8903C72.6303 38.2428 72.443 37.3136 72.6513 36.3371C72.8472 35.4253 73.367 34.7568 74.0757 34.5048C74.5325 34.3403 75.0295 34.5818 75.194 35.0386C75.2167 35.1016 75.2307 35.1646 75.2377 35.2276C75.5352 34.8828 76.062 34.8268 76.4312 35.1086C76.9632 35.5093 77.4655 36.3406 76.853 38.0101C76.72 38.3741 76.5362 38.8746 76.097 39.2473C75.7662 39.5326 75.334 39.6866 74.8702 39.6866ZM75.0295 35.9048C74.9332 36.0151 74.809 36.1026 74.662 36.1568C74.5675 36.1901 74.431 36.3948 74.3645 36.7063C74.27 37.1386 74.3278 37.5481 74.515 37.7721C74.5867 37.8596 74.7162 37.9243 74.8405 37.9348C75.054 37.8386 75.145 37.5901 75.2115 37.4081C75.467 36.7116 75.369 36.4946 75.369 36.4928C75.1712 36.3441 75.0575 36.1306 75.0295 35.9048Z" fill="#111111"/>
</svg>
