<svg width="28" height="28" viewBox="0 0 28 28" fill="none" xmlns="http://www.w3.org/2000/svg">
<g clip-path="url(#clip0)">
<path fill-rule="evenodd" clip-rule="evenodd" d="M19.6505 7.63816C18.205 6.25951 16.2759 5.50845 14.28 5.53932C10.6276 5.53932 7.52565 8.00338 6.41963 11.3214V11.3215C5.83319 13.0602 5.83319 14.943 6.41962 16.6817H6.42476C7.53591 19.9946 10.6327 22.4587 14.2851 22.4587C16.1705 22.4587 17.7891 21.9764 19.0436 21.1247V21.1212C20.5199 20.1438 21.5282 18.6057 21.842 16.8669H14.28V11.4758H27.4852C27.6499 12.412 27.727 13.3689 27.727 14.3206C27.727 18.5787 26.2052 22.1788 23.5574 24.6171L23.5602 24.6193C21.2401 26.7593 18.0558 27.999 14.28 27.999C8.98658 27.999 4.14587 25.0154 1.76924 20.2878V20.2878C-0.216419 16.3319 -0.216414 11.6713 1.76925 7.71536H1.76928L1.76924 7.71532C4.14587 2.98264 8.98658 -0.00100968 14.28 -0.00100968C17.7575 -0.0421635 21.1167 1.26447 23.6476 3.6411L19.6505 7.63816Z" fill="#111111"/>
</g>
<defs>
<clipPath id="clip0">
<rect width="28" height="28" fill="white"/>
</clipPath>
</defs>
</svg>
