<svg width="84" height="84" viewBox="0 0 84 84" fill="none" xmlns="http://www.w3.org/2000/svg">
<g clip-path="url(#clip0)">
<path d="M44.7234 70.9078C44.625 69.8742 44.5266 68.8242 44.2641 67.8234C44.1492 67.3641 44.0344 66.8883 43.8211 66.4617C43.8047 66.4289 43.7555 66.3633 43.7062 66.3141C43.2961 66.2977 42.9844 65.9859 42.8695 65.6414C42.8531 65.6414 42.8367 65.6414 42.8203 65.625C42.8039 66.2812 42.8039 66.9211 42.8367 67.5773C42.9023 68.8242 43.05 70.1039 42.8695 71.3508C42.525 73.6148 40.7039 74.6156 39.293 76.1906C38.9156 76.6172 38.1937 76.5844 37.8656 76.0922C36.9141 74.6156 35.7 73.2211 35.3719 71.4492C35.175 70.4484 35.2734 69.4148 35.257 68.3977C35.2406 67.4789 35.2242 66.5602 35.1586 65.6578C35.1094 65.6906 35.0437 65.7234 34.9945 65.7562C33.3375 67.6266 32.7633 70.4156 32.993 72.8602C33.2227 75.2063 34.3875 77.1586 35.9461 78.8484C36.0445 78.6516 36.1594 78.4547 36.307 78.2742C36.6023 77.8969 37.2258 77.8641 37.5867 78.1922C38.8828 79.4227 39.3914 80.8336 39.5883 82.4086C40.0312 82.0477 40.4906 81.7031 40.8844 81.2766C41.8359 80.2922 42.607 78.6844 42.6398 77.3063C42.6727 76.3875 43.6898 76.0102 44.2805 76.732C44.2805 76.7484 44.2969 76.7484 44.2969 76.7648C44.8711 74.8781 44.9039 72.7945 44.7234 70.9078Z" fill="white"/>
<path d="M27.382 72.1711C27.2016 72.0234 26.332 71.9742 25.9547 71.9414C25.3969 71.9086 24.8391 71.9086 24.2812 71.9086C24.1336 71.9086 24.0023 71.8758 23.9039 71.8266C23.8875 71.8758 23.8711 71.9086 23.8383 71.9578C23.4445 72.7289 22.8703 73.3195 22.2305 73.8445C24.1008 73.7953 25.9547 73.6969 27.825 73.5984C27.8578 73.2047 27.8906 72.7945 27.907 72.4008C27.7266 72.3844 27.5461 72.3188 27.382 72.1711ZM28.2352 57.7992C27.5461 56.8805 26.8898 55.9289 26.2828 54.9609C25.9383 55.3875 25.5609 55.7812 25.1672 56.175C24.6422 56.7 24.1172 57.2414 24.0023 58.0125C23.8383 59.1117 23.9531 60.3094 23.9859 61.4086C24.0187 62.6062 24.1336 63.7875 24.1992 64.9852C24.2812 66.3305 24.2977 67.6758 24.2977 69.0211C24.2977 69.382 24.2977 69.743 24.2812 70.1039C25.3805 70.0875 26.8734 69.9891 27.9562 70.4484C27.9398 66.4289 27.4148 62.3766 27.9234 58.3734C27.9398 58.0945 28.0711 57.9141 28.2352 57.7992Z" fill="white"/>
<path d="M50.4 22.7063C48.7102 18.3915 46.5609 14.2571 44.6086 10.0571C44.2312 9.25322 43.8375 8.44932 43.3617 7.67822C43.3289 7.71104 43.2961 7.74385 43.2469 7.77666C42 8.71182 40.2609 8.61338 38.7844 8.58057C37.9641 8.56416 37.1602 8.74463 36.3398 8.76104C35.2898 8.77744 33.1734 8.679 32.4516 7.76025C30.9422 9.25322 29.6789 11.0415 28.6125 12.6985C26.1188 16.5868 24.4125 20.7212 23.543 25.2657C23.2641 26.7587 23.018 28.2517 22.8375 29.7774C23.0672 29.9087 23.2477 30.122 23.3133 30.4337C23.6742 32.1892 26.1023 32.6321 27.5625 32.8126C29.6789 33.0751 31.8281 32.9767 33.9445 32.829C37.0781 32.5993 40.2281 32.4681 43.3617 32.2384C45.15 32.1071 46.9547 31.8446 48.743 31.8774C49.4484 31.8774 50.1539 31.9103 50.8594 31.8282C51.2203 31.779 51.5812 31.7298 51.9258 31.5657C52.2211 31.4345 52.1883 31.4509 52.2047 31.2376C52.2047 30.8931 52.3852 30.6306 52.6148 30.4829C52.0734 27.8251 51.3844 25.2329 50.4 22.7063ZM43.3125 24.0353C41.6391 26.8407 38.0953 28.8095 34.7977 27.8743C32.5664 27.2345 28.4156 25.3149 29.1539 22.3454C28.4813 19.2774 28.7602 16.0454 31.3852 13.847C34.1742 11.5009 39.2437 11.9438 41.9836 14.1751C44.8875 16.5212 45.1664 20.9017 43.3125 24.0353Z" fill="white"/>
<path d="M37.9969 4.15062C37.9148 4.34749 37.7344 4.51156 37.4555 4.59359C36.307 4.92171 35.2242 5.47953 34.2398 6.2014C34.3711 6.39828 34.4367 6.64437 34.4039 6.85765C34.5516 6.89046 34.7156 6.90687 34.8797 6.92328C35.6016 6.9889 36.3398 6.97249 37.0617 6.90687C37.7344 6.85765 38.3742 6.77562 39.0633 6.77562C40.0805 6.79203 41.3766 6.90687 42.2297 6.26703C42.2461 6.25062 42.2789 6.23421 42.2953 6.21781C41.2125 5.00374 39.8508 4.13421 37.9969 4.15062Z" fill="white"/>
<path d="M39.293 19.9011C38.932 18.5557 37.9477 17.1612 36.4875 16.9151C34.7484 16.6198 33.4852 18.1784 33.9281 19.8518C34.0266 20.2128 33.9117 20.5245 33.6984 20.7378C33.8461 21.2956 34.0594 21.8698 34.4367 22.2472C35.093 22.887 36.0281 23.2315 36.9469 23.1987C37.9312 23.1659 38.7352 22.8378 39.1289 21.8862C39.375 21.2792 39.457 20.5409 39.293 19.9011Z" fill="white"/>
<path d="M42.6727 19.4251C42.6234 17.7681 41.9016 16.1603 40.4414 15.2743C38.9156 14.3556 36.9141 13.9618 35.1422 14.1915C33.2227 14.4376 31.6641 15.6025 30.975 17.44C30.45 18.8181 30.532 20.2947 30.8438 21.7056C31.0078 21.8697 31.0898 22.0993 31.0242 22.3947C31.1063 22.7064 31.2047 23.0017 31.3031 23.3134C31.3688 23.5267 31.3688 23.7236 31.3031 23.904C31.6969 24.429 32.3367 24.8556 32.8617 25.1345C33.9117 25.7251 35.3227 26.4142 36.5203 26.3158C40.0969 25.9876 42.8039 23.1001 42.6727 19.4251ZM37.0781 25.0033C35.6016 24.9704 34.1086 24.5767 33.0914 23.4447C32.2055 22.4439 31.9266 21.1642 31.6641 19.8845C31.582 19.4743 31.7625 19.179 32.0578 19.0478C32.1563 16.8329 33.8297 14.897 36.2906 15.0611C38.6531 15.2087 40.5398 17.2431 41.032 19.4743C41.6227 22.1158 40.0477 25.0853 37.0781 25.0033ZM53.9273 71.2689C53.8781 70.8751 53.8617 70.4978 53.8453 70.104H49.7109C49.5797 70.104 49.4648 70.0876 49.35 70.0384C49.3172 70.3173 49.2844 70.5798 49.268 70.8423C49.2188 71.3345 49.0875 72.3189 49.5305 72.6962C49.875 72.9915 50.4656 72.9915 50.8922 73.0079C52.1391 73.0736 53.4516 73.172 54.7313 73.0736C54.2555 72.5978 54.0258 71.9908 53.9273 71.2689ZM40.3922 58.4228C39.982 57.7337 39.5719 57.0447 39.1289 56.3884C38.7844 55.8962 38.4398 55.404 37.8656 55.3384C37.6852 56.6181 36.9141 57.7501 36.7336 59.0462C36.4547 61.0478 36.7992 63.0165 36.9305 65.0181C36.9961 66.0025 37.0453 67.0033 37.0617 67.9876C37.0617 68.2501 37.0617 68.5126 37.0617 68.7915C38.0133 68.7751 38.9648 68.6931 39.9 68.6931C40.2445 68.6931 40.6875 68.6767 41.1141 68.7095C41.0813 68.2829 41.0484 67.8728 41.032 67.4462C40.9828 66.2486 41.0484 65.0673 41.1141 63.8861C41.2125 61.9829 41.393 60.0962 40.3922 58.4228ZM53.8289 65.0509C53.8945 63.4923 54.1406 61.7368 53.7469 60.1947C53.6648 59.8501 53.5664 59.5056 53.3531 59.2267C53.1398 58.9478 52.8938 58.8001 52.7133 58.4884C52.2703 57.6845 51.7617 56.9298 51.2531 56.1751C50.482 57.6189 49.6453 59.0626 48.6938 60.4243C48.7102 60.4408 48.7266 60.4736 48.743 60.49C50.1539 62.7376 49.9078 65.6087 49.5797 68.2993H53.8781C53.8781 67.9548 53.8781 67.6103 53.8617 67.2658C53.8289 66.5111 53.7961 65.7892 53.8289 65.0509Z" fill="white"/>
<path d="M53.5008 37.2255C53.3695 35.8145 53.2055 34.4036 53.0086 32.9927C52.9758 33.0091 52.943 33.0419 52.9102 33.0583C52.1883 33.452 51.3352 33.5997 50.5312 33.6325C49.6781 33.6653 48.8414 33.5997 47.9883 33.6489C46.9055 33.7146 45.8391 33.8294 44.7562 33.9114C41.1469 34.1903 37.5375 34.3708 33.9281 34.6169C31.4344 34.781 28.8258 34.9286 26.3648 34.42C24.9211 34.1247 23.5102 33.5833 22.5586 32.5825C22.4109 34.8138 22.4273 37.0614 22.6734 39.2927C23.1984 43.9849 24.6422 48.6935 27.0375 52.7786C29.3344 56.6833 32.4516 60.0302 35.0109 63.7544C34.8633 62.2778 34.7156 60.7849 34.8797 59.3083C34.9781 58.4552 35.1914 57.6841 35.5031 56.8966C35.782 56.1911 36.143 55.4364 36.0937 54.6489C36.0445 54.0583 36.5039 53.7302 36.9633 53.7138C37.0781 53.6153 37.2258 53.5497 37.4227 53.5169C39.5391 53.2052 40.5562 55.256 41.5078 56.7653C42.0492 57.6349 42.5742 58.5208 42.8039 59.538C43.0664 60.7028 43.0008 61.9169 42.9516 63.0981C42.9352 63.3278 42.9352 63.5411 42.9188 63.7708C44.8875 62.4255 46.4789 60.5552 47.775 58.5536C49.1203 56.4536 50.3508 54.2224 51.2695 51.8927C53.1234 47.1841 53.9602 42.295 53.5008 37.2255ZM41.0977 70.5466C40.95 70.5302 40.8187 70.5138 40.6711 70.4974C40.2609 70.481 39.8508 70.481 39.457 70.4974C38.6695 70.5302 37.8656 70.5794 37.0781 70.5958C37.0781 70.6778 37.0945 70.7435 37.0945 70.8255C37.275 72.1052 38.0297 73.1716 38.768 74.2052C39.8508 73.2208 41.0156 72.3349 41.1305 70.7599C41.1305 70.6942 41.1305 70.6122 41.1469 70.5466C41.1469 70.5466 41.1305 70.5466 41.0977 70.5466Z" fill="white"/>
<path d="M58.2422 72.4991C57.5531 72.2202 56.7984 72.1546 56.1258 71.8921C55.4203 71.6132 55.6336 69.8741 55.6336 69.2835C55.65 67.4952 55.5844 65.7397 55.6664 63.9514C55.7484 62.3929 55.7977 60.785 55.3383 59.2757C55.1414 58.6358 54.7805 58.0452 54.2719 57.6186C53.9438 57.3397 53.6977 56.6343 53.468 56.2733C53.107 55.6991 52.7133 55.1577 52.3359 54.5999C52.2703 54.5014 52.2047 54.4358 52.1391 54.3866C53.9438 50.5147 55.1086 46.3311 55.3875 42.0655C55.5516 39.621 55.3219 37.1764 55.043 34.7483C54.7641 32.3038 54.3539 29.8757 53.7961 27.4968C52.6313 22.5749 50.3508 17.9975 48.1523 13.4694C45.8883 8.82645 43.9359 2.06707 37.5703 2.36238C37.1602 2.37879 36.9141 2.62488 36.8156 2.9202C32.9766 4.03582 30.0891 7.3991 27.8742 10.5491C25.3148 14.2077 23.4281 18.1452 22.2961 22.46C19.9336 31.4671 19.9172 41.2616 23.5922 49.9077C24.0844 51.0725 24.6422 52.1882 25.2656 53.2874C25.2328 53.3202 25.2164 53.353 25.1836 53.4022C24.3961 54.7639 22.9195 55.5186 22.3945 57.0444C22.05 58.0124 22.1484 59.0624 22.1484 60.0796C22.1484 61.2608 22.1813 62.4421 22.2633 63.6233C22.3453 64.8538 22.4273 66.0679 22.4602 67.3147C22.4766 68.4632 22.6078 69.6936 22.3453 70.8093C21.9844 72.3186 19.9992 73.2374 18.9328 74.2054C18.2766 74.7796 18.982 75.6983 19.6875 75.6983C22.7063 75.6983 25.7086 75.5343 28.7109 75.3702C29.0883 75.3538 29.482 75.0257 29.5313 74.6483C30.1219 69.6444 29.1539 64.6077 29.5969 59.6038C30.9258 61.31 32.2711 62.9999 33.5016 64.7718C31.6148 66.9866 31.0242 70.1858 31.2211 73.0241C31.4508 76.3054 33.4523 79.0288 35.7656 81.2108C36.2906 81.703 37.0945 81.3421 37.2422 80.7022C37.2422 80.6858 37.2422 80.6694 37.2586 80.653C37.9148 81.8507 37.9148 83.2452 37.9148 84.7054C37.9148 85.6241 39.2438 85.8046 39.6211 85.0335C40.2938 83.6718 41.9508 83.0483 42.8203 81.8014C43.1648 81.3093 43.4766 80.7679 43.7227 80.1936C43.8539 80.2429 43.9852 80.2757 44.1164 80.2757C45.068 80.2757 45.4125 79.1108 45.6914 78.3725C46.1016 77.3061 46.3149 76.1741 46.4461 75.0421C46.6102 73.5327 46.6266 71.9905 46.4953 70.4811C46.3805 69.2014 46.1508 65.6577 44.6742 64.7389C45.7078 63.935 46.643 62.9999 47.4961 61.9827C48.1688 63.4757 48.0047 65.3952 47.8734 66.9702C47.7258 68.7913 47.1188 70.8749 47.5617 72.6796C47.9555 74.3202 49.35 74.7139 50.8594 74.796C53.2711 74.9272 55.8633 75.1241 58.1438 74.1561C58.8 73.8772 59.0133 72.8108 58.2422 72.4991ZM37.4555 4.59363C37.7344 4.5116 37.9148 4.34754 37.9969 4.15067C39.8508 4.15067 41.2125 5.00379 42.2953 6.23426C42.2789 6.25067 42.2461 6.26707 42.2297 6.28348C41.3766 6.92332 40.0805 6.80848 39.0633 6.79207C38.3742 6.79207 37.7344 6.8577 37.0617 6.92332C36.3398 6.97254 35.6016 7.00535 34.8797 6.93973C34.732 6.92332 34.568 6.90692 34.4039 6.8741C34.4203 6.64442 34.3711 6.39832 34.2398 6.21785C35.2406 5.47957 36.307 4.92176 37.4555 4.59363ZM23.5266 25.2491C24.3961 20.7046 26.1188 16.5702 28.5961 12.6819C29.6625 11.0249 30.9258 9.2366 32.4352 7.74363C33.1734 8.66238 35.2898 8.77723 36.3234 8.74442C37.1438 8.72801 37.9641 8.56395 38.768 8.56395C40.2445 8.58035 41.9836 8.6952 43.2305 7.76004C43.2633 7.72723 43.3125 7.69442 43.3453 7.6616C43.8211 8.41629 44.2313 9.2366 44.5922 10.0405C46.5445 14.2405 48.6938 18.3749 50.3836 22.6897C51.368 25.2163 52.0734 27.8085 52.5656 30.4335C52.3359 30.5975 52.1719 30.8436 52.1555 31.1882C52.1555 31.4014 52.1719 31.385 51.8766 31.5163C51.5484 31.6639 51.1711 31.7296 50.8102 31.7788C50.1047 31.8608 49.3992 31.828 48.6938 31.828C46.9055 31.8116 45.1008 32.0577 43.3125 32.1889C40.1789 32.435 37.0289 32.5663 33.8953 32.7796C31.7789 32.9272 29.6297 33.0257 27.5133 32.7632C26.0531 32.5827 23.625 32.1397 23.2641 30.3843C23.1984 30.0725 23.018 29.8593 22.7883 29.728C23.0016 28.2514 23.2477 26.7421 23.5266 25.2491ZM27.825 73.5983C25.9547 73.6968 24.1008 73.7952 22.2305 73.8444C22.8703 73.3194 23.4445 72.7452 23.8383 71.9577C23.8547 71.9085 23.8711 71.8757 23.9039 71.8264C24.0188 71.8757 24.15 71.9085 24.2813 71.9085C24.8391 71.9085 25.3969 71.9085 25.9547 71.9413C26.332 71.9741 27.2016 72.0233 27.382 72.171C27.5461 72.3186 27.7266 72.3843 27.907 72.3843C27.8742 72.7944 27.8578 73.1882 27.825 73.5983ZM27.907 58.3733C27.3984 62.3929 27.9234 66.4288 27.9398 70.4483C26.857 69.9889 25.3641 70.1038 24.2648 70.1038C24.2813 69.7429 24.2813 69.3819 24.2813 69.021C24.2813 67.6757 24.2648 66.3304 24.1828 64.985C24.1172 63.7874 24.0023 62.6061 23.9695 61.4085C23.9367 60.2929 23.8219 59.1116 23.9859 58.0124C24.1008 57.2577 24.6422 56.6999 25.1508 56.1749C25.5445 55.7811 25.9219 55.3874 26.2664 54.9608C26.8734 55.9288 27.5297 56.8639 28.2188 57.7991C28.0711 57.9139 27.9398 58.0944 27.907 58.3733ZM44.7234 70.9077C44.8875 72.8108 44.8547 74.878 44.3297 76.7811C44.3297 76.7647 44.3133 76.7647 44.3133 76.7483C43.7063 76.0264 42.6891 76.4038 42.6727 77.3225C42.6234 78.7007 41.8688 80.3085 40.9172 81.2929C40.507 81.7194 40.0477 82.0639 39.6211 82.4249C39.4242 80.8499 38.9156 79.439 37.6195 78.2085C37.275 77.8804 36.6516 77.9132 36.3398 78.2905C36.1922 78.471 36.0773 78.6515 35.9789 78.8647C34.4367 77.1749 33.2555 75.239 33.0258 72.8765C32.7961 70.4319 33.3703 67.6429 35.0273 65.7725C35.093 65.7397 35.1422 65.7233 35.1914 65.6741C35.257 66.5929 35.2734 67.5116 35.2898 68.4139C35.3063 69.4311 35.2242 70.4647 35.4047 71.4655C35.7492 73.2374 36.9469 74.6319 37.8984 76.1085C38.2102 76.6007 38.9484 76.6335 39.3258 76.2069C40.7367 74.6319 42.5578 73.6311 42.9023 71.3671C43.0828 70.1202 42.9352 68.8405 42.8695 67.5936C42.8367 66.9374 42.8367 66.2975 42.8531 65.6413C42.8695 65.6413 42.8859 65.6413 42.9023 65.6577C43.0172 66.0022 43.3289 66.2975 43.7391 66.3304C43.7883 66.3796 43.8375 66.4452 43.8539 66.478C44.0672 66.9046 44.182 67.3804 44.2969 67.8397C44.5266 68.8241 44.6414 69.8741 44.7234 70.9077ZM41.1141 63.8858C41.0649 65.0671 40.9828 66.2647 41.032 67.446C41.0484 67.8725 41.0813 68.2827 41.1141 68.7093C40.6875 68.6764 40.2445 68.6929 39.9 68.6929C38.9484 68.6929 37.9969 68.7749 37.0617 68.7913C37.0617 68.5288 37.0781 68.2499 37.0617 67.9874C37.0453 66.9866 37.0125 66.0022 36.9305 65.0179C36.7828 63.0163 36.4547 61.0475 36.7336 59.046C36.9141 57.7499 37.6852 56.6179 37.8656 55.3382C38.4398 55.4038 38.7844 55.8796 39.1289 56.3882C39.5719 57.0444 39.982 57.7499 40.3922 58.4225C41.393 60.096 41.2125 61.9827 41.1141 63.8858ZM41.1633 70.5468C41.1633 70.6124 41.1633 70.6944 41.1469 70.76C41.032 72.335 39.8508 73.2374 38.7844 74.2054C38.0461 73.1554 37.2914 72.1054 37.1109 70.8257C37.0945 70.7436 37.0945 70.678 37.0945 70.596C37.882 70.596 38.6859 70.5304 39.4734 70.4975C39.8836 70.4811 40.2938 70.4647 40.6875 70.4975C40.8352 70.514 40.9664 70.5304 41.1141 70.5468C41.1305 70.5468 41.1469 70.5468 41.1633 70.5468ZM47.775 58.5702C46.4789 60.5718 44.9039 62.4421 42.9188 63.7874C42.9352 63.5577 42.9352 63.3444 42.9516 63.1147C43.0008 61.9335 43.0664 60.7194 42.8039 59.5546C42.5742 58.5374 42.0492 57.6514 41.5078 56.7819C40.5727 55.2725 39.5391 53.2218 37.4227 53.5335C37.2422 53.5663 37.0945 53.6319 36.9633 53.7304C36.5039 53.7468 36.0445 54.0749 36.0938 54.6655C36.143 55.453 35.782 56.1913 35.5031 56.9132C35.1914 57.7007 34.9781 58.4718 34.8797 59.3249C34.7156 60.8179 34.8633 62.2944 35.0109 63.771C32.4516 60.0468 29.3508 56.6999 27.0375 52.7952C24.6422 48.71 23.182 44.0014 22.6734 39.3093C22.4273 37.078 22.4109 34.8304 22.5586 32.5991C23.5102 33.5999 24.9047 34.1413 26.3648 34.4366C28.8422 34.9288 31.4344 34.7975 33.9281 34.6335C37.5375 34.3874 41.1469 34.2233 44.7563 33.928C45.8391 33.846 46.9055 33.7311 47.9883 33.6655C48.8414 33.6163 49.6781 33.6819 50.5313 33.6491C51.3352 33.6163 52.2047 33.4686 52.9102 33.0749C52.943 33.0585 52.9758 33.0257 53.0086 33.0093C53.2055 34.4038 53.3695 35.8311 53.5008 37.2421C53.9602 42.3116 53.1234 47.2007 51.2695 51.9421C50.3508 54.2389 49.1203 56.4866 47.775 58.5702ZM48.6938 60.4241C49.6453 59.0624 50.482 57.6186 51.2531 56.1749C51.7617 56.9296 52.2703 57.6843 52.7133 58.4882C52.8938 58.7999 53.1399 58.9475 53.3531 59.2264C53.5664 59.5054 53.6649 59.8663 53.7469 60.1944C54.157 61.7202 53.9109 63.4921 53.8289 65.0507C53.7961 65.7889 53.8289 66.5272 53.8617 67.2655C53.8781 67.61 53.8781 67.9546 53.8781 68.2991H49.5797C49.9242 65.6249 50.1703 62.7374 48.743 60.4897C48.7266 60.4733 48.7102 60.4405 48.6938 60.4241ZM50.8922 72.9913C50.4656 72.9749 49.875 72.9749 49.5305 72.6796C49.0875 72.3186 49.2188 71.3343 49.268 70.8257C49.3008 70.5632 49.3172 70.3007 49.35 70.0218C49.4484 70.0546 49.5797 70.0874 49.7109 70.0874H53.8617C53.8617 70.4811 53.8945 70.8585 53.9438 71.2522C54.0422 71.9741 54.2719 72.5811 54.7477 73.0569C53.4516 73.1554 52.1391 73.0569 50.8922 72.9913Z" fill="#111111"/>
<path d="M41.9836 14.1585C39.2438 11.9273 34.1742 11.5007 31.3852 13.8304C28.7602 16.0288 28.4813 19.2609 29.1539 22.3288C28.3992 25.2984 32.5664 27.2179 34.7977 27.8577C38.0789 28.7929 41.6391 26.8241 43.3125 24.0187C45.1664 20.9015 44.8875 16.521 41.9836 14.1585ZM36.5039 26.2827C35.3063 26.3812 33.8953 25.6921 32.8453 25.1015C32.3367 24.8062 31.6805 24.396 31.2867 23.871C31.3523 23.707 31.3523 23.5101 31.2867 23.2804C31.1883 22.9851 31.0898 22.6734 31.0078 22.3616C31.0898 22.0663 31.0078 21.8202 30.8273 21.6726C30.5156 20.2616 30.4336 18.7851 30.9586 17.407C31.6641 15.5695 33.2227 14.4046 35.1258 14.1585C36.8977 13.9288 38.8992 14.3226 40.425 15.2413C41.9016 16.1273 42.607 17.7351 42.6563 19.3921C42.8039 23.0999 40.0969 25.9874 36.5039 26.2827Z" fill="#111111"/>
<path d="M41.032 19.4743C40.5398 17.2594 38.6367 15.2251 36.2906 15.061C33.8297 14.8969 32.1562 16.8329 32.0578 19.0477C31.7789 19.179 31.582 19.4579 31.6641 19.8844C31.9266 21.1641 32.2055 22.4438 33.0914 23.4446C34.1086 24.5766 35.6016 24.9704 37.0781 25.0032C40.0477 25.0852 41.6227 22.1157 41.032 19.4743ZM39.1289 21.886C38.7187 22.8376 37.9312 23.1821 36.9469 23.1985C36.0281 23.2149 35.0766 22.8868 34.4367 22.2469C34.043 21.8696 33.8461 21.3118 33.6984 20.7376C33.9117 20.5243 34.0266 20.2126 33.9281 19.8516C33.4852 18.1782 34.7484 16.6196 36.4875 16.9149C37.9477 17.161 38.9484 18.5555 39.293 19.9008C39.457 20.5407 39.375 21.279 39.1289 21.886Z" fill="#111111"/>
</g>
<defs>
<clipPath id="clip0">
<rect width="84" height="84" fill="white"/>
</clipPath>
</defs>
</svg>
