<svg width="84" height="84" viewBox="0 0 84 84" fill="none" xmlns="http://www.w3.org/2000/svg">
<path d="M6.20025 44.4065C6.356 50.605 6.503 58.1352 6.335 64.416C6.26675 66.9622 8.18125 69.127 10.7205 69.3317C17.136 69.848 27.538 71.0852 28.6615 71.157C35.2643 71.5875 38.367 72.0197 44.9698 72.4502C51.4973 72.8772 56.2747 72.6252 62.8092 72.4502C65.1472 72.3872 75.3778 71.5857 77.784 70.1087C80.0905 68.693 79.7107 66.4267 78.897 65.235C78.2197 64.241 76.9282 63.9085 75.7487 63.6775C68.1292 62.1847 59.0713 61.8155 51.3468 62.5837C54.9815 61.9415 58.3853 57.535 58.3538 55.5627C58.2995 52.2272 56.0753 52.6822 54.019 51.508C55.8985 49.7457 59.0747 47.6755 59.5035 45.1345C59.9305 42.5935 55.8355 40.154 53.3785 39.3735C56.2293 38.271 58.296 35.4727 57.0972 33.9782C55.9738 32.5782 53.452 30.5517 50.0973 30.515C46.4818 30.4765 37.7265 30.1877 34.118 30.417C33.5615 30.452 32.9403 30.4677 32.522 30.1002C31.8465 29.5087 32.1528 28.4132 32.5185 27.5925C33.8643 24.5737 33.5755 18.0497 34.09 14.786C34.6045 11.5222 34.0235 7.89971 31.7345 5.51796C31.1605 4.92121 30.443 4.39446 29.617 4.32621C28.301 4.21771 27.1495 5.32546 26.6718 6.55746C26.194 7.78946 26.1993 9.14571 26.0243 10.4565C25.3768 15.304 22.274 22.9165 19.2763 26.7822C17.7608 28.737 15.3685 35.0562 10.9165 37.9997C8.743 39.4365 6.13375 41.8042 6.20025 44.4065Z" fill="white"/>
<path d="M72.856 66.5193C72.9593 67.046 72.7108 67.585 72.7493 68.1188C72.779 68.5178 72.9243 68.9185 73.1675 69.237C73.395 69.5363 73.71 69.7795 74.0863 69.8548C74.2998 69.8985 74.5325 69.895 74.7443 69.8425C74.8038 69.8285 75.285 69.6395 75.1468 69.6115C76.2458 69.8373 76.7165 68.1503 75.6123 67.9245C75.2623 67.8528 75.0628 67.921 74.7268 67.9525C74.4485 67.977 74.5833 68.2325 74.4905 67.9088C74.438 67.7285 74.5815 67.284 74.6025 67.088C74.641 66.724 74.6148 66.4108 74.5448 66.0538C74.326 64.9513 72.639 65.4185 72.856 66.5193Z" fill="#111111"/>
<path d="M79.618 64.7429C78.7885 63.5267 77.3483 63.0997 75.915 62.8197C69.7148 61.6052 62.3787 61.1099 55.5747 61.4074C57.7325 59.6207 59.2515 57.1147 59.2252 55.5467C59.1745 52.5034 57.47 51.9084 55.9632 51.3834C55.8477 51.3432 55.7323 51.3029 55.615 51.2609C55.7305 51.1612 55.8495 51.0632 55.9685 50.9617C57.8462 49.3744 59.9743 47.5754 60.361 45.2794C60.7985 42.6754 57.8812 40.4687 55.4347 39.2717C56.8155 38.3372 57.8672 37.0614 58.1997 35.8242C58.4412 34.9229 58.2907 34.0724 57.7745 33.4302C56.3237 31.6207 53.5447 29.6747 50.1007 29.6379C49.1768 29.6274 47.915 29.6012 46.4905 29.5714C42.392 29.4857 36.778 29.3684 34.0585 29.5417C33.803 29.5592 33.2692 29.5907 33.0942 29.4367C32.8982 29.2669 32.984 28.6807 33.313 27.9439C34.2545 25.8317 34.4435 22.2827 34.6098 19.1519C34.6955 17.5367 34.7778 16.0124 34.9493 14.9187C35.5688 10.9812 34.601 7.23968 32.361 4.90868C31.5053 4.01618 30.6057 3.52443 29.6852 3.44918C27.8407 3.32143 26.4145 4.78968 25.8528 6.23518C25.459 7.24668 25.361 8.28793 25.2648 9.29593C25.2315 9.64243 25.2 9.99068 25.1545 10.3354C24.5157 15.1164 21.4445 22.5487 18.5833 26.2412C18.1143 26.8449 17.6208 27.7374 16.996 28.8679C15.5015 31.5699 13.454 35.2677 10.4335 37.2662C8.491 38.5507 5.2465 41.1914 5.327 44.4254C5.4775 50.4139 5.62975 58.0964 5.46175 64.3877C5.38125 67.4082 7.65975 69.9597 10.6523 70.1977C14.8733 70.5372 20.8005 71.1864 24.724 71.6187C26.7505 71.8409 28.2205 72.0019 28.6055 72.0264C31.899 72.2417 34.3192 72.4569 36.7395 72.6704C39.172 72.8874 41.6045 73.1044 44.9137 73.3197C47.5807 73.4947 49.9782 73.5542 52.3092 73.5542C54.8607 73.5542 57.3335 73.4824 59.997 73.4019L62.8355 73.3214C64.3177 73.2829 75.4267 72.5794 78.2442 70.8504C79.3607 70.1644 80.0782 69.2124 80.318 68.0977C80.5507 66.9847 80.2917 65.7299 79.618 64.7429ZM26.8888 10.5699C26.9377 10.2042 26.9727 9.83493 27.0077 9.46568C27.0252 9.27143 27.0532 9.09118 27.0742 8.90043C27.9895 9.42893 28.5968 10.5087 28.0437 11.5482C27.7463 12.1064 27.153 12.3619 26.5283 12.5667C26.6805 11.8719 26.8048 11.1999 26.8888 10.5699ZM78.6012 67.7354C78.463 68.3812 78.0342 68.9289 77.3255 69.3647C75.2815 70.6194 65.723 71.4997 62.7865 71.5767L59.9427 71.6589C54.684 71.8129 50.5295 71.9372 45.0275 71.5784C41.734 71.3632 39.3138 71.1479 36.8935 70.9344C34.461 70.7174 32.0285 70.5004 28.7192 70.2852C28.3412 70.2607 26.8993 70.1032 24.9148 69.8844C20.9808 69.4539 15.0378 68.8029 10.7923 68.4617C8.72725 68.2954 7.15575 66.5297 7.21175 64.4419C7.3815 58.1087 7.22925 50.3982 7.077 44.3869C7.014 41.9072 10.0783 39.6059 11.3995 38.7327C14.7788 36.4997 16.9453 32.5814 18.529 29.7237C19.0943 28.7017 19.5843 27.8179 19.9675 27.3227C22.3055 24.3074 24.6943 19.1449 26.005 14.5914C26.922 14.1067 28.0053 14.0647 28.812 13.3559C29.4718 12.7784 29.8865 11.9454 29.9757 11.0757C30.1612 9.26968 28.9853 7.83818 27.4155 7.15218C27.4435 7.06293 27.4523 6.96493 27.4855 6.87918C27.8163 6.02693 28.5828 5.19918 29.435 5.19918C29.4718 5.19918 29.5068 5.19918 29.5435 5.20268C30.0265 5.24293 30.5515 5.55443 31.1028 6.13018C32.9665 8.06918 33.761 11.2577 33.2238 14.6544C33.0383 15.8392 32.9543 17.4072 32.865 19.0662C32.7058 22.0464 32.5273 25.4257 31.717 27.2404C30.8333 29.2179 31.353 30.2469 31.9428 30.7632C32.662 31.3932 33.6455 31.3284 34.1705 31.2969C36.8182 31.1272 42.3885 31.2444 46.4555 31.3302C47.8887 31.3617 49.1558 31.3862 50.085 31.3967C52.9217 31.4282 55.2668 33.1064 56.4113 34.5327C56.4725 34.6097 56.658 34.8407 56.5127 35.3779C56.2432 36.3789 54.943 37.8367 53.06 38.5629C52.7135 38.6977 52.4895 39.0372 52.5 39.4064C52.5122 39.7774 52.7555 40.0994 53.1108 40.2132C55.5625 40.9902 58.933 43.2389 58.6372 44.9942C58.3572 46.6584 56.4882 48.2387 54.8415 49.6299C54.3305 50.0604 53.8422 50.4734 53.417 50.8742C53.214 51.0632 53.1143 51.3397 53.1475 51.6144C53.1808 51.8892 53.3417 52.1342 53.5832 52.2724C54.2097 52.6294 54.838 52.8482 55.391 53.0407C56.805 53.5324 57.449 53.7564 57.4788 55.5782C57.5015 56.9852 54.5335 61.1344 51.1945 61.7259C50.7307 61.8082 50.4157 62.2404 50.4805 62.7077C50.5435 63.1732 50.974 63.5144 51.4325 63.4584C59.1692 62.6902 68.1975 63.0944 75.5807 64.5399C76.573 64.7342 77.6755 65.0037 78.1725 65.7334C78.4892 66.1902 78.7675 66.9619 78.6012 67.7354Z" fill="#111111"/>
</svg>
