<svg width="84" height="84" viewBox="0 0 84 84" fill="none" xmlns="http://www.w3.org/2000/svg">
<path d="M67.06 28.6108C68.25 30.0231 69.1477 31.8308 69.9457 33.3586C71.1252 35.6178 71.827 37.7563 72.2872 40.2623C72.7212 42.6318 72.4762 45.0678 72.2277 47.4636C71.6747 52.7853 71.0972 59.9131 69.3227 64.9618C67.5482 70.0106 65.261 72.5043 60.669 75.2501C53.7722 79.3713 44.1892 80.5228 36.4157 78.4928C28.49 76.4226 20.1757 73.0626 15.974 66.0311C13.006 61.0646 12.5685 53.1598 13.5817 47.4636C14.595 41.7673 15.75 33.9063 18.613 31.1518C18.613 31.1518 13.048 36.4648 21.3255 38.6121C29.603 40.7593 36.3125 42.3921 44.8437 42.2328C53.375 42.0736 63.714 40.3043 65.6372 38.2253C67.5605 36.1446 70.3167 33.0138 67.06 28.6108Z" fill="white"/>
<path d="M62.6097 25.6429C65.5602 26.9099 68.46 29.3162 68.614 32.5239C68.7312 34.9512 67.1772 37.2262 65.1577 38.5807C63.14 39.9352 60.711 40.5214 58.3222 40.9659C45.8535 43.2899 32.802 42.4079 20.7602 38.4284C19.7697 38.1012 18.7425 37.7249 18.046 36.9497C16.919 35.6949 16.9995 33.6824 17.8377 32.2177C18.676 30.7529 20.1145 29.7379 21.574 28.8927C31.8272 22.9532 41.454 23.9612 53.382 23.9874C56.5337 23.9962 59.7135 24.3987 62.6097 25.6429ZM47.8327 27.4174C40.1852 27.2459 32.3995 27.1917 25.7967 31.0539C25.0232 31.5054 24.1937 32.1529 24.1885 33.0489C24.1815 34.0289 25.1545 34.6992 26.0435 35.1104C29.8077 36.8482 34.041 37.2192 38.1815 37.4327C42.3535 37.6479 46.5307 37.7284 50.708 37.6724C55.0375 37.6164 59.9357 37.1387 62.6132 33.7384C63.0262 33.2152 63.3815 32.5922 63.35 31.9254C63.287 30.5762 61.782 29.8307 60.487 29.4422C56.07 28.1122 52.444 27.5207 47.8327 27.4174Z" fill="white"/>
<path d="M47.8328 27.4175C40.1853 27.246 32.3995 27.1917 25.7968 31.054C25.0233 31.5055 24.1938 32.153 24.1885 33.049C24.1815 34.029 25.1545 34.6992 26.0435 35.1105C29.8078 36.8482 34.041 37.2192 38.1815 37.4327C42.3535 37.648 46.5308 37.7285 50.708 37.6725C55.0375 37.6165 59.9358 37.1387 62.6133 33.7385C63.0263 33.2152 63.3815 32.5922 63.35 31.9255C63.287 30.5762 61.782 29.8307 60.487 29.4422C56.07 28.1122 52.444 27.5207 47.8328 27.4175Z" fill="white"/>
<path d="M58.4062 36.1967C42.4392 29.3612 29.1515 33.948 29.1515 33.948C29.1515 33.948 25.1475 35.0592 27.8862 36.1967C30.625 37.3342 48.629 37.917 51.5532 37.6895C54.4757 37.4637 58.4062 36.1967 58.4062 36.1967Z" fill="white"/>
<path d="M25.676 35.9049C29.6415 37.7354 34.006 38.0959 38.136 38.3059C41.4662 38.4792 44.8385 38.5649 48.1897 38.5649C49.0332 38.5649 49.8785 38.5579 50.7185 38.5474C55.3245 38.4879 60.4205 37.9332 63.2975 34.2809C63.9572 33.4444 64.26 32.6604 64.2197 31.8852C64.1725 30.8509 63.5285 29.4439 60.739 28.6039C56.2187 27.2442 52.4842 26.6457 47.852 26.5424C40.5895 26.3814 32.3715 26.1924 25.3557 30.2979C24.8535 30.5919 23.3222 31.4862 23.3135 33.0402C23.3082 33.8487 23.7142 34.9984 25.676 35.9049ZM50.6957 36.7974C46.564 36.8499 42.3587 36.7694 38.2252 36.5577C34.9527 36.3897 31.5402 36.1149 28.3745 35.0702C35.4217 31.4967 47.733 31.9902 56.5267 36.2217C54.663 36.6452 52.6382 36.7729 50.6957 36.7974ZM26.2377 31.8099C31.493 28.7369 37.6145 28.2277 43.4402 28.2277C44.9242 28.2277 46.389 28.2609 47.8117 28.2924C47.8135 28.2924 47.8135 28.2924 47.8135 28.2924C52.2777 28.3922 55.8757 28.9679 60.235 30.2787C61.054 30.5254 62.433 31.0732 62.475 31.9692C62.4907 32.3052 62.3105 32.7077 61.9255 33.1977C61.1205 34.2197 60.06 34.9337 58.8665 35.4604C58.8525 35.4517 58.8455 35.4394 58.8315 35.4307C48.8547 29.8919 34.0235 29.3687 26.285 34.2512C25.8405 34.0342 25.0617 33.5827 25.0635 33.0542C25.0652 32.6884 25.473 32.2579 26.2377 31.8099Z" fill="#111111"/>
<path d="M73.1482 40.1067C72.6582 37.4379 71.9092 35.2329 70.721 32.9544L70.5162 32.5589C69.7497 31.0837 68.88 29.4124 67.7267 28.0474C67.613 27.9127 67.4642 27.8374 67.3067 27.7902C66.2095 26.6264 64.7465 25.6079 62.9545 24.8379C60.2752 23.6864 57.1445 23.1229 53.382 23.1142C51.8717 23.1107 50.3982 23.0914 48.9562 23.0739C38.9445 22.9409 30.2977 22.8289 21.1347 28.1367C20.139 28.7124 18.977 29.4772 18.0355 30.5044C18.0267 30.5114 18.0162 30.5149 18.0075 30.5219C17.983 30.5447 17.9602 30.5762 17.9357 30.5989L17.934 30.6007C15.1532 33.3814 13.944 40.3009 12.971 45.8799L12.719 47.3097C11.697 53.0567 12.0732 61.2134 15.2232 66.4809C19.9097 74.3209 29.435 77.5742 36.1935 79.3382C38.7957 80.0189 41.5625 80.3497 44.352 80.3497C50.3125 80.3497 56.3692 78.8377 61.117 76.0009C66.087 73.0312 68.3655 70.3187 70.147 65.2524C71.7762 60.6184 72.415 54.2992 72.9277 49.2224L73.0975 47.5564C73.3372 45.2464 73.6102 42.6302 73.1482 40.1067ZM22.0115 29.6487C29.4105 25.3629 36.5802 24.7837 44.52 24.7837C45.9637 24.7837 47.432 24.8029 48.9317 24.8222C50.379 24.8414 51.8595 24.8589 53.3767 24.8624C56.8977 24.8694 59.8027 25.3874 62.2615 26.4427C63.5022 26.9782 67.5675 28.9942 67.739 32.5624C67.8492 34.8672 66.2252 36.8062 64.6695 37.8509C62.8932 39.0427 60.7827 39.6132 58.1595 40.1032C45.7992 42.4009 32.963 41.5347 21.0315 37.5937C20.111 37.2892 19.2377 36.9672 18.6935 36.3617C17.801 35.3694 17.969 33.7419 18.592 32.6482C19.3672 31.3042 20.755 30.3767 22.0115 29.6487ZM71.3562 47.3744L71.1847 49.0457C70.6807 54.0314 70.0542 60.2352 68.495 64.6714C66.85 69.3492 64.8375 71.7362 60.2175 74.4977C53.6305 78.4317 44.3747 79.6619 36.6327 77.6459C30.1735 75.9589 21.0787 72.8719 16.7212 65.5814C13.8215 60.7304 13.5065 52.8677 14.441 47.6177L14.6947 46.1809C15.2407 43.0467 15.8672 39.4697 16.772 36.5647C16.9365 36.9147 17.136 37.2472 17.395 37.5342C18.228 38.4599 19.3795 38.8939 20.4872 39.2579C28.2415 41.8199 36.3685 43.1132 44.506 43.1132C49.1855 43.1132 53.8685 42.6862 58.485 41.8252C60.9385 41.3667 63.504 40.7454 65.6477 39.3069C67.6042 37.9927 68.9185 36.0992 69.3402 34.1164C70.3412 36.1097 70.9975 38.0714 71.428 40.4199C71.8445 42.6984 71.596 45.0767 71.3562 47.3744Z" fill="#111111"/>
<path d="M23.324 15.8934L26.0662 14.9292L29.5207 35.4549L25.7757 34.1407L23.324 15.8934Z" fill="white"/>
<path d="M21.7647 5.44629C17.5875 8.54029 12.845 11.7953 9.11224 15.4143C11.0582 16.8143 13.6202 16.97 16.0142 16.8668C24.0817 16.522 32.032 13.7745 38.5927 9.06704C38.976 8.79229 39.403 8.35654 39.221 7.92254C39.0757 7.57779 38.6382 7.48504 38.2672 7.43954C32.4065 6.72904 27.6255 6.15679 21.7647 5.44629Z" fill="white"/>
<path d="M75.0277 5.00834C74.431 3.75534 72.5795 4.08434 71.295 4.60759C67.9927 5.95509 64.6905 7.30259 61.3882 8.64834C60.7932 8.89159 60.1667 9.15759 59.7887 9.67909C59.5665 9.98709 59.4527 10.3581 59.3407 10.7221C56.9957 18.4256 54.6507 29.0656 52.3057 36.7691C52.3057 36.7691 53.4642 37.0771 56.4777 36.2441C58.6722 30.3046 61.0225 19.0713 62.6482 11.9908C65.7212 10.0326 69.601 9.43409 72.9575 8.01834C74.221 7.48809 75.6157 6.24384 75.0277 5.00834Z" fill="white"/>
<path d="M38.3723 6.57138L22.9688 4.71113C22.953 4.70063 22.9373 4.68838 22.9215 4.67788C22.6433 4.48363 22.3755 4.49938 22.1533 4.61313L21.8733 4.57988C21.8698 4.57988 21.868 4.58163 21.8645 4.57988C21.434 4.43463 20.8985 4.56763 20.7253 5.12588C20.1215 5.57038 19.5143 6.01488 18.8948 6.46813C15.3038 9.08438 11.5938 11.7916 8.50327 14.7841C8.31777 14.9661 8.21977 15.2181 8.23902 15.4771C8.25827 15.7361 8.39127 15.9724 8.60127 16.1246C10.4878 17.4791 12.8363 17.7661 14.8943 17.7661C15.2933 17.7661 15.6818 17.7556 16.0528 17.7399C18.235 17.6454 20.4138 17.3654 22.5645 16.9296C23.0755 19.4986 23.45 22.5646 23.8385 25.8231C24.227 29.0571 24.626 32.3996 25.1843 35.2749C25.2665 35.6914 25.6323 35.9819 26.0418 35.9819C26.0978 35.9819 26.1538 35.9766 26.2115 35.9661C26.6858 35.8734 26.9938 35.4149 26.9045 34.9389C26.3568 32.1266 25.9613 28.8156 25.578 25.6131C25.1808 22.3021 24.801 19.1819 24.2725 16.5359C24.6208 16.4501 24.9708 16.3801 25.3173 16.2856C26.425 23.0091 27.2633 29.7956 28.8628 36.4246C29.127 37.5184 30.814 37.0546 30.5498 35.9591C28.945 29.3144 28.1085 22.5104 26.9955 15.7711C31.3198 14.4096 35.4445 12.3989 39.102 9.77388C40.3813 8.86038 40.1765 7.93638 40.0278 7.57763C39.6673 6.72538 38.689 6.60813 38.3723 6.57138ZM24.6138 14.6669C24.6085 14.6284 24.619 14.5934 24.6085 14.5531C23.9855 12.0734 23.5288 9.56563 23.198 7.03338C25.6025 8.78163 27.853 10.6786 29.8393 12.8976C28.1383 13.5976 26.3935 14.1961 24.6138 14.6669ZM17.4458 15.8726C18.8213 13.2686 20.4173 10.6069 21.567 7.86813C21.903 10.2726 22.3265 12.6579 22.9198 15.0169C22.9233 15.0309 22.932 15.0379 22.9355 15.0501C21.1243 15.4509 19.2903 15.7256 17.4458 15.8726ZM10.563 15.2479C13.2808 12.7471 16.4465 10.4196 19.5405 8.16213C18.326 10.8081 16.7248 13.3964 15.4613 15.8971C15.4438 15.9304 15.442 15.9671 15.4298 16.0004C13.8583 16.0406 12.075 15.9461 10.563 15.2479ZM38.0818 8.35463C36.0343 9.82463 33.8258 11.0794 31.5245 12.1469C29.813 10.1501 27.8775 8.41588 25.8178 6.81813L38.1483 8.30563C38.1273 8.32313 38.1045 8.33888 38.0818 8.35463Z" fill="#111111"/>
<path d="M75.817 4.6323C75.124 3.1798 73.2673 2.8578 70.966 3.79755L61.0593 7.84005C60.4485 8.08855 59.6155 8.4298 59.0818 9.1683C58.772 9.59705 58.625 10.0801 58.506 10.4686C57.3265 14.3431 56.133 19.1608 54.9763 23.8211C53.8265 28.455 52.6365 33.25 51.471 37.0791C51.331 37.541 51.59 38.0293 52.0538 38.1711C52.1395 38.1973 52.2253 38.2078 52.3093 38.2078C52.6855 38.2078 53.032 37.9646 53.1475 37.5883C54.327 33.7156 55.5205 28.8995 56.6755 24.2411C57.827 19.6053 59.017 14.8068 60.1825 10.9778C60.2718 10.6873 60.3645 10.3863 60.5028 10.1938C60.725 9.88405 61.1678 9.6863 61.7208 9.46055L71.6293 5.41805C72.5148 5.0593 73.9375 4.7513 74.2403 5.3848C74.3103 5.53005 74.312 5.6648 74.2473 5.83455C74.0635 6.3193 73.395 6.88805 72.6215 7.2118C71.3913 7.73155 70.0438 8.1498 68.7418 8.5558C66.5053 9.2523 64.1918 9.9733 62.1828 11.2526C61.9885 11.3751 61.852 11.5711 61.7995 11.7951C61.4933 13.1303 61.1695 14.5951 60.8248 16.1386C59.3705 22.7028 57.5593 30.8736 55.5135 36.3371C55.342 36.7903 55.573 37.2943 56.0245 37.4641C56.4795 37.6408 56.98 37.4045 57.1515 36.953C59.2428 31.3741 61.068 23.1351 62.5345 16.5183C62.846 15.1131 63.1435 13.7778 63.4235 12.5441C65.1665 11.5028 67.1598 10.8833 69.2615 10.2288C70.6055 9.81055 71.9933 9.38005 73.3023 8.82705C74.27 8.4193 75.4565 7.5828 75.8835 6.45755C76.1163 5.84155 76.0935 5.21155 75.817 4.6323Z" fill="#111111"/>
</svg>
