<svg width="25" height="28" viewBox="0 0 25 28" fill="none" xmlns="http://www.w3.org/2000/svg">
<g clip-path="url(#clip0)">
<path d="M20.1004 26.8798C18.5828 28.3526 16.9084 28.123 15.3124 27.4286C13.6156 26.7202 12.0644 26.6754 10.2724 27.4286C8.04083 28.3918 6.85643 28.1118 5.51243 26.8798C-2.07556 19.0678 -0.955564 7.16783 7.66843 6.71983C9.76003 6.83183 11.2244 7.87623 12.4564 7.96303C14.2876 7.59063 16.0404 6.52383 18.0004 6.66383C20.3552 6.85423 22.1164 7.78383 23.2924 9.45543C18.4484 12.3674 19.5964 18.7514 24.0456 20.5434C23.1552 22.8814 22.0128 25.1914 20.0976 26.8994L20.1004 26.8798ZM12.2884 6.63583C12.0616 3.16383 14.8756 0.307832 18.1124 0.027832C18.5576 4.03183 14.4724 7.02783 12.2884 6.63583Z" fill="black"/>
</g>
<defs>
<clipPath id="clip0">
<rect width="23.576" height="28" fill="white" transform="translate(0.444427)"/>
</clipPath>
</defs>
</svg>
