<svg width="84" height="84" viewBox="0 0 84 84" fill="none" xmlns="http://www.w3.org/2000/svg">
<path d="M63.607 46.4626C62.7539 41.2454 62.2617 35.979 61.95 30.6961C61.6711 25.9219 61.4086 20.9672 60.2109 16.3079C59.6859 14.3063 58.7016 12.4032 56.4539 12.0258C55.4531 11.8618 54.4359 11.9274 53.4187 11.9438C52.2211 11.9766 51.0234 11.9602 49.8258 11.993C47.25 12.075 44.6742 12.2719 42.1148 12.5508C39.9984 12.7805 37.8656 13.2235 35.7328 13.3055C34.0101 13.3711 32.2711 13.2891 30.5484 13.3711C29.2851 13.4368 27.4312 13.4368 26.4469 14.3555C26.332 14.4704 26.2008 14.536 26.0695 14.5688C26.0039 14.7821 25.8562 14.979 25.6101 15.0774C25.282 15.225 25.0359 16.0782 24.9375 16.6032C24.757 17.5711 24.6914 18.5719 24.6914 19.5563C24.6586 21.6891 24.8391 23.8383 24.7898 25.9711C24.757 27.7758 24.5109 29.5313 24.6094 31.336C24.7406 33.8954 25.1344 36.4383 25.5445 38.9649C25.9547 41.5407 26.2828 44.1165 26.8078 46.6758C27.3164 49.1532 27.9234 51.6141 28.4156 54.0915C28.9242 56.5688 29.3016 59.0626 29.7117 61.5563C29.925 62.8688 30.1383 64.1977 30.5484 65.461C30.7781 66.1501 31.0406 66.954 31.6476 67.4133C32.8125 68.3157 34.7156 67.6922 36.0117 67.5446C38.7023 67.2493 41.3766 66.8227 44.0344 66.3797C46.4789 65.9696 48.9234 65.5758 51.3844 65.1821C53.3203 64.8704 55.2726 64.6079 57.1922 64.1485C59.0297 63.7055 60.9328 63.1313 62.475 61.9993C63.9187 60.9493 64.7555 59.5547 65.0016 57.7829C65.4937 54.0422 64.2141 50.1704 63.607 46.4626ZM52.5328 49.9899C51.7617 52.1555 50.7937 54.2719 49.6945 56.2899C49.1859 57.2086 47.7258 56.4868 48.218 55.568C49.2516 53.6813 50.1703 51.7125 50.9086 49.6946C51.45 48.2016 52.1226 46.3477 52.0242 44.6579C50.7773 45.5274 49.875 46.9711 48.9726 48.136C47.857 49.5633 46.5937 51.0071 44.7891 51.5485C44.3297 51.6961 43.6898 51.3844 43.7062 50.843C43.7719 48.3 45.1992 46.1672 46.0359 43.8376C46.7742 41.8032 47.3976 39.736 47.9226 37.636C44.0344 40.6547 41.3273 45.0844 36.668 47.1188C36.0773 47.3813 35.4867 46.7579 35.5851 46.1836C36.1758 42.6563 38.4891 39.7524 39.9 36.5532C40.7367 34.65 41.393 32.6321 42.082 30.6797C42.7875 28.6454 43.4273 26.611 43.9523 24.5274C44.2148 23.5102 45.8226 23.8219 45.5601 24.8391C45.0187 26.9555 44.3625 29.0391 43.657 31.1063C42.968 33.0915 42.3117 35.1422 41.4586 37.0782C40.3101 39.654 38.5383 42.0821 37.6359 44.7727C41.8195 42.2133 44.4609 37.6032 48.7266 35.0766C48.8906 34.9782 49.0711 34.9454 49.2516 34.9618C49.5633 34.9782 49.875 35.1422 49.957 35.4704C49.9734 35.5032 49.9734 35.536 49.9734 35.5688C49.9734 35.618 49.9898 35.6508 49.9898 35.7V35.8149C49.9898 35.9297 49.9734 36.0446 49.9242 36.143C49.3664 38.7024 48.6445 41.229 47.775 43.7227C47.332 44.9696 46.8234 46.1508 46.282 47.3485C45.9867 47.9883 45.7078 48.661 45.5109 49.35C46.643 48.5461 47.4961 47.3157 48.3328 46.2165C49.432 44.7727 50.6133 43.3125 52.3359 42.6071C52.7297 42.443 53.2711 42.6891 53.3859 43.1157C54.0586 45.3633 53.2875 47.8571 52.5328 49.9899Z" fill="white"/>
<path d="M69.1031 59.6861C68.7586 54.5674 68.4961 49.4487 67.9219 44.3463C67.3148 39.0307 66.7078 33.7315 66.2976 28.3994C65.9695 24.1174 65.6086 19.8354 65.0672 15.5697C64.6898 12.6166 64.1156 9.04006 61.5891 7.12053C60.0141 5.92287 57.9633 5.67678 56.0437 5.49631C53.5992 5.28303 51.1547 5.34866 48.7101 5.52912C43.7555 5.89006 38.85 6.64475 33.8953 7.05491C29.7609 7.39944 25.1508 7.0385 21.5414 9.45022C22.0992 9.84397 21.9844 10.7627 21.4266 10.9432C21.4266 10.976 21.4102 11.0088 21.3937 11.0744C21.2789 11.5338 21.1969 12.026 21.1477 12.5018C20.9836 13.8799 20.9016 15.258 20.8359 16.6526C20.5406 23.8057 20.8031 30.9424 21.4922 38.0627C22.0008 43.3127 22.6898 48.5299 23.4117 53.7471C24.1172 58.8822 25.4297 63.8697 26.5125 68.9229C26.8898 70.6455 27.1687 72.401 27.7594 74.058C28.268 75.5182 29.0391 77.1752 30.7125 77.5362C32.7469 77.9627 34.7977 77.2572 36.832 77.2408C39.3914 77.208 41.9672 77.1916 44.5266 77.0276C45.3797 76.9783 46.2328 76.8963 47.0859 76.8143C44.9531 76.2565 42.9844 74.2221 43.05 71.9252C43.1156 69.1197 46.1016 68.3815 48.3656 67.9221C48.382 67.6924 48.5133 67.4627 48.6937 67.3151C47.5945 67.4791 46.4953 67.6432 45.4125 67.8237C42.7383 68.2666 40.0805 68.726 37.3898 69.0541C36.2742 69.1854 35.1422 69.3658 34.0266 69.4643C33.3539 69.5135 32.6156 69.5627 31.9594 69.3658C30.4336 68.9393 29.5148 67.7252 29.0391 66.2323C28.2844 63.8862 28.0383 61.4252 27.6117 59.0299C27.1523 56.5033 26.7094 53.9768 26.1516 51.4666C25.5937 49.0221 25.0359 46.5612 24.6422 44.0838C23.8383 39.0307 22.6898 33.8135 22.9359 28.6783C23.0016 27.3658 23.1492 26.0862 23.1164 24.7572C23.0836 23.2479 23.018 21.7385 23.018 20.2455C23.018 18.2604 22.8047 14.6018 24.9867 13.5682C25.0195 13.4697 25.0852 13.3713 25.1836 13.2893C26.5945 11.9604 28.7602 11.7963 30.5977 11.7307C32.632 11.6487 34.732 11.8455 36.75 11.5666C42.8203 10.7463 49.0055 10.0572 55.1414 10.2541C57.1266 10.3197 59.0789 10.8776 60.3094 12.551C61.507 14.1752 61.868 16.2424 62.2125 18.1947C63.0656 23.0838 63.4101 28.0057 63.6726 32.9604C63.9516 38.276 64.6242 43.6572 65.6578 48.8744C66.3141 52.2049 67.3148 55.9783 66.2648 59.3416C65.1164 63.0166 61.6219 64.7229 58.1273 65.6088C55.3055 66.3307 52.3852 66.7737 49.4812 67.2002C49.5469 67.233 49.6125 67.2822 49.6781 67.3479C50.5805 68.201 51.9586 68.5619 52.6312 69.6447C53.3203 70.7276 53.4352 72.0237 53.0086 73.2213C52.5328 74.583 51.368 75.8299 49.9898 76.4862C53.0906 76.076 56.175 75.5346 59.2594 74.9112C61.1953 74.5174 63.1805 74.2385 65.018 73.5002C66.6586 72.844 67.8727 71.5971 68.5289 69.9565C69.8742 66.7244 69.3164 63.0658 69.1031 59.6861ZM42.3773 9.99162C40.9336 10.008 39.2766 10.2705 38.0133 9.41741C37.193 8.876 37.8 7.51428 38.6039 7.87522C38.6859 7.59631 38.9156 7.38303 39.293 7.38303C40.7039 7.36662 42.9844 7.16975 43.132 9.12209C43.1648 9.53225 42.8203 9.99162 42.3773 9.99162Z" fill="white"/>
<path d="M49.35 69.1523C49.2352 69.3492 49.0383 69.4969 48.7758 69.5461C47.3156 69.8414 44.3953 70.2516 44.7398 72.368C44.9695 73.8117 46.4133 75.2063 47.8734 75.3047C49.5141 75.4195 51.368 73.9266 51.6305 72.3023C51.9422 70.5305 50.5477 69.9563 49.35 69.1523Z" fill="white"/>
<path d="M70.6289 57.5368C70.3828 52.2376 69.8906 46.9384 69.2508 41.672C68.5945 36.3563 68.1516 31.0407 67.7414 25.6923C67.4297 21.7548 67.118 17.7681 66.4945 13.8798C66.0023 10.8282 65.018 7.56338 62.393 5.67666C60.7851 4.52823 58.8656 4.18369 56.9461 3.95401C54.5672 3.6751 52.1555 3.70791 49.7766 3.83916C44.4281 4.13448 39.1289 4.9876 33.7969 5.44698C29.2687 5.84073 24.3633 5.49619 20.4586 8.25244C19.95 8.61338 20.0648 9.22041 20.4094 9.54854C19.507 10.3853 19.4742 13.1087 19.4086 13.7978C19.1953 16.4392 19.1461 19.097 19.1133 21.7384C19.0312 30.6306 19.9008 39.4735 21.0492 48.2837C21.7219 53.4188 22.4273 58.5048 23.6086 63.5579C24.1828 66.0188 24.757 68.4962 25.2984 70.9735C25.643 72.5485 25.9711 74.1235 26.5945 75.6001C27.2344 77.1259 28.2187 78.3727 29.7937 78.9798C31.6969 79.7017 33.8789 79.2095 35.8312 78.9798C38.243 78.7173 40.7039 78.8649 43.132 78.7665C45.6914 78.6517 48.2508 78.4384 50.8102 78.0938C53.2875 77.7493 55.7484 77.3556 58.2094 76.8306C60.1617 76.4204 62.1469 76.0759 64.0664 75.5673C65.8711 75.0915 67.4625 74.3532 68.7094 72.9259C69.8414 71.6462 70.432 69.9728 70.7601 68.3321C71.4164 64.7884 70.793 61.097 70.6289 57.5368ZM47.8734 75.3048C46.3969 75.2063 44.9695 73.8118 44.7398 72.3681C44.3953 70.2517 47.3156 69.8251 48.7758 69.5462C49.0383 69.497 49.2351 69.3329 49.35 69.1524C50.5476 69.9728 51.9422 70.5306 51.6469 72.3024C51.3844 73.9267 49.5305 75.4196 47.8734 75.3048ZM24.675 19.5892C24.6914 18.6048 24.7406 17.604 24.9211 16.636C25.0195 16.111 25.2656 15.2579 25.5937 15.1103C25.8398 14.9954 25.9875 14.8149 26.0531 14.6017C26.1844 14.5689 26.3156 14.5032 26.4305 14.3884C27.4148 13.4532 29.2687 13.4532 30.532 13.404C32.2547 13.322 33.9937 13.3876 35.7164 13.3384C37.8492 13.2564 39.982 12.8134 42.0984 12.5837C44.6578 12.3048 47.2336 12.1079 49.8094 12.0259C51.007 11.9931 52.2047 11.9931 53.4023 11.9767C54.4195 11.9603 55.4203 11.8946 56.4375 12.0587C58.6852 12.436 59.6695 14.3228 60.1945 16.3407C61.4086 21.0001 61.6547 25.9548 61.9336 30.729C62.2453 36.0118 62.7375 41.2618 63.5906 46.4954C64.1976 50.2032 65.4773 54.0751 64.9523 57.8813C64.7062 59.6696 63.8695 61.0478 62.4258 62.0978C60.8836 63.2134 58.9805 63.7876 57.143 64.247C55.2398 64.7228 53.2875 64.9853 51.3351 65.2806C48.8906 65.6743 46.4461 66.0681 43.9851 66.4782C41.3109 66.9212 38.6531 67.3478 35.9625 67.6431C34.65 67.7907 32.7469 68.4142 31.5984 67.5118C30.9914 67.0524 30.7289 66.2485 30.4992 65.5595C30.0891 64.2962 29.8758 62.9673 29.6625 61.6548C29.2523 59.161 28.875 56.6673 28.3664 54.1899C27.8578 51.7126 27.2508 49.2517 26.7586 46.7743C26.2336 44.2149 25.9055 41.6392 25.4953 39.0634C25.0851 36.5368 24.6914 33.9938 24.5601 31.4345C24.4617 29.6298 24.7078 27.8579 24.7406 26.0696C24.8226 23.8712 24.6422 21.7384 24.675 19.5892ZM68.5781 69.9563C67.9219 71.597 66.7242 72.8603 65.0672 73.5001C63.2297 74.2384 61.2281 74.5173 59.3086 74.911C56.2242 75.5345 53.1398 76.0923 50.0391 76.486C51.4336 75.8298 52.582 74.5829 53.0578 73.2212C53.4844 72.0235 53.3695 70.7274 52.6805 69.6446C51.9914 68.5782 50.6133 68.2009 49.7273 67.3478C49.6617 67.2821 49.5961 67.2329 49.5305 67.2001C52.4344 66.7735 55.3383 66.3306 58.1766 65.6087C61.6711 64.7228 65.182 63.0165 66.3141 59.3415C67.3641 55.9782 66.3633 52.2212 65.707 48.8743C64.6734 43.6571 64.0008 38.2595 63.7219 32.9603C63.4594 28.0056 63.1148 23.0837 62.2617 18.1946C61.9172 16.2423 61.5726 14.1751 60.3586 12.5509C59.1117 10.8774 57.1758 10.3196 55.1906 10.254C49.0383 10.0571 42.8695 10.7462 36.7992 11.5665C34.7648 11.8454 32.6812 11.6485 30.6469 11.7306C28.8094 11.7962 26.6437 11.9603 25.2328 13.2892C25.1344 13.3876 25.0687 13.4696 25.0359 13.5681C22.8539 14.6017 23.0672 18.2603 23.0672 20.2454C23.0672 21.7548 23.1328 23.2642 23.1656 24.7571C23.1984 26.086 23.0508 27.3493 22.9851 28.6782C22.7226 33.8134 23.8875 39.0306 24.6914 44.0837C25.0851 46.561 25.6594 49.022 26.2008 51.4665C26.7586 53.9767 27.2016 56.5032 27.6609 59.0298C28.0875 61.4415 28.35 63.9024 29.0883 66.2321C29.5641 67.7087 30.4664 68.9228 32.0086 69.3657C32.6648 69.5462 33.4031 69.5134 34.0758 69.4642C35.1914 69.3657 36.3234 69.1852 37.4391 69.054C40.1297 68.7259 42.7875 68.2829 45.4617 67.8235C46.5445 67.6431 47.6437 67.479 48.743 67.3149C48.5625 67.4626 48.4476 67.6923 48.4148 67.922C46.1508 68.3813 43.1648 69.1196 43.0992 71.9251C43.0336 74.222 45.0023 76.2563 47.1351 76.8142C46.282 76.8962 45.4289 76.9618 44.5758 77.0274C42.0164 77.1915 39.457 77.2079 36.8812 77.2407C34.8469 77.2735 32.7961 77.9626 30.7617 77.536C29.0719 77.1915 28.3172 75.5345 27.8086 74.0579C27.2344 72.4009 26.9391 70.629 26.5617 68.9228C25.4625 63.8532 24.1664 58.8821 23.4609 53.747C22.7391 48.5298 22.05 43.3126 21.5414 38.0626C20.8523 30.9423 20.5898 23.8056 20.8851 16.6524C20.9344 15.2743 21.0164 13.8798 21.1969 12.5017C21.2625 12.0259 21.3281 11.5501 21.443 11.0743C21.4594 11.0087 21.4758 10.9595 21.4758 10.9431C22.0172 10.7626 22.132 9.84385 21.5906 9.4501C25.2 7.03838 29.8101 7.39932 33.9445 7.05479C38.8992 6.64463 43.8047 5.88994 48.7594 5.52901C51.2039 5.34854 53.6484 5.28291 56.093 5.49619C58.0125 5.66026 60.0633 5.92276 61.6383 7.12041C64.132 9.05635 64.7062 12.6329 65.0836 15.586C65.625 19.8517 65.9859 24.1337 66.3141 28.4157C66.7242 33.7478 67.3312 39.047 67.9383 44.3626C68.5125 49.4649 68.775 54.5837 69.1195 59.7024C69.3164 63.0657 69.8742 66.7243 68.5781 69.9563Z" fill="#111111"/>
<path d="M43.132 9.1055C42.9844 7.15315 40.7039 7.35003 39.293 7.36643C38.9156 7.36643 38.6859 7.59612 38.6039 7.85862C37.7836 7.49768 37.193 8.8594 38.0133 9.40081C39.2766 10.2539 40.9336 9.99143 42.3773 9.97503C42.8203 9.99143 43.1648 9.53206 43.132 9.1055ZM53.4188 43.1157C53.3039 42.7055 52.7625 42.443 52.3688 42.6071C50.6461 43.3125 49.4812 44.7727 48.3656 46.2164C47.5289 47.2992 46.6758 48.5461 45.5438 49.35C45.7242 48.661 46.0195 47.9883 46.3148 47.3485C46.8562 46.1508 47.3648 44.9696 47.8078 43.7227C48.6773 41.2453 49.3828 38.7188 49.957 36.143C49.9898 36.0446 50.0227 35.9297 50.0227 35.8149V35.7C50.0227 35.6508 50.0227 35.6016 50.0062 35.5688C50.0062 35.536 49.9898 35.5032 49.9898 35.4703C49.8914 35.1422 49.5961 34.9782 49.2844 34.9617C49.1039 34.9453 48.907 34.9782 48.7594 35.0766C44.4938 37.5867 41.8523 42.2133 37.6688 44.7727C38.5711 42.0821 40.3594 39.6539 41.4914 37.0782C42.3445 35.1586 43.0008 33.1078 43.6898 31.1063C44.4117 29.0391 45.068 26.9555 45.593 24.8391C45.8555 23.8055 44.2477 23.5102 43.9852 24.5274C43.4602 26.611 42.8203 28.6453 42.1148 30.6797C41.4258 32.6485 40.7695 34.65 39.9328 36.5532C38.5219 39.7524 36.2086 42.6563 35.618 46.1836C35.5195 46.7578 36.0938 47.3813 36.7008 47.1188C41.3438 45.068 44.0672 40.6383 47.9555 37.636C47.4305 39.736 46.807 41.8032 46.0687 43.8375C45.232 46.1672 43.8047 48.3 43.7391 50.843C43.7227 51.4008 44.3625 51.6961 44.8219 51.5485C46.6102 50.9907 47.8898 49.5633 49.0055 48.136C49.9078 46.9711 50.8102 45.5438 52.057 44.6578C52.1555 46.3477 51.4828 48.218 50.9414 49.6946C50.2031 51.7125 49.2844 53.6813 48.2508 55.568C47.7422 56.5032 49.2188 57.225 49.7273 56.2899C50.8266 54.2719 51.7945 52.1555 52.5656 49.9899C53.2875 47.8571 54.0586 45.3633 53.4188 43.1157Z" fill="#111111"/>
</svg>
