<svg width="84" height="84" viewBox="0 0 84 84" fill="none" xmlns="http://www.w3.org/2000/svg">
<path d="M5.71373 16.2856C3.88498 16.4343 2.47798 17.9813 2.50248 19.8171C2.63198 29.5838 3.25498 39.0618 3.26548 48.8986C3.27073 53.4941 3.27423 58.0913 3.27948 62.6868C3.28123 64.0221 3.16923 65.0703 4.01098 66.1081C5.22898 67.6061 7.48823 67.5553 9.41148 67.3838C32.2805 65.3556 55.4767 65.2663 78.3545 67.1931C79.3485 67.2771 80.5507 67.2701 81.0915 66.4318C81.3925 65.9663 81.3855 65.3731 81.368 64.8183C80.8937 49.2643 80.4212 34.1531 79.947 18.5991C79.9295 17.9988 79.9032 17.3706 79.6127 16.8438C79.261 16.2068 78.582 15.8288 77.9222 15.5208C72.0475 12.7908 65.261 13.1933 58.7982 13.6501L29.7185 15.7098C25.823 15.9863 19.4425 16.1648 15.54 16.0563C12.5982 15.9741 8.88123 16.0266 5.71373 16.2856Z" fill="white"/>
<path d="M36.3633 23.1332L79.8403 21.875V28.602C79.8403 28.602 70.0018 30.1228 60.1563 29.498C50.3108 28.8733 36.1655 28.9573 36.1655 28.9573L36.3633 23.1332Z" fill="white"/>
<path d="M3.11325 39.879L33.824 38.1692C33.824 38.1692 43.3108 36.7605 55.7813 36.8987C68.2518 37.037 80.6383 36.5015 80.6383 36.5015V43.799L3.11325 45.6732V39.879Z" fill="white"/>
<path d="M3.11325 52.682V60.557L24.171 59.3477L51.023 59.0643L81.375 58.7948L81.1562 51.0773C81.1562 51.0773 67.7477 50.4945 60.921 50.9093C54.096 51.3223 34.0147 53.1388 21.6562 52.9288C9.29775 52.7188 3.11325 52.682 3.11325 52.682Z" fill="white"/>
<path d="M3.09402 39.2611L20.7078 38.7974L35.9923 37.6739C35.9923 37.6739 37.3713 21.5914 34.804 15.3491C31.2025 15.6046 6.15127 16.2504 6.15127 16.2504C6.15127 16.2504 2.39052 15.8601 2.52527 21.2449C2.66002 26.6296 3.09402 39.2611 3.09402 39.2611Z" fill="white"/>
<path d="M82.243 64.7885L80.9323 22.1042C81.0198 21.9642 81.0828 21.8067 81.0775 21.6282C81.0723 21.4462 81.0005 21.2887 80.9025 21.1505L80.8238 18.5675C80.8028 17.9305 80.78 17.136 80.3793 16.4167C79.9068 15.5645 79.0598 15.0815 78.2933 14.7245C72.065 11.83 64.6765 12.3567 58.7388 12.775L29.6555 14.8365C25.5553 15.127 19.2308 15.2845 15.5645 15.1812C12.2588 15.0867 8.55226 15.1742 5.64376 15.414C3.36176 15.5977 1.59776 17.5367 1.62751 19.8275C1.68526 24.1937 1.84451 28.5705 1.99676 32.802C2.18751 38.0432 2.38351 43.4647 2.38876 48.8985L2.40276 62.685L2.40101 63.098C2.39051 64.3265 2.38001 65.4868 3.33026 66.6575C4.41351 67.991 6.04101 68.3392 7.79101 68.3392C8.34926 68.3392 8.91976 68.3042 9.48676 68.2535C32.4555 66.2183 55.6028 66.1518 78.281 68.0628C79.0703 68.1328 80.9323 68.2902 81.8248 66.9042C82.2868 66.1937 82.2605 65.3503 82.243 64.7885ZM4.13876 48.8967C4.13876 48.1075 4.11076 47.327 4.10201 46.5395L79.8735 44.6792L80.0398 50.0885C70.0175 49.6003 59.885 49.8382 49.9135 50.8078C48.8443 50.9128 47.7768 51.0247 46.7075 51.1367C44.373 51.3835 41.9563 51.6372 39.5815 51.7948C35.0805 52.0957 30.4745 52.0607 26.0173 52.0327L4.52551 51.884C4.52376 51.884 4.52201 51.884 4.52026 51.884C4.38376 51.884 4.25776 51.9225 4.14226 51.9785L4.13876 48.8967ZM79.3643 28.1242C71.414 29.0132 63.2503 28.7402 55.3473 28.4672C49.4358 28.2625 43.3353 28.0647 37.317 28.343C37.2768 26.754 37.184 25.1685 37.044 23.5847L79.1927 22.5505L79.3643 28.1242ZM37.345 30.0912C43.3143 29.8182 49.3973 30.0142 55.2878 30.2155C59.1605 30.3467 63.0963 30.4815 67.0478 30.4815C71.1743 30.4815 75.3165 30.3275 79.4202 29.876L79.597 35.637C75.3585 35.9712 71.0588 36.1532 66.8168 36.1725C64.029 36.1987 61.2378 36.1287 58.4448 36.0728C51.4238 35.9275 44.184 35.8015 37.093 36.778C37.2873 34.552 37.3485 32.3225 37.345 30.0912ZM34.895 38.9882C35.1995 38.9725 35.707 38.9375 36.1603 38.6767C43.484 37.5357 51.0703 37.6793 58.4098 37.8228C61.2168 37.8787 64.0238 37.9382 66.8238 37.9242C71.0815 37.905 75.3953 37.723 79.6495 37.387L79.8193 42.9292L4.07576 44.7895C4.05126 43.2862 4.04076 41.7812 3.99876 40.292C14.2118 39.9735 24.6015 39.5395 34.895 38.9882ZM4.14401 53.543C4.25776 53.5973 4.38026 53.634 4.51501 53.634L26.0068 53.7845C27.37 53.7932 28.749 53.8037 30.135 53.8037C33.3078 53.8037 36.5208 53.7547 39.6988 53.5448C42.1068 53.3855 44.541 53.13 46.893 52.8815C47.957 52.7695 49.021 52.6558 50.085 52.5525C60.018 51.5848 70.1085 51.3502 80.0958 51.8402L80.283 57.953C80.2078 57.9355 80.1343 57.911 80.0537 57.918L35.21 58.338C25.0338 58.4307 14.5128 58.5305 4.14926 59.36L4.14401 53.543ZM58.8595 14.5232C64.8953 14.0945 71.7325 13.6097 77.553 16.3117C78.0903 16.5637 78.617 16.8525 78.8463 17.2672C79.0405 17.6155 79.0563 18.1282 79.072 18.6235L79.1385 20.8005L36.8935 21.8365C36.68 19.929 36.407 18.0267 36.0465 16.1367L58.8595 14.5232ZM5.78551 17.157C7.88376 16.9855 10.409 16.8962 12.8905 16.8962C13.7795 16.8962 14.6615 16.9085 15.5173 16.933C19.236 17.0345 25.634 16.8787 29.7815 16.5847L34.2983 16.2645C35.6038 23.0212 35.9555 29.9215 35.3413 36.7727C35.336 36.8357 35.3203 36.974 35.3045 37.0737C35.2083 37.1105 35.1225 37.1595 35.0473 37.226C34.951 37.2365 34.8513 37.2418 34.8023 37.2453C24.5193 37.7948 14.1418 38.2287 3.93926 38.5455C3.87801 36.5995 3.81501 34.6482 3.74676 32.7425C3.59451 28.5197 3.43526 24.1552 3.37751 19.8065C3.35826 18.431 4.41701 17.2672 5.78551 17.157ZM80.3565 65.954C80.0678 66.4038 79.1175 66.3775 78.428 66.3197C55.6518 64.3983 32.4048 64.4648 9.33276 66.5105C7.45851 66.6768 5.60001 66.6785 4.68826 65.5532C4.15976 64.9022 4.14051 64.2687 4.14926 63.1102L4.15101 62.6815L4.14926 61.11C14.4935 60.277 25.032 60.1807 35.224 60.0862L80.0677 59.668C80.1605 59.6663 80.2463 59.64 80.3303 59.612L80.4912 64.8428C80.5052 65.226 80.521 65.702 80.3565 65.954Z" fill="#111111"/>
<path d="M10.1588 23.9837C10.0363 23.9837 9.91377 23.9574 9.80002 23.9067C9.58127 23.8069 9.41152 23.6232 9.33102 23.3939C9.25752 23.1839 9.18752 22.9722 9.11927 22.7604C9.07202 22.7447 9.02652 22.7289 8.97927 22.7184C8.93377 22.7989 8.88652 22.8777 8.83752 22.9582C8.58552 23.3694 8.04477 23.5007 7.63527 23.2487C7.37977 23.0929 7.23277 22.8287 7.21702 22.5522C6.92127 22.4507 6.69027 22.1934 6.63602 21.8644C6.56077 21.4024 6.86002 20.9632 7.31677 20.8669C7.54077 20.8197 7.76652 20.7759 7.99227 20.7357C8.13927 20.3542 8.26002 19.9639 8.35102 19.5614C8.44202 19.1624 8.79552 18.8789 9.20502 18.8789C9.61452 18.8789 9.96802 19.1624 10.0573 19.5632C10.1255 19.8659 10.1973 20.1669 10.276 20.4679C10.64 20.4452 11.0058 20.4347 11.3715 20.4329H11.3733C11.8545 20.4329 12.2483 20.8232 12.2483 21.3062C12.2483 21.7874 11.858 22.1812 11.375 22.1829C11.291 22.1829 11.207 22.1847 11.123 22.1847C11.2665 22.5067 11.2788 22.8847 11.1598 23.2137C11.039 23.5409 10.801 23.7912 10.4895 23.9189C10.3863 23.9609 10.2725 23.9837 10.1588 23.9837Z" fill="#111111"/>
<path d="M16.5253 23.6304C16.464 23.6304 16.401 23.6234 16.338 23.6094C15.8655 23.5061 15.5663 23.0406 15.6695 22.5681C15.6905 22.4701 15.7133 22.3739 15.736 22.2759C15.722 22.2706 15.708 22.2671 15.694 22.2619C15.2758 22.1376 15.015 21.7281 15.078 21.2976C15.141 20.8689 15.5103 20.5504 15.9443 20.5504C15.9443 20.5504 15.9443 20.5504 15.946 20.5504H16.212C16.3853 20.0096 16.5795 19.4776 16.7948 18.9526C16.947 18.5764 17.346 18.3559 17.7363 18.4189C18.137 18.4801 18.4415 18.8056 18.4765 19.2081C18.5168 19.6701 18.557 20.1444 18.6848 20.5574L20.7113 20.5626C21.1943 20.5644 21.5863 20.9564 21.5845 21.4394C21.5845 21.9206 21.1925 22.3126 20.7095 22.3126C20.7095 22.3126 20.7095 22.3126 20.7078 22.3126L20.356 22.3109C20.3665 22.3949 20.363 22.4824 20.349 22.5681C20.2703 23.0179 19.8485 23.3154 19.4023 23.2856C19.187 23.2629 18.977 23.2121 18.7758 23.1316C18.3225 23.0126 17.871 22.8884 17.4213 22.7624C17.4073 22.8219 17.395 22.8796 17.3828 22.9409C17.29 23.3504 16.9278 23.6304 16.5253 23.6304Z" fill="#111111"/>
<path d="M25.7582 23.3189C25.529 23.3189 25.298 23.2279 25.1265 23.0494C24.857 22.7694 24.8115 22.3564 24.9865 22.0309C24.7327 21.9014 24.549 21.6494 24.5157 21.3432C24.465 20.8637 24.8115 20.4314 25.2927 20.3807L26.0277 20.3019C26.1362 19.8942 26.1695 19.4654 26.1135 19.0542C26.1117 19.0367 26.1082 19.0192 26.1065 19.0017C26.04 18.5274 26.3707 18.0864 26.8467 18.0164C27.3227 17.9499 27.7655 18.2754 27.8372 18.7514C27.839 18.7707 27.8425 18.7882 27.8442 18.8074C27.9107 19.2467 28.0542 19.6719 28.2607 20.0657L28.8015 20.0079C29.2845 19.9712 29.7027 20.2949 29.7622 20.7674L29.9355 22.1359C29.9792 22.4772 29.8182 22.8132 29.526 22.9917C29.2337 23.1737 28.8627 23.1649 28.5775 22.9724C28.14 22.6767 27.748 22.3197 27.4085 21.9154L27.2405 21.9329C27.006 22.3529 26.7102 22.7397 26.362 23.0757C26.194 23.2384 25.977 23.3189 25.7582 23.3189Z" fill="#111111"/>
<path d="M11.8492 30.0581C11.7337 30.0581 11.6165 30.0353 11.5045 29.9863C11.06 29.7973 10.8552 29.2828 11.046 28.8383L11.0757 28.7683C10.7135 28.6598 10.4527 28.3256 10.451 27.9318C10.4492 27.4733 10.8027 27.0918 11.2595 27.0551C11.4485 27.0411 11.6375 27.0288 11.8265 27.0183L12.2797 25.9613C12.4267 25.6183 12.7785 25.3978 13.1512 25.4328C13.524 25.4626 13.8372 25.7251 13.9317 26.0856C14.0105 26.3901 14.1225 26.6876 14.2642 26.9693C14.5285 26.9728 14.7927 26.9816 15.057 26.9921C15.54 27.0131 15.9145 27.4208 15.8952 27.9038C15.883 28.2083 15.715 28.4691 15.4735 28.6161C15.5767 28.8908 15.54 29.2093 15.351 29.4561C15.1567 29.7116 14.6895 29.8971 14.3657 29.8498C13.944 29.7851 13.559 29.4648 13.4102 29.0553C13.3962 29.0186 13.384 28.9818 13.3735 28.9451L12.9202 28.9136L12.656 29.5296C12.5107 29.8603 12.1887 30.0581 11.8492 30.0581Z" fill="#111111"/>
<path d="M24.437 29.1623C24.1587 29.1623 23.8892 29.0293 23.7212 28.7896L23.2522 28.1211C23.1787 28.0791 23.0947 28.0441 23.009 28.0196C22.8952 27.9863 22.7745 27.9671 22.6485 27.9566L22.3422 27.9653L22.0167 28.5463C21.7805 28.9681 21.2485 29.1168 20.825 28.8823C20.4032 28.6461 20.2527 28.1141 20.489 27.6906L20.6955 27.3213C20.6832 27.2706 20.6745 27.2163 20.671 27.1621C20.6482 26.7561 20.9055 26.3973 21.2782 26.2783L21.8505 25.2563C21.9975 24.9938 22.2687 24.8258 22.5697 24.8101C22.8812 24.7611 23.1577 24.9343 23.331 25.1811L24.0187 26.1628L25.235 26.1261C25.389 26.0456 25.5535 26.0526 25.7495 26.0018C26.1835 26.0036 26.5685 26.2573 26.7295 26.6458C26.8397 26.9101 26.8117 27.2146 26.656 27.4561C26.5002 27.6976 26.236 27.8481 25.9472 27.8568L25.228 27.8778C25.2525 27.9478 25.2717 28.0178 25.2892 28.0896C25.3837 28.4973 25.1755 28.9156 24.7922 29.0853C24.6785 29.1378 24.5577 29.1623 24.437 29.1623Z" fill="#111111"/>
<path d="M7.70524 36.2966C7.59674 36.2966 7.48649 36.2756 7.37974 36.2336C7.03149 36.0936 6.82149 35.7558 6.83024 35.3988C6.54149 35.2571 6.34549 34.9631 6.34024 34.6236C6.33499 34.1598 6.69199 33.7731 7.15399 33.7398L7.44449 33.7188L8.06749 32.1613C8.19874 31.8323 8.51199 31.6171 8.86549 31.6118C9.14724 31.6241 9.53924 31.8131 9.68099 32.1351L10.2917 33.5193L10.8815 33.4773C11.3645 33.4371 11.7827 33.8063 11.816 34.2893C11.851 34.7671 11.4922 35.1836 11.0145 35.2221C11.0635 35.5056 10.9725 35.8013 10.7572 36.0061C10.4912 36.2598 10.0922 36.3228 9.76324 36.1583C9.37299 35.9658 8.96174 35.8101 8.53649 35.6981L8.51724 35.7453C8.38074 36.0883 8.05349 36.2966 7.70524 36.2966Z" fill="#111111"/>
<path d="M17.0485 35.7209C16.9733 35.7209 16.8963 35.7104 16.8193 35.6894C16.352 35.5651 16.0773 35.0839 16.2015 34.6184L16.3835 33.9481C16.296 33.8904 16.2085 33.8309 16.1228 33.7661C15.806 33.5386 15.68 33.1274 15.8113 32.7599C15.9443 32.3941 16.2785 32.1596 16.6933 32.1841L16.8578 32.1964L17.073 31.3949C17.164 31.0624 17.4423 30.8121 17.7853 30.7596C18.123 30.7089 18.4695 30.8611 18.655 31.1534L19.4355 32.3714L20.0533 32.4116C20.5345 32.4449 20.9003 32.8614 20.867 33.3426C20.8478 33.6296 20.692 33.8746 20.468 34.0199C20.5625 34.2771 20.5328 34.5694 20.377 34.8056C20.1863 35.0926 19.8503 35.2449 19.4985 35.1854C18.9805 35.0944 18.4695 34.9544 17.976 34.7671L17.8938 35.0734C17.787 35.4654 17.4335 35.7209 17.0485 35.7209Z" fill="#111111"/>
<path d="M27.5065 34.9321C27.293 34.9321 27.0795 34.8551 26.9115 34.6976C26.558 34.3686 26.537 33.8156 26.866 33.4621C26.9412 33.3781 27.0165 33.2924 27.0865 33.2066C26.9727 32.9791 26.957 32.7639 26.9657 32.6151C26.9902 32.2686 27.1635 31.9606 27.4417 31.7664C27.5992 31.6561 27.769 31.5949 27.9387 31.5634C28.0157 31.3009 28.07 31.0279 28.098 30.7549C28.14 30.3541 28.4515 30.0339 28.8522 29.9796C29.2477 29.9271 29.6362 30.1564 29.7832 30.5291L30.2522 31.7314C30.415 31.7104 30.576 31.6789 30.7335 31.6334C31.1955 31.4934 31.682 31.7699 31.815 32.2354C31.948 32.7009 31.6767 33.1839 31.213 33.3151C31.1097 33.3466 31.0047 33.3711 30.8997 33.3939C30.9995 33.6774 30.947 33.9924 30.7597 34.2304C30.5672 34.4736 30.2592 34.5926 29.953 34.5541C29.4665 34.4876 28.9922 34.3669 28.5355 34.1954C28.413 34.3546 28.2835 34.5086 28.147 34.6556C27.9755 34.8376 27.741 34.9321 27.5065 34.9321Z" fill="#111111"/>
</svg>
