<svg width="84" height="84" viewBox="0 0 84 84" fill="none" xmlns="http://www.w3.org/2000/svg">
<path d="M52.6995 40.0558C52.5945 43.729 53.0215 47.383 52.9147 51.0563C52.885 52.0958 53.0565 53.4275 54.061 53.7005C54.5142 53.8248 54.992 53.6673 55.4365 53.5133C59.409 52.1395 63.518 51.5305 67.7197 51.653C71.9215 51.7755 76.2825 53.4958 78.6152 56.9923C79.0387 57.6275 79.3887 58.4798 78.974 59.1203C78.5925 59.71 77.7822 59.7923 77.0805 59.836C71.6135 60.1773 66.2287 61.1328 61.467 63.84C58.1752 65.7108 55.2002 68.0855 52.2427 70.448C50.932 71.4963 49.5705 72.6058 48.9055 74.1458C48.5765 74.9053 47.1782 77.581 44.079 77.9783C42.1382 78.2268 40.8625 78.0255 38.9112 77.8715C35.3745 77.5915 31.8377 77.3115 28.3027 77.0333C25.928 76.846 23.4902 76.6413 21.3395 75.6158C18.5832 74.2998 16.576 71.7325 15.372 68.9255C14.168 66.1185 13.685 63.0613 13.3035 60.032C12.2972 52.024 11.5552 43.8305 11.8405 35.7648C12.0067 28.3885 11.7915 20.9073 11.9595 13.531C12.019 10.8588 12.3357 7.71751 14.6335 6.34726C16.415 5.28501 17.9007 6.12851 19.4127 7.54776C20.9247 8.96701 20.5065 14.931 20.6167 17.9393C20.797 22.883 21.0682 28.1015 21.4637 33.033C21.4637 33.033 21.3535 28.4358 24.528 27.692C27.7025 26.9465 30.3397 25.403 31.7782 30.0475C32.3767 31.976 33.9937 28.749 33.9937 28.749C33.9937 28.749 37.9085 21.7193 43.1987 27.65C44.4062 34.7113 43.792 33.8363 43.792 33.8363C43.792 33.8363 44.492 28.7683 47.8572 27.783C51.2225 26.7978 52.9287 29.9968 52.878 33.082C52.829 36.1673 52.6995 40.0558 52.6995 40.0558Z" fill="white"/>
<path d="M43.5015 53.5375C43.3317 53.0825 42.8242 52.8498 42.3745 53.0265C39.2752 54.192 36.5452 56.1835 34.4662 58.7385C33.7242 56.418 31.9567 54.465 29.6887 53.541C29.2407 53.3555 28.7315 53.5743 28.5495 54.0205C28.3675 54.4668 28.5827 54.9795 29.029 55.1598C30.9837 55.956 32.5307 57.8058 32.97 59.8708C33.0137 60.0773 33.1275 60.2505 33.2815 60.3713C33.1572 60.5638 33.0225 60.7475 32.9052 60.9453C32.571 61.507 32.3627 62.4188 32.697 63.0838C32.907 63.5003 33.2955 63.768 33.761 63.8153C33.7925 63.8188 33.8222 63.8205 33.8537 63.8205C34.2965 63.8205 34.6762 63.4863 34.7217 63.0365C34.7585 62.6813 34.5782 62.3523 34.286 62.1878C34.3052 62.081 34.3437 61.9498 34.4085 61.8413C36.365 58.5583 39.4117 56.0085 42.9887 54.6628C43.4437 54.4948 43.673 53.989 43.5015 53.5375Z" fill="#111111"/>
<path d="M27.0322 48.8303C26.8362 48.8303 26.6437 48.8233 26.4617 48.8163C25.97 48.7954 25.3557 48.7743 24.766 48.4366C24.017 48.0078 23.5742 47.1661 23.6635 46.3454C23.7982 45.0959 24.99 44.5149 26.0435 44.4956C26.404 44.5079 26.6595 44.5341 26.9202 44.5639C27.1145 44.5849 27.314 44.6059 27.58 44.6199C27.58 44.6199 27.58 44.6199 27.5817 44.6199C28.1277 44.6199 28.4182 44.8054 28.6492 44.9576L28.8312 45.0679C29.561 45.4809 29.974 46.3524 29.8165 47.1433C29.6817 47.8066 29.1952 48.3386 28.4795 48.6029C27.986 48.7901 27.4942 48.8303 27.0322 48.8303ZM25.9612 46.2456C25.732 46.2456 25.424 46.3524 25.4047 46.5344C25.389 46.6744 25.515 46.8494 25.6357 46.9176C25.8527 47.0419 26.1835 47.0541 26.5317 47.0681C27.0252 47.0874 27.496 47.1049 27.8775 46.9649C28.0227 46.9124 28.0997 46.8354 28.1067 46.8004C28.1155 46.7619 28.0525 46.6376 27.9755 46.5956C27.867 46.5344 27.783 46.4801 27.706 46.4294C27.6867 46.4294 27.5415 46.3716 27.524 46.3699C27.202 46.3541 26.9675 46.3296 26.7365 46.3051C26.516 46.2806 26.299 46.2579 25.9892 46.2474C25.9787 46.2474 25.97 46.2456 25.9612 46.2456Z" fill="#111111"/>
<path d="M37.0195 47.7384C35.9012 47.7384 34.7848 47.2589 34.041 46.4137C33.383 45.6612 33.2518 44.7109 33.712 44.0442C34.0218 43.5927 34.51 43.4089 34.8478 43.3092C35.8435 43.0134 36.6467 42.8349 37.8805 43.2094C37.9155 43.2199 37.9505 43.2339 37.9837 43.2479C38.5227 43.4894 38.7082 43.6942 38.969 44.0092L39.1107 44.1807C39.7267 44.8894 39.8597 45.8607 39.4397 46.5904C39.1632 47.0769 38.6627 47.4287 37.9942 47.6089C37.6775 47.6982 37.3502 47.7384 37.0195 47.7384ZM35.1715 45.0487C35.2187 45.0592 35.2713 45.1589 35.357 45.2604C35.882 45.8554 36.7815 46.1197 37.5427 45.9219C37.7947 45.8537 37.9015 45.7627 37.9242 45.7242C37.954 45.6752 37.9225 45.4792 37.7895 45.3252L37.6215 45.1257C37.478 44.9524 37.464 44.9367 37.3222 44.8702C36.645 44.6759 36.2407 44.7267 35.3412 44.9874C35.2572 45.0154 35.2047 45.0329 35.1715 45.0487Z" fill="#111111"/>
<path d="M79.3432 56.5076C77.0455 53.0636 72.7108 50.9234 67.746 50.7799C63.3867 50.6591 59.1745 51.2961 55.1512 52.6874C54.859 52.7889 54.4915 52.9201 54.292 52.8589C53.9595 52.7679 53.7617 52.0714 53.7915 51.0826C53.844 49.2154 53.7617 47.3359 53.6812 45.5194C53.6025 43.7326 53.522 41.8864 53.5727 40.0821C53.5727 40.0559 53.5622 40.0331 53.5605 40.0069C53.8615 37.6916 53.9455 35.3536 53.7512 33.0104C53.6235 31.4739 53.382 29.7449 52.5647 28.5636C51.7055 27.3211 50.0692 26.2624 48.3507 26.6929C46.8527 27.0691 45.549 28.0876 44.6285 29.5191C44.5742 28.8786 44.4465 28.2416 44.1717 27.6256C43.1007 25.2386 39.991 24.0101 37.24 24.8834C35.357 25.4836 33.6332 27.5399 32.4852 29.4561C32.2332 28.7911 31.9427 28.1419 31.5875 27.5189C30.1857 25.0566 25.8755 26.3044 24.5892 26.7454C23.856 26.9974 23.0212 27.2809 22.3177 27.8706C22.1987 27.9704 22.1042 28.0841 22.001 28.1926C21.798 24.9674 21.6247 21.5409 21.4935 17.9096C21.469 17.2761 21.4707 16.5061 21.4707 15.6784C21.476 11.4906 21.371 8.18836 20.013 6.91436C18.5605 5.55111 16.5865 4.17211 14.1872 5.60011C11.5745 7.15411 11.1527 10.4721 11.0845 13.5136C11.0005 17.2131 11.0127 20.9949 11.025 24.6541C11.0372 28.3011 11.0495 32.0706 10.9655 35.7369C10.654 44.5184 11.5867 53.3926 12.4355 60.1424C12.7925 62.9879 13.2825 66.2744 14.5687 69.2739C15.9897 72.5831 18.2577 75.1154 20.9632 76.4069C23.2855 77.5164 25.9157 77.7246 28.2345 77.9066L39.7985 78.8271C40.6472 78.9024 41.4295 78.9706 42.273 78.9706C42.8662 78.9706 43.4892 78.9356 44.1892 78.8481C47.8572 78.3756 49.4287 75.1381 49.707 74.4941C50.302 73.1186 51.6232 72.0634 52.7887 71.1324C55.671 68.8294 58.653 66.4459 61.8992 64.6014C65.8682 62.3456 70.7087 61.1101 77.1365 60.7094C77.812 60.6674 79.0685 60.5869 79.709 59.5946C80.2462 58.7634 80.1167 57.6661 79.3432 56.5076ZM45.3705 31.9919C45.976 30.1456 47.2815 28.7649 48.7777 28.3886C49.63 28.1681 50.61 28.8104 51.1262 29.5559C51.7877 30.5131 51.9417 32.3629 52.0082 33.1521C52.3022 36.7011 51.9942 40.2466 51.093 43.6889C50.7797 44.8806 50.3755 46.0881 49.525 46.8616C48.846 47.4811 47.6367 47.7506 46.9822 47.1574C46.7792 46.9736 46.6077 46.6936 46.4537 46.4224C46.0967 45.7871 45.8062 45.1239 45.5647 44.4414C45.9445 44.8421 46.6165 45.1939 47.8362 45.1939C47.8397 45.1939 47.845 45.1939 47.8502 45.1939C48.5432 45.1939 49.7017 45.1939 50.5242 44.4344C51.0877 43.9129 51.3327 43.0501 51.1175 42.3361C50.9425 41.7534 50.4875 41.3509 49.8995 41.2546C49.7507 41.2231 49.6002 41.2424 49.462 41.2931C49.1365 41.4069 48.7742 41.3701 48.3192 41.3211C48.0812 41.2949 47.8415 41.2686 47.5912 41.2599C46.8177 41.2564 45.99 41.5609 45.5175 42.0981C45.3337 42.3064 45.2095 42.5426 45.1395 42.7911C45.094 42.5724 45.0135 42.3641 44.9802 42.1436C44.7877 40.8871 44.7825 39.6184 44.7772 38.2744C44.7667 36.3056 44.7562 33.8591 45.3705 31.9919ZM46.8142 43.2759C46.8562 43.1919 47.1537 43.0099 47.495 43.0099C47.5072 43.0099 47.5177 43.0099 47.53 43.0116C47.733 43.0186 47.9307 43.0414 48.1267 43.0624C48.51 43.1026 48.9317 43.1464 49.3832 43.0991C49.3692 43.1184 49.3552 43.1359 49.3412 43.1481C49.0455 43.4211 48.4435 43.4439 47.8502 43.4439C47.8467 43.4439 47.8432 43.4439 47.8415 43.4439C47.1992 43.4439 46.8667 43.2951 46.8142 43.2759ZM37.772 26.5494C39.4642 26.0069 41.7952 26.6036 42.574 28.3414C42.9957 29.2811 42.945 30.4501 42.8575 31.5666C42.504 36.0501 41.699 40.6666 40.5895 44.5674C40.2482 45.7661 39.851 47.0156 39.0985 47.9764C38.3635 48.9144 37.2802 49.4166 36.3755 49.3186C34.8442 49.1139 33.2202 47.0156 32.76 44.6409C32.7477 44.5761 32.7127 44.5254 32.6865 44.4676C33.4845 40.3184 34.0007 35.8804 33.18 31.8886C34.1582 29.6784 36.1322 27.0726 37.772 26.5494ZM23.4377 29.2094C23.8945 28.8279 24.535 28.6074 25.1545 28.3956C26.2307 28.0281 27.4242 27.7884 28.3762 27.7884C29.19 27.7884 29.827 27.9634 30.065 28.3799C32.7722 33.1346 31.9165 39.6656 30.7212 45.4301C30.4377 46.8039 30.0597 48.2266 29.2267 49.3134C28.5425 50.2024 27.3157 50.9881 26.117 50.7291C25.2315 50.5436 24.4125 49.7929 23.9295 48.7219C23.4692 47.7069 23.3275 46.5729 23.1892 45.1991C22.8042 41.3474 22.526 37.4519 22.3615 33.6229C22.2827 31.8624 22.3615 30.1089 23.4377 29.2094ZM70.0192 59.8431C70.224 59.4441 70.532 59.0976 70.9275 58.8911C71.603 58.5376 72.5165 58.5901 73.1482 59.0276C73.262 59.1064 73.3617 59.2079 73.4667 59.3006C72.268 59.4494 71.1113 59.6244 70.0192 59.8431ZM78.239 58.6461C78.0762 58.8981 77.3675 58.9419 77.028 58.9646C76.6867 58.9856 76.37 59.0189 76.0375 59.0451C76.0007 59.0276 75.9727 58.9996 75.9325 58.9891C75.6122 58.8911 75.313 58.6111 74.9682 58.2874C74.704 58.0389 74.4345 57.7921 74.1387 57.5891C72.9645 56.7824 71.3895 56.6791 70.1172 57.3424C68.999 57.9251 68.2622 59.0504 68.089 60.2859C65.457 60.9631 63.1365 61.8889 61.0347 63.0841C57.6677 64.9986 54.6332 67.4224 51.695 69.7691C50.4367 70.7754 48.8705 72.0266 48.1005 73.8046C47.8887 74.2964 46.6917 76.7656 43.967 77.1174C42.4585 77.3116 41.4085 77.2189 39.9525 77.0894L28.371 76.1689C26.0977 75.9869 23.7457 75.8014 21.7175 74.8319C19.3952 73.7224 17.4282 71.5069 16.177 68.5879C14.9782 65.7984 14.5145 62.6554 14.1715 59.9289C13.3332 53.2439 12.4075 44.4589 12.7155 35.7929C12.7995 32.0934 12.7872 28.3116 12.775 24.6524C12.7627 21.0001 12.7505 17.2306 12.8345 13.5521C12.8905 10.9901 13.2037 8.21986 15.0815 7.09986C16.2277 6.41386 17.241 6.70786 18.816 8.18486C19.7277 9.04061 19.7242 13.1916 19.7207 15.6714C19.7207 16.5236 19.719 17.3146 19.7435 17.9691C19.943 23.4746 20.2282 28.5654 20.5922 33.0996C20.5922 33.1066 20.5975 33.1119 20.5975 33.1171C20.601 33.3114 20.6045 33.5039 20.6132 33.6946C20.7812 37.5569 21.0612 41.4839 21.4515 45.3706C21.5722 46.5781 21.7227 48.0831 22.337 49.4394C23.0492 51.0144 24.3285 52.1379 25.7565 52.4389C26.0277 52.4966 26.3042 52.5246 26.586 52.5246C28.0612 52.5246 29.5767 51.7354 30.618 50.3739C31.2707 49.5216 31.6767 48.5574 31.9795 47.5704C32.9787 49.4604 34.5327 50.8324 36.1497 51.0494C36.3177 51.0704 36.484 51.0826 36.652 51.0826C38.0467 51.0826 39.4747 50.3354 40.481 49.0544C41.4295 47.8451 41.888 46.4084 42.2747 45.0434C42.6002 43.8989 42.8925 42.6844 43.1637 41.4419C43.1935 41.7639 43.2022 42.0859 43.2512 42.4079C43.5137 44.1246 44.0807 45.7661 44.9312 47.2816C45.157 47.6824 45.4195 48.1006 45.808 48.4541C46.4117 49.0001 47.1625 49.2329 47.9237 49.2329C48.9475 49.2329 49.987 48.8094 50.7062 48.1549C51.254 47.6561 51.6495 47.0506 51.9662 46.4136C52.031 47.9431 52.087 49.4989 52.0432 51.0284C51.9662 53.6411 53.1317 54.3516 53.8335 54.5441C54.565 54.7401 55.2335 54.5074 55.7235 54.3394C59.5507 53.0164 63.595 52.4161 67.697 52.5281C72.0965 52.6541 75.9062 54.5056 77.889 57.4789C78.2232 57.9829 78.365 58.4501 78.239 58.6461Z" fill="#111111"/>
<path d="M14.4392 21.4166C14.0682 21.4166 13.7252 21.1803 13.6062 20.8076C13.4575 20.3473 13.7112 19.8556 14.1715 19.7086C15.295 19.3463 16.4622 19.1101 17.64 19.0068C18.0827 18.9858 18.5447 19.3166 18.5885 19.8013C18.6305 20.2808 18.2752 20.7078 17.794 20.7498C16.744 20.8443 15.7062 21.0543 14.7052 21.3728C14.6177 21.4026 14.5285 21.4166 14.4392 21.4166Z" fill="#111111"/>
</svg>
