<svg width="21" height="22" viewBox="0 0 21 22" fill="none" xmlns="http://www.w3.org/2000/svg">
<path d="M9.54894 3.42705C9.8483 2.50574 11.1517 2.50574 11.4511 3.42705L12.6329 7.06434C12.7668 7.47636 13.1507 7.75532 13.5839 7.75532H17.4084C18.3771 7.75532 18.7799 8.99494 17.9962 9.56434L14.9021 11.8123C14.5516 12.0669 14.405 12.5183 14.5389 12.9303L15.7207 16.5676C16.02 17.4889 14.9656 18.2551 14.1818 17.6857L11.0878 15.4377C10.7373 15.1831 10.2627 15.1831 9.91222 15.4377L6.81815 17.6857C6.03444 18.2551 4.97996 17.4889 5.27931 16.5676L6.46114 12.9303C6.59501 12.5183 6.44835 12.0669 6.09787 11.8123L3.00381 9.56434C2.22009 8.99494 2.62287 7.75532 3.59159 7.75532H7.41606C7.84929 7.75532 8.23324 7.47636 8.36712 7.06434L9.54894 3.42705Z" fill="#FFB84C"/>
</svg>
