<svg width="28" height="28" viewBox="0 0 28 28" fill="none" xmlns="http://www.w3.org/2000/svg">
<path fill-rule="evenodd" clip-rule="evenodd" d="M28 14C28 21.732 21.732 28 14 28C6.26801 28 0 21.732 0 14C0 6.26801 6.26801 0 14 0C21.732 0 28 6.26801 28 14ZM21.2865 11.9534C22.4164 11.9534 23.3333 12.8704 23.3333 14.0002C23.3333 14.8353 22.8257 15.5558 22.1544 15.8832C22.1871 16.0797 22.2035 16.2762 22.2035 16.4891C22.2035 19.633 18.552 22.171 14.0327 22.171C9.51343 22.171 5.86197 19.633 5.86197 16.4891C5.86197 16.2762 5.87834 16.0634 5.91109 15.8669C5.19062 15.5394 4.69939 14.8353 4.69939 14.0002C4.69939 12.8704 5.61635 11.9534 6.74618 11.9534C7.28653 11.9534 7.79413 12.1827 8.15436 12.5265C9.56255 11.4949 11.5111 10.8563 13.6889 10.7908L14.7204 5.91132C14.7532 5.81307 14.8023 5.7312 14.8842 5.68208C14.9661 5.63295 15.0643 5.61658 15.1626 5.63295L18.552 6.35342C18.7813 5.86219 19.2725 5.53471 19.8456 5.53471C20.6479 5.53471 21.3029 6.18968 21.3029 6.99202C21.3029 7.79436 20.6479 8.44933 19.8456 8.44933C19.0596 8.44933 18.421 7.82711 18.3883 7.05751L15.359 6.41892L14.4257 10.7908C16.5544 10.8727 18.4865 11.5277 19.8783 12.5265C20.2386 12.1663 20.7298 11.9534 21.2865 11.9534ZM10.7906 14.0002C9.98828 14.0002 9.33331 14.6552 9.33331 15.4575C9.33331 16.2599 9.98828 16.9148 10.7906 16.9148C11.593 16.9148 12.2479 16.2599 12.2479 15.4575C12.2479 14.6552 11.593 14.0002 10.7906 14.0002ZM14.0164 20.3698C14.5731 20.3698 16.4725 20.3043 17.4713 19.3055C17.6187 19.1581 17.6187 18.9289 17.5041 18.7651C17.3567 18.6177 17.1111 18.6177 16.9637 18.7651C16.3251 19.3873 14.9988 19.6166 14.0327 19.6166C13.0666 19.6166 11.724 19.3873 11.1017 18.7651C10.9544 18.6177 10.7087 18.6177 10.5614 18.7651C10.414 18.9125 10.414 19.1581 10.5614 19.3055C11.5438 20.2879 13.4596 20.3698 14.0164 20.3698ZM15.752 15.4575C15.752 16.2599 16.407 16.9148 17.2093 16.9148C18.0117 16.9148 18.6666 16.2599 18.6666 15.4575C18.6666 14.6552 18.0117 14.0002 17.2093 14.0002C16.407 14.0002 15.752 14.6552 15.752 15.4575Z" fill="white"/>
</svg>
