<svg width="84" height="84" viewBox="0 0 84 84" fill="none" xmlns="http://www.w3.org/2000/svg">
<path d="M29.3685 68.9956C25.2665 68.8766 21.9817 67.9683 17.8815 68.1801C13.272 68.4163 8.53123 68.6368 4.15973 67.1528C3.74498 67.0128 3.31448 66.8413 3.04673 66.4966C2.75623 66.1238 2.71248 65.6198 2.68273 65.1473C2.31348 59.3793 2.29073 53.5956 2.32048 47.8153C2.34323 43.5716 2.39573 39.3261 2.44823 35.0823C2.48323 32.2368 2.51823 29.3931 2.55323 26.5476C2.57248 25.0268 2.59348 23.4868 2.97848 22.0151C3.36348 20.5433 4.15798 19.1223 5.42673 18.2858C6.32798 17.6908 7.39198 17.3706 8.46123 17.2131C14.0735 16.3888 19.761 16.3888 25.508 16.8281C35.4672 17.7538 46.0215 18.4521 55.8127 16.4168C57.4577 16.0756 59.0887 15.6503 60.7547 15.4438C62.7952 15.1918 64.8602 15.2706 66.9147 15.3493C69.7375 15.4578 72.5602 15.5663 75.3812 15.6748C76.174 15.7046 76.9825 15.7396 77.7245 16.0196C80.1832 16.9471 80.9147 20.0341 81.0967 22.6556C81.7127 31.5403 80.1185 40.4653 80.6662 49.3553C80.9777 54.4041 81.977 59.5036 81.0565 64.4788C80.899 65.3293 80.6312 66.2516 79.905 66.7206C79.3275 67.0933 78.5942 67.0933 77.9082 67.0688C68.3147 66.7346 58.7527 66.0871 49.2117 67.1441C46.8212 67.4083 44.4587 67.8896 42.0752 68.2151C37.5637 68.8293 33.9185 69.1286 29.3685 68.9956Z" fill="white"/>
<path d="M62.9352 33.7279C66.9375 30.7162 73.0765 26.1854 80.857 20.7324C80.703 17.2202 76.8215 15.7869 76.8215 15.7869L69.7077 15.4404L48.6377 28.6582L48.2265 17.4792L43.9285 17.7714L44.3572 31.3427L44.688 36.7904C47.5212 38.3637 57.7115 37.7232 57.7115 37.7232L80.857 37.8527L80.9917 34.7534L62.9352 33.7279Z" fill="white"/>
<path d="M49.756 37.4954C60.1142 31.7659 69.111 23.7736 79.6162 18.3171C79.4972 15.8164 76.8232 15.7866 76.8232 15.7866C71.722 18.9751 66.1132 22.6606 60.935 25.7214C59.7362 26.4301 58.5358 27.1354 57.407 27.9509C56.3273 28.7314 55.3192 29.6099 54.271 30.4324C51.3047 32.7581 48.02 34.6341 44.7475 36.5031C44.7457 36.5031 45.7345 37.9854 49.756 37.4954Z" fill="white"/>
<path d="M64.435 48.9772L80.6452 48.3244L80.5542 44.4604L55.2667 45.1395C52.1762 45.045 47.4722 44.8647 45.7905 44.6074C43.6047 44.7124 44.2942 49.8137 44.611 51.6355C44.5987 52.9322 44.5462 59.7222 44.6775 63.5477C44.8227 67.788 45.2235 67.7232 45.2235 67.7232L48.7497 67.1964C48.7497 67.1964 48.4855 58.6459 48.7602 54.1712C57.232 58.5689 68.803 66.6837 68.803 66.6837C68.803 66.6837 74.3347 66.934 77.9065 67.0687C81.4765 67.2035 81.4275 59.1202 81.4275 59.1202L64.435 48.9772Z" fill="white"/>
<path d="M35.8435 17.7471H44.1875L44.387 35.6566C44.387 35.6566 42.9152 37.5361 51.1525 37.6411C59.3897 37.7461 80.647 38.0121 80.647 38.0121L80.3565 44.1161C80.3565 44.1161 59.5175 45.9938 44.6898 44.7898C44.464 47.9626 44.6635 54.7368 44.6565 60.1251C44.6495 65.5116 44.9557 68.1051 44.9557 68.1051L36.5628 68.3973C36.5628 68.3973 35.364 64.5438 35.8313 60.4873C36.2985 56.4308 38.087 47.7981 36.5628 44.6078C34.272 44.6393 8.02375 45.5003 2.408 46.4121C2.366 42.1106 2.632 38.3288 2.632 38.3288C2.632 38.3288 9.2925 36.5456 17.1885 37.0303C25.0845 37.5151 35.6178 37.4993 35.6178 37.4993L36.2845 36.7993L35.8435 17.7471Z" fill="white"/>
<path d="M35.9117 30.8805C35.9117 30.8805 35.9012 30.8718 35.8995 30.8718L36.106 17.5L31.3635 17.3915L32.088 28.007C27.9492 24.9042 21.2957 19.9395 16.4342 16.436C6.07074 16.352 3.02574 19.0312 2.79999 24.0975C6.76549 26.796 11.5797 30.2155 15.2705 32.8615L2.47974 33.7575L2.63199 38.3285C2.63199 38.3285 8.42799 37.1438 10.7222 37.0458C13.0165 36.9478 23.4045 37.2382 23.4045 37.2382C23.4045 37.2382 33.1222 37.6128 34.9457 37.562C37.1875 37.5008 35.9117 30.8805 35.9117 30.8805Z" fill="white"/>
<path d="M37.0492 52.0539L36.8165 52.2079C36.8445 51.1246 36.925 48.2284 37.0422 46.4171C37.1892 44.1614 34.8162 44.6076 34.8162 44.6076H27.0095L2.31173 46.2614L2.07898 51.2279L19.8065 48.9844L2.31173 59.6104C2.31173 59.6104 2.61623 64.0221 2.80173 65.9909C2.98898 67.9579 12.3725 68.2501 12.3725 68.2501L31.878 55.8041L31.5962 69.0254L36.3475 68.5336C36.3475 68.5336 35.7402 64.5279 35.7122 61.5494C35.6842 58.5726 37.0492 52.0539 37.0492 52.0539Z" fill="white"/>
<path d="M80.5105 64.5138C71.365 58.8788 62.2178 53.2438 53.0723 47.6071C51.7598 46.7986 50.5435 45.7556 49.0753 45.2883C43.134 43.4001 44.3993 48.1513 44.3993 48.1513C50.8533 51.6741 57.3073 55.1986 63.7613 58.7213C65.212 59.5141 66.6628 60.3051 68.096 61.1276C71.1253 62.8636 74.0793 64.7308 76.9458 66.7241C76.9458 66.7223 80.8833 68.1433 80.5105 64.5138Z" fill="white"/>
<path d="M36.9022 46.8284C31.4037 50.2059 25.921 53.6114 20.4557 57.0431C18.9805 57.9689 17.507 58.8981 16.086 59.9061C12.523 62.4349 9.18399 65.3224 5.24824 67.2159C1.52774 66.7644 2.79649 64.3791 2.79649 64.3791C6.41199 61.9711 10.031 59.5596 13.4785 56.9154C14.357 56.2416 17.7817 54.0804 18.6042 53.6604C23.135 51.3486 27.4417 48.5994 31.4457 45.4616C31.71 45.2551 31.9742 45.0451 32.2787 44.9034C32.2787 44.9034 37.6827 43.0694 36.9022 46.8284Z" fill="white"/>
<path d="M35.5985 36.8636C29.0797 32.8788 22.792 28.5178 16.7772 23.8086C13.9195 21.5721 11.109 19.2463 7.96248 17.4351C3.56298 18.1001 3.69248 20.8633 3.69248 20.8633C4.06873 20.7478 4.45723 20.9683 4.78798 21.1801C13.195 26.5491 21.595 31.9321 29.9862 37.3238C29.9862 37.3256 35.98 38.1236 35.5985 36.8636Z" fill="white"/>
<path d="M81.879 53.2685C81.7513 51.9438 81.6235 50.619 81.5413 49.296C81.4468 47.756 81.431 46.2003 81.445 44.6428C81.4975 44.5168 81.5308 44.3838 81.5203 44.2385C81.5133 44.1545 81.4818 44.0793 81.452 44.004C81.4923 41.4053 81.6253 38.8048 81.7705 36.2568C82.026 31.782 82.2885 27.1585 81.9718 22.5875C81.69 18.5608 80.3653 16.074 78.0343 15.1955C77.707 15.073 77.3763 14.9978 77.0455 14.9418C77.0175 14.9348 76.9913 14.933 76.9633 14.9278C76.4295 14.842 75.9028 14.814 75.4145 14.7948L69.426 14.5655C69.4173 14.5638 69.4085 14.5655 69.3998 14.5638L66.9463 14.4693C64.8935 14.3888 62.769 14.3065 60.6445 14.5708C59.3915 14.7265 58.1613 14.9995 56.9695 15.2638C56.5233 15.3618 56.077 15.4598 55.6308 15.5543C53.0863 16.0828 50.4963 16.4188 47.8853 16.62C47.8853 16.62 47.8853 16.62 47.8835 16.62C40.4583 17.1923 32.8563 16.627 25.5693 15.948C19.1153 15.4598 13.4785 15.5858 8.32825 16.3418C7 16.5378 5.859 16.9455 4.9385 17.551C3.612 18.426 2.61275 19.9293 2.12625 21.7895C1.71325 23.3698 1.69225 24.9763 1.673 26.532L1.56625 35.0668C1.5155 39.3123 1.463 43.5595 1.44025 47.8033C1.41225 53.0445 1.414 59.1433 1.80425 65.1948C1.83575 65.6848 1.8795 66.4233 2.352 67.027C2.80525 67.6098 3.49825 67.8495 3.87275 67.9773C8.46825 69.5365 13.4908 69.2793 17.9218 69.0483C20.2213 68.938 22.2443 69.1725 24.3828 69.4315C25.9508 69.6188 27.5678 69.8148 29.337 69.8655C30.0545 69.8865 30.751 69.897 31.4283 69.897C35.308 69.897 38.5963 69.568 42.1855 69.0745C43.1883 68.938 44.1875 68.7735 45.185 68.609C46.5535 68.3833 47.922 68.1575 49.301 68.0053C57.2863 67.118 65.4622 67.447 73.3688 67.762C74.8668 67.8215 76.37 67.881 77.8698 67.9353C78.7115 67.9668 79.5988 67.9528 80.374 67.447C81.3978 66.7838 81.732 65.592 81.9105 64.6295C82.6175 60.8495 82.2412 56.996 81.879 53.2685ZM53.4922 46.8408C53.0477 46.566 52.5893 46.2913 52.1343 46.0165C61.3095 46.1933 70.5583 45.943 79.688 45.2518C79.688 45.992 79.7055 46.7323 79.7282 47.4725C74.6095 47.7718 68.579 47.952 63.455 47.952C63.0543 47.952 62.7043 48.225 62.6063 48.6135C62.5083 49.0038 62.6885 49.408 63.042 49.5988C68.9098 52.747 74.788 56.1193 80.5158 59.6193C80.5228 59.6228 80.5298 59.621 80.5368 59.6245C80.549 60.8828 80.4772 62.1305 80.3092 63.3643L53.4922 46.8408ZM80.2253 22.7135C80.4843 26.4603 80.3408 30.2805 80.1395 34.0273C79.9453 34.015 79.751 34.0028 79.5568 33.9923L78.8532 33.9538C74.2787 33.7053 69.7025 33.4585 65.1263 33.2328L80.2025 22.465C80.2078 22.5455 80.22 22.6313 80.2253 22.7135ZM79.9085 20.5225L62.0603 33.2695C61.7558 33.4865 61.6228 33.8715 61.7295 34.2285C61.8345 34.5873 62.1548 34.8393 62.5275 34.855C67.9385 35.1123 73.3495 35.4045 78.757 35.6985L79.464 35.7353C79.6583 35.7458 79.8508 35.758 80.0433 35.772C80.0363 35.8998 80.0293 36.031 80.0223 36.1588C80.0048 36.4808 79.9873 36.8063 79.9697 37.13L52.6995 36.7853C56.714 34.386 60.578 31.7068 64.3265 29.0818C69.2038 25.671 74.2438 22.1588 79.5655 19.3448C79.7073 19.7228 79.8175 20.1183 79.9085 20.5225ZM79.7948 49.4045C79.877 50.7485 80.0083 52.0925 80.1378 53.4383C80.269 54.7963 80.3863 56.1735 80.4668 57.5508C75.9885 54.833 71.4315 52.1888 66.857 49.6775C71.1445 49.6198 75.7453 49.457 79.7878 49.2225C79.7913 49.282 79.7913 49.345 79.7948 49.4045ZM78.7273 17.8118C73.3198 20.6748 68.2378 24.2115 63.3255 27.6485C58.8333 30.7933 54.1853 34.0448 49.3325 36.7293C49.3273 36.7328 49.3237 36.738 49.3167 36.7415H49.259C48.398 36.731 47.4128 36.7048 46.4905 36.5088C49.3255 34.8813 52.1938 33.1733 54.81 31.1205C55.1968 30.816 55.5783 30.5045 55.9598 30.1948C56.6037 29.6715 57.246 29.1448 57.9198 28.66C58.9873 27.8883 60.1598 27.1953 61.3813 26.476C64.8533 24.4215 68.53 22.0818 72.086 19.819C73.7415 18.7655 75.3708 17.7313 76.958 16.7355C77.1103 16.7705 77.2747 16.7845 77.4183 16.837C77.945 17.0365 78.3738 17.3795 78.7273 17.8118ZM47.32 29.1728C47.3323 29.4808 47.5037 29.759 47.775 29.906C47.9062 29.9778 48.0498 30.0145 48.195 30.0145C48.349 30.0145 48.503 29.9743 48.6395 29.8938L54.9728 26.1803C55.993 25.58 57.0168 24.9798 58.0125 24.3568C62.2615 21.7563 65.8473 19.2678 69.5923 16.3295L74.06 16.501C73.0888 17.1153 72.135 17.7155 71.1445 18.3455C67.6025 20.5995 63.938 22.9323 60.403 25.0218C59.234 25.7113 58.0282 26.4253 56.8925 27.2443C56.1925 27.75 55.5223 28.296 54.852 28.842C54.4793 29.1465 54.1065 29.4493 53.7268 29.7468C51.093 31.8135 48.1478 33.546 45.248 35.2068C45.2375 29.6838 45.094 24.096 44.814 18.5555C45.556 18.5293 46.2945 18.4768 47.033 18.4295C47.0768 21.5445 47.1835 25.5573 47.32 29.1728ZM55.9895 17.271C56.4445 17.1765 56.8978 17.0768 57.351 16.9753C58.5008 16.7198 59.6925 16.4555 60.8615 16.3103C62.8338 16.0635 64.876 16.1423 66.8518 16.2228C63.7438 18.5783 60.6567 20.687 57.0938 22.8658C56.1033 23.4853 55.0918 24.0768 54.0855 24.6683L49.0158 27.6415C48.9038 24.3988 48.8198 21.0125 48.7848 18.3018C51.2068 18.0918 53.6147 17.7663 55.9895 17.271ZM35.2065 27.197C35.1855 29.9305 35.1715 32.7533 35.2188 35.5883C29.05 31.775 23.0265 27.5908 17.318 23.1195L16.1333 22.1885C14.273 20.7203 12.3638 19.2188 10.339 17.8818C12.082 17.6788 13.8793 17.5353 15.7553 17.4723C20.2335 20.1323 25.6515 23.998 31.458 28.681C31.6155 28.8088 31.8098 28.8753 32.0058 28.8753C32.1388 28.8753 32.2717 28.8438 32.396 28.7825C32.704 28.6303 32.8913 28.3118 32.8808 27.9705C32.7425 23.7408 32.592 20.5663 32.4275 18.272C33.3445 18.335 34.265 18.384 35.1873 18.4313C35.245 21.3853 35.2275 24.3375 35.2065 27.197ZM30.6653 18.1425C30.8088 20.085 30.9418 22.696 31.0678 26.1295C26.74 22.703 22.6555 19.7578 19.0365 17.4443C21.0858 17.4618 23.1893 17.53 25.4258 17.6998C27.1548 17.859 28.9065 18.006 30.6653 18.1425ZM5.908 19.0175C6.398 18.6938 7.01575 18.4698 7.6895 18.2948C10.2795 19.8068 12.705 21.7125 15.05 23.5623L16.2383 24.4968C21.7858 28.8403 27.6273 32.909 33.6087 36.64C32.5255 36.6015 31.444 36.563 30.3783 36.5333C22.0115 31.159 13.6395 25.7953 5.26225 20.4438C5.14325 20.3668 4.9665 20.2653 4.767 20.1725C5.096 19.7035 5.474 19.3028 5.908 19.0175ZM3.18675 52.0155C7.3325 51.4398 11.4695 50.8938 15.5365 50.388C11.949 52.5055 8.7185 54.6178 5.71725 56.6233C5.2185 56.9575 4.5675 57.4125 3.91825 57.8658C3.6995 58.018 3.4895 58.165 3.276 58.312C3.22175 56.1648 3.192 54.0455 3.18675 52.0155ZM3.3285 60.4015C3.7975 60.083 4.3505 59.6998 4.91925 59.3025C5.55975 58.8545 6.1985 58.4083 6.692 58.081C10.6803 55.414 15.0763 52.5598 20.1723 49.7615C20.5398 49.5603 20.713 49.1263 20.5853 48.7273C20.4558 48.3265 20.0568 48.05 19.649 48.1253C14.2765 48.7623 8.743 49.4815 3.19025 50.2498C3.192 49.4343 3.192 48.6013 3.1955 47.819C3.19725 47.6108 3.20075 47.4025 3.2025 47.1943C11.9035 46.5818 20.8303 45.9728 29.7133 45.663C26.0925 48.3878 22.239 50.8238 18.2088 52.8818C17.3688 53.3088 13.8705 55.512 12.9465 56.2208C9.88575 58.571 6.636 60.7585 3.4475 62.8865C3.4055 62.057 3.35825 61.2275 3.3285 60.4015ZM3.444 25.5958L9.47975 29.7013C10.479 30.3873 11.4328 31.061 12.3655 31.7225C12.516 31.8293 12.6648 31.9343 12.8153 32.041C9.71425 32.1828 6.30525 32.4715 3.3495 32.8425L3.42825 26.5583C3.43175 26.2398 3.437 25.9178 3.444 25.5958ZM3.3215 35.093L3.32675 34.6083C7.14 34.1183 11.7793 33.77 15.484 33.7053C15.8655 33.6983 16.1963 33.448 16.3065 33.0823C16.4168 32.7183 16.2768 32.3245 15.9653 32.1093C15.106 31.5195 14.2503 30.9123 13.377 30.2945C12.4373 29.6295 11.4765 28.9488 10.4668 28.2558L3.584 23.571C3.64 23.1195 3.71175 22.6715 3.8255 22.2375C3.871 22.0625 3.93925 21.905 3.99525 21.7388C4.06 21.765 4.151 21.8105 4.319 21.9173C11.8878 26.7508 19.4478 31.5983 27.0025 36.451C26.8223 36.4475 26.642 36.4423 26.4618 36.437C23.6635 36.3705 20.8653 36.3058 17.9725 36.185C15.75 36.094 13.454 36.0013 11.1738 36.1378C8.54875 36.2953 5.943 36.766 3.3005 37.3033C3.30925 36.5665 3.31275 35.8298 3.3215 35.093ZM3.738 65.956C3.59975 65.7775 3.5735 65.3663 3.556 65.0898C3.5525 65.0355 3.55075 64.9813 3.54725 64.9288C7.0315 62.6065 10.626 60.2073 14.0105 57.6085C14.868 56.9488 18.2333 54.8313 19.0015 54.4393C23.5725 52.1065 27.9405 49.317 32.011 46.1303C32.235 45.9553 32.445 45.7925 32.648 45.6963C32.7145 45.6648 32.7635 45.6158 32.8178 45.572C33.838 45.5458 34.8618 45.5003 35.8785 45.4828C35.9135 45.4828 35.945 45.4828 35.973 45.4828C36.1305 45.4828 36.2058 45.4845 36.2145 45.46C36.225 45.5055 36.2355 45.586 36.2425 45.7033C36.2547 45.8678 36.246 46.0358 36.253 46.202C30.8158 49.5428 25.3943 52.908 19.9903 56.3013C18.34 57.339 16.9663 58.2105 15.5803 59.1905C14.5583 59.915 13.5625 60.6833 12.565 61.448C10.0485 63.3853 7.67025 65.214 4.9 66.4128C4.8825 66.4198 4.872 66.4355 4.8545 66.4443C4.718 66.4023 4.578 66.3708 4.4415 66.3253C4.24375 66.257 3.871 66.1293 3.738 65.956ZM24.598 67.699C22.8533 67.4908 21.0613 67.2755 19.117 67.2755C18.6988 67.2755 18.2735 67.286 17.8395 67.3088C17.08 67.3473 16.2978 67.384 15.5103 67.4155C16.2558 66.9763 17.0048 66.5405 17.745 66.0943C22.3073 63.338 26.7243 60.4348 30.8963 57.451C30.8753 57.9795 30.877 58.5098 30.8788 59.0138C30.8805 59.39 30.8805 59.7488 30.8718 60.0795L30.716 68.1295C30.2733 68.1243 29.8585 68.1365 29.3965 68.1225C27.7043 68.07 26.1258 67.881 24.598 67.699ZM32.4643 68.1365L32.62 60.1198C32.6287 59.7803 32.6287 59.4023 32.627 59.0085C32.6235 57.9078 32.62 56.66 32.8545 55.7885C32.9508 55.4298 32.809 55.05 32.5028 54.84C32.1983 54.6353 31.794 54.6388 31.493 54.8575C26.8888 58.2263 21.959 61.504 16.8403 64.5963C15.2688 65.543 13.6798 66.4723 12.0925 67.4015L11.9928 67.461C10.4843 67.433 8.9705 67.3245 7.48825 67.0743C9.68625 65.8615 11.69 64.3355 13.636 62.8375C14.6143 62.085 15.5925 61.3325 16.5935 60.6203C17.9428 59.663 19.2938 58.8073 20.9213 57.7853C26.0278 54.5793 31.15 51.3995 36.2863 48.2425C36.2215 50.5788 35.8978 52.9588 35.574 55.2828C34.9878 59.4933 34.4067 63.8368 35.3413 68.0245C34.405 68.0788 33.4513 68.1208 32.4643 68.1365ZM41.958 67.3455C40.3043 67.5713 38.7135 67.748 37.1018 67.888C36.1533 63.9488 36.7045 59.8503 37.3047 55.5208C37.758 52.2588 38.2253 48.8865 37.9873 45.5773C37.9663 45.2868 37.9277 44.7478 37.5462 44.3155C37.0213 43.717 36.2373 43.731 35.8505 43.731C24.9533 43.913 13.9143 44.6813 3.21825 45.4355C3.234 43.3198 3.25675 41.204 3.28125 39.0883C5.98675 38.5353 8.6415 38.0418 11.2788 37.8825C13.468 37.7478 15.7185 37.844 17.899 37.9333C20.8005 38.0523 23.611 38.117 26.4198 38.1835C29.218 38.25 32.0163 38.3148 34.9055 38.4338C35.2345 38.4513 36.0203 38.4863 36.547 37.9105C36.9985 37.417 36.9827 36.7853 36.9757 36.4493C36.9075 33.3378 36.932 30.221 36.953 27.2093C36.9757 24.3795 36.9933 21.4553 36.939 18.5205C38.9778 18.601 41.0218 18.6168 43.064 18.5835C43.3703 24.5808 43.5225 30.6428 43.5085 36.6068C43.5085 36.899 43.6538 37.1738 43.8988 37.3365C45.5595 38.446 47.5965 38.4688 49.2363 38.4898L79.8735 38.8783C79.7948 40.4078 79.7353 41.9478 79.7038 43.4948C69.7917 44.2525 59.7327 44.508 49.7805 44.2298C49.301 44.2158 48.748 44.1598 48.1898 44.1038C46.4433 43.9218 44.9365 43.7748 44.1105 44.5028C43.2705 45.2395 43.155 47.6563 43.7728 51.6865C44.1403 54.091 43.9863 56.6215 43.8393 59.0715C43.68 61.6825 43.5435 64.3758 43.9845 67.0305C43.3108 67.1408 42.6353 67.2528 41.958 67.3455ZM49.35 66.25C49.1855 62.9758 49.2467 59.4688 49.5408 56.0073C56.7035 59.3043 60.5903 61.651 66.2865 65.7705C60.6673 65.6218 54.9763 65.6428 49.35 66.25ZM69.3823 65.8668C62.0498 60.4488 58.051 57.9375 49.1435 53.9038C48.888 53.7865 48.5888 53.8005 48.3473 53.9405C48.1023 54.0823 47.9412 54.3308 47.9132 54.6108C47.509 58.592 47.404 62.6888 47.6035 66.4723C46.9718 66.5615 46.3418 66.656 45.7135 66.7593C45.3022 64.3058 45.4282 61.812 45.5875 59.1783C45.7415 56.639 45.899 54.0123 45.5035 51.424C45.4055 50.7853 45.3338 50.1868 45.276 49.6233L63.5198 59.5843C64.9058 60.342 66.2917 61.0998 67.6602 61.8838C69.937 63.1893 72.1683 64.5998 74.3558 66.0523C74.0513 66.04 73.7467 66.0295 73.444 66.0173C72.0983 65.9665 70.742 65.914 69.3823 65.8668ZM77.938 66.1905C77.8295 66.187 77.7193 66.1818 77.6108 66.1783C77.56 66.117 77.5128 66.0523 77.4445 66.005C74.5763 64.01 71.5768 62.1148 68.5318 60.3683C67.151 59.5773 65.7545 58.8125 64.358 58.0513L45.1343 47.5565C45.1115 46.6325 45.1605 46.0025 45.2585 45.824C45.5928 45.5948 47.1695 45.7593 48.013 45.845C48.16 45.8608 48.3035 45.873 48.4487 45.887C48.5153 45.9553 48.5853 46.0218 48.6745 46.0673C50.0028 46.748 51.3118 47.553 52.6103 48.3528L79.9628 65.207C79.8403 65.5343 79.674 65.8248 79.4273 65.9858C79.079 66.2098 78.5225 66.2133 77.938 66.1905Z" fill="#111111"/>
</svg>
