<svg width="120" height="61" viewBox="0 0 120 61" fill="none" xmlns="http://www.w3.org/2000/svg">
<path d="M17.9793 54.0754C22.3626 54.0754 25.9209 50.5171 25.9209 46.1337V38.1921H17.9793C13.5959 38.1921 10.0376 41.7504 10.0376 46.1337C10.0376 50.5171 13.5959 54.0754 17.9793 54.0754Z" fill="#0ACF83"/>
<path d="M10.0293 30.2421C10.0293 25.8587 13.5876 22.3004 17.971 22.3004H25.9126V38.1921H17.971C13.5876 38.1921 10.0293 34.6337 10.0293 30.2504V30.2421Z" fill="#A259FF"/>
<path d="M10.0293 14.3504C10.0293 9.96707 13.5876 6.40873 17.971 6.40873H25.9126V22.3004H17.971C13.5876 22.3004 10.0293 18.7421 10.0293 14.3587V14.3504Z" fill="#F24E1E"/>
<path d="M25.8457 6.40873H33.7874C38.1707 6.40873 41.729 9.96707 41.729 14.3504C41.729 18.7337 38.1707 22.2921 33.7874 22.2921H25.8457V6.40873Z" fill="#FF7262"/>
<path d="M41.8124 30.2421C41.8124 34.6254 38.254 38.1837 33.8707 38.1837C29.4874 38.1837 25.8457 34.6254 25.8457 30.2421C25.8457 25.8587 29.404 22.3004 33.7874 22.3004C38.1707 22.3004 41.729 25.8587 41.729 30.2421H41.8124Z" fill="#1ABCFE"/>
<path d="M50.4956 19.5754V36.2254H52.6373V28.2754H57.7873V26.2087H52.6373V21.6587H59.3289V19.5754H50.4956ZM63.2039 22.9587C63.9789 22.9587 64.6039 22.3337 64.6039 21.5587C64.6039 20.7837 63.9706 20.2421 63.2039 20.2421C62.4373 20.2421 61.8039 20.8671 61.8039 21.6421C61.8039 22.0171 61.9539 22.3671 62.2206 22.6421C62.4873 22.9171 62.8373 23.0587 63.2206 23.0587L63.2039 22.9587ZM62.1206 25.0587V36.2254H64.1789V25.0587H62.0539H62.1206ZM72.2206 24.7254C69.3706 24.7254 67.3873 27.2254 67.3873 29.9921C67.3873 32.7587 69.3873 35.2421 72.2206 35.2421C72.8102 35.2524 73.3954 35.1399 73.9392 34.9118C74.4829 34.6837 74.9732 34.3449 75.3789 33.9171V35.4004C75.373 36.2916 75.0273 37.147 74.4123 37.7921C74.1016 38.109 73.7307 38.3607 73.3215 38.5325C72.9122 38.7042 72.4728 38.7924 72.0289 38.7921C71.3474 38.7705 70.6871 38.5504 70.1289 38.1587L69.0456 40.0171C69.8776 40.5521 70.8384 40.8529 71.8269 40.8877C72.8154 40.9226 73.7951 40.6902 74.6626 40.215C75.5302 39.7399 76.2535 39.0396 76.7565 38.1878C77.2595 37.3361 77.5234 36.3645 77.5206 35.3754V25.0421H75.3789V26.0421C74.9732 25.6142 74.4829 25.2754 73.9392 25.0473C73.3954 24.8192 72.8102 24.7067 72.2206 24.7171V24.7254ZM69.5373 29.9921C69.4885 29.4503 69.5921 28.9057 69.8366 28.4197C70.081 27.9338 70.4565 27.5258 70.9206 27.2421C71.8706 26.6587 73.0623 26.6587 74.0039 27.2421C74.9456 27.8254 75.4789 28.8921 75.3873 29.9921C75.4361 30.5338 75.3324 31.0785 75.0879 31.5644C74.8435 32.0504 74.468 32.4583 74.0039 32.7421C73.0539 33.3254 71.8623 33.3254 70.9206 32.7421C69.9789 32.1587 69.4456 31.0921 69.5373 29.9921Z" fill="black"/>
<path d="M85.246 26.9087C84.63 26.9109 84.0399 27.1566 83.6044 27.5921C83.1688 28.0277 82.9232 28.6178 82.921 29.2337V36.3004H80.7793V25.1337H82.921V26.0754C83.571 25.2087 84.6043 24.7087 85.6876 24.7254C87.0543 24.6921 88.3293 25.4254 89.0043 26.6171C89.8376 25.4504 91.0376 24.7421 92.3376 24.7254C94.7793 24.7254 96.296 26.6921 96.3043 29.1254V36.2337H94.1626V29.1504C94.2254 28.7092 94.1605 28.2592 93.9756 27.8537C93.7907 27.4482 93.4935 27.1041 93.1192 26.8622C92.7449 26.6202 92.3091 26.4905 91.8635 26.4885C91.4178 26.4864 90.9808 26.612 90.6043 26.8504C90.2298 27.0945 89.9334 27.4411 89.7502 27.8488C89.567 28.2565 89.5048 28.7083 89.571 29.1504V36.2171H87.5126V29.1587C87.5104 28.5428 87.2648 27.9527 86.8292 27.5171C86.3937 27.0816 85.8036 26.8359 85.1876 26.8337L85.246 26.9087ZM107.746 26.3254C107.258 25.8167 106.672 25.4131 106.023 25.1394C105.374 24.8657 104.675 24.7276 103.971 24.7337C100.779 24.7337 98.5543 27.4337 98.5543 30.5671C98.5543 33.7004 100.804 36.4004 103.971 36.4004C104.675 36.4065 105.374 36.2684 106.023 35.9947C106.672 35.721 107.258 35.3174 107.746 34.8087V36.0754H109.888V24.9087H107.746V26.3254ZM100.663 30.6587C100.554 29.3254 101.204 28.0421 102.346 27.3421C103.488 26.6421 104.846 26.6421 106.063 27.3421C106.62 27.6879 107.071 28.1801 107.368 28.7649C107.665 29.3497 107.796 30.0048 107.746 30.6587C107.854 31.9921 107.204 33.2754 106.063 33.9754C104.921 34.6754 103.563 34.6754 102.346 33.9754C101.789 33.6295 101.337 33.1374 101.04 32.5526C100.743 31.9677 100.613 31.3127 100.663 30.6587Z" fill="black"/>
</svg>
