<svg width="28" height="28" viewBox="0 0 28 28" fill="none" xmlns="http://www.w3.org/2000/svg">
<g clip-path="url(#clip0)">
<path d="M27.4444 14.3213C27.4444 13.3696 27.3673 12.4128 27.2026 11.4766H13.9974V16.8677H21.5594C21.2456 18.6065 20.2374 20.1446 18.761 21.122V24.6201H23.2725C25.9217 22.1817 27.4444 18.5807 27.4444 14.3213Z" fill="#4285F4"/>
<path d="M13.9974 27.9999C17.7733 27.9999 20.9576 26.7601 23.2776 24.6202L18.7661 21.1221C17.5109 21.976 15.8905 22.4596 14.0026 22.4596C10.3502 22.4596 7.25335 19.9955 6.1422 16.6826H1.48668V20.2887C3.86331 25.0163 8.70402 27.9999 13.9974 27.9999Z" fill="#34A853"/>
<path d="M6.13706 16.6827C5.55062 14.9439 5.55062 13.0612 6.13706 11.3224V7.71631H1.48668C-0.498989 11.6722 -0.498989 16.3329 1.48668 20.2888L6.13706 16.6827Z" fill="#FBBC04"/>
<path d="M13.9974 5.54029C15.9934 5.50943 17.9225 6.26048 19.368 7.63914L23.3651 3.64208C20.8341 1.26545 17.4749 -0.0411869 13.9974 -3.31189e-05C8.70402 -3.31189e-05 3.86331 2.98362 1.48668 7.7163L6.13706 11.3224C7.24306 8.00438 10.345 5.54029 13.9974 5.54029Z" fill="#EA4335"/>
</g>
<defs>
<clipPath id="clip0">
<rect width="27.4444" height="28" fill="white"/>
</clipPath>
</defs>
</svg>
