<svg width="84" height="84" viewBox="0 0 84 84" fill="none" xmlns="http://www.w3.org/2000/svg">
<path d="M44.359 79.6615L35.0017 74.8088L23.7563 67.7738L10.913 62.1615L10.871 32.5288L2.9505 27.697L6.94575 25.324L46.0827 8.02002L80.6295 22.804L74.375 31.4385L44.1507 47.2865L44.359 79.6615Z" fill="white"/>
<path d="M10.6277 33.1416L42.9975 46.9981C42.9975 46.9981 39.739 52.7556 36.4945 54.1784C33.9605 52.9499 21.0087 45.4406 16.9365 44.1159C12.8642 42.7911 3.09048 39.4486 3.09048 39.4486L10.6277 33.1416Z" fill="white"/>
<path d="M43.8498 47.7137L44.3923 79.4604L46.697 78.9004L59.4913 73.1009L74.0023 64.1497C74.0023 64.1497 72.5445 56.9869 73.4598 50.8077C74.375 44.6284 73.7818 32.6689 73.7818 32.6689L43.8498 47.7137Z" fill="white"/>
<path d="M44.359 47.2412L53.8125 56.5477L81.5798 37.2032L74.0023 32.0845L44.359 47.2412Z" fill="white"/>
<path d="M14.7788 34.5588C13.4453 26.8588 16.8648 18.7458 22.7133 13.5605C28.5618 8.37529 36.54 5.95854 44.3555 5.99354C48.2895 6.01104 52.3338 6.65329 55.692 8.70079C59.528 11.0405 63.0263 13.8213 65.261 17.7203C67.872 22.2755 70.8855 27.4643 71.505 32.6775L44.051 46.996C44.0493 46.9943 17.143 37.1785 14.7788 34.5588Z" fill="white"/>
<path d="M20.307 37.2609C19.6122 35.9046 19.054 34.1179 18.7617 32.6216C19.6227 32.7021 20.181 31.6784 21.0122 31.4421C21.672 31.2549 22.3527 31.5961 22.953 31.9251C24.465 32.7564 25.977 33.5876 27.4872 34.4189C26.5702 33.3881 26.5562 31.6731 27.4557 30.6284C29.001 28.8329 32.578 28.9974 33.0662 26.6804C33.3585 25.2944 32.2 23.8209 32.7372 22.5119C33.2552 21.2501 35.1295 20.7934 35.3062 19.4424C35.4707 18.1806 34.0655 17.3791 33.0032 16.6809C31.6837 15.8129 30.5847 14.5301 30.1997 12.9989C29.8147 11.4676 30.1175 9.34487 31.3425 8.34912C31.3425 8.34912 20.699 12.5159 17.4755 20.0951C14.252 27.6744 14.1172 32.0756 15.0412 35.0331C18.228 36.4611 20.307 37.2609 20.307 37.2609Z" fill="white"/>
<path d="M49.1103 6.52588C47.719 8.59263 48.405 12.8119 50.8638 13.2074C51.2978 13.2774 51.7825 13.2861 52.1063 13.5819C52.381 13.8339 52.465 14.2294 52.5088 14.6004C52.6628 15.9234 52.4195 17.4021 51.4238 18.2859C49.8383 19.6946 47.1695 18.9946 45.4598 20.2529C43.7045 21.5444 44.1298 24.7801 46.1598 25.5746C46.7723 25.8144 47.4495 25.8529 48.0585 26.0979C48.6675 26.3429 49.238 26.9134 49.154 27.5644C49.049 28.3694 48.0813 28.7351 47.6543 29.4264C46.9945 30.4956 47.9938 32.0006 49.2345 32.1914C50.4753 32.3821 51.6845 31.6279 52.5158 30.6864C53.347 29.7449 53.9228 28.6039 54.726 27.6379C55.6763 26.4951 56.987 25.5991 58.457 25.3751C59.927 25.1511 61.5475 25.6884 62.4138 26.8959C63.8295 28.8646 61.2658 32.0006 59.5893 33.7541C58.1263 35.1576 56.448 36.3371 54.6333 37.2401C52.3723 38.3654 49.868 39.0811 47.8975 40.6614C47.5388 40.9501 47.1975 41.2669 46.9333 41.6466C46.2403 42.6406 46.3663 44.6269 46.9595 45.6821L71.5453 33.2379C71.5453 33.2379 69.58 22.5261 64.7955 16.9506C60.011 11.3751 54.1765 7.05963 49.1103 6.52588Z" fill="white"/>
<path d="M43.3108 12.0312L42.952 12.3953C42.0805 13.0025 41.0935 13.9107 41.4033 14.9257C41.5398 15.3737 41.9125 15.7115 42.3098 15.9617C42.952 16.366 43.7413 16.604 44.4763 16.4132C45.2095 16.2225 45.8325 15.5137 45.7503 14.7595C45.6138 13.5187 43.953 13.104 43.3108 12.0312Z" fill="white"/>
<path d="M74.8633 43.1496C77.2625 41.4626 79.6635 39.7738 82.0785 38.0921C82.3148 37.9276 82.4548 37.6581 82.453 37.3693C82.4513 37.0823 82.3078 36.8146 82.0715 36.6518C81.1003 35.9903 80.0538 35.2676 79.009 34.5448C78.0115 33.8553 77.0158 33.1693 76.09 32.5376C75.6753 32.2558 75.495 32.0108 75.4583 31.9146C75.5598 31.6661 75.5283 31.4018 75.4128 31.1796C76.1408 30.2416 77.0735 29.1146 77.9888 28.0086C79.2505 26.4861 80.556 24.9111 81.4205 23.6966C81.613 23.3606 81.6445 22.9738 81.5098 22.6116C81.2403 21.8888 80.4318 21.5546 80.192 21.4688C74.1475 19.3338 69.3945 17.1778 64.1428 14.6001C61.6333 11.5323 58.499 9.38858 56.1488 7.95708C53.0583 6.07058 49.2013 5.14484 44.3608 5.12034C39.6865 5.10459 35.217 5.94284 31.1798 7.50383C31.0818 7.52309 30.9925 7.56159 30.9033 7.61584C27.6413 8.91084 24.661 10.6713 22.1358 12.9096C19.6805 15.0866 17.6995 17.7133 16.2645 20.5553C16.135 20.5728 16.0073 20.6113 15.89 20.6901C14.0963 21.9028 12.0173 22.5608 9.81401 23.2591C7.70526 23.9258 5.52476 24.6136 3.59276 25.8421C2.46401 26.5561 2.31176 27.3348 2.38351 27.8581C2.48501 28.6211 3.09751 29.0708 3.39326 29.2878C5.29901 30.6896 7.58101 32.1001 9.53226 33.1116C6.95101 34.8616 4.56751 36.8968 2.45176 39.1876C2.24001 39.4168 2.16651 39.7406 2.25926 40.0381C2.35201 40.3356 2.59526 40.5631 2.89801 40.6331C5.20451 41.1668 7.49176 41.8178 9.76326 42.5301C9.74401 46.3118 9.82276 49.2343 9.90326 52.0343C9.98726 54.9918 10.0748 58.0526 10.0415 62.1563C10.0398 62.5151 10.255 62.8388 10.5875 62.9736L12.1905 63.6246C18.1073 66.0203 24.227 68.4966 29.2215 72.0963L30.1298 72.7631C31.255 73.5978 32.4188 74.4588 33.726 75.1098C34.3508 75.4196 35.658 76.2071 37.0423 77.0418C40.768 79.2871 42.6283 80.3388 43.701 80.7291C43.7658 80.8113 43.8253 80.8988 43.9198 80.9548C44.0563 81.0353 44.2103 81.0756 44.3625 81.0756C44.5235 81.0756 44.6828 81.0318 44.8245 80.9443C47.1608 79.4936 50.4595 78.0918 53.648 76.7356C55.5135 75.9428 57.2775 75.1938 58.7668 74.4676C60.2508 73.7431 61.6455 72.8821 62.993 72.0473C64.7413 70.9676 66.682 69.8003 68.6245 68.6331C70.574 67.4623 72.5218 66.2916 74.2753 65.2066C74.5763 65.0228 74.7355 64.6711 74.6778 64.3228C73.7573 58.6598 74.1615 53.1053 74.5903 47.2236C74.6848 45.8656 74.781 44.5093 74.8633 43.1496ZM78.015 35.9851C78.6975 36.4558 79.3783 36.9266 80.0398 37.3816C77.8558 38.9058 75.6823 40.4336 73.5105 41.9613C67.0985 46.4711 60.4765 51.1278 53.7775 55.5238L45.794 47.4476C46.1738 47.2901 46.5325 47.1133 46.8493 46.9471L74.039 32.9366C74.2525 33.2708 74.578 33.6226 75.1048 33.9813C76.027 34.6096 77.021 35.2973 78.015 35.9851ZM72.2348 31.7711C72.2803 31.7833 72.3398 31.8043 72.3888 31.8183L72.254 31.8883C72.2488 31.8481 72.2418 31.8096 72.2348 31.7711ZM79.6635 23.1401C78.876 24.1936 77.7403 25.5621 76.6395 26.8921C75.5948 28.1538 74.5343 29.4366 73.7538 30.4691C73.2725 30.2468 72.9383 30.1506 72.6898 30.0841C72.3608 29.9948 72.219 29.9388 71.7063 29.3858C70.5373 25.2068 68.243 21.1643 66.1483 17.5138C70.4165 19.5438 74.5658 21.3393 79.6058 23.1208C79.6268 23.1243 79.646 23.1313 79.6635 23.1401ZM64.5015 18.1543L64.6205 18.3608C67.1563 22.7796 70.0245 27.7846 70.6265 32.7266L47.4985 44.6441C47.2553 43.7726 47.2903 42.6631 47.6508 42.1468C47.8293 41.8913 48.0813 41.6358 48.4453 41.3436C49.6913 40.3443 51.1823 39.7091 52.7608 39.0388C53.522 38.7151 54.285 38.3913 55.0218 38.0238C56.924 37.0771 58.6653 35.8538 60.221 34.3593C63.4918 30.9398 64.4683 28.2571 63.1243 26.3846C62.0988 24.9583 60.2158 24.2216 58.324 24.5103C56.7473 24.7501 55.23 25.6618 54.0523 27.0793C53.655 27.5553 53.3103 28.0733 52.9655 28.5913C52.6015 29.1373 52.2603 29.6501 51.8578 30.1068C51.079 30.9906 50.1428 31.4316 49.3675 31.3248C48.9878 31.2671 48.5958 30.9503 48.4138 30.5583C48.3298 30.3763 48.2598 30.1138 48.3998 29.8863C48.5013 29.7218 48.7008 29.5486 48.9125 29.3631C49.3588 28.9728 49.9153 28.4898 50.022 27.6778C50.1708 26.5473 49.2783 25.6461 48.3875 25.2856C48.0305 25.1421 47.6578 25.0563 47.2815 24.9741C47.0103 24.9163 46.7373 24.8603 46.48 24.7588C45.7135 24.4578 45.346 23.6458 45.2603 22.9843C45.1745 22.3246 45.318 21.4443 45.9813 20.9561C46.627 20.4818 47.5318 20.3488 48.4908 20.2088C49.6615 20.0373 50.988 19.8448 52.0065 18.9383C53.095 17.9723 53.5955 16.3536 53.3803 14.4968C53.3225 14.0068 53.193 13.3856 52.7013 12.9358C52.2323 12.5053 51.6478 12.4283 51.2208 12.3706L51.0055 12.3391C50.2898 12.2253 49.8715 11.5813 49.6458 11.0633C49.1488 9.91883 49.1908 8.41033 49.6703 7.39008C51.7808 7.81183 53.6463 8.47333 55.2405 9.44458C59.7188 12.1781 62.6623 14.9448 64.5015 18.1543ZM47.8923 7.09433C47.3883 8.52233 47.4075 10.3126 48.0375 11.7651C48.601 13.0636 49.5565 13.8843 50.7255 14.0698L50.988 14.1066C51.163 14.1311 51.4535 14.1696 51.5183 14.2273C51.5253 14.2343 51.5953 14.3078 51.6408 14.7016C51.786 15.9633 51.4903 17.0588 50.8428 17.6311C50.2163 18.1893 49.2538 18.3293 48.237 18.4781C47.1608 18.6356 45.9393 18.8123 44.9435 19.5473C43.8743 20.3331 43.3318 21.7383 43.5243 23.2136C43.7185 24.6888 44.6058 25.9051 45.843 26.3881C46.186 26.5228 46.5483 26.6051 46.9088 26.6838C47.1888 26.7433 47.4688 26.7993 47.7313 26.9078C48.0655 27.0426 48.3053 27.3103 48.286 27.4503C48.265 27.6043 48.0095 27.8283 47.7628 28.0436C47.4758 28.2938 47.1485 28.5773 46.9088 28.9658C46.487 29.6501 46.4555 30.4971 46.823 31.2916C47.25 32.2156 48.1443 32.9086 49.0998 33.0538C50.4998 33.2726 51.9785 32.6146 53.1703 31.2636C53.6498 30.7176 54.0418 30.1296 54.4215 29.5573C54.7313 29.0918 55.041 28.6263 55.3963 28.1958C56.301 27.1108 57.4333 26.4143 58.5865 26.2393C59.815 26.0486 61.0663 26.5211 61.7015 27.4066C62.4505 28.4478 61.4495 30.5408 58.982 33.1221C57.5803 34.4678 55.986 35.5896 54.243 36.4576C53.5378 36.8076 52.8063 37.1173 52.0765 37.4288C50.4595 38.1183 48.7865 38.8288 47.3498 39.9803C46.8528 40.3793 46.4923 40.7486 46.2158 41.1458C45.437 42.2623 45.4493 44.1296 45.9148 45.4596C45.4335 45.7081 44.912 45.9548 44.3993 46.0616C44.0843 45.8061 43.645 45.7991 43.323 46.0493C42.9188 45.9653 42.5198 45.8218 42.1418 45.6818C35.5775 43.2826 28.3378 40.2306 21.0718 36.8321C20.58 35.8643 20.1163 34.5536 19.8013 33.2638C20.1128 33.1046 20.377 32.8928 20.601 32.7143C20.8408 32.5218 21.0683 32.3381 21.252 32.2873C21.5828 32.1893 22.0868 32.4483 22.5348 32.6951L27.0708 35.1888C27.4418 35.3901 27.9108 35.2991 28.1768 34.9666C28.441 34.6341 28.4288 34.1581 28.1453 33.8396C27.524 33.1413 27.5135 31.9076 28.1225 31.2006C28.6423 30.5951 29.533 30.2416 30.4763 29.8671C31.9165 29.2948 33.5493 28.6473 33.9255 26.8588C34.104 26.0136 33.8888 25.2086 33.6998 24.4963C33.5248 23.8401 33.3725 23.2731 33.551 22.8426C33.6998 22.4803 34.1128 22.1566 34.5485 21.8136C35.21 21.2921 36.036 20.6446 36.1778 19.5543C36.4018 17.8411 34.8565 16.8366 33.7278 16.1051L33.488 15.9476C32.221 15.1128 31.3565 13.9911 31.052 12.7818C30.758 11.6076 30.9785 9.94334 31.8045 9.14708C35.6563 7.65434 39.9333 6.83709 44.3538 6.86509C45.6103 6.87209 46.7775 6.95958 47.8923 7.09433ZM23.2943 14.2151C25.06 12.6488 27.1075 11.3276 29.3248 10.2338C29.1008 11.2366 29.127 12.3076 29.3545 13.2106C29.7658 14.8451 30.891 16.3361 32.5255 17.4106L32.774 17.5733C33.7645 18.2156 34.517 18.7546 34.4435 19.3268C34.3963 19.6838 34.0428 19.9848 33.467 20.4381C32.9 20.8843 32.2578 21.3901 31.934 22.1776C31.5333 23.1541 31.787 24.1078 32.0093 24.9478C32.1615 25.5201 32.3068 26.0608 32.214 26.5001C32.0408 27.3261 31.1955 27.6988 29.8323 28.2396C28.784 28.6561 27.5975 29.1268 26.7978 30.0578C26.2028 30.7491 25.9105 31.6556 25.9228 32.5586L23.3765 31.1586C22.7938 30.8401 21.8173 30.3028 20.7743 30.6021C20.2493 30.7508 19.8555 31.0693 19.5055 31.3476C19.2623 31.5418 19.0015 31.8218 18.8475 31.7501C18.5745 31.7326 18.3015 31.8306 18.116 32.0336C17.9305 32.2383 17.8535 32.5183 17.906 32.7896C18.1003 33.7766 18.3873 34.7863 18.7215 35.7261C17.6873 35.2326 16.6565 34.7286 15.6258 34.2211C14.4848 27.2071 17.4738 19.3758 23.2943 14.2151ZM4.11951 27.6673C4.14401 27.6271 4.23676 27.5011 4.52901 27.3156C6.26851 26.2131 8.24601 25.5883 10.339 24.9251C11.9438 24.4176 13.5853 23.8891 15.1288 23.1296C14.1785 25.6793 13.6693 28.3393 13.636 30.9696L11.0775 31.9426C11.0408 31.9233 11.004 31.9058 10.9673 31.8866C10.9638 31.8848 10.962 31.8848 10.9585 31.8848C10.955 31.8848 10.955 31.8813 10.9515 31.8813C8.96701 30.9083 6.46626 29.3736 4.42576 27.8756C4.22276 27.7251 4.14401 27.6498 4.11951 27.6673ZM10.9918 34.2193C11.0898 34.1546 11.1685 34.0741 11.2315 33.9831C21.4585 39.1771 32.1773 43.9021 41.538 47.3268C41.72 47.3933 41.916 47.4633 42.119 47.5316C40.5265 49.7961 38.591 51.8576 36.4053 53.5411C28.679 48.2176 20.0375 44.0036 11.0548 41.1038C10.9603 41.0513 10.857 41.0181 10.745 41.0041C8.76751 40.3741 6.78126 39.7843 4.77576 39.2856C6.66926 37.3868 8.75351 35.6893 10.9918 34.2193ZM34.5013 73.5401C33.334 72.9573 32.2805 72.1803 31.1675 71.3543L30.2418 70.6753C25.0758 66.9513 18.858 64.4348 12.8433 62.0006L11.7933 61.5736C11.8143 57.7358 11.7303 54.8133 11.6498 51.9836C11.5745 49.3341 11.501 46.5603 11.5098 43.0691C20.1758 45.9706 28.4918 50.1356 35.9275 55.3348C36.078 55.4398 36.2548 55.4923 36.4298 55.4923C36.6118 55.4923 36.7938 55.4363 36.946 55.3226C39.2823 53.6093 41.3735 51.4953 43.1148 49.1521C43.9705 58.2083 43.9023 70.2938 43.547 78.7551C42.0613 78.0218 39.4975 76.4766 37.9435 75.5403C36.4648 74.6496 35.189 73.8831 34.5013 73.5401ZM67.718 67.1298C65.7685 68.3006 63.8208 69.4713 62.0673 70.5563C60.7565 71.3666 59.4003 72.2048 57.995 72.8908C56.546 73.5961 54.8048 74.3363 52.9603 75.1203C50.295 76.2526 47.5563 77.4181 45.304 78.6396C45.654 70.1188 45.7065 58.0543 44.8438 48.9753L53.0355 57.2616C53.2053 57.4331 53.431 57.5206 53.6568 57.5206C53.823 57.5206 53.9893 57.4751 54.1345 57.3788C60.543 53.1893 66.8693 48.7636 73.0188 44.4393C72.9593 45.3231 72.9015 46.2086 72.8385 47.0906C72.436 52.6258 72.0195 58.3431 72.8543 64.0183C71.239 65.0123 69.4803 66.0711 67.718 67.1298Z" fill="#111111"/>
<path d="M41.8425 16.704C42.5268 17.1345 43.2478 17.3585 43.9355 17.3585C44.1945 17.3585 44.4483 17.3253 44.695 17.2623C45.899 16.9508 46.7443 15.8115 46.62 14.6688C46.501 13.568 45.6645 12.945 44.9908 12.4428C44.6058 12.1558 44.2418 11.8845 44.0615 11.5835C43.813 11.1705 43.2758 11.0305 42.861 11.2825C42.7158 11.3683 42.6055 11.489 42.5338 11.629C42.5058 11.6448 42.4778 11.6623 42.4515 11.6798C40.8363 12.805 40.201 13.9828 40.565 15.185C40.7453 15.773 41.1758 16.284 41.8425 16.704ZM43.2303 13.2758C43.4648 13.4875 43.7115 13.673 43.9443 13.8445C44.5025 14.261 44.8438 14.5375 44.8788 14.856C44.9085 15.1308 44.6058 15.4755 44.254 15.5683C43.8358 15.675 43.2968 15.5508 42.7735 15.2235C42.4813 15.0398 42.2905 14.842 42.238 14.674C42.1365 14.331 42.4953 13.827 43.2303 13.2758Z" fill="#111111"/>
</svg>
