<svg width="84" height="84" viewBox="0 0 84 84" fill="none" xmlns="http://www.w3.org/2000/svg">
<path d="M6.538 38.3546L2.25575 40.0451L4.396 42.4041L1.0325 44.4218L3.78525 47.8763L1.30375 49.6088L3.171 51.3501L0.615997 53.2383L6.538 58.3256L23.7842 77.2501L45.2515 66.5873L58.9767 57.6431L83.013 41.3436L80.4475 38.0448L82.0977 36.0463L79.4255 33.7363L81.5552 31.8026L78.2442 29.2178L81.6445 25.7266L6.538 38.3546Z" fill="white"/>
<path d="M83.013 25.2089C76.7725 20.1969 73.038 17.6804 66.7975 12.6684C65.6775 11.7689 60.2438 8.32844 58.8088 8.24619C57.6905 8.18144 56.6195 8.65569 55.5993 9.11769C37.0003 17.5562 20.363 26.4654 1.76401 34.9022C7.29226 40.5862 12.8923 46.7427 18.4205 52.4267C19.7575 53.8004 23.4605 57.3214 25.2613 57.9812C29.0378 56.0929 29.6468 55.5539 32.662 53.9877C49.784 45.0907 65.254 32.7602 83.013 25.2089Z" fill="white"/>
<path d="M81.0967 38.397C81.5937 38.061 82.089 37.718 82.586 37.3837C82.7802 37.2542 82.915 37.0512 82.957 36.8202C82.999 36.5892 82.95 36.3512 82.8152 36.1587C82.4512 35.6337 81.5902 34.8077 80.7275 34.1865L81.6305 33.5547C81.8352 33.4112 82.3147 33.077 82.4127 32.475C82.5142 31.8555 82.201 31.306 81.487 30.8475L79.632 29.661C80.3425 28.9942 81.06 28.338 81.7495 27.6467C82.0172 27.379 82.0662 26.9852 81.914 26.6597C82.3952 26.4462 82.8712 26.2187 83.3542 26.014C83.6377 25.895 83.8355 25.6325 83.8775 25.328C83.9195 25.0235 83.7987 24.719 83.559 24.5265C80.4317 22.0135 77.8925 20.0972 75.4372 18.244C72.989 16.396 70.4567 14.485 67.3435 11.9842C66.5052 11.3122 60.7057 7.47799 58.8577 7.37124C57.5085 7.28899 56.2432 7.86124 55.2352 8.31974C45.92 12.5477 36.953 16.9612 28.28 21.233C19.6298 25.4925 10.6838 29.8955 1.40351 34.106C1.14451 34.2232 0.959005 34.4595 0.904755 34.7395C0.850505 35.0195 0.938005 35.3065 1.13751 35.5112C1.99851 36.3967 2.86475 37.3102 3.72925 38.215C3.47725 38.355 3.2305 38.495 2.98725 38.635C2.45526 38.9412 1.92501 39.2475 1.29501 39.5502C1.00801 39.6885 0.819005 39.972 0.801505 40.2922C0.785755 40.6125 0.943255 40.9135 1.21451 41.0815C1.67126 41.365 2.09826 41.7132 2.51301 42.0842C1.90576 42.6757 1.26001 43.2252 0.556505 43.6872C0.351755 43.822 0.213506 44.0337 0.171506 44.2752C0.131256 44.5167 0.192506 44.7617 0.343005 44.956C1.04476 45.8642 1.79726 46.7322 2.52 47.6247L0.941505 48.6012C0.742005 48.7255 0.610755 48.939 0.558255 49.17C0.507505 49.3992 0.560005 49.6547 0.689505 49.8525C1.02026 50.36 1.36326 50.8745 1.70451 51.3872C0.558255 51.8632 -0.0612444 52.6892 0.161006 53.608C0.264255 54.0367 0.530255 54.3447 0.675505 54.5127C1.68526 55.673 2.89626 56.5917 4.06875 57.4807C5.01375 58.1965 5.90625 58.8737 6.69725 59.663C7.36575 60.3315 7.952 61.0717 8.57325 61.854L8.7465 62.071C13.1653 67.6465 18.0233 72.9665 23.184 77.884C23.3538 78.045 23.5708 78.1255 23.7878 78.1255C24.0083 78.1255 24.2305 78.0415 24.4002 77.8735C24.7013 77.5795 25.9455 76.8865 26.6367 76.5627C28.1838 75.8382 29.6765 75.1452 31.1238 74.4767C39.1055 70.7825 45.997 67.5887 53.3295 62.7657C57.7587 59.852 62.2212 56.6862 66.5367 53.6255C72.0562 49.7125 77.7647 45.6647 83.4785 42.0842C83.685 41.9547 83.8285 41.743 83.874 41.5032C83.9177 41.2617 83.86 41.015 83.713 40.8172C83.1932 40.126 82.0242 39.125 81.0967 38.397ZM29.0535 22.8027C37.7142 18.538 46.669 14.1297 55.9615 9.91399C56.8382 9.51499 57.827 9.05474 58.7615 9.11949C59.7957 9.17899 64.8865 12.2537 66.2515 13.3492C69.384 15.8657 71.9267 17.7855 74.3855 19.6422C76.5257 21.2592 78.729 22.9217 81.3295 24.9867C71.435 29.353 62.1215 35.2102 53.102 40.8837C46.3592 45.124 39.389 49.5095 32.2578 53.2142C30.954 53.8915 30.0965 54.378 29.2425 54.8627C28.161 55.477 27.1355 56.058 25.2332 57.0152C23.6968 56.2365 20.7708 53.5887 19.0453 51.816C16.2855 48.9775 13.5065 46.02 10.7275 43.0642C9.07025 41.302 7.4165 39.5502 5.76275 37.8107C5.754 37.8037 5.747 37.7932 5.74 37.7862C4.9105 36.9147 4.081 36.0397 3.255 35.184C12.159 31.1187 20.741 26.8942 29.0535 22.8027ZM3.85875 40.1522C4.221 39.944 4.59375 39.7357 4.9875 39.5292C6.475 41.0972 7.96425 42.6792 9.45525 44.2647C12.2413 47.2275 15.0255 50.192 17.794 53.0375C17.8413 53.0865 22.5697 57.9287 24.9602 58.8037C25.0583 58.8405 25.1598 58.8562 25.2613 58.8562C25.396 58.8562 25.529 58.8247 25.6533 58.7635C27.8337 57.675 28.9905 57.0187 30.1088 56.3835C30.947 55.9092 31.787 55.4297 33.0662 54.7647C40.2605 51.0267 47.2622 46.6237 54.0347 42.3642C61.971 37.3715 70.1417 32.2475 78.694 28.1402C70.4655 35.9172 60.7512 42.0825 51.3152 48.0377C49.0595 49.4605 46.7267 50.9322 44.352 52.2447C41.363 53.895 38.2183 55.3405 35.007 56.534L33.6665 57.024C30.4098 58.2052 27.0515 59.4232 24.5928 61.9047C17.7818 56.513 11.5973 50.3337 6.20025 43.528C5.3865 42.5025 4.43625 41.3807 3.32325 40.4567C3.5035 40.3587 3.682 40.2555 3.85875 40.1522ZM3.75025 43.3355C4.13175 43.7642 4.4975 44.1965 4.83 44.6165C10.4808 51.7407 16.9803 58.1895 24.15 63.7842C24.3093 63.9085 24.5 63.968 24.6873 63.968C24.9358 63.968 25.179 63.863 25.3523 63.6617C27.545 61.1067 30.961 59.8677 34.2633 58.669L35.6178 58.1737C38.9113 56.9487 42.1348 55.4682 45.2007 53.7742C47.6175 52.4372 49.973 50.9532 52.2497 49.5147C61.1607 43.8902 70.3342 38.0977 78.3247 30.8965L80.4387 32.251L52.29 51.9472C50.6747 53.0777 49.0052 54.245 47.327 55.3212C42.1802 58.6287 36.5628 61.0682 31.2568 63.2155C29.7675 63.8192 28.3797 64.5647 27.0375 65.2892C26.1642 65.76 25.2893 66.2307 24.3775 66.6665C24.2253 66.74 23.912 66.908 23.7913 66.866C23.709 66.8485 23.5252 66.6927 23.4167 66.6017C15.6625 60.0165 8.55575 52.6245 2.28551 44.613C2.8035 44.2227 3.2865 43.7887 3.75025 43.3355ZM22.2863 67.9335C22.5522 68.1592 22.918 68.469 23.429 68.5757C23.5637 68.6037 23.695 68.616 23.821 68.616C24.353 68.616 24.8098 68.3972 25.1335 68.2415C26.0698 67.7917 26.9692 67.3087 27.867 66.824C29.2267 66.0925 30.5113 65.4012 31.913 64.8342C37.296 62.6555 43.0045 60.174 48.272 56.7895C49.98 55.6922 51.6635 54.5162 53.3767 53.3175L79.1875 35.2645C79.6582 35.5357 80.2882 36.0345 80.773 36.4947C80.2287 36.8605 79.688 37.2367 79.1437 37.6042C79.1192 37.6182 79.0965 37.6357 79.0737 37.6515C69.846 43.9007 60.6602 50.388 51.7335 56.9767L51.408 57.2182C50.232 58.0845 49.0577 58.9525 47.859 59.789C43.0657 63.135 37.8402 65.5237 32.3102 68.0525C30.1035 69.0622 27.8845 70.0772 25.6847 71.1605C25.228 71.3845 24.7345 71.4107 24.3233 71.2305C23.8105 71.003 23.3485 70.5742 22.841 70.079C21.9783 69.239 21.1295 68.3832 20.2808 67.5292C18.8825 66.1187 17.4353 64.661 15.939 63.289C14.8155 62.2565 13.6518 61.2642 12.4898 60.2685C9.8525 58.0145 7.126 55.6852 4.97175 52.9552C4.1405 51.9035 3.37225 50.7642 2.62151 49.6197L3.633 48.995C9.296 55.8217 15.5295 62.1952 22.2863 67.9335ZM1.99501 53.3665C1.94426 53.3087 1.90751 53.2615 1.88301 53.2562C1.97226 53.167 2.21201 53.0042 2.62151 52.8835C2.65826 52.873 2.6845 52.8467 2.71951 52.8327C3.01 53.237 3.29175 53.6482 3.60151 54.0402C4.4135 55.0675 5.306 56.0177 6.2265 56.9417C5.859 56.6512 5.4915 56.3642 5.12575 56.0877C3.9725 55.2145 2.884 54.3885 1.99501 53.3665ZM65.5252 52.1992C61.222 55.2495 56.77 58.4065 52.367 61.3027C45.143 66.0575 38.6312 69.071 30.387 72.8895C28.9363 73.5615 27.4417 74.2527 25.8948 74.9772C25.5868 75.1207 24.6015 75.616 23.8542 76.106C18.9508 71.388 14.3308 66.3025 10.1133 60.9842L9.94175 60.7672C9.5655 60.293 9.1735 59.8135 8.76575 59.3427C9.62675 60.1075 10.493 60.86 11.354 61.5967C12.502 62.5785 13.65 63.5585 14.7578 64.5752C16.2225 65.921 17.6558 67.3647 19.04 68.7595C19.8958 69.6222 20.7515 70.4832 21.6195 71.3302C22.106 71.8045 22.7728 72.4572 23.618 72.83C24.0223 73.0085 24.4598 73.096 24.9043 73.096C25.4275 73.096 25.9595 72.9735 26.4583 72.7267C28.644 71.6522 30.8472 70.6442 33.04 69.6415C38.3985 67.1915 43.939 64.6557 48.8635 61.2205C50.0745 60.3752 51.2627 59.5002 52.4492 58.6235L52.7747 58.382C61.5265 51.921 70.5302 45.565 79.5742 39.4295C80.227 39.9195 81.0512 40.5967 81.6532 41.1655C76.1985 44.6305 70.777 48.4752 65.5252 52.1992Z" fill="#111111"/>
<path d="M28.5985 49.609C42.651 44.0615 54.7347 34.377 68.3497 27.8285C70.343 26.8695 72.3783 25.3715 73.1307 23.2925C70.7525 20.7358 67.9665 17.9813 65.1787 15.876C64.5557 15.4053 63.9135 14.9415 63.1802 14.6738C62.1582 14.301 61.04 14.3378 59.955 14.2678C58.5742 14.1785 57.197 13.9073 55.818 14.0263C53.8177 14.1978 51.9855 15.169 50.218 16.121C48.02 17.304 45.822 18.487 43.6258 19.6683C36.1445 23.695 28.7963 27.7533 20.8198 30.6793C17.9778 31.8868 15.3003 33.1135 12.4565 34.3228C12.2693 34.4033 12.0698 34.4925 11.9613 34.6658C11.802 34.923 11.9018 35.2538 11.9683 35.5478C12.1783 36.4805 11.9718 37.499 11.4153 38.2778C15.1095 39.0425 17.4528 42.5828 19.3848 45.8238C19.8643 46.627 20.3613 47.4495 21.1068 48.013C22.1008 48.7638 23.3958 48.951 24.6295 49.1155C25.9385 49.2888 27.2895 49.434 28.5985 49.609Z" fill="white"/>
<path d="M28.5985 50.4843C28.56 50.4843 28.5215 50.4825 28.483 50.4773C27.832 50.3898 27.1705 50.3093 26.5107 50.2305C25.8422 50.15 25.1737 50.0695 24.5157 49.982C23.2995 49.8193 21.784 49.618 20.5817 48.7098C19.6875 48.0325 19.1275 47.0945 18.6357 46.2668C16.7055 43.031 14.5442 39.8128 11.2402 39.1303C10.9497 39.0708 10.71 38.8695 10.6015 38.593C10.493 38.3165 10.5332 38.005 10.7047 37.7635C11.1177 37.1878 11.2717 36.4283 11.116 35.7353C11.018 35.31 10.885 34.7395 11.2192 34.1988C11.4765 33.7858 11.8755 33.616 12.1152 33.5128C13.5345 32.909 14.91 32.3035 16.2872 31.6963C17.6715 31.0838 19.0557 30.4748 20.4802 29.8693C27.909 27.1428 34.6185 23.5255 41.7235 19.6965L49.8067 15.346C51.5532 14.4063 53.5307 13.3405 55.748 13.1515C56.7735 13.0658 57.7692 13.169 58.7317 13.2723C59.1587 13.316 59.5857 13.3633 60.0145 13.3895L60.6865 13.4245C61.6035 13.4648 62.5502 13.5085 63.483 13.848C64.3212 14.1525 65.0142 14.6478 65.709 15.1728C68.1362 17.0068 70.7735 19.4673 73.773 22.6925C73.9952 22.934 74.0652 23.2788 73.955 23.5868C73.045 26.1033 70.6125 27.708 68.7312 28.6128C62.881 31.4268 57.204 34.8918 51.7142 38.243C44.4622 42.667 36.9652 47.245 28.9222 50.4195C28.8172 50.4633 28.707 50.4843 28.5985 50.4843ZM12.6735 37.725C16.0562 38.936 18.2892 42.2785 20.1372 45.3743C20.5695 46.097 21.014 46.846 21.6352 47.315C22.47 47.9433 23.6775 48.106 24.745 48.246C25.396 48.3335 26.0575 48.414 26.7172 48.4928C27.3087 48.5645 27.902 48.6345 28.4865 48.7115C36.3107 45.5948 43.6765 41.099 50.799 36.752C56.3255 33.378 62.0392 29.8903 67.9682 27.0395C69.4225 26.3395 71.2582 25.1723 72.1 23.473C69.3297 20.526 66.8902 18.265 64.6502 16.5728C64.0657 16.1335 63.49 15.7188 62.8792 15.4965C62.1985 15.248 61.4232 15.2148 60.6042 15.1763L59.8955 15.1395C59.4457 15.1098 58.9942 15.0625 58.5427 15.0153C57.6187 14.9155 56.7472 14.8193 55.8915 14.898C54.0365 15.0573 52.227 16.0303 50.631 16.8913L42.5495 21.2418C35.7035 24.9308 28.6247 28.7475 21.1207 31.5003C19.7435 32.0865 18.368 32.6938 16.9907 33.2993C15.6065 33.9118 14.2222 34.5208 12.7977 35.1263C12.7907 35.1298 12.782 35.1333 12.7715 35.1385C12.7802 35.1788 12.7907 35.2243 12.7995 35.2593C12.9902 36.1063 12.9377 36.9603 12.6735 37.725Z" fill="#111111"/>
<path d="M29.2145 37.0946C28.441 36.7183 28.1767 36.3736 27.3262 36.2511C26.4757 36.1286 25.536 36.3036 24.9287 36.9126C24.5682 37.2748 24.3547 37.7543 24.1482 38.2216C23.9697 38.6276 23.786 39.0598 23.8402 39.4991C23.9592 40.4633 25.0827 40.9201 26.0417 41.0758C26.5965 41.1668 27.1565 41.2228 27.7182 41.2421C28.6597 41.2753 29.7447 41.1353 30.2715 40.3548C30.6617 39.7773 30.6145 38.9758 30.2715 38.3686C29.9285 37.7613 29.8532 37.3711 29.2145 37.0946Z" fill="white"/>
<path d="M27.9632 42.1225C27.8722 42.1225 27.7795 42.1207 27.685 42.1172C27.0865 42.0945 26.4897 42.0367 25.8982 41.9387C24.185 41.6587 23.1175 40.8082 22.9705 39.606C22.8847 38.9165 23.1507 38.311 23.345 37.8682C23.5602 37.3817 23.8245 36.778 24.3075 36.2932C25.0512 35.5477 26.2202 35.2065 27.4487 35.3832C28.1995 35.4935 28.6247 35.7472 29.0377 35.9957C29.1952 36.0902 29.3667 36.1935 29.582 36.3002C30.3625 36.6467 30.6302 37.1665 30.8647 37.6267L31.031 37.94C31.5647 38.8797 31.5507 40.0207 30.996 40.845C30.4237 41.6937 29.4035 42.1225 27.9632 42.1225ZM26.817 37.0877C26.2972 37.0877 25.8317 37.247 25.5482 37.5305C25.2962 37.7825 25.1195 38.185 24.948 38.5735C24.8237 38.857 24.682 39.1807 24.7082 39.3925C24.759 39.8002 25.4852 40.0995 26.1835 40.215C26.7015 40.299 27.2247 40.3497 27.7497 40.369C28.4025 40.404 29.239 40.3252 29.547 39.8667C29.7255 39.6042 29.7097 39.1562 29.5102 38.8045L29.3107 38.4282C29.113 38.0432 29.0797 37.9907 28.8662 37.8962C28.8557 37.891 28.8435 37.8857 28.833 37.8805C28.5582 37.7475 28.3395 37.618 28.14 37.4972C27.7935 37.2907 27.6027 37.1752 27.2002 37.1175C27.0707 37.0982 26.943 37.0877 26.817 37.0877Z" fill="#111111"/>
<path d="M59.8273 20.6326C59.2253 19.9956 58.772 20.0516 57.9023 20.1601C57.0325 20.2668 56.2258 20.8076 55.797 21.5723C55.2948 22.4648 55.3823 23.7248 56.175 24.3741C56.448 24.5981 56.7788 24.7363 57.1095 24.8623C57.9565 25.1861 58.8753 25.4451 59.7625 25.2578C60.6498 25.0706 61.474 24.3041 61.4373 23.3976C61.4163 22.8621 61.1118 22.3826 60.7968 21.9486C60.3593 21.3501 60.3418 21.1663 59.8273 20.6326Z" fill="white"/>
<path d="M59.1307 26.1975C58.2907 26.1975 57.4927 25.9455 56.7962 25.6795C56.4252 25.5377 55.9965 25.3592 55.6202 25.0512C54.5545 24.1762 54.2972 22.4612 55.034 21.1452C55.5975 20.1425 56.6562 19.432 57.7955 19.292C58.7037 19.18 59.5577 19.0732 60.4607 20.0287C60.851 20.4312 61.012 20.6902 61.1852 20.9615C61.2675 21.0927 61.362 21.2397 61.5037 21.4357C61.8852 21.959 62.279 22.5977 62.3105 23.3625C62.37 24.815 61.1345 25.865 59.941 26.1135C59.668 26.1712 59.3967 26.1975 59.1307 26.1975ZM58.6652 20.965C58.52 20.965 58.317 20.9895 58.0107 21.0262C57.4105 21.0997 56.854 21.4725 56.5582 21.9992C56.2345 22.5767 56.3115 23.3537 56.7297 23.6967C56.9047 23.8402 57.1672 23.9487 57.4227 24.045C58.1 24.3022 58.8857 24.5472 59.5822 24.4002C60.1212 24.2882 60.5797 23.835 60.564 23.4325C60.5517 23.1367 60.3295 22.792 60.0897 22.463C59.9182 22.2285 59.8062 22.0535 59.7082 21.896C59.5577 21.658 59.4667 21.5162 59.199 21.238C59.1972 21.2362 59.1955 21.2345 59.192 21.231C59.0082 21.0385 58.9242 20.965 58.6652 20.965Z" fill="#111111"/>
<path d="M47.0348 25.8949C45.6978 25.5606 44.5708 25.3594 43.1935 25.3226C41.8163 25.2876 40.3883 25.5764 39.277 26.3901C38.4843 26.9694 37.8945 27.7814 37.3748 28.6144C36.4998 30.0161 35.812 31.9044 36.792 33.2361C37.1473 33.7209 37.6775 34.0464 38.206 34.3316C40.1345 35.3711 42.3168 36.0519 44.499 35.8664C46.6813 35.6809 48.8478 34.5276 49.896 32.6044C50.9443 30.6811 50.6205 28.0036 48.909 26.6369C48.3105 26.1574 47.7978 25.9859 47.0348 25.8949Z" fill="white"/>
<path d="M43.7675 36.7727C41.8583 36.7727 39.851 36.2127 37.7913 35.1032C37.177 34.7724 36.5453 34.3804 36.0868 33.7539C35.0578 32.3557 35.252 30.3642 36.6328 28.1504C37.1158 27.3752 37.7965 26.3917 38.759 25.6847C40.236 24.6067 41.9948 24.4334 43.2163 24.4492C44.5008 24.4842 45.6575 24.6522 47.194 25.0337C47.9885 25.1352 48.6798 25.3347 49.455 25.9524C51.4325 27.5309 51.9645 30.6372 50.6643 33.0224C49.5373 35.0927 47.2028 36.5154 44.5725 36.7377C44.3065 36.7604 44.0388 36.7727 43.7675 36.7727ZM42.9695 26.1957C42.0385 26.1957 40.796 26.3654 39.795 27.0969C39.0793 27.6237 38.5473 28.3937 38.1203 29.0779C37.6653 29.8077 36.694 31.6242 37.499 32.7197C37.7528 33.0644 38.1903 33.3287 38.6243 33.5614C40.67 34.6657 42.6265 35.1539 44.429 34.9947C46.48 34.8197 48.2825 33.7434 49.1313 32.1859C50.022 30.5514 49.679 28.3674 48.3665 27.3209C47.9325 26.9762 47.5983 26.8449 46.9333 26.7644C46.8965 26.7609 46.8615 26.7539 46.8265 26.7452C45.6173 26.4424 44.5323 26.2359 43.1743 26.1992C43.106 26.1974 43.0378 26.1957 42.9695 26.1957Z" fill="#111111"/>
</svg>
