<svg width="84" height="84" viewBox="0 0 84 84" fill="none" xmlns="http://www.w3.org/2000/svg">
<g clip-path="url(#clip0)">
<path d="M74.4844 21.1147C74.3859 21.164 74.2711 21.1968 74.1563 21.1968C74.3531 21.328 74.5008 21.5249 74.5008 21.8038C74.5008 22.8538 73.1555 23.5429 72.368 24.0679C71.3672 24.7405 70.3336 25.3312 69.2672 25.8726C66.7242 27.1522 64.2305 28.4976 61.7039 29.8101C59.1774 31.1061 56.7492 32.5663 54.2227 33.846C53.1234 34.4038 52.0242 34.9944 50.8758 35.4374C50.0063 35.7655 49.1203 36.0444 48.2672 36.4054C48.5297 36.553 48.7594 36.7335 48.9891 36.9468C49.3992 37.2913 49.8258 37.7999 50.3508 37.964C50.7117 38.0788 51.007 38.3577 51.007 38.7351C51.8273 38.4562 52.6313 38.1772 53.4516 37.9147C53.4844 37.7999 53.5664 37.6851 53.6813 37.5702C56.0602 35.4538 58.7836 33.8132 61.5234 32.2382C64.2469 30.6632 66.8719 28.9569 69.6445 27.4968C71.6297 26.4468 74.4023 25.1343 74.468 22.5749C74.5172 22.0663 74.5172 21.5905 74.4844 21.1147Z" fill="white"/>
<path d="M42.525 12.4522C42.2297 11.7304 41.8687 11.0413 41.4914 10.3687C41.2945 16.8327 40.3102 23.2804 39.9656 29.728C39.8672 31.4835 39.7852 33.239 39.6867 34.9944C39.5883 36.4546 39.375 37.9147 39.3422 39.3749C39.3258 40.3265 39.4242 41.6882 39.1945 42.853C40.0313 42.5741 40.8352 42.2296 41.6555 41.8851C41.9672 40.8515 41.6227 39.6702 41.7539 38.6038C41.9344 37.1437 42.1641 35.6999 42.2297 34.2233C42.3609 31.2374 42.6234 28.2351 42.7547 25.2491C42.8859 22.3616 43.0008 19.4413 43.05 16.5538C43.0828 15.1757 43.0828 13.7812 42.525 12.4522Z" fill="white"/>
<path d="M73.4016 20.6553C72.9094 18.867 72.1711 17.1444 71.1703 15.5694C69.0703 12.2389 66.068 9.36782 62.5734 7.53032C61.1625 6.79204 59.243 5.88969 57.6188 6.36547C56.0109 6.82485 55.207 8.30141 54.6656 9.77797C54.0422 11.4678 53.7305 13.2397 53.2875 14.9788C52.7625 17.0131 51.9258 18.9655 51.2695 20.967C49.7602 25.5772 48.5789 30.2694 47.4961 34.9944C48.2672 34.6663 49.0547 34.3709 49.8422 34.092C51.007 33.6655 52.1227 33.0913 53.2383 32.5499C55.6172 31.3686 57.8813 29.9741 60.2438 28.76C62.6063 27.5459 64.9688 26.3647 67.3148 25.1014C69.1359 24.117 70.957 23.1819 72.5813 21.9022C72.532 21.492 72.7617 21.0655 73.3031 21.0655H73.6313H73.6477C73.5328 20.9506 73.4508 20.8358 73.4016 20.6553Z" fill="#111111"/>
<path d="M80.4234 38.2265C80.2594 37.8327 80.0625 37.4718 79.8492 37.1108C80.5055 41.2452 80.243 45.5272 79.1109 49.678C76.9617 57.5858 72.2695 64.739 66.2977 70.3171C60.1289 76.0757 52.3195 79.7343 43.9687 80.9483C39.7852 81.5554 35.5195 81.5882 31.3359 81.0468C30.3187 80.9155 29.3016 80.7515 28.2844 80.571C33.1898 82.1132 38.3742 82.753 43.5094 82.5562C51.5977 82.2444 59.7516 80.1444 66.0516 74.8616C72.1055 69.7757 76.1906 62.6226 78.832 55.2562C80.1609 51.5647 81.3914 47.5452 81.3914 43.5913C81.4242 41.7374 81.1617 39.9163 80.4234 38.2265Z" fill="white"/>
<path d="M77.618 34.2563C77.3391 33.9774 77.0437 33.7149 76.7484 33.4688C76.6664 33.4032 76.6172 33.3376 76.568 33.272C75.4031 33.6985 74.0906 33.7149 72.893 34.0267C71.2359 34.4696 69.5461 34.8634 67.9219 35.372C66.232 35.897 64.5914 36.504 62.9016 37.0454C61.2937 37.5704 59.6367 37.9313 57.9961 38.3087C54.5508 39.1126 51.3187 40.5071 47.9062 41.4423C46.2328 41.9017 44.6578 42.4103 43.0664 43.0829C41.5734 43.7228 40.0969 44.379 38.5219 44.7892C38.3742 44.822 38.243 44.822 38.1281 44.8056C38.0953 44.822 38.0789 44.8384 38.0461 44.8548C37.1602 45.4454 36.2414 44.0837 37.1273 43.4931C37.6687 43.1321 37.6359 41.7704 37.6523 41.1962C37.6852 40.2774 37.6687 39.3587 37.7672 38.4399C38.0953 35.1751 38.2102 31.8774 38.3906 28.5962C38.768 22.0993 39.8016 15.6024 39.8672 9.07275C38.5219 9.10557 37.1766 9.23682 35.8477 9.43369C22.9195 11.5009 10.3852 20.9837 6.67734 33.7149C6.67734 33.8626 6.64453 33.9938 6.5625 34.1415C6.49688 34.3712 6.43125 34.6173 6.38203 34.847C6.3 35.011 6.21797 35.1751 6.15234 35.3556C6.13594 35.5032 6.10313 35.6673 6.08672 35.7985C5.93906 36.4712 5.75859 37.1438 5.64375 37.8165C5.41406 39.0798 5.46328 40.3923 5.02031 41.5899C4.9875 41.9345 4.93828 42.279 4.88906 42.6235C4.88906 42.6727 4.88906 42.7056 4.88906 42.7384C4.80703 43.4603 4.74141 44.1821 4.67578 44.904C4.54453 46.4134 4.47891 47.9227 4.49531 49.4321C4.54453 52.4017 4.88906 55.3712 5.62734 58.2423C7.05469 63.7056 9.81094 68.8735 14.1586 72.5649C17.1445 75.1079 20.6391 76.7813 24.3961 77.8642C28.4977 79.0618 32.7633 79.7345 37.0453 79.7509C45.4945 79.7673 53.9766 77.4704 60.9328 72.5813C72.5976 64.3782 81.6539 48.5626 77.618 34.2563Z" fill="white"/>
<path d="M80.2758 34.7649C79.882 34.2563 79.4555 33.7641 78.9961 33.3047C78.75 32.468 78.4547 31.6313 78.1266 30.8274C77.8312 31.1391 77.5031 31.4344 77.1586 31.7133C76.9781 31.5329 76.6992 31.4508 76.3711 31.5985C75.1406 32.1399 73.6641 32.1399 72.368 32.4844C70.7109 32.911 69.0375 33.3211 67.3969 33.8297C65.707 34.3547 64.05 34.9618 62.3766 35.5032C60.7687 36.0282 59.1117 36.3891 57.4711 36.7665C57.4055 36.7829 57.3398 36.7993 57.2906 36.8157C59.3414 35.3719 61.5562 34.1415 63.7219 32.8946C65.2477 32.0251 66.7078 31.0735 68.2172 30.1547C69.6937 29.2524 71.3016 28.5633 72.7453 27.6282C73.8609 26.9063 75.0422 25.9711 75.6984 24.7735C76.2727 23.7399 76.1742 22.4438 76.1742 21.3118C76.1742 19.1133 75.2227 16.275 73.0078 15.4219C71.6953 13.1086 69.9562 11.0415 67.9711 9.28599C65.4281 7.05474 62.1141 4.80708 58.6523 4.64302C54.8461 4.44614 53.3203 8.2852 52.5164 11.3368C52.0734 12.9774 51.8109 14.6672 51.2367 16.275C50.4 18.6047 49.5797 20.9344 48.8578 23.3133C47.6273 27.3821 46.6266 31.5329 45.6914 35.6836C45.5766 36.2086 45.9375 36.5532 46.3477 36.6188C46.3477 36.6352 46.3641 36.6352 46.3805 36.6516C46.282 37.0618 46.4625 37.5375 47.0039 37.636C47.5453 37.7344 47.9719 38.1774 48.3656 38.5383C48.7102 38.8336 49.0547 39.0961 49.4484 39.3094C48.7758 39.5227 48.1031 39.736 47.4141 39.9165C46.0359 40.2938 44.7234 40.704 43.4109 41.229C43.4438 40.5891 43.4109 39.9329 43.3945 39.2766C43.3617 37.8 43.8375 36.2907 43.9031 34.7977C44.018 31.5821 44.2969 28.3829 44.4445 25.1836C44.5266 23.6086 44.5102 22.0172 44.5594 20.4422C44.5922 18.9165 44.7398 17.3907 44.7562 15.8649C44.7727 14.4047 44.5922 13.043 44.0344 11.6977C43.5094 10.418 42.7383 9.22036 42.1148 7.98989C41.9508 7.67817 41.6883 7.56333 41.4422 7.59614V7.4813C39.3258 7.44849 37.2258 7.59614 35.1258 7.95708C21.6398 10.254 8.81016 20.1797 5.05313 33.4688C4.51172 34.3711 4.42969 35.618 4.2 36.6188C4.03594 37.3243 3.92109 38.0461 3.82266 38.768C3.80625 38.8336 3.80625 38.9157 3.78984 38.9813C3.77344 39.0305 3.75703 39.0633 3.75703 39.1125C3.62578 39.8016 3.51094 40.4907 3.4125 41.1797C3.4125 41.1961 3.39609 41.1961 3.39609 41.2126C3.31406 41.4094 3.29766 41.5899 3.33047 41.7375C3.16641 43.0665 3.05156 44.3954 2.95313 45.7243C2.82188 47.5946 2.80547 49.4813 2.90391 51.3516C3.11719 55.0102 3.82266 58.6524 5.08594 62.0977C7.41563 68.4469 11.8453 73.8118 17.768 77.011C17.7844 77.2735 17.8992 77.536 18.1781 77.7001C25.7414 82.4415 34.7648 84.443 43.6406 84.1477C51.9914 83.8688 60.457 81.5719 66.9703 76.1743C73.0406 71.1376 77.2078 64.1321 79.9805 56.8313C82.6055 49.9899 85.1648 41.2126 80.2758 34.7649ZM51.2531 20.9672C51.9094 18.9657 52.7461 17.0133 53.2711 14.979C53.7141 13.2399 54.0422 11.468 54.6492 9.77817C55.1906 8.30161 56.0109 6.84145 57.6023 6.36567C59.243 5.88989 61.1461 6.79224 62.557 7.53052C66.068 9.36802 69.0539 12.2391 71.1539 15.5696C72.1383 17.1446 72.893 18.8672 73.3852 20.6555C73.4344 20.836 73.5164 20.9508 73.6312 21.0493H73.6148H73.2867C72.7453 21.0493 72.5156 21.4758 72.5648 21.886C70.9406 23.1493 69.1195 24.1008 67.2984 25.0852C64.9688 26.3485 62.5898 27.5297 60.2273 28.7438C57.8648 29.9579 55.6008 31.3524 53.2219 32.5336C52.1062 33.0915 51.007 33.6493 49.8258 34.0758C49.0383 34.3711 48.2344 34.65 47.4797 34.9782C48.5625 30.2532 49.7602 25.561 51.2531 20.9672ZM49.0219 36.9305C48.7922 36.7336 48.5461 36.5532 48.3 36.3891C49.1531 36.0282 50.0391 35.7493 50.9086 35.4211C52.057 34.9946 53.1562 34.3876 54.2555 33.8297C56.782 32.5501 59.2102 31.0899 61.7367 29.7938C64.2633 28.4977 66.7734 27.136 69.3 25.8563C70.3664 25.3149 71.4 24.7079 72.4008 24.0516C73.1883 23.5266 74.5336 22.8375 74.5336 21.7875C74.5336 21.525 74.3859 21.3118 74.1891 21.1805C74.3039 21.1641 74.4188 21.1477 74.5172 21.0985C74.55 21.5743 74.55 22.0665 74.5336 22.5422C74.468 25.1016 71.6953 26.4141 69.7102 27.4641C66.9375 28.9243 64.3125 30.6469 61.5891 32.2055C58.8492 33.7969 56.1094 35.4211 53.7469 37.5376C53.632 37.6524 53.55 37.7672 53.5172 37.8821C52.6969 38.1446 51.893 38.4235 51.0727 38.7024C51.0562 38.3251 50.7773 38.0461 50.4164 37.9313C49.8586 37.7836 49.432 37.2751 49.0219 36.9305ZM41.4914 10.3688C41.8688 11.0579 42.2297 11.7305 42.525 12.4524C43.0664 13.7813 43.0664 15.1594 43.05 16.5704C42.9844 19.4579 42.8859 22.3782 42.7547 25.2657C42.6234 28.2516 42.3773 31.254 42.2297 34.2399C42.1641 35.7001 41.9344 37.1602 41.7539 38.6204C41.6227 39.6704 41.9508 40.868 41.6555 41.9016C40.8516 42.2461 40.0312 42.5743 39.1945 42.8696C39.4242 41.7047 39.3258 40.343 39.3422 39.3915C39.375 37.9313 39.5883 36.4711 39.6867 35.011C39.8016 33.2555 39.8836 31.5001 39.9656 29.7446C40.3102 23.2805 41.3109 16.8329 41.4914 10.3688ZM14.1586 72.5813C9.81094 68.8899 7.05469 63.7219 5.62734 58.2587C4.87266 55.3876 4.54453 52.418 4.49531 49.4485C4.4625 47.9391 4.52813 46.4297 4.67578 44.9204C4.74141 44.1985 4.80703 43.4766 4.88906 42.7547C4.88906 42.7219 4.88906 42.6727 4.88906 42.6399C4.93828 42.2954 4.9875 41.9508 5.02031 41.6063C5.46328 40.4086 5.41406 39.0797 5.64375 37.8329C5.775 37.1602 5.93906 36.4876 6.08672 35.8149C6.11953 35.6836 6.13594 35.5196 6.15234 35.3719C6.21797 35.2079 6.3 35.0274 6.38203 34.8633C6.44766 34.6336 6.49688 34.3876 6.5625 34.1579C6.64453 34.0102 6.69375 33.8626 6.67734 33.7313C10.3852 21 22.9195 11.5008 35.8641 9.46645C37.193 9.25317 38.5383 9.13833 39.8836 9.10552C39.818 15.6188 38.7844 22.1157 38.407 28.629C38.2102 31.9102 38.1117 35.1915 37.7836 38.4727C37.6852 39.3915 37.718 40.3102 37.6688 41.229C37.6523 41.8032 37.6852 43.1649 37.1437 43.5258C36.2578 44.1165 37.1766 45.4782 38.0625 44.8876C38.0953 44.8711 38.1117 44.8547 38.1445 44.8383C38.2594 44.8547 38.3906 44.8547 38.5383 44.8219C40.1133 44.4118 41.5898 43.7555 43.0828 43.1157C44.6742 42.443 46.2656 41.918 47.9227 41.4751C51.3352 40.5563 54.5672 39.1454 58.0125 38.3415C59.6695 37.9641 61.3102 37.6032 62.918 37.0782C64.5914 36.5368 66.2484 35.9297 67.9383 35.4047C69.5789 34.8961 71.2523 34.486 72.9094 34.0594C74.107 33.7477 75.4195 33.7313 76.5844 33.3047C76.6336 33.3704 76.6828 33.436 76.7648 33.5016C77.0602 33.7641 77.3555 34.0266 77.6344 34.2891C81.6539 48.5954 72.5977 64.411 60.9328 72.6305C53.9766 77.5196 45.4945 79.8165 37.0453 79.8001C32.7633 79.7837 28.4977 79.111 24.3961 77.9133C20.6391 76.7977 17.1445 75.1243 14.1586 72.5813ZM78.8648 55.2235C76.2234 62.6063 72.1383 69.743 66.0844 74.829C59.7844 80.1118 51.6305 82.2118 43.5422 82.5235C38.407 82.7204 33.2227 82.0641 28.3172 80.5383C29.3344 80.7352 30.3516 80.8829 31.3687 81.0141C35.5523 81.5555 39.818 81.5227 44.0016 80.9157C52.3523 79.7016 60.1617 76.043 66.3305 70.2844C72.3023 64.7227 76.9945 57.5532 79.1437 49.6454C80.2758 45.4946 80.5219 41.2126 79.882 37.0782C80.0953 37.4391 80.2758 37.8165 80.4562 38.1938C81.1945 39.8836 81.4406 41.7047 81.4406 43.5258C81.4242 47.529 80.1938 51.5321 78.8648 55.2235Z" fill="#111111"/>
</g>
<defs>
<clipPath id="clip0">
<rect width="84" height="84" fill="white"/>
</clipPath>
</defs>
</svg>
