<svg width="84" height="84" viewBox="0 0 84 84" fill="none" xmlns="http://www.w3.org/2000/svg">
<path d="M54.2391 52.3357C54.0914 51.1052 52.8117 50.3341 51.6469 50.5638C50.4328 50.7935 49.5797 51.8107 49.6781 53.0576C49.6945 53.238 49.7438 53.3857 49.8258 53.5006C49.8258 53.599 49.8422 53.6974 49.8914 53.7795C50.4164 54.8295 51.45 55.2232 52.5492 54.8295C53.5664 54.4685 54.3703 53.4349 54.2391 52.3357ZM52.3524 52.8443C52.418 52.7295 52.2375 52.9591 52.2375 52.9591C52.2703 52.9263 52.057 53.074 52.0078 53.1068C51.9258 53.156 51.7617 53.1888 51.6141 53.2052C51.6797 53.2052 51.5649 53.156 51.5813 53.1888C51.5484 53.1232 51.5156 53.0576 51.4664 52.992C51.4664 52.9756 51.4664 52.9427 51.4664 52.9099C51.4336 52.3685 52.2867 52.0076 52.4672 52.5982C52.4836 52.631 52.4508 52.6802 52.3524 52.8443Z" fill="#111111"/>
<path d="M57.0609 50.7611C56.0109 48.1525 51.6961 46.9549 49.4977 48.7431C48.661 49.4158 47.9063 50.2197 47.25 51.0564C46.9711 51.4338 46.6922 51.8275 46.5117 52.2705C46.4953 52.3197 46.4625 52.5166 46.4461 52.5658C46.9875 52.9759 46.8727 53.7142 46.4789 54.0752C46.3641 55.4861 47.857 56.8314 48.9891 57.4384C50.2852 58.1275 51.8438 58.3572 53.2711 57.8814C54.8133 57.3728 55.9125 56.3556 56.6016 54.8791C57.1922 53.6486 57.6024 52.09 57.0609 50.7611Z" fill="white"/>
<path d="M57.6679 34.0427C57.6679 33.9443 57.6679 33.8459 57.6679 33.7474C57.6515 33.3209 57.6351 32.8943 57.6187 32.4841C57.5859 31.6474 57.5203 30.8107 57.4547 29.9576C57.3234 28.3005 57.1593 26.6435 56.9953 24.9701C56.782 22.7716 56.6836 20.6224 56.6672 18.4076C56.6672 16.7998 56.6343 15.1591 56.3882 13.5677C56.1914 12.3044 55.8797 10.7294 54.8953 9.8271C53.6976 8.71147 51.975 8.80991 50.4656 9.10522C48.6117 9.46616 46.8562 10.1552 45.0351 10.631C42.7547 11.2216 40.3265 11.4185 37.9968 11.7466C35.339 12.1076 32.6648 12.4685 30.007 12.8294C24.757 13.5185 19.4906 14.2076 14.257 14.9951C14.257 15.1755 14.175 15.3724 13.9945 15.5365C14.0109 15.5201 13.9453 15.6021 13.9617 15.5693C13.65 16.7669 13.8468 18.1123 13.9617 19.3263C14.0929 20.7537 14.2734 22.1646 14.4539 23.5755C14.7164 25.5935 14.7 27.6443 14.8148 29.6623C14.9625 32.3201 15.1757 34.9615 15.3562 37.6193C15.7007 42.9677 16.0945 48.2998 16.275 53.6646C16.357 56.3552 16.3242 59.0459 16.3898 61.7365C16.4226 63.0162 16.439 64.3123 16.6195 65.5755C16.7343 66.3466 16.8656 67.1013 16.882 67.8888C19.8515 69.1521 23.5265 67.6919 26.5453 67.2982C28.6945 67.0193 30.8437 66.7896 32.9929 66.4615C34.4367 66.2482 35.9953 66.2318 37.4554 65.9365C36.3234 64.8044 35.3554 63.5412 34.5515 62.1302C32.6812 58.8326 31.6968 55.174 31.139 51.4498C31.0734 51.0724 31.2375 50.7935 31.4836 50.6459C32.9109 45.9701 35.6672 41.8029 39.7359 39.0138C43.9523 36.1099 49.1367 34.6169 54.2554 34.7154C55.3711 34.7318 56.5031 34.8302 57.6187 34.9943C57.6023 34.8959 57.5695 34.8138 57.5531 34.7154C57.4547 34.4037 57.5203 34.1904 57.6679 34.0427ZM41.5898 33.6818C40.8515 33.8623 40.0804 33.9607 39.3586 34.1904C38.2757 34.5349 37.1929 34.8302 36.1265 35.2404C35.0109 35.6669 33.8953 36.0279 32.714 36.1919C31.5492 36.3396 31.4343 34.5513 32.5828 34.3873C33.5015 34.2724 34.3875 33.9771 35.257 33.649C36.0609 33.3373 36.8648 33.124 37.6851 32.8451C38.3906 32.6154 39.0961 32.3857 39.8343 32.238C40.1461 32.1724 40.4414 32.1068 40.7531 32.0412C40.8023 32.0248 40.9172 31.9919 40.9992 31.9591C41.3109 31.7294 41.7375 31.6802 42.1148 31.9755C42.8039 32.5334 42.3609 33.4849 41.5898 33.6818ZM43.05 27.4802C42.3609 27.5294 41.6882 27.7099 40.9828 27.6771C40.6218 27.6607 40.2609 27.5951 39.9328 27.4474C39.9164 27.4638 39.9 27.4802 39.8836 27.4966C39.7851 27.6115 39.6867 27.7263 39.5882 27.8576C39.3586 28.1693 39.1453 28.481 38.9156 28.7927C38.407 29.4818 37.7836 30.2857 36.9632 30.5974C36.0773 30.9255 35.175 30.6138 34.6664 29.8263C34.6172 29.7443 34.5679 29.6623 34.5351 29.5802C34.4203 29.7443 34.3054 29.9248 34.1742 30.0888C33.5836 30.8763 32.8289 31.9427 31.8281 32.1888C30.2695 32.5662 29.8265 31.2865 29.7445 29.8919C29.5968 30.138 29.4656 30.3677 29.3343 30.6302C29.3179 30.8763 29.2851 31.1224 29.2523 31.3685C29.0718 32.7302 28.8093 34.3873 27.7593 35.3716C27.1195 35.9951 26.0695 35.5193 26.2007 34.6005C26.414 33.124 26.8734 31.549 27.5625 30.1052C27.6445 29.0716 27.6609 28.0216 27.6609 26.9716C27.6609 25.8068 29.4656 25.6755 29.4656 26.8404C29.4656 26.9716 29.4656 27.0865 29.4656 27.2177C29.6461 27.0208 29.8265 26.824 30.0234 26.6435C30.532 26.1677 31.6148 26.3154 31.5984 27.1685C31.582 27.9724 31.4672 28.7599 31.5 29.5474C31.5164 29.7607 31.5 30.0724 31.5656 30.3185C31.5984 30.2857 31.6312 30.2693 31.6476 30.2693C32.9273 29.2193 33.6328 27.5951 34.6172 26.3154C35.0765 25.7248 36.2086 26.0693 36.1922 26.8404C36.1758 27.3982 36.0773 27.9888 36.1429 28.563C36.2086 29.006 36.225 29.0388 36.5695 28.7763C37.357 28.1529 37.7836 27.2177 38.4234 26.4794C39.0468 25.7412 39.9656 24.9044 40.7859 25.9052C40.6218 25.6919 40.8843 25.9052 41.032 25.9052C41.2617 25.9052 41.5078 25.8888 41.7375 25.856C42.1476 25.8068 42.5414 25.7248 42.9515 25.6919C44.0836 25.5935 44.2148 27.3818 43.05 27.4802Z" fill="white"/>
<path d="M49.1367 7.02203C48.7922 6.87437 48.2836 6.97281 47.9227 6.98922C47.5289 7.00562 47.1187 7.00562 46.725 7.02203C44.8547 7.12047 43.0172 7.35015 41.1797 7.57984C37.5867 8.0064 33.9773 8.35093 30.4008 8.84312C28.5469 9.08922 26.6601 9.33531 24.8391 9.76187C23.1 10.172 21.3773 10.615 19.6383 11.0416C17.9156 11.4681 16.193 11.8783 14.4867 12.3377C13.9289 12.4853 13.3711 12.633 12.7969 12.7642C13.0758 12.9447 13.2727 13.1744 13.4367 13.4369C13.5516 13.3384 13.7156 13.2564 13.9125 13.2236C22.1977 11.9767 30.532 10.9759 38.8336 9.81109C41.0484 9.49937 43.3125 9.3025 45.4617 8.64625C46.8891 8.21968 48.3 7.7275 49.7602 7.41578C49.5305 7.23531 49.35 7.10406 49.1367 7.02203ZM14.8148 65.9369C14.4375 63.4267 14.5523 60.8509 14.5195 58.308C14.5031 55.6173 14.4211 52.9103 14.2898 50.2197C14.0273 44.8877 13.6828 39.5392 13.2727 34.2072C12.9609 30.1384 12.9117 26.0697 12.4031 22.0173C12.2227 20.508 12.0258 18.9822 11.993 17.4564C11.9766 16.7509 11.9109 15.7173 12.2062 14.9462C12.0422 14.7986 11.9437 14.5853 11.8945 14.3556C11.8781 14.3392 11.8781 14.3228 11.8617 14.3064C11.9273 14.3884 11.8289 14.29 11.7797 14.2408C11.7633 14.2408 11.6977 14.208 11.6484 14.1916C11.632 14.1916 11.6156 14.1752 11.5664 14.1752C11.3859 14.1423 11.3039 14.1423 11.2055 14.1423C11.0414 14.1423 10.8773 14.1752 10.7297 14.1916C10.5164 14.2244 10.3195 14.1587 10.1391 14.0275C9.71249 16.1603 9.82734 18.3587 9.94218 20.5244C10.0734 22.8048 10.057 25.0689 10.1227 27.3494C10.1883 29.8595 10.3195 32.3697 10.5164 34.8798C10.7133 37.2587 10.7133 39.6705 10.7953 42.0494C10.9594 46.9712 11.1398 51.9095 11.7469 56.7986C12.0258 59.1119 12.6164 61.3267 13.0758 63.6236C13.2398 64.4275 13.0758 65.7892 13.7977 66.3306C14.1422 66.5931 14.5523 66.7736 14.9625 66.9376C14.9297 66.6259 14.8641 66.2814 14.8148 65.9369Z" fill="white"/>
<path d="M68.8242 44.1985C64.7062 37.2422 56.093 35.3883 48.6117 37.0618C44.9859 37.8657 41.4094 39.5391 38.6859 42.0985C35.9461 44.6743 34.0594 47.9227 33.0422 51.5321C33.0258 51.5977 32.993 51.6633 32.9601 51.729C34.0101 58.1438 36.668 64.493 42.7219 67.6266C49.5141 71.154 58.3242 70.875 64.4273 66.0024C70.7273 60.9985 73.0078 51.2696 68.8242 44.1985ZM59.0953 52.254C58.8984 56.0274 56.3062 59.5875 52.3359 59.8993C50.4492 60.0469 48.5953 59.5219 47.1187 58.3407C45.675 57.1922 44.3297 55.4368 44.7562 53.4844C44.7726 53.4188 44.7891 53.3532 44.8219 53.304C44.5758 52.7625 44.6414 52.1063 44.9039 51.4829C45.4289 50.2524 46.3969 49.1696 47.3648 48.2508C48.382 47.2829 49.3008 46.561 50.7117 46.2493C54.4195 45.4618 59.325 48.0704 59.0953 52.254Z" fill="white"/>
<path d="M50.7117 46.2493C49.3008 46.5446 48.3656 47.2665 47.3649 48.2509C46.4133 49.1696 45.4453 50.2524 44.9039 51.4829C44.625 52.1227 44.5758 52.7626 44.8219 53.304C44.8055 53.3532 44.7727 53.4188 44.7563 53.4845C44.3297 55.4368 45.675 57.1759 47.1188 58.3407C48.5953 59.522 50.4492 60.047 52.3359 59.8993C56.2899 59.5876 58.882 56.0274 59.0953 52.254C59.325 48.0704 54.4195 45.4618 50.7117 46.2493ZM56.618 54.8954C55.9453 56.3556 54.8297 57.3892 53.2875 57.8977C51.8766 58.3571 50.3016 58.1438 49.0055 57.4548C47.8734 56.8478 46.3805 55.5024 46.4953 54.0915C46.8891 53.7306 46.9875 52.9923 46.4625 52.5821C46.4789 52.5493 46.5117 52.336 46.5281 52.2868C46.6922 51.8438 46.9711 51.4501 47.2664 51.0727C47.9063 50.2196 48.6773 49.4321 49.5141 48.7595C51.7125 46.9712 56.0273 48.1852 57.0773 50.7774C57.6024 52.0899 57.1922 53.6485 56.618 54.8954Z" fill="#111111"/>
<path d="M71.9578 46.9714C70.8586 43.1323 68.3484 39.8675 65.0344 37.6855C63.3117 36.5534 61.3922 35.7987 59.3906 35.323C59.5875 34.9292 59.4727 34.3222 59.4727 33.912C59.4562 33.2722 59.4398 32.6487 59.407 32.0089C59.3414 30.6472 59.2266 29.2854 59.0953 27.9237C58.882 25.594 58.5375 23.2315 58.4719 20.8854C58.3898 17.8175 58.6031 14.7331 57.832 11.7144C57.4875 10.369 56.8477 9.02373 55.732 8.1542C54.6656 7.31748 53.3367 7.07139 52.0242 7.08779C52.0078 7.05498 51.975 7.03857 51.9422 7.00576C51.3844 6.54639 50.9086 6.00498 50.318 5.61123C49.6781 5.18467 49.1039 5.15186 48.3656 5.15186C46.5281 5.15186 44.6906 5.29951 42.8695 5.51279C39.0797 5.97217 35.2734 6.36592 31.4836 6.8417C29.6461 7.07139 27.8086 7.35029 25.9711 7.66201C24.0516 7.99014 22.1484 8.53154 20.2453 8.99092C18.4898 9.43389 16.7016 9.79482 14.9625 10.287C13.207 10.7792 11.468 11.3042 9.61406 11.2058C8.79375 11.1565 8.62969 12.0589 9.02344 12.6167C8.76094 12.7151 8.54765 12.912 8.46562 13.2565C7.94062 15.4878 8.00625 17.8011 8.12109 20.0651C8.25234 22.5425 8.26875 25.0034 8.33437 27.4808C8.4 29.9909 8.53125 32.5011 8.72812 35.0112C8.925 37.6034 8.9414 40.212 9.03984 42.8206C9.22031 47.9558 9.45 53.0909 10.1391 58.1933C10.4672 60.605 11.3203 62.9511 11.5172 65.3792C11.5992 66.3144 11.9273 67.069 12.6328 67.7089C13.3383 68.3487 14.3719 68.5948 15.1922 69.0542C15.2578 69.087 15.3234 69.1198 15.3891 69.1362C15.4219 69.169 15.4711 69.2019 15.5203 69.2183C18.7852 71.0065 22.7555 69.694 26.168 69.1362C28.35 68.7753 30.5812 68.6276 32.7633 68.2831C34.8141 67.9714 37.0453 68.0042 39.0305 67.3479C40.1133 68.2175 41.3109 68.9558 42.5742 69.5792C49.4977 72.9589 58.1109 72.5487 64.5258 68.2011C71.2687 63.6073 74.1891 54.7479 71.9578 46.9714ZM14.4539 12.3214C16.1602 11.862 17.8828 11.4519 19.6055 11.0253C21.3445 10.5987 23.0672 10.1558 24.8062 9.74561C26.6437 9.31904 28.5141 9.07295 30.368 8.82686C33.9609 8.33467 37.5539 7.99014 41.1469 7.56357C43.0008 7.35029 44.8383 7.1042 46.6922 7.00576C47.0859 6.98936 47.4961 6.97295 47.8898 6.97295C48.2508 6.95654 48.7594 6.87451 49.1039 7.00576C49.3172 7.08779 49.5141 7.23545 49.6945 7.38311C48.2344 7.69482 46.807 8.18701 45.3961 8.61357C43.2469 9.26982 40.9992 9.4667 38.768 9.77842C30.4992 10.9597 22.1648 11.9769 13.8797 13.2073C13.6828 13.2401 13.5352 13.3058 13.4039 13.4206C13.2562 13.1581 13.043 12.9284 12.7641 12.7479C13.3383 12.6331 13.8961 12.4854 14.4539 12.3214ZM13.8141 66.3636C13.0922 65.8222 13.2562 64.4604 13.0922 63.6565C12.6328 61.3761 12.0586 59.1612 11.7633 56.8315C11.1562 51.9425 10.9758 47.0042 10.8117 42.0823C10.7297 39.687 10.7133 37.2917 10.5328 34.9128C10.3359 32.4026 10.2047 29.8925 10.1391 27.3823C10.0734 25.1019 10.0898 22.8214 9.95859 20.5573C9.84375 18.3917 9.72891 16.1933 10.1555 14.0604C10.3195 14.1917 10.5328 14.2573 10.7461 14.2245C10.9102 14.1917 11.0578 14.1753 11.2219 14.1753C11.3203 14.1753 11.3859 14.1753 11.5828 14.2081C11.632 14.2245 11.6648 14.2245 11.6648 14.2245C11.7141 14.2409 11.7797 14.2737 11.7961 14.2737C11.8453 14.3229 11.9437 14.4214 11.8781 14.3394C11.8945 14.3558 11.9109 14.3722 11.9109 14.3886C11.9602 14.6183 12.075 14.8315 12.2227 14.9792C11.9273 15.7503 11.993 16.7839 12.0094 17.4894C12.0422 19.0151 12.2227 20.5409 12.4195 22.0503C12.9281 26.1026 12.9609 30.1714 13.2891 34.2401C13.6992 39.5722 14.0437 44.9206 14.3062 50.2526C14.4375 52.9433 14.5195 55.6503 14.5359 58.3409C14.5523 60.8675 14.4539 63.4597 14.8312 65.9698C14.8805 66.3144 14.9461 66.6589 14.9953 67.0034C14.5687 66.8065 14.1586 66.6261 13.8141 66.3636ZM32.9437 66.4292C30.7945 66.7573 28.6453 66.9706 26.4961 67.2659C23.4773 67.6597 19.8023 69.1034 16.8328 67.8565C16.8164 67.0855 16.6852 66.3308 16.5703 65.5433C16.3898 64.28 16.3734 62.9675 16.3406 61.7042C16.275 59.0136 16.3078 56.3229 16.2258 53.6323C16.0617 48.2839 15.668 42.9355 15.307 37.587C15.1266 34.9292 14.9133 32.2878 14.7656 29.63C14.6508 27.612 14.6672 25.5448 14.4047 23.5433C14.2242 22.1323 14.0437 20.7214 13.9125 19.294C13.7977 18.0964 13.6172 16.7347 13.9125 15.537C13.9125 15.5698 13.9617 15.4878 13.9453 15.5042C14.1258 15.3237 14.2078 15.1433 14.2078 14.9628C19.4578 14.1753 24.7078 13.4862 29.9578 12.7972C32.6156 12.4362 35.2898 12.0917 37.9477 11.7144C40.2773 11.3862 42.7055 11.1894 44.9859 10.5987C46.807 10.1229 48.5625 9.43389 50.4164 9.07295C51.9258 8.77764 53.6484 8.6792 54.8461 9.79482C55.8305 10.6972 56.1422 12.2886 56.3391 13.5354C56.5852 15.1269 56.618 16.7675 56.618 18.3753C56.618 20.5901 56.7328 22.7394 56.9461 24.9378C57.1102 26.5948 57.2742 28.2519 57.4055 29.9253C57.4711 30.762 57.5203 31.5987 57.5695 32.4519C57.5859 32.8784 57.6023 33.305 57.6188 33.7151C57.6188 33.8136 57.6188 33.912 57.6188 34.0105C57.4875 34.1581 57.4219 34.3878 57.4711 34.6667C57.4875 34.7651 57.5039 34.8636 57.5367 34.9456C56.4211 34.7815 55.2891 34.6831 54.1734 34.6667C49.0547 34.5683 43.8703 36.0612 39.6539 38.9651C35.5852 41.7706 32.8289 45.9378 31.4016 50.5972C31.1555 50.7448 30.9914 51.0073 31.057 51.4011C31.6148 55.1253 32.5992 58.7839 34.4695 62.0815C35.2734 63.4925 36.2414 64.7558 37.3734 65.8878C35.9461 66.1995 34.3875 66.2159 32.9437 66.4292ZM64.4273 66.0026C58.3242 70.8589 49.5141 71.1542 42.7219 67.6269C36.668 64.4769 34.0102 58.1276 32.9602 51.7292C32.993 51.6636 33.0258 51.5979 33.0422 51.5323C34.0594 47.923 35.9461 44.6745 38.6859 42.0987C41.4094 39.5394 44.9859 37.8823 48.6117 37.062C56.093 35.3886 64.7062 37.2425 68.8242 44.1987C73.0078 51.2698 70.7273 60.9987 64.4273 66.0026Z" fill="#111111"/>
<path d="M42.9187 25.6755C42.5086 25.7083 42.1148 25.7903 41.7047 25.8395C41.475 25.8723 41.2289 25.8887 40.9992 25.8887C40.8516 25.8887 40.5726 25.6755 40.7531 25.8887C39.9492 24.888 39.0305 25.7247 38.3906 26.463C37.7508 27.2012 37.3242 28.1528 36.5367 28.7598C36.1922 29.0223 36.1758 28.9895 36.1102 28.5466C36.0445 27.9887 36.143 27.3981 36.1594 26.8239C36.1758 26.0528 35.0437 25.7083 34.5844 26.2989C33.5836 27.5786 32.8781 29.2028 31.6148 30.2528C31.6148 30.2528 31.582 30.2856 31.5328 30.302C31.4672 30.0559 31.4836 29.7278 31.4672 29.5309C31.4344 28.727 31.5492 27.9395 31.5656 27.152C31.582 26.2825 30.4992 26.1512 29.9906 26.627C29.7937 26.8075 29.6133 27.0044 29.4328 27.2012C29.4328 27.07 29.4328 26.9552 29.4328 26.8239C29.4328 25.6591 27.6281 25.8067 27.6281 26.9552C27.6281 28.0052 27.6117 29.0387 27.5297 30.0887C26.8406 31.5325 26.3812 33.1075 26.168 34.5841C26.0367 35.5028 27.0867 35.9622 27.7266 35.3552C28.7602 34.3544 29.0391 32.6973 29.2195 31.352C29.2523 31.1059 29.2852 30.8598 29.3016 30.6137C29.4328 30.3677 29.5641 30.1216 29.7117 29.8755C29.7937 31.27 30.2367 32.5497 31.7953 32.1723C32.8125 31.9262 33.5672 30.8598 34.1414 30.0723C34.2727 29.9083 34.3875 29.7278 34.5023 29.5637C34.5352 29.6458 34.5844 29.7278 34.6336 29.8098C35.1422 30.5973 36.0445 30.9091 36.9305 30.5809C37.7672 30.2692 38.3742 29.4653 38.8828 28.7762C39.1125 28.4645 39.3258 28.1528 39.5555 27.8411C39.6539 27.7098 39.7359 27.595 39.8508 27.4802C39.8672 27.4637 39.8836 27.4473 39.9 27.4309C40.2281 27.5786 40.5891 27.6442 40.95 27.6606C41.6555 27.6934 42.3281 27.513 43.0172 27.4637C44.2148 27.3817 44.0836 25.5934 42.9187 25.6755ZM42.0984 31.9755C41.7211 31.6637 41.2945 31.7294 40.9828 31.9591C40.9008 31.9919 40.7859 32.0247 40.7367 32.0411C40.425 32.1067 40.1133 32.1559 39.818 32.238C39.0961 32.402 38.3906 32.6153 37.6687 32.845C36.8484 33.1075 36.0445 33.3372 35.2406 33.6489C34.3711 33.977 33.4852 34.2723 32.5664 34.3872C31.418 34.5348 31.5492 36.3395 32.6977 36.1919C33.8789 36.0278 34.9945 35.6669 36.1102 35.2403C37.1766 34.8302 38.2594 34.5348 39.3422 34.1903C40.0641 33.9606 40.8351 33.8622 41.5734 33.6817C42.3609 33.4848 42.8039 32.5333 42.0984 31.9755Z" fill="#111111"/>
</svg>
