<svg width="84" height="84" viewBox="0 0 84 84" fill="none" xmlns="http://www.w3.org/2000/svg">
<path d="M59.2077 54.1043C57.5487 52.6291 56.1907 49.7661 55.6307 47.6188C56.784 47.4753 59.801 46.7491 60.886 46.3308C63.2992 45.3963 66.0817 43.9263 68.2395 42.4983C74.9437 38.0638 75.817 30.4671 75.852 24.8303C75.887 19.1918 71.5978 13.3906 66.1955 11.7753C63.994 11.1173 61.6297 11.1821 59.367 11.5741C52.619 12.7431 46.4835 16.8696 42.6457 22.5431C41.2667 24.5836 40.194 26.8148 39.4135 29.1476C37.4062 28.6768 34.9772 28.0731 34.1127 27.6373C33.1677 27.1613 32.3032 26.5383 31.4685 25.8873C30.2907 24.9703 29.0027 23.8521 27.923 22.8196C29.5452 20.4641 32.9367 15.3663 34.559 13.0091C34.9107 12.4998 35.2782 11.9153 35.1627 11.3081C28.0227 11.9766 15.4192 13.1123 8.24775 13.0091C8.26 20.9733 9.71775 32.7876 8.24425 40.6136C10.612 39.3816 15.6327 35.9411 18.0005 34.7091C18.431 35.6471 19.4022 36.8003 19.992 37.6491C22.211 40.8376 26.3322 44.1573 29.0237 45.4418C31.1325 46.4481 35.0875 47.0606 36.7692 47.2793C37.0212 47.3126 37.772 47.2881 38.521 47.2653C38.6977 48.4221 38.9795 49.7661 39.4817 51.4076C42.4812 61.1848 43.6205 62.2716 49.5075 67.7403C52.304 70.3373 56.5897 72.4286 60.809 73.7918C64.1147 74.8611 69.923 75.2111 73.6925 75.2111C73.7415 70.3216 74.3785 61.9268 74.4257 57.0391C69.5677 56.7118 63.8015 58.1871 59.2077 54.1043ZM54.915 29.6446C55.8425 28.4896 57.26 27.6671 58.7475 27.7021C59.0275 27.7196 59.3075 27.7546 59.5525 27.8771C60.3225 28.3146 60.3225 29.4521 59.9025 30.2396C59.5875 30.8346 58.835 31.8496 57.1725 32.2346C56.0875 32.4971 54.6175 31.9371 53.8125 31.5871C54.0925 30.8871 54.4425 30.2221 54.915 29.6446Z" fill="white"/>
<path d="M74.487 56.1663C73.2672 56.084 71.9723 56.1138 70.728 56.14C66.9305 56.2205 63.0088 56.3115 59.7888 53.4503C58.471 52.2778 57.3667 50.1305 56.7542 48.3123C58.1892 48.0288 60.2735 47.5038 61.2027 47.1433C63.6142 46.2088 66.4248 44.744 68.7208 43.2268C75.8223 38.5298 76.692 30.4798 76.727 24.8325C76.7655 18.774 72.2488 12.67 66.4475 10.934C64.3405 10.3075 61.9763 10.2305 59.2183 10.7118C52.3898 11.8948 45.9235 16.1333 41.9212 22.05C40.6245 23.968 39.5955 26.0785 38.8045 28.2923C38.7327 28.2503 38.6645 28.2065 38.5805 28.1855C37.1962 27.8425 35.7647 27.4873 34.5082 26.8538C33.586 26.3865 32.725 25.7548 32.0057 25.1965C31.059 24.458 30.016 23.569 29.0692 22.694C29.8532 21.546 30.8945 19.9973 31.9392 18.445C33.201 16.5708 34.4645 14.6895 35.2817 13.5048C35.63 12.999 36.2162 12.1503 36.0237 11.1423C35.938 10.7013 35.5513 10.3933 35.0823 10.4353C29.8078 10.9323 15.8007 12.2798 8.26175 12.1345C8.05175 12.1258 7.8015 12.2238 7.63525 12.3883C7.469 12.551 7.3745 12.7768 7.3745 13.0113C7.37975 15.5313 7.525 18.4048 7.68075 21.4463C8.008 27.8863 8.379 35.1855 7.38675 40.4513C7.3255 40.7803 7.455 41.1163 7.7245 41.3158C7.994 41.5153 8.35275 41.5433 8.6485 41.3893C9.86475 40.7575 11.76 39.5588 13.5905 38.4003C15.0412 37.4833 16.534 36.54 17.6592 35.8943C17.9795 36.4 18.3592 36.9093 18.711 37.38C18.9157 37.6513 19.1117 37.912 19.2745 38.1465C21.6265 41.5293 25.886 44.912 28.6475 46.2298C30.919 47.313 35.0052 47.9308 36.6555 48.146L37.8087 48.2948C37.996 49.2818 38.2567 50.3878 38.647 51.66C41.727 61.7033 42.966 62.853 48.9142 68.3778C51.5567 70.833 55.685 73.052 60.543 74.6218C63.8785 75.6998 69.7113 76.083 73.6943 76.083C74.1738 76.083 74.564 75.6963 74.5693 75.2168C74.5938 72.7965 74.767 69.4383 74.935 66.1903C75.1048 62.9073 75.2797 59.514 75.3042 57.0448C75.3095 56.5845 74.9507 56.196 74.487 56.1663ZM36.883 46.4118C35.6597 46.2525 31.5052 45.6558 29.4035 44.653C26.9027 43.4595 22.8707 40.25 20.7112 37.1508C20.5362 36.8988 20.3297 36.6223 20.1145 36.3318C19.6227 35.6755 19.0645 34.93 18.7967 34.3455C18.697 34.1268 18.5132 33.9588 18.2857 33.8818C18.06 33.803 17.8115 33.8205 17.598 33.9325C16.3817 34.5643 14.4865 35.763 12.656 36.9215C11.5272 37.6338 10.3757 38.3618 9.3905 38.955C10.0572 33.7278 9.723 27.1933 9.42725 21.3535C9.2925 18.69 9.16125 16.1525 9.1315 13.8915C9.1455 13.8915 9.15775 13.8915 9.17 13.8915C16.3887 13.8915 28.231 12.8345 33.9867 12.299C33.9342 12.3795 33.8817 12.453 33.8397 12.516C33.0207 13.7043 31.7538 15.5908 30.4885 17.4703C29.246 19.3165 28.007 21.1575 27.2037 22.3248C26.9605 22.6783 27.0112 23.156 27.3192 23.4535C28.4375 24.5228 29.7552 25.6638 30.9312 26.579C31.7152 27.1898 32.662 27.8863 33.7207 28.4183C35.1505 29.1393 36.6782 29.519 38.1587 29.8865C38.2007 29.897 38.241 29.8883 38.283 29.8918C37.1175 33.8503 36.7395 38.0888 37.282 42.2485C37.3362 42.658 37.345 43.1183 37.3572 43.6608C37.373 44.408 37.3992 45.3408 37.5322 46.4958L36.883 46.4118ZM73.1867 66.101C73.038 68.9955 72.884 71.9775 72.8332 74.3295C69.0427 74.2805 63.9975 73.9008 61.082 72.9593C56.4637 71.4648 52.5665 69.3823 50.106 67.0968C44.3082 61.7138 43.2653 60.7425 40.32 51.149C39.1912 47.4688 39.1422 45.2445 39.1072 43.6205C39.0932 43.0045 39.0792 42.483 39.0197 42.0193C38.1447 35.336 39.7303 28.4148 43.3703 23.03C47.1118 17.5 53.1475 13.538 59.5175 12.4338C60.6112 12.2448 61.6315 12.1503 62.5887 12.1503C63.8032 12.1503 64.9162 12.3025 65.9452 12.6123C70.959 14.1103 75.012 19.5878 74.977 24.8238C74.942 30.0685 74.158 37.534 67.7565 41.769C65.5917 43.2005 62.8372 44.6355 60.571 45.5158C59.7047 45.8518 57.5627 46.3803 56.2432 46.6305C55.0567 42.7823 53.515 37.6495 54.1275 33.8608C54.1905 33.4688 54.2728 33.0995 54.369 32.746C55.1968 33.0365 55.923 33.1818 56.553 33.1818C56.8295 33.1818 57.085 33.1503 57.3265 33.0943C57.344 33.0908 57.3597 33.096 57.3772 33.0925C57.4052 33.0855 57.4227 33.0733 57.449 33.0663C57.897 32.956 58.2925 32.8073 58.6372 32.6323C58.6652 32.6183 58.6933 32.6043 58.7195 32.5885C59.0573 32.4083 59.3478 32.2053 59.5945 31.9935C59.6225 31.969 59.647 31.948 59.675 31.9235C59.8937 31.7275 60.0758 31.528 60.228 31.3355C60.2788 31.2708 60.3207 31.2148 60.3645 31.1535C60.4555 31.0258 60.5325 30.9068 60.5972 30.7948C60.6217 30.7528 60.6637 30.6985 60.6847 30.66C61.2377 29.6328 61.2308 28.2065 60.3698 27.4085C60.2455 27.2913 60.1037 27.1863 59.9427 27.0953C59.7432 26.9973 59.542 26.936 59.3425 26.8975C59.213 26.8713 59.1098 26.866 58.9978 26.8573C58.9225 26.8503 58.8455 26.8345 58.772 26.831C57.0885 26.8433 55.4103 27.6395 54.2413 29.0955C54.1643 29.19 54.1013 29.3073 54.0295 29.407C53.8825 29.61 53.732 29.8095 53.6025 30.0335C53.473 30.2575 53.3575 30.52 53.2402 30.772C53.1877 30.8875 53.1265 30.9925 53.0775 31.1133C53.0547 31.1675 53.0267 31.2095 53.004 31.2655C52.9847 31.311 52.9883 31.36 52.9778 31.4055C52.731 32.074 52.5297 32.7915 52.402 33.5825C51.7072 37.8718 53.417 43.4053 54.6647 47.4478L54.7977 47.88L54.7995 47.8818C55.3962 50.148 56.8085 53.1423 58.6302 54.7628C58.6302 54.7645 58.6302 54.7645 58.6302 54.7645C62.363 58.0808 66.8342 57.9775 70.77 57.8953C71.7342 57.8725 72.6565 57.855 73.5455 57.8778C73.4913 60.2088 73.3372 63.1995 73.1867 66.101ZM55.0585 31.0118C55.2037 30.751 55.3612 30.513 55.5275 30.2995C55.5537 30.2663 55.573 30.226 55.5992 30.1928C55.6342 30.149 55.678 30.1175 55.7147 30.0755C56.5285 29.1393 57.6748 28.5985 58.6688 28.5793C58.6863 28.5793 58.7055 28.581 58.7247 28.581C58.9137 28.5863 59.0485 28.609 59.122 28.6493C59.1833 28.6825 59.2287 28.7455 59.2602 28.826C59.3512 29.0763 59.3093 29.4945 59.1308 29.8305C58.8385 30.3783 58.2277 31.094 56.966 31.3845C56.6912 31.4563 56.0962 31.4843 55.0095 31.115C55.027 31.0818 55.041 31.0433 55.0585 31.0118Z" fill="#111111"/>
</svg>
