<svg width="84" height="84" viewBox="0 0 84 84" fill="none" xmlns="http://www.w3.org/2000/svg">
<path d="M45.0188 12.3046C44.986 11.6812 44.9203 11.0577 44.8055 10.4343C44.7891 10.3194 44.7563 10.1882 44.7235 10.0733C44.6906 10.0405 44.625 9.94209 44.5266 9.90928C44.4117 9.84365 44.2969 9.79443 44.182 9.74521C43.5258 9.51553 42.7875 9.46631 42.0985 9.4499C41.4422 9.4335 40.7696 9.4335 40.1133 9.41709C39.5883 9.40068 38.9321 9.31865 38.4235 9.49912C37.9313 9.66318 37.8492 10.1062 37.8492 10.6147C37.8492 11.4351 37.8328 12.2718 38.0461 13.0757C40.3758 13.1085 42.7055 13.1413 45.0352 13.2069C45.0352 12.8952 45.0352 12.5999 45.0188 12.3046ZM46.7086 39.2108C46.643 38.7515 46.5446 38.2921 46.5281 37.8327C46.5117 36.553 46.3969 35.2897 46.3641 34.0101C44.6578 34.0265 42.9516 34.0593 41.2453 34.1085C41.8852 36.1757 41.918 38.3413 41.918 40.4905C43.1321 40.4741 44.3625 40.4577 45.5766 40.4577C45.9539 40.4577 46.3313 40.4577 46.7086 40.4577C46.725 40.4085 46.7414 40.3593 46.7742 40.2937C46.9219 40.0476 46.7578 39.4733 46.7086 39.2108ZM48.3492 60.3749C47.8406 60.4077 47.3156 60.4405 46.807 60.4733C45.1008 60.5718 43.411 60.6866 41.7047 60.7851C41.7539 60.8835 41.7867 61.0148 41.7867 61.146C41.8195 65.0015 43.0336 68.7093 43.2797 72.5483C43.4766 75.6491 43.9196 78.8648 43.3125 81.9491C43.4766 81.9819 43.6406 81.9983 43.8211 81.9983C44.6086 82.0147 45.4125 81.9655 46.2 81.8671C47.2008 81.7358 48.2016 81.5882 49.186 81.3585C49.1039 74.353 48.3821 67.364 48.3492 60.3749ZM67.7742 51.7452C67.5117 49.2843 68.0203 46.7741 67.643 44.3132C67.4461 43.0171 66.9047 42.0983 65.543 41.9507C64.05 41.7702 62.4914 42.0491 60.9985 42.0983C58.3571 42.1804 55.7156 42.2296 53.0578 42.246C47.7422 42.2788 42.4102 42.2296 37.0946 42.3116C34.5188 42.3608 31.943 42.4101 29.3672 42.4101C26.9883 42.4101 24.6094 42.4593 22.2797 42.8858C21.3446 45.0515 19.0313 46.528 17.2922 47.9882C16.4063 48.7429 15.4219 49.3827 14.5196 50.121C14.0274 50.5148 13.5516 50.9413 13.1414 51.4171C12.961 51.6304 12.518 52.0569 12.5672 52.3687C12.6164 52.7624 13.9289 53.0249 14.2242 53.1069C15.1922 53.3858 16.111 53.6976 17.0133 54.1405C18.293 54.764 19.5399 55.4202 20.7047 56.2405C21.7875 56.9952 22.6242 58.1273 23.9039 58.603C24.0516 58.6687 24.1664 58.7507 24.2485 58.8491C27.9071 58.8655 31.5492 59.1937 35.2078 59.1937C39.0305 59.1772 42.8531 58.9147 46.6594 58.6851C53.911 58.2421 61.0805 57.3397 68.168 55.7647C68.1024 54.403 67.9055 53.0741 67.7742 51.7452ZM46.4297 50.564C46.3313 50.9413 46.0852 51.253 45.6914 51.3843C45.5602 51.4335 45.4125 51.4663 45.2649 51.4663C45.15 51.4663 45.0352 51.4499 44.9203 51.4499C44.7891 51.4499 44.7235 51.4171 44.5758 51.3679C44.3789 51.3022 44.1821 51.1874 44.0508 51.0233C43.9196 50.9577 43.8211 50.8593 43.7391 50.7444C43.5586 50.4819 43.5258 50.121 43.6735 49.8421C43.7883 49.6124 43.9524 49.4155 44.1656 49.2515C44.5758 48.9398 45.232 48.9069 45.675 49.1858C45.8883 49.3171 46.0852 49.4647 46.2328 49.6944C46.3969 49.9241 46.5117 50.2523 46.4297 50.564ZM75.8953 20.2124C75.3867 19.6054 74.9602 18.9327 74.4844 18.2929C74.0742 17.7515 73.5656 17.0132 72.8602 16.8163C72.5649 16.7343 72.368 16.5538 72.2696 16.3241C71.9414 16.2749 71.6297 16.2421 71.3016 16.2257C70.6781 16.1929 70.0383 16.1765 69.3985 16.1765C67.3313 16.1765 65.2313 15.9304 63.1641 15.7827C52.418 15.0772 41.6227 14.7983 30.8438 14.8147C29.4328 14.8147 28.0383 14.8312 26.6274 14.8968C25.8399 14.9296 25.0524 15.028 24.2649 15.0116C23.1164 14.9788 21.9516 14.9132 20.8031 14.864C19.3594 14.8147 17.9156 14.7491 16.4719 14.7819C15.8813 14.7983 15.2906 14.7983 14.7164 14.864C14.618 14.8804 14.5196 14.8804 14.4047 14.8968C14.3719 14.8968 14.3391 14.9132 14.3227 14.9132H14.3063C13.9125 17.3085 13.8469 19.7366 13.7977 22.1483C13.7649 23.7233 13.6992 25.2983 13.7321 26.8733C13.7649 28.3007 13.7977 29.728 13.7156 31.139C13.6992 31.4343 13.6828 31.828 13.6336 32.2382C17.8336 33.1405 22.1649 32.4187 26.4141 32.4022C28.9078 32.3858 31.418 32.4679 33.9117 32.4679C36.4711 32.4679 39.0305 32.3202 41.5735 32.2546C46.7906 32.1069 52.0078 32.1233 57.2086 32.3694C59.7516 32.4843 62.2946 32.6976 64.8375 32.8124C66.0188 32.8616 67.2164 32.8452 68.3977 32.9108C69.4477 32.9765 70.4813 33.1569 71.5149 33.1897C72.3024 32.796 72.9422 31.9921 73.5 31.3358C74.1071 30.6304 74.6813 29.9085 75.2719 29.203C76.6828 27.546 78.3071 26.0202 79.4555 24.1499C78.3891 22.7882 77.0438 21.5905 75.8953 20.2124ZM45.0516 23.1655C44.9039 23.6905 44.5266 24.1991 43.9852 24.3468C43.9196 24.4124 43.8375 24.4452 43.7555 24.478C43.6571 24.5272 43.5258 24.5437 43.411 24.5601C43.0172 24.6257 42.6563 24.3468 42.5086 24.0022C42.3446 23.871 42.2133 23.7069 42.0985 23.5101C41.8688 23.0835 41.9016 22.5585 42.3446 22.2632C42.5578 22.1155 42.8696 22.0827 43.1485 22.1483C43.2141 22.1155 43.2633 22.0827 43.3289 22.0663C43.6735 21.9679 43.9852 22.0007 44.3297 22.1155C44.7727 22.2468 45.1992 22.6405 45.0516 23.1655Z" fill="white"/>
<path d="M81.3258 23.6251C80.0461 21.8532 78.3398 20.4751 77.0273 18.736C76.1578 17.5876 75.3867 16.2094 74.1562 15.4548C74.1234 15.3235 74.0578 15.1923 73.9429 15.0774C73.582 14.6673 72.8929 14.5852 72.3679 14.5032C71.5476 14.3884 70.6945 14.3719 69.8742 14.3555C67.6429 14.3227 65.4281 14.1094 63.1968 13.9782C57.8812 13.6337 52.5328 13.4532 47.2172 13.2563C47.1023 13.2563 46.9711 13.2563 46.8562 13.2399C46.9711 12.0751 46.7086 10.779 46.4789 9.74538C46.0687 7.87507 43.7062 7.71101 42.1476 7.64538C40.589 7.57976 38.6203 7.28445 37.2094 8.05554C36.4383 8.4821 36.1265 9.41726 36.0609 10.2376C35.9953 11.1399 35.9953 12.1079 36.1758 13.0266C34.4695 13.0102 32.7469 13.0102 31.0406 12.9938C29.7445 12.9938 28.4484 13.0102 27.1523 13.043C26.1844 13.0759 25.2 13.2071 24.232 13.1907C23.1 13.1579 21.9844 13.0923 20.8523 13.043C19.1953 12.9774 17.5383 12.9118 15.8976 12.961C15.0281 12.9774 13.5679 12.9118 12.9609 13.6829C12.7804 13.7977 12.6492 13.9782 12.6 14.2571C12.2062 16.5048 12.1078 18.7852 12.0422 21.0657C11.9929 22.8376 11.8945 24.6259 11.9437 26.3813C11.9765 27.5954 12.0094 28.793 11.9929 30.0071C11.9765 30.5649 11.9601 31.1391 11.8945 31.6969C11.8617 31.943 11.8289 32.1727 11.7633 32.4024C11.7633 32.4024 11.7633 32.4024 11.7633 32.4188C10.8773 32.993 11.8453 34.3712 12.8297 33.879C17.1445 34.9454 21.6726 34.2891 26.0531 34.1907C28.514 34.1415 30.9914 34.2399 33.4687 34.2563C35.4867 34.2727 37.5047 34.1907 39.5226 34.1251C39.4898 34.2563 39.5062 34.404 39.5554 34.568C40.1625 36.4712 40.1625 38.4891 40.1625 40.4743C36.7172 40.5235 33.2719 40.5891 29.8265 40.5727C27.2015 40.5563 24.5437 40.5891 21.9515 41.0813C21.7054 41.1305 21.525 41.2454 21.4101 41.393C21.1312 41.4094 20.8687 41.5571 20.7211 41.9016C20.2453 43.0993 19.2281 43.9852 18.2601 44.7891C17.2594 45.6258 16.275 46.479 15.2414 47.2665C14.2078 48.0376 13.1742 48.7923 12.2554 49.6946C11.5008 50.4165 10.6312 51.4829 10.7953 52.5985C11.0742 54.5837 13.7976 54.6657 15.225 55.2563C16.7179 55.8798 18.1781 56.6508 19.5234 57.5532C20.7539 58.3899 21.6726 59.6368 23.1 60.1782C23.182 60.211 23.2476 60.2274 23.3297 60.2274C23.4937 60.4407 23.7398 60.5883 24.0679 60.5883C27.8414 60.5883 31.5984 60.9329 35.3719 60.9329C36.9469 60.9329 38.5219 60.8837 40.0969 60.818C40.0312 60.9329 39.9984 61.0805 39.9984 61.2446C40.0312 64.9196 41.0648 68.4633 41.4422 72.0891C41.6062 73.6805 41.6883 75.2883 41.7539 76.8798C41.8195 78.2743 41.8359 79.6688 41.6226 81.0469C41.5406 81.1618 41.4914 81.3094 41.475 81.4735C41.1797 81.6704 41.0156 82.0313 41.1961 82.4579C41.8359 84.0001 44.1 83.8032 45.4453 83.6883C47.0859 83.5571 48.7922 83.2782 50.3836 82.8352C50.7937 82.7204 50.9906 82.2938 50.9906 81.9165C50.9742 74.6649 50.2195 67.4298 50.1703 60.1618C56.6508 59.6368 63.0492 58.7016 69.4148 57.2415C69.825 57.143 70.0218 56.7001 70.0218 56.3227C69.989 53.6649 69.4148 51.0727 69.5133 48.4149C69.5789 46.3969 69.8414 44.1329 68.939 42.2462C67.5609 39.3423 63.9843 40.0805 61.3758 40.2118C57.1429 40.4251 52.8773 40.4087 48.6281 40.3923C48.7429 39.5883 48.4804 38.7188 48.382 37.9477C48.2344 36.6352 48.2179 35.2571 48.2015 33.9118C51.0562 33.9118 53.8945 33.961 56.7492 34.0758C59.3086 34.1743 61.8515 34.3876 64.4109 34.5188C65.6086 34.5844 66.8226 34.6008 68.0367 34.6337C69.1687 34.6501 70.3008 34.8633 71.4328 34.929C71.5804 34.9782 71.7445 34.9946 71.925 34.9454C71.9414 34.9454 71.9742 34.9454 71.9906 34.9454C72.3351 34.9454 72.5648 34.7977 72.6961 34.568C74.2218 33.6493 75.3375 31.9923 76.4367 30.6633C78.1429 28.629 80.1281 26.7751 81.4406 24.429C81.539 24.2649 81.5062 23.8876 81.3258 23.6251ZM37.8492 10.6149C37.8492 10.1227 37.9312 9.67976 38.4234 9.49929C38.932 9.31882 39.5719 9.40085 40.1133 9.41726C40.7695 9.43366 41.4422 9.43366 42.0984 9.45007C42.7875 9.46648 43.5258 9.5157 44.182 9.74538C44.2969 9.7946 44.4117 9.84382 44.5265 9.90945C44.6086 9.95866 44.6906 10.0407 44.7234 10.0735C44.7562 10.1884 44.789 10.3196 44.8054 10.4344C44.9203 11.0415 44.9859 11.6813 45.0187 12.3048C45.0351 12.6001 45.0351 12.8954 45.0351 13.1907C42.7054 13.1251 40.3758 13.0759 38.0461 13.0594C37.8164 12.2719 37.8492 11.4352 37.8492 10.6149ZM46.1836 81.8673C45.3961 81.9657 44.6086 82.0313 43.8047 81.9985C43.6406 81.9985 43.4601 81.9657 43.2961 81.9493C43.9031 78.8649 43.4601 75.6493 43.2633 72.5485C43.0172 68.7094 41.8031 65.018 41.7703 61.1462C41.7703 60.9985 41.7375 60.8837 41.6883 60.7852C43.3945 60.6868 45.0844 60.5883 46.7906 60.4735C47.2992 60.4407 47.8242 60.4079 48.3328 60.3751C48.3656 67.3805 49.0875 74.3532 49.1367 81.3587C48.1851 81.5883 47.1679 81.736 46.1836 81.8673ZM53.0414 42.2462C55.6828 42.2298 58.3242 42.1969 60.982 42.0985C62.475 42.0493 64.0336 41.7704 65.5265 41.9508C66.8883 42.1149 67.4297 43.0337 67.6265 44.3133C68.0039 46.7579 67.5117 49.268 67.7578 51.7454C67.9054 53.0743 68.0859 54.4032 68.1515 55.7485C61.064 57.3399 53.8945 58.2423 46.6429 58.6688C42.8203 58.8985 39.014 59.161 35.1914 59.1774C31.5328 59.1938 27.8906 58.8657 24.232 58.8329C24.15 58.7344 24.0351 58.6524 23.8875 58.5868C22.6242 58.111 21.7875 56.9954 20.6883 56.2243C19.5234 55.404 18.2765 54.7477 16.9969 54.1243C16.0781 53.6813 15.1758 53.3532 14.2078 53.0907C13.9125 53.0087 12.6 52.7462 12.5508 52.3524C12.5015 52.0407 12.9445 51.6141 13.125 51.4008C13.5351 50.9087 14.0109 50.4985 14.5031 50.1048C15.4054 49.3665 16.3734 48.7266 17.2758 47.9719C19.0148 46.5118 21.3281 45.0352 22.2633 42.8696C24.5929 42.443 26.9883 42.3938 29.3508 42.3938C31.9265 42.3938 34.5023 42.3446 37.0781 42.2954C42.3937 42.2298 47.7258 42.279 53.0414 42.2462ZM41.2617 34.0923C42.9679 34.043 44.6742 34.0102 46.3804 33.9938C46.4133 35.2735 46.5281 36.5368 46.5445 37.8165C46.5445 38.2758 46.6429 38.7352 46.725 39.1946C46.7742 39.4735 46.9383 40.0313 46.807 40.2938C46.7742 40.343 46.7578 40.4087 46.7414 40.4579C46.364 40.4579 45.9867 40.4579 45.6094 40.4579C44.3953 40.4579 43.1648 40.4743 41.9508 40.4907C41.9508 38.3415 41.9015 36.1758 41.2617 34.0923ZM75.3047 29.2524C74.714 29.9579 74.1398 30.6798 73.5328 31.3852C72.975 32.0251 72.3351 32.8454 71.5476 33.2391C70.4976 33.1899 69.464 33.0258 68.4304 32.9602C67.2492 32.8782 66.0515 32.911 64.8703 32.8618C62.3273 32.7469 59.7843 32.5337 57.2414 32.4188C52.0242 32.1891 46.807 32.1727 41.6062 32.304C39.0469 32.3696 36.5039 32.5173 33.9445 32.5173C31.4508 32.5173 28.9406 32.4352 26.4469 32.4516C22.1976 32.468 17.8664 33.1899 13.6664 32.2876C13.7156 31.8938 13.732 31.5001 13.7484 31.1884C13.8304 29.761 13.814 28.3501 13.7648 26.9227C13.7156 25.3477 13.7976 23.7727 13.8304 22.1977C13.8797 19.7696 13.9453 17.3579 14.339 14.9626C14.3554 14.9626 14.3554 14.9626 14.3554 14.9626C14.3719 14.9626 14.3883 14.9626 14.4375 14.9462C14.5359 14.9298 14.6344 14.9134 14.7492 14.9134C15.3234 14.8477 15.914 14.8313 16.5047 14.8313C17.9484 14.8149 19.3922 14.8641 20.8359 14.9134C21.9844 14.9626 23.1492 15.0282 24.2976 15.061C25.0851 15.0938 25.8726 14.979 26.6601 14.9462C28.0547 14.8805 29.4656 14.8641 30.8765 14.8641C41.639 14.8477 52.4508 15.1266 63.1968 15.8321C65.264 15.9634 67.364 16.2259 69.4312 16.2259C70.0711 16.2259 70.6945 16.2259 71.3343 16.2751C71.6625 16.2915 71.9742 16.3243 72.3023 16.3735C72.4008 16.6032 72.5976 16.7837 72.8929 16.8657C73.5984 17.0626 74.107 17.8009 74.5172 18.3423C74.9929 18.9821 75.4195 19.6548 75.9281 20.2618C77.0765 21.6399 78.4218 22.8376 79.5375 24.2485C78.3562 26.0696 76.7156 27.5954 75.3047 29.2524Z" fill="#111111"/>
<path d="M46.2328 49.6784C46.1016 49.4487 45.8883 49.3175 45.675 49.1698C45.2321 48.8909 44.5922 48.9237 44.1657 49.2355C43.9524 49.3995 43.7883 49.5964 43.6735 49.8261C43.5258 50.105 43.5586 50.4659 43.7391 50.7284C43.8211 50.8597 43.936 50.9417 44.0508 51.0073C44.1821 51.1714 44.3789 51.2862 44.5758 51.3519C44.7235 51.4011 44.7891 51.4339 44.9203 51.4339C45.0352 51.4339 45.15 51.4503 45.2649 51.4503C45.4125 51.4503 45.5438 51.4175 45.6914 51.3683C46.0688 51.237 46.3313 50.9253 46.4297 50.548C46.5117 50.2526 46.3969 49.9245 46.2328 49.6784ZM44.3297 22.0995C43.9852 21.9847 43.6735 21.9683 43.3289 22.0503C43.2633 22.0667 43.1977 22.0995 43.1485 22.1323C42.886 22.0503 42.5742 22.0995 42.3446 22.2472C41.9016 22.5425 41.8688 23.0675 42.0985 23.494C42.1969 23.6909 42.3446 23.855 42.5086 23.9862C42.6563 24.3308 43.0172 24.6097 43.411 24.544C43.5258 24.5276 43.6407 24.5112 43.7555 24.462C43.8375 24.4292 43.9196 24.3964 43.9852 24.3308C44.5266 24.1831 44.9039 23.6745 45.0516 23.1495C45.1992 22.6409 44.7727 22.2472 44.3297 22.0995Z" fill="#111111"/>
</svg>
