<svg width="84" height="84" viewBox="0 0 84 84" fill="none" xmlns="http://www.w3.org/2000/svg">
<path d="M28.5775 67.8614C22.7063 68.1799 16.394 69.6604 10.5525 68.9779C8.26525 68.7102 5.733 68.1449 4.466 66.2199C3.44575 64.6712 3.54375 62.6762 3.5035 60.8212C3.35825 53.9927 0.861004 47.3549 0.917004 40.5247C0.927504 39.1737 1.0395 37.8244 1.1515 36.4769C1.575 31.3477 2.00025 26.2114 2.8105 21.1294C2.99775 19.9534 3.23575 18.7179 4.018 17.8219C5.3025 16.3537 7.525 16.3082 9.4745 16.3502C19.4513 16.5637 30.0965 14.6964 40.075 14.5442C50.8708 14.3797 62.412 13.5117 73.1623 14.5162C75.0033 14.6877 76.9125 14.9607 78.449 15.9897C80.8658 17.6084 81.809 20.7689 81.7285 23.6774C81.648 26.5859 82.4863 29.3964 81.9875 32.2629C81.3662 35.8294 81.3855 39.4729 81.4065 43.0937C81.4223 45.7187 81.438 48.3437 81.452 50.9669C81.4713 54.2132 80.969 57.4664 81.3208 60.6934C81.5465 62.7654 81.6865 65.3344 79.9068 66.4194C78.9092 67.0284 77.6213 67.2857 76.4523 67.2629C61.355 66.9777 47.7138 68.4284 33.9413 67.7389C32.3068 67.6602 30.212 67.7722 28.5775 67.8614Z" fill="white"/>
<path d="M23.7965 37.8736C24.0432 37.4274 24.1762 36.8744 23.9715 36.4071C23.7667 35.9399 23.1332 35.6564 22.715 35.9469C22.9495 35.2434 22.3842 34.3964 21.6457 34.3421C20.9072 34.2879 20.223 35.0421 20.3507 35.7719C20.1495 35.3204 19.7732 34.9301 19.2972 34.7954C18.8212 34.6606 18.2542 34.8234 17.9847 35.2381C17.7152 35.6529 17.8412 36.2951 18.2805 36.5209C17.899 36.3319 17.5035 36.1411 17.0782 36.1114C16.653 36.0816 16.184 36.2549 15.9915 36.6346C15.7045 37.1964 16.1332 37.8631 16.611 38.2761C16.9907 38.6034 17.5647 39.5081 18.0197 39.7164L22.9915 39.3296C22.918 39.4031 22.8672 39.2194 22.9232 39.1301C23.198 38.6996 23.5497 38.3199 23.7965 37.8736Z" fill="white"/>
<path d="M3.21124 57.0374L40.8345 56.6612C40.8345 56.6612 62.6325 56.1974 65.6967 56.0364C68.7627 55.8754 81.522 54.9917 81.522 54.9917V63.11C81.522 63.11 82.2797 67.2312 75.2237 67.2469C68.1695 67.2627 45.3565 67.905 45.3565 67.905C45.3565 67.905 31.3267 67.5252 27.636 67.905C23.9452 68.2847 13.4522 69.9769 9.82449 68.8832C6.19674 67.7894 3.82549 67.5917 3.53499 62.4502C3.24449 57.3087 3.21124 57.0374 3.21124 57.0374Z" fill="white"/>
<path d="M1.73248 29.8446C1.73248 29.8446 1.95648 17.9026 4.83698 17.1361C7.71748 16.3696 9.92248 16.4746 13.272 16.3398C16.6215 16.2051 31.9322 14.9626 31.9322 14.9626L59.773 14.0386C59.773 14.0386 70.714 14.1698 73.1622 14.5163C75.6105 14.8628 82.2272 14.7491 81.8405 26.2413C74.977 26.6176 39.8667 27.2336 39.8667 27.2336L1.73248 29.8446Z" fill="white"/>
<path d="M20.776 39.7128L20.8425 44.0072L25.1842 43.3667L24.8867 39.5938L20.776 39.7128Z" fill="white"/>
<path d="M16.5148 40.6595L17.0293 44.5165L20.468 44.3922L20.2615 39.8457L16.5148 40.6595Z" fill="white"/>
<path d="M20.776 44.7773L21.1855 50.6678C21.1855 50.6678 24.9638 49.5373 24.8833 47.7226C24.8045 45.9078 24.8833 44.0073 24.8833 44.0073L20.776 44.7773Z" fill="white"/>
<path d="M82.8048 27.1162C82.6893 25.9927 82.5703 24.8324 82.6018 23.7019C82.7033 20.0252 81.333 16.8717 78.9355 15.2652C77.1943 14.0979 75.0838 13.8179 73.2445 13.6464C65.3205 12.9027 56.9573 13.1722 48.8688 13.4364C45.9008 13.5309 42.9538 13.6254 40.061 13.6709C35.532 13.7392 30.8 14.1644 26.2238 14.5774C20.6693 15.0762 14.9293 15.6012 9.492 15.4769C7.80675 15.4402 4.99275 15.3807 3.36 17.2444C2.44125 18.2997 2.15775 19.6734 1.946 20.9912C1.12875 26.1239 0.696505 31.3512 0.280005 36.4069C0.169755 37.7474 0.0542549 39.1334 0.0420049 40.5194C0.0105049 44.1594 0.693005 47.7662 1.35275 51.2522C1.94775 54.3934 2.56025 57.6397 2.6285 60.8404L2.639 61.4494C2.66175 63.1644 2.6845 65.1104 3.73275 66.7047C5.22725 68.9709 8.10775 69.5764 10.451 69.8494C11.557 69.9772 12.677 70.0314 13.8058 70.0314C16.688 70.0314 19.6228 69.6797 22.4875 69.3384C24.5228 69.0952 26.628 68.8449 28.6248 68.7347C30.1665 68.6507 32.2805 68.5369 33.8975 68.6174C41.447 68.9954 48.8285 68.7382 56.6458 68.4652C63.0123 68.2429 69.601 68.0172 76.4365 68.1414C77.8593 68.1502 79.3065 67.8124 80.3635 67.1684C82.747 65.7142 82.3848 62.3874 82.1905 60.5989C81.9805 58.6669 82.0855 56.7454 82.1975 54.7119C82.2658 53.4624 82.334 52.2129 82.327 50.9634L82.2815 43.0902C82.2588 39.5657 82.2378 35.9222 82.8485 32.4134C83.1635 30.6004 82.9815 28.8294 82.8048 27.1162ZM3.67675 21.2677C3.85351 20.1564 4.06526 19.1029 4.67775 18.3959C5.56325 17.3844 7.13475 17.2147 8.76575 17.2147C8.995 17.2147 9.226 17.2182 9.457 17.2234C15.0028 17.3547 20.7813 16.8227 26.383 16.3169C30.9278 15.9092 35.6265 15.4839 40.0908 15.4174C42.9923 15.3737 45.9498 15.2774 48.9283 15.1812C56.9643 14.9239 65.2715 14.6544 73.0853 15.3859C74.711 15.5364 76.5625 15.7762 77.9643 16.7142C79.8595 17.9864 80.9393 20.5782 80.8535 23.6512C80.8343 24.3599 80.871 25.0582 80.9253 25.7477C54.9378 25.6462 28.6195 26.7084 2.7055 28.9099C2.9645 26.3567 3.27251 23.7964 3.67675 21.2677ZM1.792 40.5334C1.80426 39.2104 1.9145 37.8594 2.023 36.5504C2.18226 34.6149 2.35201 32.6497 2.5375 30.6809C28.5548 28.4619 54.9553 27.3734 81.0845 27.4994C81.2473 29.0919 81.3873 30.6039 81.1248 32.1142C80.486 35.7787 80.507 39.5009 80.5298 43.1007L80.5753 50.9739C80.5805 52.0169 80.5298 53.0599 80.4738 54.1029C65.66 55.5309 51.3958 55.6814 36.3108 55.8319L4.0775 56.1627C4.04075 56.1627 4.00925 56.1802 3.9725 56.1854C3.724 54.4092 3.3985 52.6522 3.073 50.9267C2.43075 47.5212 1.764 44.0037 1.792 40.5334ZM79.45 65.6739C78.6695 66.1482 77.5793 66.4159 76.4698 66.3897C69.5713 66.2619 62.9738 66.4912 56.5863 66.7134C48.8075 66.9864 41.4558 67.2402 33.9868 66.8692C32.2823 66.7782 30.114 66.9007 28.5303 66.9864C26.4775 67.0967 24.3443 67.3522 22.281 67.5989C18.3978 68.0644 14.3815 68.5457 10.654 68.1082C8.68875 67.8789 6.293 67.4047 5.1975 65.7404C4.43101 64.5732 4.41176 63.0437 4.39076 61.4249L4.38025 60.8019C4.35925 59.8359 4.28401 58.8717 4.18426 57.9109L36.3318 57.5819C51.366 57.4314 65.59 57.2809 80.3863 55.8652C80.3093 57.4874 80.2725 59.1412 80.451 60.7879C80.6785 62.8722 80.7135 64.9057 79.45 65.6739Z" fill="#111111"/>
<path d="M31.9235 46.0144L31.3775 45.9007C31.36 45.7764 31.3233 45.6539 31.2638 45.5419C31.1168 45.2619 30.793 44.9207 30.0878 44.8909C29.9198 44.8839 29.7535 44.8979 29.5855 44.8979C29.4245 41.6709 29.2198 38.4439 28.917 35.2502C28.8733 34.7672 28.4113 34.4224 27.9633 34.4609C27.482 34.5064 27.1285 34.9352 27.174 35.4147C27.3875 37.6617 27.5573 39.9262 27.699 42.1942C27.6028 42.1434 27.5065 42.0909 27.405 42.0507C26.852 41.8232 26.292 41.8634 25.8458 41.8914C25.8055 41.8949 25.7758 41.8897 25.7355 41.8914L25.7583 40.2027C25.76 40.0382 25.767 39.6567 25.5028 39.3277C25.158 38.8884 24.6505 38.8692 24.458 38.8622C24.36 38.8587 24.276 38.8622 24.178 38.8604C24.311 38.6767 24.451 38.4964 24.5613 38.2952C24.983 37.5304 25.06 36.7149 24.773 36.0587C24.556 35.5599 24.1063 35.1714 23.5708 35.0192C23.5638 35.0174 23.5568 35.0157 23.5498 35.0139C23.4885 34.8057 23.394 34.6027 23.268 34.4137C22.8988 33.8607 22.33 33.5142 21.707 33.4687C21.07 33.4249 20.4733 33.6822 20.0323 34.1617C19.873 34.0724 19.705 34.0007 19.5318 33.9534C18.6533 33.6979 17.7153 34.0374 17.248 34.7602C17.1518 34.9054 17.08 35.0647 17.0345 35.2309C16.191 35.1942 15.5365 35.5967 15.2075 36.2337C14.7788 37.0719 15.1043 38.1342 16.037 38.9357C16.1525 39.0372 16.2908 39.2087 16.4378 39.3889C16.478 39.4362 16.52 39.4799 16.5603 39.5289C16.4063 39.5587 16.275 39.5762 16.1158 39.6077C15.6958 39.6934 15.4 40.0679 15.414 40.4967C15.4263 40.8379 15.4613 41.2247 15.498 41.6132C15.4263 41.6079 15.3318 41.5974 15.197 41.5817C14.595 41.5274 13.5345 41.7427 12.6718 42.0052C12.649 41.8634 12.6385 41.7199 12.614 41.5799L12.4653 40.7312C12.208 39.2647 11.9648 37.8804 11.935 36.4717C11.9245 35.9869 11.5798 35.5722 11.0425 35.6142C10.5595 35.6247 10.1745 36.0237 10.185 36.5067C10.2183 38.0519 10.4843 39.5674 10.7415 41.0357L10.8868 41.8739C11.0548 42.8609 11.1633 43.8619 11.2893 44.8612C10.8343 44.8822 10.465 45.2444 10.4528 45.7064C10.4405 46.1894 10.8238 46.5919 11.305 46.6042C11.3173 46.6042 11.3278 46.6042 11.34 46.6042L10.017 47.2149C9.57953 47.4179 9.38878 47.9377 9.59003 48.3769C9.73878 48.6972 10.0555 48.8844 10.3845 48.8844C10.507 48.8844 10.633 48.8582 10.752 48.8039L11.6568 48.3874C11.7373 49.4409 11.8318 50.4944 11.8668 51.5479C11.8825 52.0222 12.271 52.3932 12.7418 52.3932C12.7505 52.3932 12.761 52.3932 12.7715 52.3932C13.2528 52.3774 13.6325 51.9732 13.6168 51.4884C13.5748 50.1794 13.468 48.8687 13.356 47.5597C14.217 47.0504 14.3745 46.3312 14.1943 45.8272C14.1085 45.5857 13.9213 45.3932 13.6798 45.3022C13.4908 45.2304 13.293 45.1919 13.1005 45.1377C13.0445 44.6757 12.978 44.2172 12.915 43.7569C13.622 43.5189 14.7018 43.2879 15.141 43.3317C15.2985 43.3509 15.4963 43.3719 15.7098 43.3597C15.862 44.4342 16.0475 45.5209 16.2033 46.4362L16.2698 46.8247C16.3765 47.4424 16.5025 48.0987 16.7913 48.7234C17.5228 50.3072 19.236 51.3169 20.9615 51.3169C21.3763 51.3169 21.7945 51.2574 22.197 51.1349C22.9565 50.8987 23.583 50.4962 24.2673 50.0307C24.6068 49.7962 25.0758 49.4794 25.361 48.9439C25.648 48.4067 25.6568 47.8362 25.662 47.4214L25.7145 43.6467C25.7985 43.6432 25.886 43.6414 25.9648 43.6362C26.278 43.6134 26.5703 43.5977 26.7488 43.6694C26.8118 43.6957 26.8713 43.7307 26.9308 43.7639C27.083 43.8479 27.237 43.9284 27.4085 43.9879C27.5398 44.0317 27.6693 44.0422 27.7988 44.0527C27.8163 44.3764 27.8233 44.6984 27.8408 45.0222C27.6938 45.0432 27.545 45.0519 27.398 45.0782C27.0025 45.1517 26.6438 45.5314 26.621 45.9322C26.5965 46.3382 26.8695 46.7232 27.2598 46.8404C27.475 46.8999 27.7113 46.8702 27.916 46.7704C27.9615 47.8974 28.0315 49.0279 28.0595 50.1497C28.0718 50.6239 28.4603 51.0019 28.9345 51.0019C28.9415 51.0019 28.9503 51.0019 28.9573 51.0019C29.4403 50.9897 29.8218 50.5889 29.8095 50.1042C29.7868 49.1749 29.7255 48.2387 29.6905 47.3042C29.7203 47.3147 29.7395 47.3427 29.771 47.3479L31.57 47.7242C31.6295 47.7382 31.689 47.7434 31.7503 47.7434C32.1545 47.7434 32.5185 47.4599 32.6043 47.0469C32.7023 46.5744 32.3978 46.1124 31.9235 46.0144ZM17.213 41.1774C18.088 41.0129 18.8755 40.8992 19.6438 40.8047C19.6543 41.7339 19.6893 42.6632 19.7243 43.5942L17.549 43.8374C17.4073 42.9222 17.2795 41.9912 17.213 41.1774ZM21.3885 40.6489C22.2303 40.5999 23.0773 40.5789 24.0048 40.6017L23.9698 43.1392C23.7948 43.1462 23.6233 43.1584 23.4728 43.1742L21.4673 43.3999C21.434 42.4829 21.399 41.5659 21.3885 40.6489ZM18.3943 38.9217C18.2648 38.8464 17.955 38.4737 17.7905 38.2742C17.5683 38.0064 17.3565 37.7579 17.1815 37.6092C16.877 37.3467 16.7668 37.0842 16.7615 37.0422C16.7825 37.0212 16.8875 36.9634 17.017 36.9827C17.276 37.0019 17.591 37.1559 17.8955 37.3064C18.333 37.5182 18.872 37.3274 19.0873 36.8987C19.3008 36.4682 19.1503 35.9309 18.7215 35.7139C18.7583 35.6562 18.9123 35.5967 19.0593 35.6387C19.2518 35.6929 19.4425 35.8819 19.5528 36.1287C19.7348 36.5312 20.188 36.7377 20.608 36.6082C21.0298 36.4787 21.2905 36.0552 21.2135 35.6194C21.2013 35.5459 21.245 35.4374 21.3238 35.3517C21.4008 35.2642 21.5093 35.1644 21.5828 35.2169C21.6598 35.2222 21.7543 35.2904 21.819 35.3884C21.8838 35.4864 21.9118 35.6002 21.8873 35.6737C21.77 36.0324 21.8698 36.4717 22.1725 36.6974C22.4735 36.9232 22.8638 36.9739 23.1718 36.7587C23.2365 36.9092 23.1823 37.1804 23.0335 37.4517C22.9128 37.6722 22.757 37.8717 22.6065 38.0712C22.4613 38.2637 22.316 38.4579 22.19 38.6557C22.148 38.7204 22.1305 38.7939 22.1043 38.8657C20.9773 38.9007 19.88 38.9969 18.6988 39.1667C18.6165 39.0652 18.5185 38.9794 18.3943 38.9217ZM18.3803 47.9902C18.1808 47.5597 18.0845 47.0557 17.9953 46.5324L17.9288 46.1422C17.8973 45.9637 17.864 45.7607 17.8308 45.5699L19.7838 45.3512C19.8555 46.7057 19.9623 48.0549 20.0848 49.3954C19.3533 49.1609 18.6988 48.6797 18.3803 47.9902ZM23.8175 48.1179C23.7318 48.2754 23.4815 48.4469 23.2785 48.5869C22.7518 48.9439 22.302 49.2204 21.833 49.3954C21.7035 47.9902 21.5985 46.5762 21.525 45.1569L23.667 44.9172C23.7353 44.9084 23.8035 44.9014 23.87 44.8944C23.8928 44.9084 23.919 44.9137 23.9435 44.9259L23.9085 47.4004C23.9068 47.6489 23.9033 47.9587 23.8175 48.1179Z" fill="#111111"/>
</svg>
