<svg width="84" height="84" viewBox="0 0 84 84" fill="none" xmlns="http://www.w3.org/2000/svg">
<path d="M77.5355 16.5429C76.6675 15.8779 75.5685 15.5997 74.4922 15.4159C70.252 14.6932 65.912 15.2059 61.6297 15.6207C45.885 17.1467 29.505 15.6469 13.699 15.0204C11.802 14.9452 9.06849 15.2217 7.25724 15.7939C5.44599 16.3662 3.74674 17.6209 3.13074 19.4182C2.68099 20.7272 2.84724 22.1552 3.00299 23.5307C4.15449 33.6894 3.02399 47.0244 2.60574 57.2392C2.56374 58.2524 2.52174 59.3042 2.90499 60.2439C3.25324 61.0997 3.93224 61.7874 4.70049 62.2984C7.16799 63.9434 10.3635 63.8559 13.3262 63.7089C25.6077 63.0964 40.2552 64.4317 52.5367 63.8192L78.9547 31.3147C78.6117 29.1884 79.2505 24.5807 79.4307 22.4352C79.611 20.2897 79.2452 17.8537 77.5355 16.5429Z" fill="white"/>
<path d="M56.511 70.5406L55.6728 70.5511V63.8188H30.807V70.8749L27.104 70.9239L24.381 72.2766L23.8245 74.2296L57.96 74.9559L56.511 70.5406Z" fill="white"/>
<path d="M65.331 54.6525C65.0528 53.4153 64.7745 52.1745 64.33 50.988C62.895 47.1538 59.8605 44.177 56.917 41.3333C55.118 39.5955 53.4503 37.6915 50.9688 38.0048C50.743 38.0328 50.498 38.094 50.3685 38.2813C50.2775 38.4125 50.2635 38.5788 50.2548 38.738C50.0063 42.9573 50.9093 47.1135 52.2918 51.1053C53.109 53.4678 54.3918 56.3028 56.735 57.1708L65.7073 57.477C65.3888 56.0613 65.6495 56.0683 65.331 54.6525Z" fill="white"/>
<path d="M53.676 56.9293C61.25 57.6013 68.9955 57.7483 76.5678 57.064C77.8803 56.945 79.2365 56.8418 80.2673 57.6625C81.2018 58.4045 81.4993 59.7223 81.3698 60.9088C81.2403 62.0953 80.7538 63.2065 80.3793 64.3405C78.386 70.3605 79.6548 68.5423 78.0115 74.6673C77.84 75.3043 77.6143 75.9728 77.098 76.384C76.566 76.8058 75.8433 76.867 75.1643 76.9055C70.602 77.1715 64.2618 77.679 59.6925 77.63C59.1308 77.623 58.5498 77.6108 58.0388 77.3763C57.0745 76.9335 56.6195 75.8398 56.2625 74.8405C53.62 67.438 53.214 67.7408 51.8595 59.997C51.73 59.2585 51.618 58.45 51.989 57.799C52.3583 57.1463 53.0303 56.819 53.676 56.9293Z" fill="white"/>
<path d="M64.6415 33.3041L72.8997 26.8501C72.8997 26.8501 75.7435 31.0606 74.2122 35.2728C70.0542 37.7351 68.4145 38.4456 64.6415 33.3041Z" fill="white"/>
<path d="M63.2012 32.4695C61.7382 31.626 60.0075 31.206 58.5445 30.3608C57.596 29.813 56.6177 29.2548 55.5345 29.0938C55.1845 34.034 56.6667 38.3092 58.6512 42.847L62.3892 47.3655L68.7225 37.6968C67.921 35.406 65.3048 33.684 63.2012 32.4695Z" fill="white"/>
<path d="M81.2122 30.7354C73.122 33.2046 65.1297 39.3646 62.391 47.3673L65.296 57.6049L76.286 57.0659C80.9725 51.5726 82.0312 40.1679 81.2122 30.7354Z" fill="white"/>
<path d="M65.7055 58.3517C65.3047 58.3517 64.9442 58.0752 64.8532 57.6675C64.6765 56.8835 64.6607 56.4652 64.645 56.0995C64.631 55.7652 64.6187 55.4765 64.4787 54.8447C64.2127 53.6582 63.9362 52.4315 63.511 51.2975C62.118 47.5735 59.031 44.5932 56.3097 41.963L55.8285 41.4922C54.2832 39.9767 52.9602 38.638 51.128 38.8672C50.939 42.5387 51.5935 46.415 53.1195 50.8215C53.8142 52.827 54.978 55.5867 57.0412 56.3497C57.4945 56.5177 57.7255 57.0217 57.5575 57.475C57.3895 57.9265 56.889 58.161 56.4322 57.9912C53.676 56.971 52.2777 53.737 51.4657 51.3937C49.8382 46.6897 49.1575 42.5335 49.3832 38.687C49.392 38.5085 49.413 38.1322 49.6475 37.7875C50.0272 37.2415 50.6537 37.1627 50.8585 37.1347C53.543 36.7935 55.328 38.5487 57.0552 40.241L57.5277 40.703C60.382 43.461 63.6195 46.5882 65.1525 50.6797C65.6197 51.9292 65.9085 53.2155 66.1885 54.4597C66.3652 55.2437 66.381 55.6602 66.3967 56.0277C66.4107 56.362 66.423 56.6525 66.5647 57.2842C66.6715 57.7567 66.374 58.224 65.9032 58.3307C65.835 58.3447 65.7702 58.3517 65.7055 58.3517Z" fill="#111111"/>
<path d="M76.286 57.9391C76.0847 57.9391 75.8835 57.8709 75.7172 57.7309C75.3497 57.4159 75.306 56.8646 75.6192 56.4971C80.08 51.2681 81.032 40.5756 80.4247 31.9079C72.247 34.7219 65.555 40.8101 63.217 47.6491C63.0595 48.1059 62.5607 48.3474 62.1057 48.1934C61.649 48.0376 61.404 47.5406 61.5597 47.0821C64.1725 39.4416 71.785 32.6954 80.9532 29.8971C81.207 29.8201 81.4817 29.8604 81.6987 30.0091C81.9175 30.1561 82.0575 30.3959 82.0802 30.6584C82.88 39.8546 81.9507 51.7686 76.9492 57.6311C76.7795 57.8359 76.5327 57.9391 76.286 57.9391Z" fill="#111111"/>
<path d="M58.653 43.7217C58.3152 43.7217 57.995 43.5257 57.8515 43.1967C55.6867 38.2477 54.3147 33.9445 54.663 29.0305C54.6805 28.7855 54.7977 28.5615 54.9885 28.411C55.1775 28.257 55.4225 28.1852 55.6657 28.229C56.9275 28.4162 58.0195 29.048 58.982 29.601C59.6592 29.993 60.4047 30.2887 61.1957 30.6002C62.0112 30.924 62.853 31.2565 63.6387 31.7115C65.9242 33.031 68.663 34.872 69.5502 37.4095C69.7095 37.8662 69.4697 38.365 69.013 38.5242C68.558 38.6922 68.0575 38.4437 67.8982 37.987C67.2017 35.992 64.7885 34.3942 62.7637 33.2252C62.0882 32.835 61.341 32.5392 60.5517 32.2277C59.7362 31.904 58.8945 31.5715 58.107 31.1165C57.5382 30.7892 56.9572 30.455 56.3605 30.2222C56.294 34.3557 57.554 38.155 59.4527 42.4967C59.647 42.9395 59.4457 43.4557 59.0012 43.6482C58.8892 43.699 58.7702 43.7217 58.653 43.7217Z" fill="#111111"/>
<path d="M74.4905 34.4557C74.445 34.4557 74.3995 34.4522 74.3523 34.4452C73.8745 34.3682 73.549 33.9202 73.6243 33.4442C73.8763 31.8535 73.6278 30.2102 72.821 28.1172C72.814 28.0997 72.807 28.0822 72.8018 28.07C72.751 28.0945 72.6845 28.1312 72.6023 28.1872C70.7333 29.4315 69.1443 30.9312 67.6095 32.382C66.9218 33.0312 66.2568 33.6595 65.5953 34.2387C65.2313 34.5555 64.6783 34.5205 64.3598 34.1565C64.0413 33.7925 64.078 33.2412 64.442 32.9227C65.0878 32.3592 65.7353 31.7432 66.4055 31.1115C67.9945 29.61 69.636 28.0577 71.6293 26.7312C72.611 26.0732 73.304 26.2395 73.71 26.488C74.179 26.775 74.3645 27.2562 74.452 27.489C75.0733 29.1007 75.74 31.2655 75.3515 33.7172C75.2868 34.1495 74.914 34.4557 74.4905 34.4557Z" fill="#111111"/>
<path d="M45.0975 64.8583C41.0882 64.8583 36.9565 64.7481 32.9087 64.6396C26.3077 64.4611 19.481 64.2808 13.37 64.5836C10.6907 64.7236 7.02274 64.9003 4.21574 63.0278C3.20774 62.3541 2.47449 61.5071 2.09474 60.5743C1.63974 59.4561 1.68874 58.2608 1.73249 57.2038C1.81824 55.0968 1.93549 52.8586 2.05624 50.5416C2.51824 41.6743 3.04149 31.6241 2.13499 23.6283C1.97399 22.2056 1.79374 20.6218 2.30474 19.1343C2.95399 17.2443 4.70749 15.6833 6.99474 14.9606C9.08249 14.3008 11.9507 14.0803 13.7357 14.1451C17.2095 14.2833 20.7112 14.4636 24.2287 14.6438C36.5662 15.2791 49.3255 15.9353 61.5475 14.7488L62.4575 14.6596C66.4527 14.2658 70.5845 13.8616 74.641 14.5528C75.7452 14.7401 77.0175 15.0411 78.0692 15.8478C80.353 17.5961 80.4492 20.7706 80.304 22.5083C80.2655 22.9826 80.2025 23.5776 80.1342 24.2373C79.8962 26.5123 79.5725 29.6273 79.821 31.1743C79.898 31.6521 79.5742 32.1001 79.0965 32.1771C78.6152 32.2663 78.169 31.9286 78.0937 31.4543C77.8067 29.6763 78.1462 26.4283 78.393 24.0553C78.4612 23.4078 78.5207 22.8268 78.561 22.3596C78.6765 20.9788 78.6292 18.4781 77.0052 17.2356C76.2562 16.6616 75.2412 16.4288 74.347 16.2766C70.5215 15.6238 66.5087 16.0176 62.6272 16.3991L61.7155 16.4883C49.3622 17.6853 36.54 17.0256 24.1395 16.3886C20.6272 16.2118 17.1325 16.0316 13.664 15.8951C11.9805 15.8146 9.32399 16.0596 7.52149 16.6283C5.75924 17.1848 4.42749 18.3346 3.95849 19.7013C3.57524 20.8178 3.72574 22.1356 3.86924 23.4096C4.79324 31.5698 4.26824 41.6971 3.80274 50.6326C3.68199 52.9426 3.56649 55.1756 3.47899 57.2756C3.44224 58.1961 3.40199 59.1481 3.71349 59.9146C4.02674 60.6811 4.68649 61.2393 5.18524 61.5718C7.33599 63.0033 10.1237 62.9911 13.2825 62.8371C19.4547 62.5273 26.3182 62.7146 32.9542 62.8896C39.557 63.0698 46.3855 63.2501 52.493 62.9456C52.9497 62.8983 53.3855 63.2921 53.41 63.7751C53.4345 64.2581 53.0617 64.6693 52.5787 64.6921C50.1725 64.8128 47.6595 64.8583 45.0975 64.8583Z" fill="#111111"/>
<path d="M30.807 71.4156C30.3397 71.4156 29.9512 71.0463 29.9337 70.5756C29.8865 69.3541 29.9092 68.2586 29.9337 67.1631C29.9565 66.1009 29.9792 65.0386 29.9337 63.8538C29.9145 63.3708 30.2925 62.9631 30.7737 62.9438C31.22 62.9823 31.6627 63.3009 31.682 63.7839C31.7292 65.0054 31.7065 66.1008 31.682 67.1963C31.6592 68.2586 31.6365 69.3208 31.682 70.5056C31.7012 70.9886 31.3232 71.3963 30.842 71.4156C30.8297 71.4156 30.8175 71.4156 30.807 71.4156Z" fill="#111111"/>
<path d="M54.138 75.6039C53.1947 75.6039 52.2462 75.5584 51.317 75.5111L50.3842 75.4691C43.8672 75.1909 38.2445 75.2311 32.2997 75.2749C29.89 75.2924 27.4225 75.3151 24.8482 75.3081C24.549 75.3081 24.101 75.2784 23.6967 75.0211C22.8147 74.4594 22.7902 73.3009 23.2242 72.4434C24.4737 69.9864 27.6692 69.9339 29.9635 70.1141C37.7545 70.7161 45.3495 70.5656 54.355 70.1491C54.8222 70.1001 55.2457 70.4991 55.2685 70.9821C55.2912 71.4651 54.9167 71.8746 54.4337 71.8956C45.3635 72.3156 37.7055 72.4731 29.8252 71.8589C26.9727 71.6489 25.3715 72.0759 24.7817 73.2379C24.7205 73.3551 24.6995 73.4811 24.6977 73.5599C24.7257 73.5564 24.7747 73.5616 24.8447 73.5599C27.4277 73.5616 29.8777 73.5424 32.2822 73.5266C38.2532 73.4829 43.897 73.4426 50.456 73.7209L51.3992 73.7646C52.9725 73.8434 54.6 73.9221 56.0927 73.7629C56.5862 73.7226 57.0045 74.0604 57.0552 74.5399C57.106 75.0194 56.7577 75.4516 56.2782 75.5024C55.5747 75.5776 54.8572 75.6039 54.138 75.6039Z" fill="#111111"/>
<path d="M81.375 60.8998C81.34 61.2148 81.27 61.5298 81.2 61.8448H52.2025C52.08 61.2848 51.975 60.6723 51.8525 59.9898C51.73 59.2548 51.625 58.4498 51.9925 57.8023C52.36 57.1548 53.025 56.8223 53.6725 56.9273C61.25 57.6098 69.0025 57.7498 76.5625 57.0673C77.875 56.9448 79.24 56.8398 80.2725 57.6623C81.2 58.3973 81.4975 59.7273 81.375 60.8998Z" fill="white"/>
<path d="M52.3915 62.7133C57.1883 63.121 61.9763 63.1823 66.7835 62.9793C71.5068 62.7815 76.3035 63.2523 81.0023 62.7815C82.1118 62.6713 82.124 60.9195 81.0023 61.0315C76.3035 61.5023 71.5085 61.0315 66.7835 61.2293C61.9745 61.4305 57.1883 61.3693 52.3915 60.9633C51.268 60.867 51.275 62.6188 52.3915 62.7133Z" fill="#111111"/>
<path d="M60.3365 78.5066C60.116 78.5066 59.8973 78.5049 59.682 78.5031C59.094 78.4961 58.3625 78.4874 57.673 78.1706C56.4025 77.5861 55.853 76.2964 55.4383 75.1344C54.7873 73.3144 54.2745 71.9616 53.8475 70.8416C52.5262 67.3626 52.031 66.0624 50.9967 60.1474C50.8777 59.4684 50.68 58.3309 51.2277 57.3666C51.7702 56.4164 52.7712 55.9036 53.7827 56.0629C61.8818 56.7786 69.524 56.8241 76.489 56.1941C77.819 56.0716 79.4815 55.9229 80.8115 56.9781C81.8878 57.8321 82.4198 59.3389 82.2378 61.0049C82.1275 62.0129 81.7985 62.9386 81.4783 63.8346C81.3855 64.0936 81.2928 64.3544 81.207 64.6151C80.1518 67.8019 80.038 68.7066 79.8945 69.8494C79.7668 70.8749 79.6198 72.0369 78.8533 74.8946C78.6398 75.6926 78.344 76.5081 77.637 77.0681C76.8653 77.6824 75.8695 77.7401 75.2115 77.7769C74.2035 77.8364 73.1063 77.9064 71.9618 77.9799C68.1327 78.2284 63.8208 78.5066 60.3365 78.5066ZM53.4275 57.7849C53.1667 57.7849 52.9077 57.9529 52.7485 58.2311C52.5297 58.6161 52.6102 59.2164 52.7205 59.8464C53.725 65.5951 54.2045 66.8551 55.482 70.2204C55.9125 71.3509 56.4305 72.7124 57.085 74.5481C57.3807 75.3759 57.75 76.2824 58.4028 76.5834C58.7545 76.7444 59.2358 76.7514 59.7013 76.7566C63.2188 76.7846 67.8055 76.4994 71.8498 76.2369C72.9978 76.1634 74.0985 76.0934 75.11 76.0339C75.712 75.9971 76.237 75.9499 76.5503 75.7014C76.8583 75.4564 77.0263 74.9524 77.1645 74.4431C77.8995 71.7044 78.0378 70.6054 78.1585 69.6359C78.3073 68.4459 78.4368 67.4186 79.5463 64.0674C79.6373 63.7944 79.7335 63.5214 79.8298 63.2501C80.1273 62.4119 80.409 61.6191 80.4983 60.8141C80.5875 59.9916 80.4318 58.9136 79.723 58.3501C78.9968 57.7744 77.9905 57.8164 76.6465 57.9389C69.5678 58.5794 61.81 58.5321 53.599 57.8041C53.5762 57.8024 53.5535 57.7989 53.529 57.7954C53.4957 57.7866 53.4625 57.7849 53.4275 57.7849Z" fill="#111111"/>
</svg>
