<svg width="84" height="84" viewBox="0 0 84 84" fill="none" xmlns="http://www.w3.org/2000/svg">
<path d="M55.3875 17.4401C55.1742 14.8479 54.682 12.4361 52.9758 10.3854C49.0219 5.59474 41.3766 5.16818 36.4875 8.74474C33.5508 10.894 31.7133 14.044 30.7125 17.5057C29.7281 20.9018 29.3344 24.544 29.9414 28.0385C30.5812 28.0713 31.2211 28.1205 31.8281 27.9729C32.2055 22.5096 32.4352 16.0127 36.4219 11.8291C38.7023 9.4338 42.4266 7.76037 45.7734 7.94084C47.5453 8.03927 49.3172 8.56427 50.5969 9.84396C51.9422 11.1893 52.6148 12.9119 53.0086 14.7494C53.6484 17.6861 53.5664 20.6229 53.5336 23.6088C53.5172 24.7736 53.5008 26.0369 53.8125 27.1854C53.9109 27.5627 54.0422 28.0549 54.3375 28.2846C54.3211 28.2682 54.4523 28.3338 54.5016 28.3338C54.682 28.3174 54.8625 28.2518 55.0266 28.1533C55.3383 27.9893 55.65 28.0221 55.8797 28.1697C55.7156 24.5932 55.6828 21.0166 55.3875 17.4401Z" fill="white"/>
<path d="M49.268 45.806C48.2836 44.9364 46.725 44.8052 45.593 45.4778C44.0836 46.3802 43.7391 48.0372 44.018 49.6778C44.1656 50.613 42.7219 50.8755 42.4266 50.006C42.082 48.9724 41.6883 47.9224 41.0813 47.0036C40.6219 46.2982 39.8672 45.3302 38.9156 45.3466C36.75 45.3794 35.5195 47.5286 36.1102 49.5138C36.8649 52.1388 38.8008 54.6653 40.8024 56.47C41.6555 57.2411 42.443 58.0614 43.2797 58.8325C43.9031 59.4067 44.6414 60.1122 45.4781 60.3911C46.2492 59.1935 46.6594 57.7989 47.2008 56.47C47.8406 54.8786 48.8906 53.4513 49.5305 51.8435C50.2359 50.1208 50.9742 47.2825 49.268 45.806Z" fill="white"/>
<path d="M73.0242 73.9267C73.0078 73.8446 72.9914 73.7626 72.975 73.6806C72.893 73.3524 72.7945 73.0407 72.6797 72.729C72.4008 71.9743 72.2367 71.2196 72.1383 70.4321C71.8266 68.1845 71.6953 65.904 71.4328 63.6399C70.875 58.8821 70.1695 54.1243 69.5789 49.3665C69.0047 44.7399 68.5289 40.097 67.9875 35.4704C67.4789 31.0899 67.0195 26.6931 66.9867 22.2798C65.7398 22.3126 64.493 22.4274 63.2625 22.4767C62.3602 22.5095 61.4414 22.4931 60.5391 22.5915C59.4562 22.7063 58.3734 22.8212 57.307 22.5587C57.3234 23.1657 57.3562 23.7563 57.3727 24.3634C61.7367 24.8884 60.8508 30.811 57.6516 32.5009C55.5844 33.6001 52.9102 33.0095 51.2859 31.3524C50.482 30.5321 49.8422 29.4985 49.9078 28.3173C49.9734 27.0376 50.8102 26.086 51.8437 25.4298C51.893 25.397 51.9422 25.3806 51.975 25.3642C51.9094 24.3962 51.9258 23.4446 51.9422 22.6899C51.8437 22.7228 51.7453 22.7556 51.6305 22.7556C45.675 22.772 39.7687 23.6743 33.8133 23.7399C33.7641 24.1993 33.7312 24.6751 33.682 25.1345C33.6984 25.1345 33.7148 25.1509 33.7312 25.1509C38.1773 27.0704 33.9117 32.6321 30.6633 33.0915C28.6125 33.3868 25.9711 32.1892 25.2 30.1876C24.3633 28.0056 25.6922 25.4298 28.0219 25.1017C28.0055 24.511 28.0219 23.9204 28.0383 23.3298C26.8242 23.6087 25.4133 23.3954 24.2484 23.4282C23.2969 23.461 22.3617 23.6415 21.4266 23.6907C20.4258 23.7399 19.4414 23.7563 18.4406 23.7563C18.4406 33.1571 18.3422 42.5743 17.9648 51.9751C17.768 56.7985 17.5219 61.622 17.1773 66.429C17.0953 67.6267 16.9477 68.8243 16.9805 70.022C17.0133 70.9407 17.0625 71.8595 17.0789 72.7782C17.0953 74.1892 17.0625 75.6165 16.7508 76.9782C26.6766 76.929 36.5859 76.4204 46.4953 75.7806C51.6961 75.4524 56.8969 75.1243 62.1141 74.7634C65.7398 74.5173 69.4969 73.8938 73.0734 74.7306C72.9094 74.4845 72.9258 74.1727 73.0242 73.9267ZM51.4664 51.3188C51.1383 52.3196 50.7281 53.2712 50.2523 54.2063C49.7766 55.1251 49.1531 56.0274 48.7594 56.9954C48.0375 58.7673 47.4961 60.5884 46.282 62.0978C45.8883 62.5899 45.2812 62.3931 45.0023 61.9829C43.8703 61.6056 42.8859 60.7196 42.0328 59.9321C40.9828 58.9477 39.8836 57.9798 38.9156 56.9298C37.6687 55.5845 36.4875 54.1243 35.6344 52.4837C34.9617 51.2204 34.2727 49.8423 34.3547 48.3821C34.4203 47.1517 34.7812 45.8392 35.7328 44.9696C36.6844 44.1001 38.0625 43.4931 39.3914 43.7556C40.9008 44.0509 41.9508 45.1501 42.7055 46.4626C43.0828 45.4946 43.7227 44.6579 44.6906 44.1001C46.3641 43.1485 48.5133 43.1321 50.0883 44.3134C52.2047 45.954 52.2539 48.9892 51.4664 51.3188Z" fill="white"/>
<path d="M74.3203 75.1079C74.2875 75.0915 74.2547 75.0915 74.2383 75.0751C74.5336 74.8782 74.7141 74.5009 74.6977 74.1399C74.6812 73.5329 74.468 72.9095 74.2711 72.3353C73.6148 70.3665 73.5656 68.2993 73.3687 66.2485C72.8602 61.1954 72.1219 56.1915 71.4656 51.1548C70.8258 46.2001 70.3172 41.229 69.743 36.2579C69.1852 31.4837 68.6437 26.6931 68.6437 21.886C68.6437 21.5907 68.5125 21.3939 68.3484 21.279C68.2664 20.9345 67.9711 20.6392 67.5281 20.6392C66.15 20.6556 64.7719 20.7704 63.3937 20.836C62.6062 20.8689 61.8187 20.8689 61.0477 20.9017C59.8172 20.9673 58.6523 21.2462 57.4219 20.8853C57.3727 20.8689 57.3234 20.8689 57.2742 20.8524C57.2742 20.7868 57.2742 20.7212 57.2742 20.672C57.1758 18.3915 57.1266 16.0454 56.5687 13.8306C55.8141 10.779 53.7633 8.25245 51.1055 6.62823C45.593 3.26495 38.325 4.54463 33.7805 8.9087C31.2539 11.3204 29.7937 14.7493 28.9078 18.0634C28.6125 19.1954 28.3828 20.3439 28.2352 21.5251C27.7102 21.8532 26.9391 21.7876 26.3484 21.804C25.5445 21.8204 24.7406 21.7712 23.9531 21.804C23.0836 21.8368 22.1977 22.0009 21.3281 22.0501C20.1633 22.1157 18.9984 22.1157 17.8336 22.1157C17.7516 22.1157 17.6695 22.1321 17.5875 22.1485C17.1937 22.1978 16.8328 22.4931 16.8328 23.0017C16.8328 32.4845 16.7344 41.9837 16.3734 51.4501C16.193 56.2407 15.9469 61.0149 15.6023 65.7892C15.4547 67.8399 15.3562 69.8087 15.4383 71.8595C15.5039 73.3524 15.5695 74.9274 15.2414 76.4204C15.0117 76.5681 14.8641 76.7978 14.8641 77.1259V77.8642C14.8641 78.2415 15.143 78.4876 15.4711 78.5696C15.4875 78.5696 15.4875 78.5696 15.5039 78.5696C15.5203 78.5696 15.5367 78.5696 15.5367 78.586C15.6023 78.6024 15.668 78.6024 15.75 78.6024C25.8398 78.6024 35.9297 78.0774 46.0031 77.454C50.9906 77.1423 55.9781 76.7978 60.9656 76.4696C63.082 76.3384 65.182 76.1251 67.2984 75.9939C68.9555 75.8954 70.6781 75.8626 72.3352 76.1907C72.0398 76.8962 72.8109 77.8149 73.4836 77.2243C73.7953 76.9618 74.1562 76.7485 74.468 76.486C74.8125 76.1743 74.9766 75.3212 74.3203 75.1079ZM56.3391 29.0556C56.8312 29.2853 57.6023 29.0064 57.5531 28.2845C57.5039 27.5462 57.4711 26.7915 57.4383 26.0532C58.275 26.2665 58.7836 26.8243 58.7836 27.8579C58.8 29.0392 58.0125 30.2532 57.0937 30.9259C55.8469 31.8446 54.157 31.4837 52.9594 30.647C52.3031 30.204 51.7781 29.597 51.5648 28.8259C51.368 28.1696 51.7453 27.6282 52.2047 27.2181C52.6312 29.2853 53.632 30.7782 55.9453 29.5149C56.175 29.4001 56.2898 29.236 56.3391 29.0556ZM51.9914 21.2626C51.8601 21.1806 51.6961 21.1149 51.5156 21.1149C45.6586 21.1314 39.8672 22.0009 34.0102 22.0829C34.6336 17.5876 36.0609 13.2071 40.2281 10.9923C43.2305 9.38448 47.6109 8.59698 50.0227 11.5993C51.2039 13.0759 51.532 15.1759 51.7617 16.9806C51.9094 18.4079 52.0078 19.8517 51.9914 21.2626ZM30.7125 17.5056C31.7297 14.0439 33.5508 10.8939 36.4875 8.74463C41.3602 5.16807 49.0219 5.59463 52.9758 10.3853C54.682 12.4524 55.1578 14.8478 55.3875 17.4399C55.6828 21.0165 55.7156 24.5931 55.9125 28.1696C55.6664 28.022 55.3547 27.9728 55.0594 28.1532C54.8953 28.2517 54.7148 28.3173 54.5344 28.3337C54.4851 28.3337 54.3539 28.2681 54.3703 28.2845C54.075 28.0548 53.9437 27.579 53.8453 27.1853C53.5336 26.0532 53.5664 24.7899 53.5664 23.6087C53.5992 20.6392 53.6812 17.686 53.0414 14.7493C52.6477 12.9118 51.975 11.2056 50.6297 9.84385C49.35 8.56417 47.5781 8.02276 45.8062 7.94073C42.4594 7.76026 38.7352 9.4501 36.4547 11.829C32.468 16.0126 32.2547 22.5095 31.8609 27.9728C31.2375 28.1204 30.5977 28.0712 29.9742 28.0384C29.3508 24.5274 29.7281 20.9017 30.7125 17.5056ZM28.35 28.3993C28.3828 28.6126 28.4977 28.7767 28.6289 28.9079C28.6945 29.2853 28.9898 29.6462 29.4656 29.6626C30.6305 29.679 31.7789 29.8595 32.8781 29.3673C33.1242 29.2524 33.3867 29.0392 33.4195 28.7439C33.4687 28.1696 33.5016 27.5626 33.5508 26.9556C35.1094 28.2845 32.2055 30.9259 30.8109 31.3853C29.5641 31.779 28.0547 31.1228 27.1687 30.2532C26.0203 29.1212 26.6602 27.1032 28.1203 26.7587C28.1859 27.3001 28.2516 27.8579 28.35 28.3993ZM62.0812 74.7634C56.8805 75.1243 51.6797 75.4524 46.4625 75.7806C36.5531 76.404 26.6437 76.929 16.718 76.9782C17.0297 75.6001 17.0789 74.1892 17.0461 72.7782C17.0297 71.8595 16.9805 70.9407 16.9477 70.022C16.9148 68.8243 17.0461 67.6267 17.1445 66.429C17.4891 61.622 17.7516 56.7985 17.932 51.9751C18.3094 42.5743 18.4078 33.1571 18.4078 23.7564C19.4086 23.7564 20.4094 23.7399 21.3937 23.6907C22.3453 23.6415 23.2805 23.461 24.2156 23.4282C25.3969 23.3954 26.7914 23.6087 28.0055 23.3298C27.9727 23.9204 27.9727 24.511 27.9891 25.1017C25.6758 25.4298 24.3305 27.9892 25.1672 30.1876C25.9383 32.1892 28.5797 33.3868 30.6305 33.0915C33.8789 32.6321 38.1281 27.0704 33.6984 25.1509C33.682 25.1509 33.6656 25.1345 33.6492 25.1345C33.682 24.6751 33.7312 24.2157 33.7805 23.7399C39.7359 23.6907 45.6422 22.772 51.5977 22.7556C51.7125 22.7556 51.8273 22.7392 51.9094 22.6899C51.893 23.4446 51.8766 24.3962 51.9422 25.3642C51.893 25.3806 51.8437 25.4134 51.8109 25.4298C50.7773 26.086 49.9406 27.0376 49.875 28.3173C49.8094 29.4985 50.4492 30.5321 51.2531 31.3524C52.8773 33.0095 55.5516 33.5837 57.6187 32.5009C60.818 30.7946 61.7039 24.8884 57.3398 24.3634C57.3234 23.7564 57.2906 23.1657 57.2742 22.5587C58.3406 22.8212 59.407 22.7064 60.5062 22.5915C61.4086 22.4931 62.3273 22.5095 63.2297 22.4767C64.4766 22.4274 65.707 22.329 66.9539 22.2798C66.9867 26.6931 67.4461 31.0899 67.9547 35.4704C68.4961 40.097 68.9719 44.7399 69.5461 49.3665C70.1367 54.1243 70.8422 58.8657 71.4 63.6399C71.6625 65.904 71.7937 68.1681 72.1055 70.4321C72.2203 71.236 72.368 71.9907 72.6469 72.729C72.7617 73.0407 72.8602 73.3689 72.9422 73.6806C72.9586 73.7626 72.975 73.8446 72.9914 73.9267C72.8766 74.1728 72.8766 74.4845 73.0078 74.747C69.4805 73.9103 65.707 74.5173 62.0812 74.7634Z" fill="#111111"/>
<path d="M50.0719 44.3461C48.4969 43.1485 46.3641 43.1813 44.6742 44.1329C43.7063 44.6743 43.0664 45.5274 42.6891 46.4954C41.9344 45.1829 40.8844 44.0836 39.375 43.7883C38.0625 43.5258 36.6844 44.1329 35.7164 45.0024C34.7648 45.8555 34.4203 47.1844 34.3383 48.4149C34.2563 49.8751 34.9453 51.2532 35.618 52.5165C36.4875 54.1571 37.6524 55.6008 38.8992 56.9626C39.8672 58.0126 40.9664 58.9805 42.0164 59.9649C42.8695 60.7524 43.8539 61.6383 44.9859 62.0157C45.2649 62.4258 45.8719 62.6227 46.2656 62.1305C47.4797 60.6212 48.0211 58.8001 48.743 57.0282C49.1367 56.0602 49.7602 55.1743 50.2359 54.2391C50.7117 53.304 51.1219 52.3524 51.45 51.3516C52.2539 48.9891 52.2047 45.954 50.0719 44.3461ZM49.5305 51.8766C48.8742 53.4844 47.8406 54.8954 47.2008 56.5032C46.6594 57.8157 46.2492 59.2102 45.4781 60.4243C44.6414 60.1454 43.9195 59.4235 43.2797 58.8657C42.4266 58.0946 41.6391 57.2743 40.8023 56.5032C38.8008 54.6985 36.8649 52.1555 36.1102 49.5469C35.5359 47.5454 36.75 45.3962 38.9156 45.3797C39.8672 45.3633 40.6055 46.3477 41.0813 47.0368C41.6883 47.9555 42.082 49.0055 42.4266 50.0391C42.7219 50.9087 44.1656 50.6462 44.018 49.711C43.7391 48.054 44.0836 46.4133 45.593 45.511C46.725 44.8219 48.2836 44.9696 49.268 45.8391C50.9742 47.2829 50.2359 50.1212 49.5305 51.8766Z" fill="#111111"/>
</svg>
