<svg width="181" height="28" viewBox="0 0 181 28" fill="none" xmlns="http://www.w3.org/2000/svg">
<g clip-path="url(#clip0)">
<path d="M12.91 12.4946L8.74673 11.6768C6.51637 11.2307 4.36034 9.96686 4.36034 8.03387C4.36034 5.69198 6.59071 3.98203 9.7504 3.98203H10.1221C13.1703 3.98203 15.4378 5.69198 15.8096 8.36842C15.8467 8.62864 16.0698 8.8145 16.33 8.8145H19.0064C19.3038 8.8145 19.5268 8.55429 19.5268 8.2569C19.1179 3.6103 15.4378 0.636475 9.93626 0.636475C4.36034 0.636475 0.680226 3.98203 0.680226 8.07105C0.680226 12.1229 3.76557 14.5019 8.04044 15.3941L12.2038 16.249C14.9545 16.8066 16.2557 17.9962 16.2557 20.1151C16.2557 22.2711 14.2855 24.0181 10.9028 24.0181H10.531C6.77658 24.0181 4.13729 22.3082 3.87709 19.1114C3.87709 18.8511 3.65405 18.6281 3.39384 18.6281H0.717399C0.420016 18.6281 0.159807 18.8884 0.196979 19.1857C0.643054 24.5387 4.36034 27.3637 10.3823 27.3637C16.0698 27.3637 19.9729 24.4642 19.9729 19.9664C19.9729 15.9145 17.5939 13.4239 12.91 12.4946Z" fill="white"/>
<path d="M46.5282 26.2856L36.7146 1.34262C36.6403 1.11958 36.4545 1.00806 36.2314 1.00806H32.2167C31.9937 1.00806 31.8079 1.11958 31.7336 1.34262L21.8455 26.2856C21.6968 26.6202 21.9571 26.9918 22.3287 26.9918H25.0052C25.2283 26.9918 25.4141 26.8432 25.4884 26.6574L27.8304 20.6353C27.9047 20.4495 28.0905 20.3007 28.3136 20.3007H39.9859C40.2089 20.3007 40.3947 20.4495 40.4692 20.6353L42.811 26.6574C42.8853 26.8432 43.0713 26.9918 43.2942 26.9918H46.045C46.4168 26.9918 46.677 26.6202 46.5282 26.2856ZM38.6848 16.9552H29.6146C29.4288 16.9552 29.3173 16.7693 29.3916 16.6206L33.9267 5.02272C34.001 4.83686 34.2985 4.83686 34.3728 5.02272L38.9078 16.6206C38.9822 16.7693 38.8706 16.9552 38.6848 16.9552Z" fill="white"/>
<path d="M64.9698 1.00806H43.7068C43.4095 1.00806 43.1864 1.2311 43.1864 1.52847V3.83319C43.1864 4.13058 43.4095 4.35361 43.7068 4.35361H51.9593C52.2566 4.35361 52.4798 4.57665 52.4798 4.87403V26.5086C52.4798 26.7689 52.7027 26.9918 53.0002 26.9918H55.6766C55.9739 26.9918 56.197 26.7689 56.197 26.5086V4.87403C56.197 4.57665 56.42 4.35361 56.7174 4.35361H64.9698C65.2299 4.35361 65.4902 4.13058 65.4902 3.83319V1.52847C65.4902 1.2311 65.2299 1.00806 64.9698 1.00806Z" fill="white"/>
<path d="M87.0263 1.00806H84.3127C84.0526 1.00806 83.8295 1.2311 83.8295 1.52847V17.4013C83.8295 21.7133 81.7106 24.0924 77.8447 24.0924H77.4729C73.6069 24.0924 71.5252 21.7133 71.5252 17.4013V1.52847C71.5252 1.2311 71.3023 1.00806 71.0048 1.00806H68.3284C68.031 1.00806 67.808 1.2311 67.808 1.52847V17.773C67.808 23.6092 71.1163 27.3636 77.6588 27.3636C84.1269 27.3636 87.5467 23.572 87.5467 17.773V1.52847C87.5467 1.2311 87.2866 1.00806 87.0263 1.00806Z" fill="white"/>
<path d="M109.424 14.6505H107.045C109.498 13.9071 111.32 11.3421 111.32 8.0709C111.32 4.01906 107.937 1.00806 103.179 1.00806H93.5885C92.7336 1.00806 92.0272 1.71434 92.0272 2.56932V26.4714C92.0272 26.7689 92.2503 26.9918 92.5476 26.9918H95.2242C95.5215 26.9918 95.7446 26.7689 95.7446 26.4714V17.1039C95.7446 16.8437 95.9676 16.5835 96.2649 16.5835H104.629C104.778 16.5835 104.889 16.5835 105.001 16.6206H106.748C107.008 16.6206 107.231 16.8437 107.231 17.1039V26.4714C107.231 26.7689 107.491 26.9918 107.751 26.9918H110.428C110.725 26.9918 110.948 26.7689 110.948 26.4714V16.2117C110.948 15.3568 110.279 14.6505 109.424 14.6505ZM102.622 13.2751H96.2649C95.9676 13.2751 95.7446 13.0149 95.7446 12.7547V4.87403C95.7446 4.57665 95.9676 4.35361 96.2649 4.35361H102.622C105.744 4.35361 107.603 5.84052 107.603 8.6285C107.603 11.2678 105.744 13.2751 102.622 13.2751Z" fill="white"/>
<path d="M124.88 1.00806H117.148C116.293 1.00806 115.587 1.71434 115.587 2.56932V25.4306C115.587 26.2856 116.293 26.9918 117.148 26.9918H124.88C132.091 26.9918 136.924 22.0851 136.924 13.9814C136.924 5.95204 132.091 1.00806 124.88 1.00806ZM124.509 23.6463H119.825C119.527 23.6463 119.304 23.4232 119.304 23.1259V4.87403C119.304 4.57665 119.527 4.35361 119.825 4.35361H124.509C130.084 4.35361 133.207 7.73634 133.207 13.9814C133.207 20.2636 130.084 23.6463 124.509 23.6463Z" fill="white"/>
<path d="M162.257 26.2856L152.445 1.34262C152.37 1.11958 152.184 1.00806 151.961 1.00806H147.946C147.723 1.00806 147.537 1.11958 147.463 1.34262L137.575 26.2856C137.427 26.6202 137.686 26.9918 138.058 26.9918H140.734C140.958 26.9918 141.144 26.8432 141.218 26.6574L143.56 20.6353C143.634 20.4495 143.819 20.3007 144.043 20.3007H155.716C155.938 20.3007 156.124 20.4495 156.198 20.6353L158.541 26.6574C158.615 26.8432 158.801 26.9918 159.023 26.9918H161.775C162.147 26.9918 162.406 26.6202 162.257 26.2856ZM154.415 16.9552H145.344C145.158 16.9552 145.046 16.7693 145.121 16.6206L149.656 5.02272C149.73 4.83686 150.028 4.83686 150.102 5.02272L154.638 16.6206C154.711 16.7693 154.601 16.9552 154.415 16.9552Z" fill="white"/>
<path d="M180.134 0.970947H177.161C176.975 0.970947 176.826 1.08247 176.714 1.23116L170.246 12.0485C170.136 12.2343 169.912 12.2343 169.801 12.0485L163.221 1.23116C163.147 1.08247 162.961 0.970947 162.775 0.970947H159.689C159.281 0.970947 159.021 1.41702 159.244 1.78874L167.98 16.0631C168.017 16.1746 168.053 16.2489 168.053 16.3606V26.4715C168.053 26.7318 168.276 26.9547 168.574 26.9547H171.251C171.51 26.9547 171.771 26.7318 171.771 26.4715V16.3606C171.771 16.2489 171.771 16.1746 171.845 16.1003L180.544 1.78874C180.767 1.41702 180.506 0.970947 180.134 0.970947Z" fill="white"/>
</g>
<defs>
<clipPath id="clip0">
<rect width="180.727" height="28" fill="white"/>
</clipPath>
</defs>
</svg>
