<svg width="137" height="28" viewBox="0 0 137 28" fill="none" xmlns="http://www.w3.org/2000/svg">
<path d="M22.151 0C16.691 0 11.5457 0.874863 7.69569 2.48486C4.19569 3.95486 2.20096 5.845 2.20096 7.7C2.20096 9.45 3.9511 11.2348 7.0661 12.6348C7.4861 12.8448 8.01123 12.8452 8.43123 12.7052C12.1762 11.2702 17.006 10.5 22.151 10.5C27.366 10.5 32.2657 11.305 36.0457 12.775C36.3607 12.88 36.7111 12.88 36.9911 12.775C40.2461 11.34 42.101 9.51983 42.101 7.73486C42.101 5.87986 40.1062 3.98973 36.6062 2.51973C32.7562 0.874727 27.611 0 22.151 0ZM0.80096 10.9198C0.66096 10.9198 0.381233 10.9898 0.206233 11.2698C0.136233 11.4098 0.10096 11.5502 0.10096 11.6902V18.2C0.10096 22.68 6.50569 26.3552 15.5707 27.5802C15.9907 27.6502 16.271 27.1598 16.026 26.8448C15.256 25.6548 14.8009 24.255 14.8009 22.75C14.8009 20.93 15.4658 19.2502 16.5858 17.9552C16.8308 17.6752 16.6557 17.2198 16.2707 17.1848C9.4107 16.3448 3.95096 14.1748 1.50096 11.2348C1.32596 11.0248 1.08096 10.9198 0.80096 10.9198ZM43.5009 10.9552C43.2209 10.9202 42.9759 11.0598 42.8009 11.2698C39.6859 14.9448 31.7059 17.5 22.151 17.5L21.4509 17.5698C18.8959 17.9198 16.901 20.125 16.901 22.75C16.901 25.235 18.6159 27.2998 20.9259 27.8598L22.151 28C34.506 28 44.201 23.695 44.201 18.2V11.6902C44.201 11.5502 44.1657 11.4102 44.0957 11.3052C43.9207 11.0252 43.641 10.9552 43.5009 10.9552ZM33.0009 21C33.5959 21 34.0509 21.455 34.0509 22.05C34.0509 22.645 33.5959 23.1 33.0009 23.1C32.4059 23.1 31.951 22.645 31.951 22.05C31.951 21.455 32.4059 21 33.0009 21ZM27.401 22.05C27.996 22.05 28.451 22.505 28.451 23.1C28.451 23.695 27.996 24.15 27.401 24.15C26.806 24.15 26.351 23.695 26.351 23.1C26.351 22.505 26.806 22.05 27.401 22.05ZM22.151 22.4C22.746 22.4 23.2009 22.855 23.2009 23.45C23.2009 24.045 22.746 24.5 22.151 24.5C21.556 24.5 21.101 24.045 21.101 23.45C21.101 22.855 21.556 22.4 22.151 22.4Z" fill="#111111"/>
<path d="M63.5758 11.058C63.5338 9.61602 62.9038 8.59393 61.8538 8.10393C61.1118 7.76793 60.1598 7.75393 59.1098 7.71193C58.1998 7.68393 55.4418 7.71193 54.6158 7.72593H52.9498V18.6319H54.6298V14.2359C54.6298 14.2359 57.3738 14.278 58.8018 14.25C59.6138 14.236 60.3418 14.222 60.9718 14.068C62.6938 13.634 63.6318 12.612 63.5758 11.058ZM61.6438 10.876C61.6718 12.066 60.8458 12.696 59.2078 12.738C58.1438 12.766 54.6298 12.724 54.6298 12.724V9.08402C55.3438 9.08402 57.7938 9.07002 58.8438 9.07002C60.6078 9.08402 61.6298 9.56002 61.6438 10.876Z" fill="#111111"/>
<path d="M75.7918 9.15408V7.72607H67.1958V18.6321H75.7918V17.1621H68.8618V13.8021H73.7758V12.3741H68.8618V9.15408H75.7918Z" fill="#111111"/>
<path d="M79.4494 7.72607V9.16809H84.0694V18.6321H85.7493V9.16809H90.3697V7.72607H79.4494Z" fill="#111111"/>
<path d="M102.692 12.4996C100.956 12.2196 99.0942 12.3736 97.3302 12.2056C96.5042 12.1216 95.7761 11.7716 95.6361 11.3516C95.4961 10.9036 95.7201 10.3996 95.9861 10.1196C96.5741 9.50364 97.9043 9.13964 99.3743 9.09764C100.774 9.05564 102.23 9.36364 102.93 10.1056C103.49 10.6796 103.518 11.5196 103.518 11.5196H105.156C105.156 11.5196 105.184 10.9736 104.862 10.3296C103.994 8.52369 102.454 8.07568 101.348 7.85168C100.676 7.71168 95.9721 7.24969 94.3341 9.71364C93.6901 10.6796 93.8161 12.0236 94.5301 12.8076C95.3981 13.7596 97.1481 13.8996 99.6681 13.9276C101.46 13.9556 102.944 14.0116 103.462 14.5436C104.078 15.1736 103.896 16.2936 102.706 16.7976C101.208 17.4416 98.0023 17.4836 96.7143 16.8116C95.4823 16.1676 95.4681 14.9636 95.4681 14.9636H93.7741C93.7741 14.9636 93.8021 16.5036 94.9081 17.4836C96.9661 19.2896 102.762 19.1916 104.526 17.6236C105.38 16.8816 105.59 15.8456 105.422 14.8656C105.17 13.3816 103.98 12.7236 102.692 12.4996Z" fill="#111111"/>
<path d="M114.519 12.9621L120.651 7.72607H118.201L110.851 14.1241V7.72607H109.185V18.6321H110.851V16.0981L113.329 13.9981L118.593 18.6321H121.057L114.519 12.9621Z" fill="#111111"/>
<path d="M133.689 7.72607L130.161 12.2201L126.563 7.72607H124.351L129.251 13.4801V18.6461H130.931V13.4941L135.817 7.72607H133.689Z" fill="#111111"/>
</svg>
