<svg width="194" height="28" viewBox="0 0 194 28" fill="none" xmlns="http://www.w3.org/2000/svg">
<g clip-path="url(#clip0)">
<path d="M21.8291 13.8018C21.8664 10.9644 22.1277 3.90846 22.3517 0.95913L22.1651 0.772461C20.7091 0.95913 19.2904 0.95913 17.8344 0.772461L17.6477 0.95913C17.9464 3.46046 18.1331 9.0978 18.1704 12.4578C13.8024 13.9138 7.94106 10.8898 5.10373 15.0338V13.8018C5.14106 10.9644 5.40239 3.90846 5.62639 0.95913L5.43973 0.772461C3.98373 0.921794 2.56506 0.921794 1.10906 0.772461L0.922394 0.95913C1.25839 3.8338 1.44506 10.9271 1.44506 13.8018C1.44506 16.7884 1.25839 23.8818 0.922394 26.9058L1.10906 27.0924H5.43973L5.62639 26.9058C5.40239 24.6658 5.21573 20.1111 5.14106 16.7138C7.97839 12.9058 13.8024 15.5938 18.1704 14.1378C18.1704 17.2738 17.9837 23.9938 17.6477 26.9058L17.8344 27.0924H22.1651L22.3517 26.9058C22.0531 23.8818 21.7917 16.7884 21.8291 13.8018Z" fill="white"/>
<path d="M46.6353 0.95913L46.4486 0.772461C45.5153 0.95913 43.6486 0.95913 42.7153 0.772461L42.5286 0.95913C42.342 1.96713 34.3526 23.8444 33.1953 26.9058L33.382 27.0924H34.9126L35.0993 26.9431C35.398 25.9351 36.406 22.7244 37.6753 18.9164C39.654 16.3404 44.9553 16.5644 48.2033 16.5644L52.0486 27.0924H55.782L55.9686 26.9058C54.8113 23.8444 46.822 1.96713 46.6353 0.95913ZM38.6833 15.8924C40.326 11.0764 42.118 5.92446 43.3126 3.1618L47.382 14.3244C44.8806 14.3244 40.6993 14.1378 38.6833 15.8924Z" fill="white"/>
<path d="M77.6652 13.2045C77.5159 13.2045 77.2919 13.2045 77.1799 13.1672C76.6572 13.0552 76.9932 12.7565 77.1799 12.6072C77.4039 12.4205 77.5159 12.3459 77.7025 12.2339C81.7719 9.99386 82.3319 8.53789 82.3319 6.18589C82.3319 3.08723 79.7558 0.959229 74.7532 0.959229H66.4279L66.2412 1.1459C66.5772 4.02056 66.7639 10.9272 66.7639 13.8019C66.7639 16.7885 66.5772 23.8819 66.2412 26.9059L66.4279 27.0925C66.8759 27.0925 67.6599 27.0925 68.4812 27.0925H75.8732C81.3239 27.0925 84.1985 25.2259 84.1985 20.0365C84.1985 16.6765 83.0785 12.9432 77.6652 13.2045ZM74.7532 2.45256C76.8065 2.45256 78.2252 3.94589 78.2252 6.18589C78.2252 9.02323 77.8145 10.4045 70.4225 13.3912L70.6092 2.82589V2.45256H74.7532ZM75.8732 25.5992H70.4225V14.5485C77.0305 12.4205 80.0918 15.1832 80.0918 20.0365C80.0918 23.9565 78.3745 25.5992 75.8732 25.5992Z" fill="white"/>
<path d="M95.5687 27.0924H99.8993L100.086 26.9058C99.75 23.8818 99.5633 16.9378 99.5633 13.9138C99.5633 11.0764 99.75 3.72182 100.086 0.996485L99.8993 0.809814C98.966 0.996485 96.502 0.996485 95.5687 0.809814L95.382 0.996485C95.718 3.98315 95.9047 11.1884 95.9047 13.9138C95.9047 16.9004 95.718 23.8818 95.382 26.9058L95.5687 27.0924Z" fill="white"/>
<path d="M134.974 1.1459L134.787 0.959229H112.425L112.238 1.1459L111.865 5.06589H112.425C113.171 3.19923 116.83 2.45256 118.659 2.45256C119.593 2.45256 120.563 2.45256 121.534 2.41523C121.795 5.55123 121.945 11.3379 121.945 13.9139C121.945 16.9005 121.758 23.8819 121.422 26.9059L121.609 27.0925H125.566L125.753 26.9059C125.417 23.8445 125.23 16.9379 125.23 13.9139C125.23 11.3752 125.379 5.55123 125.641 2.45256H128.553C130.382 2.45256 134.041 3.19923 134.787 5.06589H135.347L134.974 1.1459Z" fill="white"/>
<path d="M154.778 0.95913L154.592 0.772461C153.658 0.95913 151.792 0.95913 150.858 0.772461L150.672 0.95913C150.485 1.96713 142.496 23.8444 141.338 26.9058L141.525 27.0924H143.056L143.242 26.9431C143.541 25.9351 144.549 22.7244 145.818 18.9164C147.797 16.3404 153.098 16.5644 156.346 16.5644L160.192 27.0924H163.925L164.112 26.9058C162.954 23.8444 154.965 1.96713 154.778 0.95913ZM146.826 15.8924C148.469 11.0764 150.261 5.92446 151.456 3.1618L155.525 14.3244C153.024 14.3244 148.842 14.1378 146.826 15.8924Z" fill="white"/>
<path d="M192.637 1.1459L192.451 0.959229H170.088L169.901 1.1459L169.528 5.06589H170.088C170.835 3.19923 174.493 2.45256 176.323 2.45256C177.256 2.45256 178.227 2.45256 179.197 2.41523C179.459 5.55123 179.608 11.3379 179.608 13.9139C179.608 16.9005 179.421 23.8819 179.085 26.9059L179.272 27.0925H183.229L183.416 26.9059C183.08 23.8445 182.893 16.9379 182.893 13.9139C182.893 11.3752 183.043 5.55123 183.304 2.45256H186.216C188.045 2.45256 191.704 3.19923 192.451 5.06589H193.011L192.637 1.1459Z" fill="white"/>
</g>
<defs>
<clipPath id="clip0">
<rect width="193.2" height="28" fill="white"/>
</clipPath>
</defs>
</svg>
