<svg width="192" height="28" viewBox="0 0 192 28" fill="none" xmlns="http://www.w3.org/2000/svg">
<g clip-path="url(#clip0)">
<path d="M0 0.523438H5.98237L16.1787 15.1971V0.523438H23.3275V26.8609H16.9313L6.7725 12.1871V26.8609H0V0.523438Z" fill="white"/>
<path d="M36.1112 27.3499C34.7065 27.3499 33.3897 27.1492 32.1605 26.7479C30.9315 26.3215 29.8529 25.6819 28.9248 24.829C27.9968 23.9762 27.2693 22.9101 26.7425 21.6309C26.2158 20.3266 25.9524 18.809 25.9524 17.0783V16.3258C25.9524 14.6954 26.2158 13.2656 26.7425 12.0365C27.2693 10.8075 27.9968 9.77901 28.9248 8.95126C29.8529 8.12355 30.9315 7.49647 32.1605 7.07005C33.3897 6.64363 34.7065 6.43042 36.1112 6.43042C37.5159 6.43042 38.8328 6.64363 40.0618 7.07005C41.2909 7.49647 42.3695 8.12355 43.2975 8.95126C44.2257 9.77901 44.953 10.8075 45.4798 12.0365C46.0065 13.2656 46.2699 14.6954 46.2699 16.3258V17.0783C46.2699 18.784 46.0065 20.289 45.4798 21.5933C44.953 22.8725 44.2257 23.9386 43.2975 24.7914C42.3695 25.6442 41.2909 26.2839 40.0618 26.7103C38.8328 27.1367 37.5159 27.3499 36.1112 27.3499ZM36.1112 22.5339C37.4657 22.5339 38.5067 22.0448 39.234 21.0665C39.9615 20.0883 40.3252 18.7589 40.3252 17.0783V16.3258C40.3252 14.8208 39.9615 13.6042 39.234 12.6761C38.5067 11.723 37.4657 11.2464 36.1112 11.2464C34.7567 11.2464 33.7158 11.723 32.9883 12.6761C32.2609 13.6042 31.8972 14.8208 31.8972 16.3258V17.0783C31.8972 18.809 32.2609 20.151 32.9883 21.1041C33.7158 22.0574 34.7567 22.5339 36.1112 22.5339Z" fill="white"/>
<path d="M48.1365 6.91955H53.4792V9.62851C53.6297 9.30248 53.8555 8.95126 54.1565 8.57505C54.4826 8.19879 54.8588 7.84763 55.2852 7.52155C55.7117 7.19547 56.1882 6.93209 56.715 6.73143C57.2668 6.53076 57.8563 6.43042 58.4833 6.43042C58.9098 6.43042 59.2484 6.45551 59.4992 6.50568C59.7501 6.55584 59.9758 6.60601 60.1765 6.65618V11.6603C60.0511 11.585 59.7626 11.4972 59.3111 11.3969C58.8596 11.2966 58.3328 11.2464 57.7308 11.2464C56.4015 11.2464 55.4357 11.6352 54.8337 12.4128C54.2317 13.1904 53.9307 14.131 53.9307 15.2346V26.8608H48.1365V6.91955Z" fill="white"/>
<path d="M70.8688 27.0865C69.6146 27.0865 68.536 26.9736 67.633 26.7479C66.73 26.4971 65.9901 26.0957 65.4132 25.5439C64.8362 24.9921 64.4098 24.2772 64.1338 23.3992C63.8579 22.4962 63.72 21.3926 63.72 20.0882V11.6602H61.2743V6.91954H63.72V2.40454H69.5142V6.91954H74.0669V11.6602H69.5142V19.1476C69.5142 20.2764 69.6898 21.0791 70.041 21.5556C70.4173 22.0322 71.1321 22.2705 72.1856 22.2705C72.9381 22.2705 73.6906 22.2329 74.4432 22.1576V26.8984C73.9666 26.9486 73.4648 26.9862 72.9381 27.0112C72.4114 27.0615 71.7216 27.0865 70.8688 27.0865Z" fill="white"/>
<path d="M76.339 0.523438H82.1333V9.44052C82.334 9.1145 82.6099 8.77587 82.961 8.42469C83.3122 8.07352 83.7386 7.74744 84.2403 7.44644C84.767 7.14544 85.369 6.90714 86.0463 6.73157C86.7235 6.53089 87.476 6.43056 88.3041 6.43056C90.6867 6.43056 92.4805 7.08273 93.6845 8.38706C94.913 9.66627 95.5281 11.4849 95.5281 13.8426V26.8609H89.7339V15.1971C89.7339 13.8929 89.4451 12.9146 88.8685 12.2624C88.3164 11.5851 87.4008 11.2465 86.1215 11.2465C84.7169 11.2465 83.701 11.6228 83.0739 12.3753C82.4469 13.1278 82.1333 14.0684 82.1333 15.1971V26.8609H76.339V0.523438Z" fill="white"/>
<path d="M96.1187 6.91968H102.364L105.149 19.1854L108.648 6.91968H114.066L117.828 19.0725L120.951 6.91968H126.595L121.026 26.8609H115.232L111.319 13.9179L107.481 26.8609H101.687L96.1187 6.91968Z" fill="white"/>
<path d="M137.137 27.3499C135.683 27.3499 134.315 27.1492 133.036 26.7479C131.782 26.3215 130.691 25.6819 129.763 24.829C128.835 23.9762 128.107 22.9101 127.58 21.6309C127.054 20.3266 126.79 18.809 126.79 17.0783V16.3258C126.79 14.6703 127.041 13.228 127.543 11.9989C128.069 10.7699 128.772 9.74139 129.65 8.91364C130.553 8.08592 131.606 7.47138 132.81 7.07005C134.04 6.64363 135.356 6.43042 136.761 6.43042C140.047 6.43042 142.531 7.28326 144.211 8.98888C145.891 10.6695 146.731 13.1151 146.731 16.3258V18.3951H132.735C132.76 19.1727 132.899 19.8375 133.149 20.3893C133.4 20.916 133.726 21.355 134.127 21.7061C134.529 22.0574 134.98 22.3207 135.482 22.4963C136.008 22.6468 136.56 22.722 137.137 22.722C138.241 22.722 139.107 22.559 139.733 22.2329C140.386 21.8817 140.812 21.4177 141.012 20.8408H146.355C145.954 23.023 144.963 24.6535 143.383 25.732C141.803 26.8106 139.721 27.3499 137.137 27.3499ZM136.949 11.0206C136.422 11.0206 135.909 11.0834 135.406 11.2088C134.93 11.3342 134.491 11.5474 134.089 11.8484C133.713 12.1244 133.4 12.488 133.149 12.9395C132.923 13.391 132.798 13.9429 132.773 14.595H141.05C141.05 13.8927 140.937 13.3158 140.711 12.8643C140.486 12.4128 140.185 12.0491 139.808 11.7731C139.458 11.4972 139.031 11.3091 138.529 11.2088C138.028 11.0834 137.501 11.0206 136.949 11.0206Z" fill="white"/>
<path d="M157.261 27.3499C155.63 27.3499 154.226 27.1869 153.047 26.8608C151.893 26.5096 150.94 26.0456 150.188 25.4686C149.435 24.8666 148.871 24.1769 148.495 23.3993C148.118 22.5966 147.905 21.7438 147.855 20.8408H153.649C153.8 21.4177 154.125 21.9069 154.627 22.3081C155.129 22.7095 156.006 22.9101 157.261 22.9101C158.54 22.9101 159.456 22.7346 160.008 22.3834C160.584 22.0322 160.873 21.5682 160.873 20.9913C160.873 20.7655 160.81 20.5649 160.685 20.3893C160.559 20.1886 160.321 20.013 159.97 19.8625C159.644 19.687 159.192 19.5239 158.616 19.3734C158.038 19.2229 157.299 19.0724 156.396 18.9219C155.292 18.7464 154.251 18.5206 153.273 18.2446C152.295 17.9687 151.442 17.605 150.714 17.1535C150.012 16.677 149.447 16.075 149.021 15.3475C148.62 14.6201 148.419 13.7046 148.419 12.6009C148.419 11.723 148.62 10.9078 149.021 10.1553C149.422 9.40276 150 8.75062 150.752 8.1988C151.529 7.64697 152.457 7.22055 153.536 6.91955C154.64 6.59347 155.881 6.43042 157.261 6.43042C158.816 6.43042 160.121 6.61855 161.174 6.9948C162.252 7.37105 163.131 7.87272 163.808 8.49979C164.485 9.10176 164.986 9.79161 165.313 10.5691C165.638 11.3467 165.84 12.1369 165.915 12.9395H160.121C159.97 12.2874 159.644 11.7857 159.142 11.4345C158.64 11.0583 158.014 10.8701 157.261 10.8701C156.107 10.8701 155.305 11.0457 154.853 11.3969C154.426 11.7481 154.214 12.162 154.214 12.6385C154.214 13.1653 154.564 13.5791 155.267 13.8801C155.969 14.1561 157.085 14.3944 158.616 14.595C159.694 14.7455 160.723 14.9587 161.701 15.2346C162.679 15.5106 163.531 15.8994 164.259 16.401C165.012 16.8776 165.601 17.4921 166.028 18.2446C166.454 18.9721 166.667 19.8625 166.667 20.916C166.667 22.8224 165.864 24.3775 164.259 25.5815C162.679 26.7605 160.346 27.3499 157.261 27.3499Z" fill="white"/>
<path d="M176.814 27.0865C175.56 27.0865 174.481 26.9736 173.578 26.7479C172.675 26.4971 171.935 26.0957 171.358 25.5439C170.782 24.9921 170.355 24.2772 170.079 23.3992C169.803 22.4962 169.665 21.3926 169.665 20.0882V11.6602H167.22V6.91954H169.665V2.40454H175.459V6.91954H180.012V11.6602H175.459V19.1476C175.459 20.2764 175.635 21.0791 175.986 21.5556C176.362 22.0322 177.077 22.2705 178.131 22.2705C178.883 22.2705 179.636 22.2329 180.388 22.1576V26.8984C179.911 26.9486 179.41 26.9862 178.883 27.0112C178.357 27.0615 177.667 27.0865 176.814 27.0865Z" fill="white"/>
<path fill-rule="evenodd" clip-rule="evenodd" d="M187.049 4.49365H185.599V8.10303H186.255V6.72116H187.037L187.885 8.10303H188.607L187.645 6.64897C187.929 6.5699 188.143 6.441 188.284 6.26225C188.427 6.08006 188.498 5.86522 188.498 5.61772C188.498 5.45271 188.466 5.30147 188.405 5.16396C188.343 5.02647 188.252 4.90788 188.131 4.80819C188.011 4.7085 187.86 4.63115 187.677 4.57616C187.499 4.52115 187.289 4.49365 187.049 4.49365ZM187.639 6.05085C187.508 6.15397 187.275 6.20553 186.939 6.20553H186.255V5.02991H186.939C187.275 5.02991 187.508 5.08147 187.639 5.18459C187.774 5.28772 187.842 5.43209 187.842 5.61772C187.842 5.80334 187.774 5.94772 187.639 6.05085Z" fill="white"/>
<path fill-rule="evenodd" clip-rule="evenodd" d="M181.99 6.29834C181.99 3.64047 184.145 1.48584 186.802 1.48584C189.46 1.48584 191.615 3.64047 191.615 6.29834C191.615 8.9562 189.46 11.1108 186.802 11.1108C184.145 11.1108 181.99 8.9562 181.99 6.29834ZM186.802 10.4546C184.507 10.4546 182.646 8.59377 182.646 6.29834C182.646 4.00291 184.507 2.14209 186.802 2.14209C189.098 2.14209 190.958 4.00291 190.958 6.29834C190.958 8.59377 189.098 10.4546 186.802 10.4546Z" fill="white"/>
</g>
<defs>
<clipPath id="clip0">
<rect width="191.625" height="28" fill="white"/>
</clipPath>
</defs>
</svg>
