<svg width="75" height="25" viewBox="0 0 75 25" fill="none" xmlns="http://www.w3.org/2000/svg">
<path d="M9.03308 17.5746C15.0981 17.5746 18.7436 14.5914 18.7436 9.33852C18.7436 4.11803 15.0981 1.39429 9.03308 1.39429H0V24.6757H6.09733V17.5746H9.03308ZM9.00082 6.54994C11.4204 6.54994 12.6786 7.58755 12.6786 9.40337C12.6786 11.1868 11.4204 12.4189 9.00082 12.4189H6.09733V6.54994H9.00082Z" fill="#111111"/>
<path d="M26.7582 3.17769C26.7582 1.32944 25.3065 0 23.2095 0C21.1125 0 19.6608 1.32944 19.6608 3.17769C19.6608 4.99351 21.1125 6.32296 23.2095 6.32296C25.3065 6.32296 26.7582 4.99351 26.7582 3.17769ZM26.0162 24.6757V7.23087H20.4996V24.6757H26.0162Z" fill="#111111"/>
<path d="M44.9938 7.23087H39.3803L35.8316 18.3852L32.3474 7.23087H26.3469L32.6378 24.6757H38.7674L44.9938 7.23087Z" fill="#111111"/>
<path d="M62.2005 15.9533C62.2005 10.9598 58.2646 6.90661 53.1351 6.90661C48.0056 6.90661 44.0698 10.9598 44.0698 15.9533C44.0698 20.9468 48.0056 25 53.1351 25C58.2646 25 62.2005 20.9468 62.2005 15.9533ZM49.8122 15.9533C49.8122 13.2296 51.4253 11.9001 53.1351 11.9001C54.8449 11.9001 56.458 13.2296 56.458 15.9533C56.458 18.677 54.8449 20.0389 53.1351 20.0389C51.4253 20.0389 49.8122 18.677 49.8122 15.9533Z" fill="#111111"/>
<path d="M74.871 24.0597V19.2283C74.258 19.6174 73.3869 19.8444 72.4836 19.8444C70.9674 19.8444 70.2576 19.0661 70.2576 17.38V12.0623H75V7.23087H70.2576V2.10765H64.741V7.23087H61.5149V12.0623H64.741V18.677C64.741 22.6654 67.0315 25 70.9351 25C72.4837 25 73.645 24.7406 74.871 24.0597Z" fill="#111111"/>
</svg>
