<svg width="135" height="59" viewBox="0 0 135 59" fill="none" xmlns="http://www.w3.org/2000/svg">
<g clip-path="url(#clip0_17:103)">
<path d="M18.454 35.0668C18.1363 34.3704 17.6982 33.7664 17.1342 33.2549C16.5702 32.7488 15.9021 32.3299 15.1245 31.998C14.3415 31.6716 13.4928 31.3886 12.5728 31.1601C11.6035 30.9316 10.804 30.703 10.1798 30.48C9.55004 30.2515 9.0627 30.023 8.70125 29.7943C8.3453 29.5658 8.09344 29.3264 7.95653 29.087C7.81421 28.8476 7.74297 28.5865 7.74297 28.309C7.74297 27.8737 7.89631 27.52 8.203 27.2425C8.50968 26.9596 8.90384 26.8236 9.39126 26.8236C10.5412 26.8236 11.2804 27.5582 11.6144 29.0327H18.3991C18.2732 28.1186 17.9885 27.2589 17.5559 26.4591C17.1233 25.6593 16.5427 24.9737 15.8145 24.4024C15.0862 23.8311 14.221 23.3794 13.2244 23.0529C12.2278 22.721 11.0887 22.5577 9.81288 22.5577C8.46029 22.5577 7.22823 22.7101 6.11661 23.0149C5.00504 23.3195 4.05766 23.7548 3.28005 24.3261C2.49704 24.8974 1.90015 25.583 1.47853 26.3828C1.05686 27.1828 0.843291 28.0913 0.843291 29.1088C0.843291 30.8554 1.39638 32.2103 2.49152 33.1624C3.59224 34.1146 5.12541 34.8165 7.09131 35.2736C8.9313 35.7088 10.2181 36.1277 10.9464 36.5304C11.6747 36.9384 12.0361 37.4717 12.0361 38.13C12.0361 38.6632 11.8281 39.0605 11.4064 39.3109C10.9848 39.5665 10.4645 39.6917 9.85116 39.6917C9.11195 39.6917 8.46581 39.4576 7.91823 38.9899C7.36514 38.5218 6.99279 37.8906 6.78475 37.1017H0C0.284752 39.4141 1.30326 41.1335 3.06654 42.2653C4.82977 43.3916 7.10772 43.9574 9.88951 43.9574C11.1162 43.9574 12.277 43.8323 13.3777 43.5767C14.4784 43.3262 15.4421 42.9346 16.2745 42.4177C17.1014 41.8952 17.7529 41.2369 18.2238 40.4371C18.7003 39.6373 18.9358 38.6905 18.9358 37.5969C18.9358 36.6067 18.7771 35.7632 18.454 35.0668" fill="#124447"/>
<path d="M96.3991 35.0668C96.076 34.3704 95.638 33.7664 95.0739 33.2549C94.5099 32.7488 93.8419 32.3299 93.0644 31.998C92.2812 31.6716 91.4324 31.3886 90.5125 31.1601C89.5433 30.9316 88.7439 30.703 88.1194 30.48C87.4898 30.2515 87.0023 30.023 86.641 29.7943C86.2851 29.5658 86.0332 29.3264 85.8964 29.087C85.7539 28.8476 85.6827 28.5865 85.6827 28.309C85.6827 27.8737 85.8361 27.52 86.1427 27.2425C86.4494 26.9596 86.849 26.8236 87.331 26.8236C88.4809 26.8236 89.2257 27.5582 89.5542 29.0327H96.3389C96.2129 28.1186 95.9282 27.2589 95.4957 26.4591C95.0628 25.6593 94.4825 24.9737 93.7543 24.4024C93.026 23.8311 92.1608 23.3794 91.1641 23.0529C90.1675 22.721 89.0341 22.5577 87.7527 22.5577C86.4001 22.5577 85.168 22.7101 84.0563 23.0149C82.9448 23.3195 81.9974 23.7548 81.2198 24.3261C80.4423 24.8974 79.8399 25.583 79.4183 26.3828C78.9967 27.1828 78.7885 28.0913 78.7885 29.1088C78.7885 30.8554 79.3361 32.2103 80.4369 33.1624C81.5319 34.1146 83.0652 34.8165 85.031 35.2736C86.871 35.7088 88.1578 36.1277 88.8861 36.5304C89.6145 36.9384 89.9758 37.4717 89.9758 38.13C89.9758 38.6632 89.7678 39.0605 89.3463 39.3109C88.9244 39.5665 88.4043 39.6917 87.7909 39.6917C87.0518 39.6917 86.4055 39.4576 85.8578 38.9899C85.3049 38.5218 84.9325 37.8906 84.7244 37.1017H77.9453C78.2245 39.4141 79.2484 41.1335 81.0119 42.2653C82.7696 43.3916 85.0475 43.9574 87.8293 43.9574C89.0559 43.9574 90.2223 43.8323 91.3175 43.5767C92.4182 43.3262 93.3819 42.9346 94.2143 42.4177C95.0411 41.8952 95.6927 41.2369 96.1691 40.4371C96.64 39.6373 96.8754 38.6905 96.8754 37.5969C96.8754 36.6067 96.7167 35.7632 96.3991 35.0668" fill="#124447"/>
<path d="M54.3057 29.3918C54.2782 28.7715 54.2289 28.2056 54.1523 27.6995C54.0482 27.014 53.8292 26.3611 53.4842 25.7354C53.1392 25.1151 52.6793 24.5711 52.1043 24.0976C51.5294 23.6297 50.8394 23.2543 50.0343 22.9768C49.2294 22.6939 48.315 22.5577 47.291 22.5577C46.7486 22.5577 46.2044 22.5888 45.6689 22.6769C44.7141 22.8339 43.7659 23.1479 42.9497 23.6723C42.1486 24.1868 41.4988 24.9047 41.0428 25.7356C40.9798 25.8504 40.9203 25.9672 40.8643 26.0857C40.8369 26.1439 40.6845 26.3894 40.7069 26.4457C40.2645 25.337 39.5182 24.4128 38.4583 23.6787C37.6021 23.0857 36.5778 22.7738 35.5508 22.6411C34.2648 22.4748 32.8912 22.5109 31.6506 22.9145C31.2638 23.0403 30.8898 23.2055 30.5415 23.4149C30.2693 23.5785 30.012 23.7662 29.7728 23.9746C29.6894 24.0472 29.608 24.1222 29.5291 24.1994C28.9064 24.8079 28.4424 25.5586 28.1306 26.3666V23.0911H21.231V43.4243H28.1306V32.6836C28.1306 30.9316 28.3661 29.5822 28.837 28.63C29.3133 27.6778 30.1075 27.2044 31.2355 27.2044C32.128 27.2044 32.8126 27.4765 33.2835 28.0206C33.7544 28.5648 34.0556 29.3211 34.1869 30.2842C34.2362 30.7956 34.2746 31.3016 34.3021 31.8077C34.324 32.3191 34.3403 32.7381 34.3403 33.0645V43.4243H41.2345V32.6836C41.2345 30.9316 41.4755 29.5822 41.9464 28.63C42.4174 27.6778 43.2168 27.2044 44.3395 27.2044C45.2375 27.2044 45.9165 27.4765 46.3928 28.0206C46.8639 28.5648 47.1651 29.3211 47.291 30.2842C47.3457 30.7956 47.384 31.3016 47.406 31.8077C47.4333 32.3191 47.4442 32.7381 47.4442 33.0645V43.4243H54.3439V31.541C54.3439 30.7303 54.3331 30.012 54.3057 29.3918" fill="#124447"/>
<path d="M66.0082 39.3109C65.3182 39.3109 64.7544 39.1476 64.3217 38.8156C63.8834 38.4892 63.6701 38.0158 63.6701 37.4065C63.6701 36.3944 64.1683 35.6761 65.165 35.2572C66.1615 34.8383 67.4376 34.6914 68.9981 34.8165V36.1495C68.9981 36.6828 68.9052 37.1507 68.7297 37.5425C68.5489 37.9341 68.3135 38.2662 68.0179 38.5327C67.7276 38.7994 67.4047 38.9952 67.0596 39.1204C66.7146 39.251 66.3642 39.3109 66.0082 39.3109V39.3109ZM75.9745 40.5676C75.9196 39.8059 75.8977 39.0441 75.8977 38.2824V32.5693C75.8977 31.2743 75.8594 30.1209 75.7828 29.1088C75.7061 28.1947 75.4927 27.335 75.1475 26.5352C74.8026 25.7354 74.2769 25.039 73.576 24.4404C72.8751 23.8474 71.966 23.3794 70.8545 23.0529C69.7429 22.721 68.3848 22.5577 66.7749 22.5577C65.4716 22.5577 64.2505 22.721 63.1115 23.0529C61.9779 23.3794 60.9814 23.8637 60.1217 24.5003C59.2673 25.1315 58.5829 25.9149 58.0736 26.8398C57.5645 27.7648 57.3071 28.8259 57.3071 30.023L63.8233 29.9793C63.8727 29.0925 64.1245 28.407 64.5682 27.9282C65.0172 27.4439 65.6469 27.2044 66.4681 27.2044C67.2074 27.2044 67.7879 27.4003 68.2097 27.792C68.6312 28.1838 68.8666 28.6353 68.9213 29.1469C68.9708 29.4733 68.9981 29.7508 68.9981 29.9793V30.9316H67.6948C64.1902 30.9316 61.4742 31.5572 59.5301 32.7978C57.5862 34.0438 56.6169 35.7579 56.6169 37.9397C56.6169 38.93 56.8031 39.8004 57.1756 40.5514C57.5424 41.2968 58.0298 41.9278 58.6322 42.434C59.2291 42.9455 59.9246 43.3262 60.7184 43.5767C61.507 43.8323 62.3284 43.9574 63.1716 43.9574C64.0679 43.9574 64.9647 43.8483 65.8304 43.6162C66.2656 43.4996 66.6924 43.3521 67.1061 43.1737C67.6276 42.9491 68.1532 42.6558 68.5278 42.2128C68.9405 41.7244 69.0634 41.0752 69.0747 40.4535L69.5347 43.4242H76.2811C76.1279 42.2817 76.0237 41.3294 75.9745 40.5676" fill="#124447"/>
<path d="M10.7835 53.8472C10.7835 51.0013 8.46164 48.6943 5.59752 48.6943C2.73344 48.6943 0.411621 51.0013 0.411621 53.8472C0.411621 56.6931 2.73344 59 5.59752 59C8.46164 59 10.7835 56.6931 10.7835 53.8472Z" fill="#F25132"/>
<path d="M23.7832 57.8852H21.8421L20.234 52.4192H20.1994L18.5922 57.8852H16.6399L14.3313 49.8059H16.4442L17.7305 55.1808H17.7649L19.2125 49.8059H21.2564L22.7151 55.1808H22.7497L24.0585 49.8059H26.1031L23.7832 57.8852Z" fill="#F25132"/>
<path d="M35.0748 53.8113C35.0748 53.4615 35.017 53.1347 34.9022 52.8302C34.7875 52.5259 34.6288 52.2654 34.4261 52.0485C34.2234 51.8316 33.9783 51.6605 33.6911 51.5349C33.4037 51.4093 33.088 51.3464 32.7437 51.3464C32.3987 51.3464 32.0847 51.4093 31.8017 51.5349C31.5188 51.6605 31.2737 51.8316 31.0667 52.0485C30.8596 52.2654 30.7008 52.5259 30.5904 52.8302C30.4792 53.1347 30.4239 53.4615 30.4239 53.8113C30.4239 54.1766 30.4808 54.5135 30.5957 54.8211C30.7103 55.1293 30.8691 55.3937 31.0728 55.6145C31.2755 55.8351 31.5188 56.0079 31.8017 56.1334C32.0847 56.259 32.3987 56.3221 32.7437 56.3221C33.088 56.3221 33.4021 56.259 33.6849 56.1334C33.968 56.0079 34.2138 55.8351 34.42 55.6145C34.627 55.3937 34.7875 55.1293 34.9022 54.8211C35.017 54.5135 35.0748 54.1766 35.0748 53.8113V53.8113ZM37.1763 53.8113C37.1763 54.4503 37.065 55.0345 36.8434 55.5631C36.6207 56.0918 36.3129 56.5445 35.9186 56.9208C35.5243 57.2976 35.0557 57.5886 34.5123 57.7939C33.968 57.9993 33.3788 58.102 32.7437 58.102C32.108 58.102 31.5204 57.9993 30.9805 57.7939C30.4412 57.5886 29.9736 57.2976 29.5793 56.9208C29.185 56.5445 28.8771 56.0918 28.6554 55.5631C28.4329 55.0345 28.3215 54.4503 28.3215 53.8113C28.3215 53.1649 28.4329 52.5809 28.6554 52.0595C28.8771 51.539 29.1852 51.0956 29.5793 50.7305C29.9736 50.3653 30.4412 50.0837 30.9805 49.8861C31.5204 49.688 32.108 49.589 32.7437 49.589C33.3788 49.589 33.968 49.688 34.5123 49.8861C35.0557 50.0837 35.5243 50.3653 35.9186 50.7305C36.3129 51.0956 36.6209 51.539 36.8434 52.0595C37.065 52.5809 37.1763 53.1649 37.1763 53.8113" fill="#F25132"/>
<path d="M44.8082 52.2824C44.8082 52.0922 44.7676 51.9384 44.6865 51.82C44.6063 51.7023 44.5019 51.6109 44.375 51.5461C44.2483 51.4818 44.1059 51.4376 43.948 51.415C43.7901 51.3923 43.6383 51.3807 43.4925 51.3807H42.4425V53.2636H43.3769C43.5382 53.2636 43.7038 53.2504 43.8729 53.2237C44.0429 53.1971 44.1964 53.1495 44.3346 53.081C44.4735 53.0129 44.5864 52.9137 44.6753 52.7844C44.7633 52.655 44.8082 52.4877 44.8082 52.2824V52.2824ZM44.8884 57.8852L43.1233 54.6787H42.4538V57.8852H40.5359L40.536 49.8059H43.6365C44.0273 49.8059 44.4079 49.8458 44.7796 49.926C45.1506 50.0057 45.4837 50.1407 45.7787 50.331C46.0728 50.5212 46.3085 50.7724 46.4844 51.0841C46.6604 51.3961 46.7492 51.7839 46.7492 52.2482C46.7492 52.796 46.6 53.2562 46.3007 53.6287C46.0022 54.0016 45.5889 54.2678 45.061 54.4278L47.1849 57.8852H44.8884" fill="#F25132"/>
<path d="M55.572 57.8852L52.5518 54.1654H52.5285V57.8852H50.6106V49.8059H52.5285V53.0926H52.5629L55.4686 49.8059H57.9264L54.4229 53.5263L58.1326 57.8852H55.572Z" fill="#F25132"/>
<path d="M65.6216 51.9058C65.4535 51.6927 65.2335 51.5234 64.9616 51.3978C64.6899 51.2722 64.4276 51.2098 64.1749 51.2098C64.0446 51.2098 63.9126 51.2213 63.7789 51.244C63.6452 51.2667 63.5245 51.3104 63.4174 51.3751C63.3096 51.4399 63.22 51.5234 63.1475 51.6264C63.074 51.7288 63.0379 51.8604 63.0379 52.0197C63.0379 52.1568 63.0672 52.2709 63.124 52.3621C63.1821 52.4534 63.2656 52.5332 63.3768 52.6019C63.4882 52.6704 63.6201 52.733 63.7729 52.7901C63.9264 52.8474 64.0982 52.906 64.2896 52.967C64.5658 53.0583 64.853 53.1594 65.1515 53.2696C65.45 53.3798 65.7217 53.5263 65.9667 53.7089C66.2118 53.8915 66.4145 54.1178 66.575 54.388C66.7363 54.6579 66.8166 54.9942 66.8166 55.3977C66.8166 55.8618 66.7303 56.2629 66.5577 56.6016C66.3861 56.9401 66.1541 57.2195 65.8632 57.4403C65.5724 57.6611 65.2395 57.8244 64.8643 57.9306C64.489 58.0375 64.1025 58.0905 63.7039 58.0905C63.1224 58.0905 62.56 57.9898 62.0155 57.7885C61.4719 57.587 61.0209 57.2992 60.6611 56.9268L61.9473 55.6255C62.1457 55.8695 62.4082 56.0727 62.7332 56.2364C63.0594 56.4002 63.3829 56.4816 63.7039 56.4816C63.8498 56.4816 63.9911 56.4665 64.1291 56.4361C64.2671 56.4057 64.3872 56.356 64.4907 56.2878C64.5941 56.2192 64.6761 56.128 64.7374 56.0139C64.7986 55.8995 64.8297 55.7626 64.8297 55.603C64.8297 55.4508 64.7908 55.3217 64.715 55.215C64.6381 55.1088 64.5296 55.0116 64.3872 54.9239C64.2457 54.8364 64.0696 54.7567 63.8592 54.6846C63.6487 54.612 63.4097 54.5344 63.1414 54.4503C62.8809 54.3669 62.6264 54.2678 62.3779 54.1537C62.1286 54.0398 61.907 53.8933 61.7119 53.7145C61.516 53.5356 61.359 53.3188 61.2408 53.0638C61.1217 52.8093 61.063 52.4989 61.063 52.1343C61.063 51.685 61.1546 51.3011 61.3384 50.9811C61.5221 50.662 61.7636 50.3996 62.0621 50.1939C62.3606 49.9887 62.697 49.8385 63.0723 49.7435C63.4476 49.6482 63.8263 49.6007 64.2094 49.6007C64.6693 49.6007 65.1377 49.6843 65.6165 49.8518C66.0944 50.019 66.5136 50.2663 66.8735 50.5935L65.6216 51.9058" fill="#F25132"/>
<path d="M73.7405 51.9628L72.707 54.7359H74.7516L73.7405 51.9628ZM75.9232 57.8852L75.2907 56.2989H72.1444L71.5475 57.8852H69.4114L72.8218 49.8059H74.7283L78.1049 57.8852H75.9232Z" fill="#F25132"/>
<path d="M83.1295 51.472V53.138H86.2759V54.7469H83.1295V57.8852H81.1885V49.8059H86.5398V51.472H83.1295Z" fill="#F25132"/>
<path d="M90.209 57.8852L90.2091 49.8059H95.8542V51.4491H92.1036V52.9785H95.4802V54.5416H92.1036V56.2192H95.8823V57.8852H90.209Z" fill="#F25132"/>
<path d="M114.405 16.4328H108.531L112.685 12.306L111.077 10.7095L106.925 14.8354V9.00002H104.651V14.8342L100.5 10.7095L98.8923 12.306L103.046 16.4328H97.1719V18.6903H103.045L98.8923 22.8168L100.5 24.4128L104.651 20.2883V26.1223H106.925V20.2869L111.077 24.4128L112.685 22.8168L108.532 18.6903H114.405V16.4328Z" fill="#7A9696"/>
<path d="M8.64104 52.4526L7.69062 51.5045L4.51286 54.6713L3.3492 53.515L2.39575 54.4623L4.50821 56.5614L4.5128 56.5568L4.51776 56.5618L8.64104 52.4526" fill="white"/>
</g>
<defs>
<clipPath id="clip0_17:103">
<rect width="135" height="59" fill="white"/>
</clipPath>
</defs>
</svg>
