<svg width="108" height="50" viewBox="0 0 108 50" fill="none" xmlns="http://www.w3.org/2000/svg">
<g clip-path="url(#clip0_17:18)">
<path d="M28.2282 9.28439H39.1042V11.2995H34.8278V22.6271H32.4762V11.2995H28.2188V9.28439H28.2282ZM38.6396 12.9661H40.6498V14.8305H40.6877C40.7541 14.5669 40.8774 14.3126 41.0575 14.0678C41.2377 13.823 41.4558 13.5876 41.7118 13.3899C41.9678 13.1827 42.2523 13.0226 42.5652 12.8908C42.8781 12.7684 43.2005 12.7025 43.5229 12.7025C43.7694 12.7025 43.9496 12.7119 44.0444 12.7213C44.1392 12.7307 44.2341 12.7496 44.3384 12.759V14.8117C44.1866 14.7834 44.0349 14.7646 43.8737 14.7458C43.7125 14.727 43.5608 14.7175 43.4091 14.7175C43.0488 14.7175 42.7074 14.7929 42.385 14.9341C42.0626 15.0754 41.7877 15.2919 41.5506 15.565C41.3136 15.8475 41.1239 16.1865 40.9817 16.6008C40.8395 17.0151 40.7731 17.4859 40.7731 18.0226V22.6177H38.6301V12.9661H38.6396ZM54.1903 22.6271H52.0852V21.2806H52.0473C51.7818 21.7703 51.3931 22.1563 50.8715 22.4482C50.35 22.7401 49.819 22.8908 49.2785 22.8908C47.9985 22.8908 47.0692 22.5801 46.5003 21.9492C45.9314 21.3183 45.6469 20.3672 45.6469 19.0961V12.9661H47.7898V18.8889C47.7898 19.7364 47.951 20.339 48.2829 20.6874C48.6053 21.0358 49.0699 21.2147 49.6578 21.2147C50.113 21.2147 50.4828 21.1488 50.7862 21.0075C51.0896 20.8663 51.3362 20.6874 51.5163 20.452C51.706 20.226 51.8387 19.9435 51.9241 19.6234C52.0094 19.3032 52.0473 18.9548 52.0473 18.5782V12.9755H54.1903V22.6271ZM57.8409 19.5292C57.9073 20.1507 58.1443 20.5838 58.5521 20.8381C58.9693 21.0829 59.4623 21.2147 60.0408 21.2147C60.2399 21.2147 60.4674 21.1959 60.7235 21.1676C60.9795 21.1394 61.226 21.0735 61.4441 20.9887C61.6717 20.904 61.8518 20.7721 62.0035 20.6027C62.1458 20.4332 62.2122 20.2166 62.2027 19.9435C62.1932 19.6705 62.0889 19.4445 61.8992 19.275C61.7096 19.0961 61.4726 18.9642 61.1786 18.8512C60.8847 18.7477 60.5528 18.6535 60.1735 18.5782C59.7942 18.5028 59.4149 18.4181 59.0262 18.3334C58.6279 18.2486 58.2391 18.1356 57.8693 18.0132C57.4995 17.8908 57.1677 17.7213 56.8737 17.5047C56.5798 17.2976 56.3427 17.0245 56.172 16.6949C55.9919 16.3654 55.9065 15.9605 55.9065 15.4708C55.9065 14.9435 56.0393 14.5104 56.2953 14.1526C56.5513 13.7947 56.8832 13.5123 57.272 13.2957C57.6702 13.0791 58.1064 12.9285 58.59 12.8343C59.0736 12.7496 59.5382 12.7025 59.9744 12.7025C60.4769 12.7025 60.9605 12.759 61.4157 12.8625C61.8708 12.9661 62.288 13.1356 62.6578 13.3804C63.0276 13.6158 63.331 13.9266 63.5776 14.3032C63.8241 14.6799 63.9758 15.1413 64.0422 15.678H61.8044C61.7001 15.1695 61.4725 14.8211 61.1027 14.6516C60.7329 14.4727 60.3062 14.388 59.8321 14.388C59.6804 14.388 59.5003 14.3974 59.2917 14.4256C59.0831 14.4539 58.8934 14.501 58.7038 14.5669C58.5236 14.6328 58.3719 14.7364 58.2391 14.8682C58.1159 15 58.0495 15.1695 58.0495 15.3861C58.0495 15.6497 58.1443 15.8569 58.3245 16.017C58.5046 16.177 58.7417 16.3089 59.0356 16.4219C59.3296 16.5254 59.6615 16.6196 60.0408 16.6949C60.42 16.7703 60.8088 16.855 61.2071 16.9398C61.5958 17.0245 61.9751 17.1375 62.3544 17.2599C62.7337 17.3823 63.0655 17.5518 63.3595 17.7684C63.6534 17.985 63.8905 18.2486 64.0707 18.5688C64.2508 18.8889 64.3456 19.2938 64.3456 19.7646C64.3456 20.339 64.2129 20.8192 63.9474 21.2241C63.6819 21.6196 63.3405 21.9492 62.9233 22.194C62.5061 22.4388 62.032 22.6271 61.52 22.7401C61.0079 22.8531 60.4959 22.9096 59.9933 22.9096C59.377 22.9096 58.8081 22.8437 58.2866 22.7025C57.765 22.5612 57.3099 22.3541 56.9306 22.081C56.5513 21.7985 56.2479 21.4501 56.0298 21.0358C55.8117 20.6215 55.6979 20.1224 55.679 19.548H57.8409V19.5292ZM64.9146 12.9661H66.536V10.0659H68.679V12.9661H70.6133V14.5575H68.679V19.7175C68.679 19.9435 68.6884 20.1318 68.7074 20.3013C68.7264 20.4614 68.7738 20.6027 68.8402 20.7156C68.9065 20.8286 69.0108 20.9134 69.1531 20.9699C69.2953 21.0264 69.4755 21.0546 69.722 21.0546C69.8737 21.0546 70.0254 21.0546 70.1771 21.0452C70.3289 21.0358 70.4806 21.017 70.6323 20.9793V22.6271C70.3952 22.6554 70.1582 22.6742 69.9401 22.7025C69.7125 22.7307 69.4849 22.7401 69.2479 22.7401C68.679 22.7401 68.2238 22.6836 67.8825 22.5801C67.5411 22.4765 67.2661 22.3164 67.0765 22.1092C66.8774 21.9021 66.7541 21.6479 66.6782 21.3371C66.6119 21.0264 66.5644 20.6686 66.555 20.2731V14.5763H64.9335V12.9661H64.9146ZM72.1305 12.9661H74.1596V14.275H74.1976C74.501 13.71 74.9182 13.3145 75.4587 13.0697C75.9992 12.8249 76.5776 12.7025 77.2129 12.7025C77.9809 12.7025 78.6447 12.8343 79.2136 13.1074C79.7825 13.371 80.2566 13.7383 80.6359 14.2091C81.0152 14.6799 81.2902 15.226 81.4798 15.8475C81.6695 16.4689 81.7643 17.1375 81.7643 17.8437C81.7643 18.4934 81.679 19.1243 81.5083 19.7269C81.3376 20.339 81.0816 20.8757 80.7402 21.3465C80.3989 21.8173 79.9627 22.1846 79.4317 22.4671C78.9007 22.7495 78.2844 22.8908 77.5637 22.8908C77.2508 22.8908 76.9379 22.8625 76.625 22.806C76.3121 22.7495 76.0086 22.6554 75.7242 22.533C75.4397 22.4106 75.1647 22.2505 74.9277 22.0527C74.6811 21.855 74.482 21.629 74.3113 21.3748H74.2734V26.1959H72.1305V12.9661ZM79.6213 17.806C79.6213 17.3729 79.5644 16.9492 79.4507 16.5349C79.3369 16.1205 79.1662 15.7627 78.9386 15.4426C78.711 15.1224 78.4266 14.8682 78.0947 14.6799C77.7534 14.4915 77.3646 14.388 76.9284 14.388C76.0276 14.388 75.3449 14.6987 74.8898 15.3202C74.4346 15.9416 74.207 16.7703 74.207 17.806C74.207 18.2957 74.2639 18.7477 74.3872 19.162C74.5105 19.5763 74.6811 19.9341 74.9277 20.2354C75.1647 20.5367 75.4492 20.7721 75.7811 20.9416C76.1129 21.1205 76.5017 21.2053 76.9379 21.2053C77.431 21.2053 77.8387 21.1017 78.1801 20.904C78.5214 20.7062 78.7964 20.4426 79.0145 20.1318C79.2326 19.8117 79.3938 19.4539 79.4886 19.049C79.5739 18.6441 79.6213 18.2298 79.6213 17.806ZM83.4047 9.28439H85.5477V11.2995H83.4047V9.28439ZM83.4047 12.9661H85.5477V22.6271H83.4047V12.9661ZM87.463 9.28439H89.606V22.6271H87.463V9.28439ZM96.1771 22.8908C95.3996 22.8908 94.7074 22.759 94.1005 22.5047C93.4937 22.2505 92.9816 21.8927 92.5549 21.4501C92.1377 20.9981 91.8153 20.4614 91.5973 19.8399C91.3792 19.2185 91.2654 18.5311 91.2654 17.7872C91.2654 17.0528 91.3792 16.3748 91.5973 15.7533C91.8153 15.1318 92.1377 14.5951 92.5549 14.1431C92.9722 13.6912 93.4937 13.3428 94.1005 13.0885C94.7074 12.8343 95.3996 12.7025 96.1771 12.7025C96.9546 12.7025 97.6468 12.8343 98.2537 13.0885C98.8606 13.3428 99.3726 13.7006 99.7993 14.1431C100.217 14.5951 100.539 15.1318 100.757 15.7533C100.975 16.3748 101.089 17.0528 101.089 17.7872C101.089 18.5311 100.975 19.2185 100.757 19.8399C100.539 20.4614 100.217 20.9981 99.7993 21.4501C99.3821 21.9021 98.8606 22.2505 98.2537 22.5047C97.6468 22.759 96.9546 22.8908 96.1771 22.8908ZM96.1771 21.2053C96.6512 21.2053 97.0684 21.1017 97.4193 20.904C97.7701 20.7062 98.0546 20.4426 98.2821 20.1224C98.5097 19.8023 98.6709 19.435 98.7847 19.0301C98.889 18.6253 98.9459 18.2109 98.9459 17.7872C98.9459 17.3729 98.889 16.968 98.7847 16.5537C98.6804 16.1394 98.5097 15.7816 98.2821 15.4614C98.0546 15.1413 97.7701 14.887 97.4193 14.6893C97.0684 14.4915 96.6512 14.388 96.1771 14.388C95.703 14.388 95.2858 14.4915 94.935 14.6893C94.5841 14.887 94.2997 15.1507 94.0721 15.4614C93.8445 15.7816 93.6833 16.1394 93.5695 16.5537C93.4652 16.968 93.4083 17.3729 93.4083 17.7872C93.4083 18.2109 93.4652 18.6253 93.5695 19.0301C93.6738 19.435 93.8445 19.8023 94.0721 20.1224C94.2997 20.4426 94.5841 20.7062 94.935 20.904C95.2858 21.1111 95.703 21.2053 96.1771 21.2053ZM101.715 12.9661H103.336V10.0659H105.479V12.9661H107.413V14.5575H105.479V19.7175C105.479 19.9435 105.489 20.1318 105.508 20.3013C105.526 20.4614 105.574 20.6027 105.64 20.7156C105.707 20.8286 105.811 20.9134 105.953 20.9699C106.095 21.0264 106.276 21.0546 106.522 21.0546C106.674 21.0546 106.826 21.0546 106.977 21.0452C107.129 21.0358 107.281 21.017 107.432 20.9793V22.6271C107.195 22.6554 106.958 22.6742 106.74 22.7025C106.513 22.7307 106.285 22.7401 106.048 22.7401C105.479 22.7401 105.024 22.6836 104.683 22.5801C104.341 22.4765 104.066 22.3164 103.877 22.1092C103.677 21.9021 103.554 21.6479 103.478 21.3371C103.412 21.0264 103.365 20.6686 103.355 20.2731V14.5763H101.734V12.9661H101.715Z" fill="#191919"/>
<path d="M25.725 9.28437H15.9015L12.8672 0L9.82348 9.28437L0 9.27495L7.9555 15.0188L4.91174 24.2938L12.8672 18.5593L20.8133 24.2938L17.779 15.0188L25.725 9.28437Z" fill="#00B67A"/>
<path d="M18.4616 17.1186L17.7789 15.0188L12.8672 18.5593L18.4616 17.1186Z" fill="#005128"/>
<path d="M20.1021 30.0377H0V50H20.1021V30.0377Z" fill="#00B67A"/>
<path d="M41.9109 30.0377H21.8088V50H41.9109V30.0377Z" fill="#00B67A"/>
<path d="M63.625 30.0377H43.5229V50H63.625V30.0377Z" fill="#00B67A"/>
<path d="M85.4339 30.0377H65.3318V50H85.4339V30.0377Z" fill="#00B67A"/>
<path d="M107.243 30.0377H97.1917V50H107.243V30.0377Z" fill="#DCDCE6"/>
<path d="M97.1917 30.0377H87.1406V50H97.1917V30.0377Z" fill="#00B67A"/>
<path d="M10.0509 43.4803L13.0999 42.7134L14.3738 46.6102L10.0509 43.4803ZM17.0677 38.4435H11.7007L10.0509 33.4275L8.40117 38.4435H3.03418L7.37789 41.5527L5.72812 46.5687L10.0718 43.4596L12.7449 41.5527L17.0677 38.4435Z" fill="white"/>
<path d="M31.86 43.4803L34.909 42.7134L36.1828 46.6102L31.86 43.4803ZM38.8768 38.4435H33.5098L31.86 33.4275L30.2102 38.4435H24.8433L29.187 41.5527L27.5372 46.5687L31.8809 43.4596L34.554 41.5527L38.8768 38.4435Z" fill="white"/>
<path d="M53.5739 43.4803L56.6229 42.7134L57.8967 46.6102L53.5739 43.4803ZM60.5907 38.4435H55.2237L53.5739 33.4275L51.9241 38.4435H46.5571L50.9008 41.5527L49.2511 46.5687L53.5948 43.4596L56.2678 41.5527L60.5907 38.4435Z" fill="white"/>
<path d="M75.3827 43.4803L78.4317 42.7134L79.7056 46.6102L75.3827 43.4803ZM82.3995 38.4435H77.0325L75.3827 33.4275L73.733 38.4435H68.366L72.7097 41.5527L71.0599 46.5687L75.4036 43.4596L78.0767 41.5527L82.3995 38.4435Z" fill="white"/>
<path d="M97.1918 43.4803L100.241 42.7134L101.515 46.6102L97.1918 43.4803ZM104.209 38.4435H98.8416L97.1918 33.4275L95.542 38.4435H90.175L94.5188 41.5527L92.869 46.5687L97.2127 43.4596L99.8858 41.5527L104.209 38.4435Z" fill="white"/>
</g>
<defs>
<clipPath id="clip0_17:18">
<rect width="107.432" height="50" fill="white"/>
</clipPath>
</defs>
</svg>
